{
 "cells": [
  {
   "cell_type": "code",
   "execution_count": 10,
   "metadata": {},
   "outputs": [],
   "source": [
    "# needs mido, python-rtmidi, rtmidi\n",
    "# https://hearandknow.wordpress.com/2010/05/09/iac-get-virtual-midi-ports-on-a-mac/\n",
    "# https://github.com/olemb/mido/issues/88"
   ]
  },
  {
   "cell_type": "code",
   "execution_count": 5,
   "metadata": {},
   "outputs": [],
   "source": [
    "from mido import MidiFile\n",
    "import mido"
   ]
  },
  {
   "cell_type": "code",
   "execution_count": 34,
   "metadata": {},
   "outputs": [],
   "source": [
    "mid = MidiFile('bwv0529_bksn51sb.mid')\n",
    "mid = MidiFile('/Users/yingzhang/transfer/Desktop/download/cnt1.mid')"
   ]
  },
  {
   "cell_type": "code",
   "execution_count": 3,
   "metadata": {},
   "outputs": [
    {
     "name": "stdout",
     "output_type": "stream",
     "text": [
      "Track 0: \n",
      "<meta message midi_port port=0 time=0>\n",
      "sysex data=(65,16,66,18,64,0,127,0,65) time=0\n",
      "<meta message midi_port port=0 time=0>\n",
      "<meta message time_signature numerator=3 denominator=4 clocks_per_click=24 notated_32nd_notes_per_beat=8 time=0>\n",
      "<meta message key_signature key='C' time=0>\n",
      "<meta message set_tempo tempo=705882 time=0>\n",
      "<meta message set_tempo tempo=705882 time=55620>\n",
      "<meta message set_tempo tempo=714286 time=5>\n",
      "<meta message set_tempo tempo=722892 time=5>\n",
      "<meta message set_tempo tempo=731707 time=5>\n",
      "<meta message set_tempo tempo=740741 time=5>\n",
      "<meta message set_tempo tempo=750000 time=5>\n",
      "<meta message set_tempo tempo=759494 time=5>\n",
      "<meta message set_tempo tempo=769231 time=6>\n",
      "<meta message set_tempo tempo=779221 time=5>\n",
      "<meta message set_tempo tempo=789474 time=5>\n",
      "<meta message set_tempo tempo=800000 time=5>\n",
      "<meta message set_tempo tempo=810811 time=5>\n",
      "<meta message set_tempo tempo=821918 time=5>\n",
      "<meta message set_tempo tempo=833333 time=5>\n",
      "<meta message set_tempo tempo=845070 time=6>\n",
      "<meta message set_tempo tempo=857143 time=5>\n",
      "<meta message set_tempo tempo=869565 time=5>\n",
      "<meta message set_tempo tempo=882353 time=5>\n",
      "<meta message set_tempo tempo=895522 time=5>\n",
      "<meta message set_tempo tempo=909091 time=5>\n",
      "<meta message set_tempo tempo=923077 time=5>\n",
      "<meta message set_tempo tempo=937500 time=6>\n",
      "<meta message set_tempo tempo=952381 time=5>\n",
      "<meta message set_tempo tempo=967742 time=5>\n",
      "<meta message set_tempo tempo=983607 time=5>\n",
      "<meta message set_tempo tempo=1000000 time=5>\n",
      "<meta message set_tempo tempo=1016949 time=5>\n",
      "<meta message set_tempo tempo=1034483 time=5>\n",
      "<meta message set_tempo tempo=1052632 time=6>\n",
      "<meta message set_tempo tempo=1071429 time=5>\n",
      "<meta message set_tempo tempo=1090909 time=5>\n",
      "<meta message set_tempo tempo=1111111 time=5>\n",
      "<meta message set_tempo tempo=1132075 time=5>\n",
      "<meta message set_tempo tempo=1153846 time=5>\n",
      "<meta message set_tempo tempo=1176471 time=5>\n",
      "<meta message set_tempo tempo=2000000 time=6>\n",
      "<meta message end_of_track time=0>\n",
      "Track 1: Swell LH\n",
      "<meta message midi_port port=0 time=0>\n",
      "<meta message track_name name='Swell LH' time=0>\n",
      "program_change channel=0 program=6 time=0\n",
      "control_change channel=0 control=7 value=110 time=0\n",
      "control_change channel=0 control=10 value=75 time=0\n",
      "control_change channel=0 control=91 value=65 time=775\n",
      "note_on channel=0 note=64 velocity=98 time=5\n",
      "note_on channel=0 note=64 velocity=0 time=28\n",
      "note_on channel=0 note=60 velocity=87 time=32\n",
      "note_on channel=0 note=60 velocity=0 time=32\n",
      "note_on channel=0 note=64 velocity=82 time=28\n",
      "note_on channel=0 note=64 velocity=0 time=45\n",
      "note_on channel=0 note=65 velocity=107 time=15\n",
      "note_on channel=0 note=64 velocity=107 time=60\n",
      "note_on channel=0 note=65 velocity=0 time=3\n",
      "note_on channel=0 note=62 velocity=102 time=27\n",
      "note_on channel=0 note=64 velocity=0 time=2\n",
      "note_on channel=0 note=64 velocity=98 time=28\n",
      "note_on channel=0 note=62 velocity=0 time=3\n",
      "note_on channel=0 note=60 velocity=98 time=27\n",
      "note_on channel=0 note=64 velocity=0 time=4\n",
      "note_on channel=0 note=59 velocity=85 time=26\n",
      "note_on channel=0 note=60 velocity=0 time=2\n",
      "note_on channel=0 note=60 velocity=102 time=28\n",
      "note_on channel=0 note=59 velocity=0 time=2\n",
      "note_on channel=0 note=64 velocity=102 time=28\n",
      "note_on channel=0 note=60 velocity=0 time=2\n",
      "note_on channel=0 note=60 velocity=95 time=28\n",
      "note_on channel=0 note=64 velocity=0 time=4\n",
      "note_on channel=0 note=60 velocity=0 time=24\n",
      "note_on channel=0 note=59 velocity=87 time=2\n",
      "note_on channel=0 note=59 velocity=0 time=28\n",
      "note_on channel=0 note=60 velocity=85 time=2\n",
      "note_on channel=0 note=55 velocity=87 time=30\n",
      "note_on channel=0 note=60 velocity=0 time=3\n",
      "note_on channel=0 note=60 velocity=85 time=27\n",
      "note_on channel=0 note=55 velocity=0 time=4\n",
      "note_on channel=0 note=60 velocity=0 time=26\n",
      "note_on channel=0 note=52 velocity=82 time=0\n",
      "note_on channel=0 note=55 velocity=85 time=30\n",
      "note_on channel=0 note=52 velocity=0 time=6\n",
      "note_on channel=0 note=55 velocity=0 time=21\n",
      "note_on channel=0 note=48 velocity=85 time=3\n",
      "note_on channel=0 note=48 velocity=0 time=32\n",
      "note_on channel=0 note=67 velocity=98 time=28\n",
      "note_on channel=0 note=67 velocity=0 time=17\n",
      "note_on channel=0 note=64 velocity=89 time=43\n",
      "note_on channel=0 note=64 velocity=0 time=22\n",
      "note_on channel=0 note=67 velocity=89 time=38\n",
      "note_on channel=0 note=67 velocity=0 time=31\n",
      "note_on channel=0 note=69 velocity=98 time=29\n",
      "note_on channel=0 note=67 velocity=95 time=60\n",
      "note_on channel=0 note=69 velocity=0 time=2\n",
      "note_on channel=0 note=67 velocity=0 time=28\n",
      "note_on channel=0 note=65 velocity=95 time=0\n",
      "note_on channel=0 note=67 velocity=95 time=30\n",
      "note_on channel=0 note=65 velocity=0 time=2\n",
      "note_on channel=0 note=64 velocity=82 time=28\n",
      "note_on channel=0 note=67 velocity=0 time=5\n",
      "note_on channel=0 note=64 velocity=0 time=25\n",
      "note_on channel=0 note=60 velocity=80 time=0\n",
      "note_on channel=0 note=64 velocity=80 time=30\n",
      "note_on channel=0 note=60 velocity=0 time=3\n",
      "note_on channel=0 note=69 velocity=85 time=27\n",
      "note_on channel=0 note=64 velocity=0 time=3\n",
      "note_on channel=0 note=64 velocity=85 time=27\n",
      "note_on channel=0 note=69 velocity=0 time=3\n",
      "note_on channel=0 note=64 velocity=0 time=26\n",
      "note_on channel=0 note=60 velocity=72 time=1\n",
      "note_on channel=0 note=64 velocity=82 time=30\n",
      "note_on channel=0 note=60 velocity=0 time=4\n",
      "note_on channel=0 note=64 velocity=0 time=24\n",
      "note_on channel=0 note=72 velocity=110 time=2\n",
      "note_on channel=0 note=72 velocity=0 time=145\n",
      "note_on channel=0 note=65 velocity=91 time=5\n",
      "note_on channel=0 note=62 velocity=87 time=30\n",
      "note_on channel=0 note=65 velocity=0 time=1\n",
      "note_on channel=0 note=65 velocity=89 time=29\n",
      "note_on channel=0 note=62 velocity=0 time=4\n",
      "note_on channel=0 note=71 velocity=95 time=26\n",
      "note_on channel=0 note=65 velocity=0 time=2\n",
      "note_on channel=0 note=65 velocity=85 time=28\n",
      "note_on channel=0 note=71 velocity=0 time=2\n",
      "note_on channel=0 note=65 velocity=0 time=27\n",
      "note_on channel=0 note=62 velocity=70 time=1\n",
      "note_on channel=0 note=62 velocity=0 time=29\n",
      "note_on channel=0 note=65 velocity=87 time=1\n",
      "note_on channel=0 note=65 velocity=0 time=28\n",
      "note_on channel=0 note=74 velocity=107 time=2\n",
      "note_on channel=0 note=74 velocity=0 time=133\n",
      "note_on channel=0 note=67 velocity=105 time=17\n",
      "note_on channel=0 note=67 velocity=0 time=30\n",
      "note_on channel=0 note=64 velocity=85 time=0\n",
      "note_on channel=0 note=67 velocity=87 time=30\n",
      "note_on channel=0 note=64 velocity=0 time=7\n",
      "note_on channel=0 note=72 velocity=93 time=23\n",
      "note_on channel=0 note=67 velocity=0 time=3\n",
      "note_on channel=0 note=67 velocity=80 time=27\n",
      "note_on channel=0 note=72 velocity=0 time=7\n",
      "note_on channel=0 note=64 velocity=80 time=23\n",
      "note_on channel=0 note=67 velocity=0 time=2\n",
      "note_on channel=0 note=67 velocity=85 time=28\n",
      "note_on channel=0 note=64 velocity=0 time=3\n",
      "note_on channel=0 note=67 velocity=0 time=24\n",
      "note_on channel=0 note=76 velocity=105 time=3\n",
      "note_on channel=0 note=76 velocity=0 time=143\n",
      "note_on channel=0 note=74 velocity=91 time=37\n",
      "note_on channel=0 note=72 velocity=107 time=30\n",
      "note_on channel=0 note=74 velocity=0 time=2\n",
      "note_on channel=0 note=72 velocity=0 time=27\n",
      "note_on channel=0 note=74 velocity=105 time=1\n",
      "note_on channel=0 note=74 velocity=0 time=35\n",
      "note_on channel=0 note=69 velocity=93 time=25\n",
      "note_on channel=0 note=69 velocity=0 time=37\n",
      "note_on channel=0 note=77 velocity=105 time=23\n",
      "note_on channel=0 note=77 velocity=0 time=161\n",
      "note_on channel=0 note=74 velocity=102 time=19\n",
      "note_on channel=0 note=71 velocity=102 time=60\n",
      "note_on channel=0 note=74 velocity=0 time=2\n",
      "note_on channel=0 note=71 velocity=0 time=55\n",
      "note_on channel=0 note=74 velocity=102 time=3\n",
      "note_on channel=0 note=67 velocity=85 time=60\n",
      "note_on channel=0 note=74 velocity=0 time=2\n",
      "note_on channel=0 note=67 velocity=0 time=53\n",
      "note_on channel=0 note=71 velocity=80 time=5\n",
      "note_on channel=0 note=71 velocity=0 time=54\n",
      "note_on channel=0 note=72 velocity=87 time=6\n",
      "note_on channel=0 note=74 velocity=105 time=30\n",
      "note_on channel=0 note=72 velocity=0 time=3\n",
      "note_on channel=0 note=75 velocity=105 time=27\n",
      "note_on channel=0 note=74 velocity=0 time=8\n",
      "note_on channel=0 note=77 velocity=98 time=22\n",
      "note_on channel=0 note=75 velocity=0 time=4\n",
      "note_on channel=0 note=75 velocity=110 time=26\n",
      "note_on channel=0 note=77 velocity=0 time=12\n",
      "note_on channel=0 note=74 velocity=105 time=18\n",
      "note_on channel=0 note=75 velocity=0 time=4\n",
      "note_on channel=0 note=72 velocity=78 time=26\n",
      "note_on channel=0 note=74 velocity=0 time=3\n",
      "note_on channel=0 note=70 velocity=95 time=27\n",
      "note_on channel=0 note=72 velocity=0 time=2\n",
      "note_on channel=0 note=69 velocity=89 time=28\n",
      "note_on channel=0 note=70 velocity=0 time=8\n",
      "note_on channel=0 note=69 velocity=0 time=21\n",
      "note_on channel=0 note=67 velocity=70 time=1\n",
      "note_on channel=0 note=66 velocity=107 time=30\n",
      "note_on channel=0 note=67 velocity=0 time=6\n",
      "note_on channel=0 note=64 velocity=100 time=24\n",
      "note_on channel=0 note=66 velocity=0 time=1\n",
      "note_on channel=0 note=66 velocity=110 time=29\n",
      "note_on channel=0 note=64 velocity=0 time=11\n",
      "note_on channel=0 note=66 velocity=0 time=21\n",
      "note_on channel=0 note=60 velocity=100 time=28\n",
      "note_on channel=0 note=60 velocity=0 time=38\n",
      "note_on channel=0 note=69 velocity=85 time=22\n",
      "note_on channel=0 note=69 velocity=0 time=34\n",
      "note_on channel=0 note=66 velocity=85 time=26\n",
      "note_on channel=0 note=66 velocity=0 time=41\n",
      "note_on channel=0 note=72 velocity=107 time=19\n",
      "note_on channel=0 note=72 velocity=0 time=127\n",
      "note_on channel=0 note=71 velocity=113 time=23\n",
      "note_on channel=0 note=69 velocity=100 time=30\n",
      "note_on channel=0 note=71 velocity=0 time=4\n",
      "note_on channel=0 note=71 velocity=87 time=26\n",
      "note_on channel=0 note=69 velocity=0 time=4\n",
      "note_on channel=0 note=67 velocity=89 time=26\n",
      "note_on channel=0 note=71 velocity=0 time=2\n",
      "note_on channel=0 note=67 velocity=0 time=27\n",
      "note_on channel=0 note=76 velocity=93 time=1\n",
      "note_on channel=0 note=74 velocity=89 time=30\n",
      "note_on channel=0 note=76 velocity=0 time=6\n",
      "note_on channel=0 note=72 velocity=105 time=24\n",
      "note_on channel=0 note=74 velocity=0 time=10\n",
      "note_on channel=0 note=71 velocity=100 time=20\n",
      "note_on channel=0 note=72 velocity=0 time=5\n",
      "note_on channel=0 note=71 velocity=0 time=25\n",
      "note_on channel=0 note=69 velocity=85 time=0\n",
      "note_on channel=0 note=69 velocity=0 time=20\n",
      "note_on channel=0 note=67 velocity=85 time=10\n",
      "note_on channel=0 note=66 velocity=74 time=30\n",
      "note_on channel=0 note=67 velocity=0 time=6\n",
      "note_on channel=0 note=64 velocity=102 time=24\n",
      "note_on channel=0 note=66 velocity=0 time=6\n",
      "note_on channel=0 note=66 velocity=102 time=24\n",
      "note_on channel=0 note=64 velocity=0 time=5\n",
      "note_on channel=0 note=62 velocity=91 time=25\n",
      "note_on channel=0 note=66 velocity=0 time=4\n",
      "note_on channel=0 note=64 velocity=93 time=26\n",
      "note_on channel=0 note=62 velocity=0 time=1\n",
      "note_on channel=0 note=64 velocity=0 time=27\n",
      "note_on channel=0 note=60 velocity=80 time=2\n",
      "note_on channel=0 note=60 velocity=0 time=26\n",
      "note_on channel=0 note=74 velocity=87 time=4\n",
      "note_on channel=0 note=72 velocity=95 time=30\n",
      "note_on channel=0 note=74 velocity=0 time=5\n",
      "note_on channel=0 note=71 velocity=102 time=25\n",
      "note_on channel=0 note=72 velocity=0 time=10\n",
      "note_on channel=0 note=69 velocity=95 time=20\n",
      "note_on channel=0 note=71 velocity=0 time=5\n",
      "note_on channel=0 note=69 velocity=0 time=21\n",
      "note_on channel=0 note=67 velocity=72 time=4\n",
      "note_on channel=0 note=66 velocity=102 time=30\n",
      "note_on channel=0 note=67 velocity=0 time=4\n",
      "note_on channel=0 note=64 velocity=98 time=26\n",
      "note_on channel=0 note=66 velocity=0 time=4\n",
      "note_on channel=0 note=62 velocity=82 time=26\n",
      "note_on channel=0 note=64 velocity=0 time=2\n",
      "note_on channel=0 note=64 velocity=85 time=28\n",
      "note_on channel=0 note=62 velocity=0 time=3\n",
      "note_on channel=0 note=60 velocity=80 time=27\n",
      "note_on channel=0 note=64 velocity=0 time=7\n",
      "note_on channel=0 note=60 velocity=0 time=23\n",
      "note_on channel=0 note=62 velocity=89 time=0\n",
      "note_on channel=0 note=62 velocity=0 time=30\n",
      "note_on channel=0 note=59 velocity=82 time=0\n",
      "note_on channel=0 note=59 velocity=0 time=27\n",
      "note_on channel=0 note=72 velocity=95 time=3\n",
      "note_on channel=0 note=71 velocity=98 time=30\n",
      "note_on channel=0 note=72 velocity=0 time=9\n",
      "note_on channel=0 note=69 velocity=98 time=21\n",
      "note_on channel=0 note=71 velocity=0 time=9\n",
      "note_on channel=0 note=69 velocity=0 time=20\n",
      "note_on channel=0 note=67 velocity=80 time=1\n",
      "note_on channel=0 note=66 velocity=105 time=30\n",
      "note_on channel=0 note=67 velocity=0 time=5\n",
      "note_on channel=0 note=64 velocity=85 time=25\n",
      "note_on channel=0 note=66 velocity=0 time=4\n",
      "note_on channel=0 note=64 velocity=0 time=22\n",
      "note_on channel=0 note=62 velocity=76 time=4\n",
      "note_on channel=0 note=60 velocity=105 time=30\n",
      "note_on channel=0 note=62 velocity=0 time=3\n",
      "note_on channel=0 note=60 velocity=0 time=40\n",
      "note_on channel=0 note=64 velocity=105 time=17\n",
      "note_on channel=0 note=64 velocity=0 time=93\n",
      "note_on channel=0 note=69 velocity=113 time=27\n",
      "note_on channel=0 note=69 velocity=0 time=95\n",
      "note_on channel=0 note=72 velocity=105 time=25\n",
      "note_on channel=0 note=72 velocity=0 time=82\n",
      "note_on channel=0 note=67 velocity=110 time=8\n",
      "note_on channel=0 note=69 velocity=102 time=30\n",
      "note_on channel=0 note=67 velocity=0 time=6\n",
      "note_on channel=0 note=69 velocity=0 time=23\n",
      "note_on channel=0 note=66 velocity=107 time=1\n",
      "note_on channel=0 note=67 velocity=102 time=30\n",
      "note_on channel=0 note=66 velocity=0 time=6\n",
      "note_on channel=0 note=67 velocity=0 time=53\n",
      "note_on channel=0 note=69 velocity=102 time=1\n",
      "note_on channel=0 note=62 velocity=93 time=60\n",
      "note_on channel=0 note=69 velocity=0 time=5\n",
      "note_on channel=0 note=62 velocity=0 time=52\n",
      "note_on channel=0 note=66 velocity=110 time=3\n",
      "note_on channel=0 note=66 velocity=0 time=63\n",
      "note_on channel=0 note=67 velocity=95 time=27\n",
      "note_on channel=0 note=66 velocity=89 time=30\n",
      "note_on channel=0 note=67 velocity=0 time=1\n",
      "note_on channel=0 note=67 velocity=85 time=29\n",
      "note_on channel=0 note=66 velocity=0 time=5\n",
      "note_on channel=0 note=67 velocity=0 time=23\n",
      "note_on channel=0 note=71 velocity=100 time=2\n",
      "note_on channel=0 note=67 velocity=100 time=30\n",
      "note_on channel=0 note=71 velocity=0 time=6\n",
      "note_on channel=0 note=66 velocity=105 time=24\n",
      "note_on channel=0 note=67 velocity=0 time=4\n",
      "note_on channel=0 note=66 velocity=0 time=25\n",
      "note_on channel=0 note=67 velocity=85 time=1\n",
      "note_on channel=0 note=62 velocity=105 time=30\n",
      "note_on channel=0 note=67 velocity=0 time=5\n",
      "note_on channel=0 note=67 velocity=100 time=25\n",
      "note_on channel=0 note=62 velocity=0 time=3\n",
      "note_on channel=0 note=59 velocity=102 time=27\n",
      "note_on channel=0 note=67 velocity=0 time=12\n",
      "note_on channel=0 note=62 velocity=93 time=18\n",
      "note_on channel=0 note=59 velocity=0 time=3\n",
      "note_on channel=0 note=55 velocity=102 time=27\n",
      "note_on channel=0 note=62 velocity=0 time=1\n",
      "note_on channel=0 note=55 velocity=0 time=38\n",
      "note_on channel=0 note=74 velocity=100 time=21\n",
      "note_on channel=0 note=74 velocity=0 time=22\n",
      "note_on channel=0 note=71 velocity=91 time=38\n",
      "note_on channel=0 note=71 velocity=0 time=31\n",
      "note_on channel=0 note=74 velocity=102 time=29\n",
      "note_on channel=0 note=74 velocity=0 time=30\n",
      "note_on channel=0 note=76 velocity=107 time=30\n",
      "note_on channel=0 note=76 velocity=0 time=56\n",
      "note_on channel=0 note=74 velocity=102 time=4\n",
      "note_on channel=0 note=74 velocity=0 time=26\n",
      "note_on channel=0 note=72 velocity=105 time=4\n",
      "note_on channel=0 note=72 velocity=0 time=22\n",
      "note_on channel=0 note=74 velocity=102 time=8\n",
      "note_on channel=0 note=74 velocity=0 time=105\n",
      "note_on channel=0 note=67 velocity=110 time=2655\n",
      "note_on channel=0 note=67 velocity=0 time=141\n",
      "note_on channel=0 note=65 velocity=102 time=9\n",
      "note_on channel=0 note=67 velocity=46 time=0\n",
      "note_on channel=0 note=67 velocity=0 time=3\n",
      "note_on channel=0 note=64 velocity=102 time=27\n",
      "note_on channel=0 note=65 velocity=0 time=9\n",
      "note_on channel=0 note=62 velocity=89 time=21\n",
      "note_on channel=0 note=64 velocity=0 time=1\n",
      "note_on channel=0 note=61 velocity=110 time=29\n",
      "note_on channel=0 note=62 velocity=0 time=4\n",
      "note_on channel=0 note=61 velocity=0 time=24\n",
      "note_on channel=0 note=64 velocity=85 time=2\n",
      "note_on channel=0 note=58 velocity=110 time=30\n",
      "note_on channel=0 note=64 velocity=0 time=3\n",
      "note_on channel=0 note=57 velocity=100 time=27\n",
      "note_on channel=0 note=58 velocity=0 time=4\n",
      "note_on channel=0 note=58 velocity=102 time=26\n",
      "note_on channel=0 note=57 velocity=0 time=6\n",
      "note_on channel=0 note=55 velocity=68 time=24\n",
      "note_on channel=0 note=58 velocity=0 time=4\n",
      "note_on channel=0 note=62 velocity=91 time=26\n",
      "note_on channel=0 note=55 velocity=0 time=4\n",
      "note_on channel=0 note=62 velocity=0 time=26\n",
      "note_on channel=0 note=61 velocity=100 time=0\n",
      "note_on channel=0 note=61 velocity=0 time=29\n",
      "note_on channel=0 note=62 velocity=91 time=1\n",
      "note_on channel=0 note=62 velocity=0 time=121\n",
      "note_on channel=0 note=71 velocity=102 time=29\n",
      "note_on channel=0 note=69 velocity=105 time=30\n",
      "note_on channel=0 note=71 velocity=0 time=6\n",
      "note_on channel=0 note=69 velocity=0 time=23\n",
      "note_on channel=0 note=67 velocity=100 time=1\n",
      "note_on channel=0 note=67 velocity=0 time=25\n",
      "note_on channel=0 note=74 velocity=110 time=5\n",
      "note_on channel=0 note=74 velocity=0 time=127\n",
      "note_on channel=0 note=71 velocity=76 time=23\n",
      "note_on channel=0 note=71 velocity=0 time=28\n",
      "note_on channel=0 note=76 velocity=98 time=2\n",
      "note_on channel=0 note=74 velocity=102 time=30\n",
      "note_on channel=0 note=76 velocity=0 time=4\n",
      "note_on channel=0 note=72 velocity=107 time=26\n",
      "note_on channel=0 note=74 velocity=0 time=10\n",
      "note_on channel=0 note=71 velocity=102 time=20\n",
      "note_on channel=0 note=72 velocity=0 time=1\n",
      "note_on channel=0 note=71 velocity=0 time=28\n",
      "note_on channel=0 note=69 velocity=87 time=1\n",
      "note_on channel=0 note=67 velocity=102 time=30\n",
      "note_on channel=0 note=69 velocity=0 time=2\n",
      "note_on channel=0 note=66 velocity=107 time=28\n",
      "note_on channel=0 note=67 velocity=0 time=3\n",
      "note_on channel=0 note=66 velocity=0 time=33\n",
      "note_on channel=0 note=72 velocity=107 time=24\n",
      "note_on channel=0 note=72 velocity=0 time=87\n",
      "note_on channel=0 note=71 velocity=116 time=3\n",
      "note_on channel=0 note=69 velocity=107 time=30\n",
      "note_on channel=0 note=71 velocity=0 time=3\n",
      "note_on channel=0 note=69 velocity=0 time=27\n",
      "note_on channel=0 note=67 velocity=80 time=0\n",
      "note_on channel=0 note=67 velocity=0 time=27\n",
      "note_on channel=0 note=76 velocity=107 time=3\n",
      "note_on channel=0 note=76 velocity=0 time=117\n",
      "note_on channel=0 note=77 velocity=82 time=33\n",
      "note_on channel=0 note=76 velocity=85 time=30\n",
      "note_on channel=0 note=77 velocity=0 time=10\n",
      "note_on channel=0 note=74 velocity=102 time=20\n",
      "note_on channel=0 note=76 velocity=0 time=5\n",
      "note_on channel=0 note=72 velocity=82 time=25\n",
      "note_on channel=0 note=74 velocity=0 time=3\n",
      "note_on channel=0 note=71 velocity=100 time=177\n",
      "note_on channel=0 note=72 velocity=0 time=3\n",
      "note_on channel=0 note=69 velocity=89 time=27\n",
      "note_on channel=0 note=71 velocity=0 time=3\n",
      "note_on channel=0 note=67 velocity=72 time=27\n",
      "note_on channel=0 note=69 velocity=0 time=1\n",
      "note_on channel=0 note=67 velocity=0 time=29\n",
      "note_on channel=0 note=65 velocity=89 time=0\n",
      "note_on channel=0 note=64 velocity=100 time=30\n",
      "note_on channel=0 note=65 velocity=0 time=12\n",
      "note_on channel=0 note=62 velocity=100 time=18\n",
      "note_on channel=0 note=64 velocity=0 time=3\n",
      "note_on channel=0 note=60 velocity=100 time=27\n",
      "note_on channel=0 note=62 velocity=0 time=2\n",
      "note_on channel=0 note=60 velocity=0 time=28\n",
      "note_on channel=0 note=67 velocity=102 time=30\n",
      "note_on channel=0 note=67 velocity=0 time=26\n",
      "note_on channel=0 note=64 velocity=89 time=34\n",
      "note_on channel=0 note=64 velocity=0 time=26\n",
      "note_on channel=0 note=67 velocity=100 time=34\n",
      "note_on channel=0 note=67 velocity=0 time=32\n",
      "note_on channel=0 note=69 velocity=105 time=28\n",
      "note_on channel=0 note=69 velocity=0 time=120\n",
      "note_on channel=0 note=65 velocity=113 time=30\n",
      "note_on channel=0 note=65 velocity=0 time=30\n",
      "note_on channel=0 note=64 velocity=93 time=0\n",
      "note_on channel=0 note=65 velocity=105 time=30\n",
      "note_on channel=0 note=64 velocity=0 time=6\n",
      "note_on channel=0 note=69 velocity=100 time=24\n",
      "note_on channel=0 note=65 velocity=0 time=3\n",
      "note_on channel=0 note=65 velocity=102 time=27\n",
      "note_on channel=0 note=69 velocity=0 time=5\n",
      "note_on channel=0 note=64 velocity=105 time=25\n",
      "note_on channel=0 note=65 velocity=0 time=4\n",
      "note_on channel=0 note=65 velocity=100 time=26\n",
      "note_on channel=0 note=64 velocity=0 time=4\n",
      "note_on channel=0 note=62 velocity=105 time=26\n",
      "note_on channel=0 note=65 velocity=0 time=4\n",
      "note_on channel=0 note=62 velocity=0 time=25\n",
      "note_on channel=0 note=65 velocity=100 time=1\n",
      "note_on channel=0 note=65 velocity=0 time=30\n",
      "note_on channel=0 note=58 velocity=95 time=0\n",
      "note_on channel=0 note=62 velocity=87 time=30\n",
      "note_on channel=0 note=58 velocity=0 time=3\n",
      "note_on channel=0 note=62 velocity=0 time=26\n",
      "note_on channel=0 note=55 velocity=95 time=1\n",
      "note_on channel=0 note=55 velocity=0 time=40\n",
      "note_on channel=0 note=70 velocity=93 time=20\n",
      "note_on channel=0 note=70 velocity=0 time=33\n",
      "note_on channel=0 note=67 velocity=91 time=27\n",
      "note_on channel=0 note=67 velocity=0 time=30\n",
      "note_on channel=0 note=70 velocity=102 time=30\n",
      "note_on channel=0 note=70 velocity=0 time=34\n",
      "note_on channel=0 note=72 velocity=107 time=26\n",
      "note_on channel=0 note=72 velocity=0 time=133\n",
      "note_on channel=0 note=65 velocity=95 time=47\n",
      "note_on channel=0 note=65 velocity=0 time=47\n",
      "note_on channel=0 note=69 velocity=95 time=13\n",
      "note_on channel=0 note=69 velocity=0 time=40\n",
      "note_on channel=0 note=72 velocity=95 time=20\n",
      "note_on channel=0 note=72 velocity=0 time=49\n",
      "note_on channel=0 note=75 velocity=102 time=11\n",
      "note_on channel=0 note=75 velocity=0 time=51\n",
      "note_on channel=0 note=74 velocity=98 time=9\n",
      "note_on channel=0 note=74 velocity=0 time=26\n",
      "note_on channel=0 note=72 velocity=110 time=4\n",
      "note_on channel=0 note=74 velocity=105 time=30\n",
      "note_on channel=0 note=72 velocity=0 time=4\n",
      "note_on channel=0 note=74 velocity=0 time=33\n",
      "note_on channel=0 note=70 velocity=102 time=23\n",
      "note_on channel=0 note=70 velocity=0 time=60\n",
      "note_on channel=0 note=65 velocity=87 time=0\n",
      "note_on channel=0 note=65 velocity=0 time=53\n",
      "note_on channel=0 note=70 velocity=102 time=7\n",
      "note_on channel=0 note=74 velocity=93 time=60\n",
      "note_on channel=0 note=70 velocity=0 time=2\n",
      "note_on channel=0 note=74 velocity=0 time=50\n",
      "note_on channel=0 note=72 velocity=102 time=8\n",
      "note_on channel=0 note=70 velocity=105 time=30\n",
      "note_on channel=0 note=72 velocity=0 time=5\n",
      "note_on channel=0 note=72 velocity=100 time=25\n",
      "note_on channel=0 note=70 velocity=0 time=6\n",
      "note_on channel=0 note=72 velocity=0 time=37\n",
      "note_on channel=0 note=69 velocity=98 time=17\n",
      "note_on channel=0 note=69 velocity=0 time=45\n",
      "note_on channel=0 note=65 velocity=89 time=15\n",
      "note_on channel=0 note=65 velocity=0 time=44\n",
      "note_on channel=0 note=69 velocity=93 time=16\n",
      "note_on channel=0 note=69 velocity=0 time=54\n",
      "note_on channel=0 note=72 velocity=100 time=6\n",
      "note_on channel=0 note=72 velocity=0 time=50\n",
      "note_on channel=0 note=70 velocity=98 time=10\n",
      "note_on channel=0 note=69 velocity=100 time=30\n",
      "note_on channel=0 note=70 velocity=0 time=2\n",
      "note_on channel=0 note=70 velocity=102 time=28\n",
      "note_on channel=0 note=69 velocity=0 time=5\n",
      "note_on channel=0 note=70 velocity=0 time=40\n",
      "note_on channel=0 note=67 velocity=102 time=15\n",
      "note_on channel=0 note=67 velocity=0 time=53\n",
      "note_on channel=0 note=64 velocity=100 time=7\n",
      "note_on channel=0 note=64 velocity=0 time=41\n",
      "note_on channel=0 note=67 velocity=100 time=19\n",
      "note_on channel=0 note=67 velocity=0 time=49\n",
      "note_on channel=0 note=70 velocity=102 time=11\n",
      "note_on channel=0 note=70 velocity=0 time=54\n",
      "note_on channel=0 note=69 velocity=98 time=6\n",
      "note_on channel=0 note=67 velocity=98 time=30\n",
      "note_on channel=0 note=69 velocity=0 time=1\n",
      "note_on channel=0 note=67 velocity=0 time=27\n",
      "note_on channel=0 note=69 velocity=100 time=2\n",
      "note_on channel=0 note=65 velocity=89 time=30\n",
      "note_on channel=0 note=69 velocity=0 time=3\n",
      "note_on channel=0 note=65 velocity=0 time=26\n",
      "note_on channel=0 note=64 velocity=87 time=1\n",
      "note_on channel=0 note=65 velocity=89 time=30\n",
      "note_on channel=0 note=64 velocity=0 time=2\n",
      "note_on channel=0 note=69 velocity=95 time=28\n",
      "note_on channel=0 note=65 velocity=0 time=5\n",
      "note_on channel=0 note=65 velocity=89 time=25\n",
      "note_on channel=0 note=69 velocity=0 time=9\n",
      "note_on channel=0 note=64 velocity=95 time=21\n",
      "note_on channel=0 note=65 velocity=0 time=5\n",
      "note_on channel=0 note=65 velocity=89 time=25\n",
      "note_on channel=0 note=64 velocity=0 time=3\n",
      "note_on channel=0 note=65 velocity=0 time=27\n",
      "note_on channel=0 note=62 velocity=100 time=0\n",
      "note_on channel=0 note=65 velocity=82 time=30\n",
      "note_on channel=0 note=62 velocity=0 time=2\n",
      "note_on channel=0 note=59 velocity=95 time=28\n",
      "note_on channel=0 note=65 velocity=0 time=6\n",
      "note_on channel=0 note=62 velocity=72 time=24\n",
      "note_on channel=0 note=59 velocity=0 time=5\n",
      "note_on channel=0 note=62 velocity=0 time=23\n",
      "note_on channel=0 note=55 velocity=70 time=2\n",
      "note_on channel=0 note=53 velocity=53 time=0\n",
      "note_on channel=0 note=53 velocity=0 time=3\n",
      "note_on channel=0 note=64 velocity=82 time=27\n",
      "note_on channel=0 note=55 velocity=0 time=7\n",
      "note_on channel=0 note=64 velocity=0 time=23\n",
      "note_on channel=0 note=62 velocity=82 time=0\n",
      "note_on channel=0 note=64 velocity=95 time=30\n",
      "note_on channel=0 note=62 velocity=0 time=8\n",
      "note_on channel=0 note=67 velocity=95 time=22\n",
      "note_on channel=0 note=64 velocity=0 time=4\n",
      "note_on channel=0 note=64 velocity=98 time=26\n",
      "note_on channel=0 note=67 velocity=0 time=4\n",
      "note_on channel=0 note=62 velocity=102 time=26\n",
      "note_on channel=0 note=64 velocity=0 time=6\n",
      "note_on channel=0 note=64 velocity=87 time=24\n",
      "note_on channel=0 note=62 velocity=0 time=9\n",
      "note_on channel=0 note=60 velocity=85 time=21\n",
      "note_on channel=0 note=64 velocity=0 time=2\n",
      "note_on channel=0 note=64 velocity=80 time=28\n",
      "note_on channel=0 note=60 velocity=0 time=2\n",
      "note_on channel=0 note=57 velocity=68 time=28\n",
      "note_on channel=0 note=64 velocity=0 time=28\n",
      "note_on channel=0 note=60 velocity=70 time=2\n",
      "note_on channel=0 note=57 velocity=0 time=4\n",
      "note_on channel=0 note=60 velocity=0 time=25\n",
      "note_on channel=0 note=53 velocity=74 time=1\n",
      "note_on channel=0 note=62 velocity=82 time=30\n",
      "note_on channel=0 note=53 velocity=0 time=8\n",
      "note_on channel=0 note=60 velocity=72 time=22\n",
      "note_on channel=0 note=62 velocity=0 time=4\n",
      "note_on channel=0 note=62 velocity=85 time=26\n",
      "note_on channel=0 note=60 velocity=0 time=5\n",
      "note_on channel=0 note=65 velocity=91 time=25\n",
      "note_on channel=0 note=62 velocity=0 time=7\n",
      "note_on channel=0 note=62 velocity=85 time=23\n",
      "note_on channel=0 note=65 velocity=0 time=7\n",
      "note_on channel=0 note=60 velocity=100 time=23\n",
      "note_on channel=0 note=62 velocity=0 time=7\n",
      "note_on channel=0 note=62 velocity=93 time=23\n",
      "note_on channel=0 note=60 velocity=0 time=3\n",
      "note_on channel=0 note=59 velocity=91 time=27\n",
      "note_on channel=0 note=62 velocity=0 time=7\n",
      "note_on channel=0 note=62 velocity=82 time=23\n",
      "note_on channel=0 note=59 velocity=0 time=2\n",
      "note_on channel=0 note=55 velocity=80 time=28\n",
      "note_on channel=0 note=62 velocity=0 time=7\n",
      "note_on channel=0 note=59 velocity=78 time=23\n",
      "note_on channel=0 note=55 velocity=0 time=2\n",
      "note_on channel=0 note=59 velocity=0 time=27\n",
      "note_on channel=0 note=52 velocity=64 time=1\n",
      "note_on channel=0 note=52 velocity=0 time=29\n",
      "note_on channel=0 note=64 velocity=100 time=1\n",
      "note_on channel=0 note=64 velocity=0 time=30\n",
      "note_on channel=0 note=62 velocity=102 time=0\n",
      "note_on channel=0 note=64 velocity=100 time=30\n",
      "note_on channel=0 note=62 velocity=0 time=5\n",
      "note_on channel=0 note=67 velocity=100 time=25\n",
      "note_on channel=0 note=64 velocity=0 time=3\n",
      "note_on channel=0 note=64 velocity=102 time=27\n",
      "note_on channel=0 note=67 velocity=0 time=2\n",
      "note_on channel=0 note=62 velocity=100 time=28\n",
      "note_on channel=0 note=64 velocity=0 time=2\n",
      "note_on channel=0 note=64 velocity=91 time=28\n",
      "note_on channel=0 note=62 velocity=0 time=4\n",
      "note_on channel=0 note=64 velocity=0 time=22\n",
      "note_on channel=0 note=60 velocity=102 time=4\n",
      "note_on channel=0 note=60 velocity=0 time=17\n",
      "note_on channel=0 note=64 velocity=105 time=13\n",
      "note_on channel=0 note=64 velocity=0 time=10\n",
      "note_on channel=0 note=67 velocity=107 time=20\n",
      "note_on channel=0 note=65 velocity=100 time=90\n",
      "note_on channel=0 note=67 velocity=0 time=5\n",
      "note_on channel=0 note=64 velocity=107 time=25\n",
      "note_on channel=0 note=65 velocity=0 time=5\n",
      "note_on channel=0 note=65 velocity=102 time=25\n",
      "note_on channel=0 note=64 velocity=0 time=5\n",
      "note_on channel=0 note=67 velocity=102 time=25\n",
      "note_on channel=0 note=65 velocity=0 time=8\n",
      "note_on channel=0 note=65 velocity=95 time=22\n",
      "note_on channel=0 note=67 velocity=0 time=6\n",
      "note_on channel=0 note=64 velocity=102 time=24\n",
      "note_on channel=0 note=65 velocity=0 time=5\n",
      "note_on channel=0 note=65 velocity=91 time=25\n",
      "note_on channel=0 note=64 velocity=0 time=9\n",
      "note_on channel=0 note=65 velocity=0 time=20\n",
      "note_on channel=0 note=60 velocity=100 time=1\n",
      "note_on channel=0 note=60 velocity=0 time=10\n",
      "note_on channel=0 note=64 velocity=100 time=20\n",
      "note_on channel=0 note=64 velocity=0 time=8\n",
      "note_on channel=0 note=65 velocity=110 time=22\n",
      "note_on channel=0 note=64 velocity=102 time=90\n",
      "note_on channel=0 note=65 velocity=0 time=8\n",
      "note_on channel=0 note=62 velocity=105 time=22\n",
      "note_on channel=0 note=64 velocity=0 time=3\n",
      "note_on channel=0 note=64 velocity=102 time=27\n",
      "note_on channel=0 note=62 velocity=0 time=7\n",
      "note_on channel=0 note=65 velocity=102 time=23\n",
      "note_on channel=0 note=64 velocity=0 time=4\n",
      "note_on channel=0 note=64 velocity=95 time=26\n",
      "note_on channel=0 note=65 velocity=0 time=5\n",
      "note_on channel=0 note=62 velocity=105 time=25\n",
      "note_on channel=0 note=64 velocity=0 time=4\n",
      "note_on channel=0 note=64 velocity=89 time=26\n",
      "note_on channel=0 note=62 velocity=0 time=6\n",
      "note_on channel=0 note=60 velocity=107 time=24\n",
      "note_on channel=0 note=64 velocity=0 time=1\n",
      "note_on channel=0 note=60 velocity=0 time=10\n",
      "note_on channel=0 note=62 velocity=113 time=19\n",
      "note_on channel=0 note=62 velocity=0 time=9\n",
      "note_on channel=0 note=64 velocity=113 time=21\n",
      "note_on channel=0 note=62 velocity=100 time=90\n",
      "note_on channel=0 note=64 velocity=0 time=19\n",
      "note_on channel=0 note=60 velocity=102 time=11\n",
      "note_on channel=0 note=62 velocity=0 time=4\n",
      "note_on channel=0 note=62 velocity=95 time=26\n",
      "note_on channel=0 note=60 velocity=0 time=2\n",
      "note_on channel=0 note=65 velocity=102 time=28\n",
      "note_on channel=0 note=62 velocity=0 time=5\n",
      "note_on channel=0 note=62 velocity=100 time=25\n",
      "note_on channel=0 note=65 velocity=0 time=8\n",
      "note_on channel=0 note=62 velocity=0 time=17\n",
      "note_on channel=0 note=60 velocity=95 time=5\n",
      "note_on channel=0 note=62 velocity=100 time=30\n",
      "note_on channel=0 note=60 velocity=0 time=6\n",
      "note_on channel=0 note=59 velocity=105 time=24\n",
      "note_on channel=0 note=62 velocity=0 time=3\n",
      "note_on channel=0 note=59 velocity=0 time=29\n",
      "note_on channel=0 note=71 velocity=107 time=28\n",
      "note_on channel=0 note=71 velocity=0 time=38\n",
      "note_on channel=0 note=72 velocity=107 time=22\n",
      "note_on channel=0 note=67 velocity=76 time=30\n",
      "note_on channel=0 note=72 velocity=0 time=4\n",
      "note_on channel=0 note=67 velocity=0 time=26\n",
      "note_on channel=0 note=65 velocity=70 time=0\n",
      "note_on channel=0 note=67 velocity=80 time=30\n",
      "note_on channel=0 note=65 velocity=0 time=2\n",
      "note_on channel=0 note=67 velocity=0 time=22\n",
      "note_on channel=0 note=76 velocity=110 time=6\n",
      "note_on channel=0 note=76 velocity=0 time=227\n",
      "note_on channel=0 note=65 velocity=91 time=43\n",
      "note_on channel=0 note=65 velocity=0 time=28\n",
      "note_on channel=0 note=64 velocity=82 time=2\n",
      "note_on channel=0 note=64 velocity=0 time=22\n",
      "note_on channel=0 note=65 velocity=100 time=8\n",
      "note_on channel=0 note=65 velocity=0 time=17\n",
      "note_on channel=0 note=74 velocity=102 time=13\n",
      "note_on channel=0 note=74 velocity=0 time=240\n",
      "note_on channel=0 note=64 velocity=91 time=30\n",
      "note_on channel=0 note=64 velocity=0 time=30\n",
      "note_on channel=0 note=62 velocity=85 time=0\n",
      "note_on channel=0 note=64 velocity=89 time=30\n",
      "note_on channel=0 note=62 velocity=0 time=3\n",
      "note_on channel=0 note=64 velocity=0 time=20\n",
      "note_on channel=0 note=72 velocity=107 time=7\n",
      "note_on channel=0 note=72 velocity=0 time=270\n",
      "note_on channel=0 note=71 velocity=102 time=0\n",
      "note_on channel=0 note=69 velocity=102 time=30\n",
      "note_on channel=0 note=71 velocity=0 time=7\n",
      "note_on channel=0 note=67 velocity=102 time=23\n",
      "note_on channel=0 note=69 velocity=0 time=5\n",
      "note_on channel=0 note=65 velocity=80 time=25\n",
      "note_on channel=0 note=67 velocity=0 time=1\n",
      "note_on channel=0 note=64 velocity=102 time=29\n",
      "note_on channel=0 note=65 velocity=0 time=3\n",
      "note_on channel=0 note=62 velocity=100 time=27\n",
      "note_on channel=0 note=64 velocity=0 time=8\n",
      "note_on channel=0 note=62 velocity=0 time=20\n",
      "note_on channel=0 note=60 velocity=72 time=2\n",
      "note_on channel=0 note=59 velocity=98 time=30\n",
      "note_on channel=0 note=60 velocity=0 time=1\n",
      "note_on channel=0 note=57 velocity=100 time=29\n",
      "note_on channel=0 note=59 velocity=0 time=13\n",
      "note_on channel=0 note=55 velocity=85 time=17\n",
      "note_on channel=0 note=57 velocity=0 time=6\n",
      "note_on channel=0 note=53 velocity=85 time=24\n",
      "note_on channel=0 note=55 velocity=0 time=1\n",
      "note_on channel=0 note=55 velocity=100 time=29\n",
      "note_on channel=0 note=53 velocity=0 time=9\n",
      "note_on channel=0 note=55 velocity=0 time=12\n",
      "note_on channel=0 note=65 velocity=100 time=39\n",
      "note_on channel=0 note=65 velocity=0 time=23\n",
      "note_on channel=0 note=64 velocity=95 time=37\n",
      "note_on channel=0 note=64 velocity=0 time=49\n",
      "note_on channel=0 note=69 velocity=102 time=11\n",
      "note_on channel=0 note=67 velocity=95 time=30\n",
      "note_on channel=0 note=69 velocity=0 time=5\n",
      "note_on channel=0 note=65 velocity=105 time=25\n",
      "note_on channel=0 note=67 velocity=0 time=8\n",
      "note_on channel=0 note=64 velocity=98 time=22\n",
      "note_on channel=0 note=65 velocity=0 time=3\n",
      "note_on channel=0 note=62 velocity=72 time=27\n",
      "note_on channel=0 note=64 velocity=0 time=1\n",
      "note_on channel=0 note=60 velocity=105 time=29\n",
      "note_on channel=0 note=62 velocity=0 time=5\n",
      "note_on channel=0 note=60 velocity=0 time=16\n",
      "note_on channel=0 note=60 velocity=105 time=9\n",
      "note_on channel=0 note=60 velocity=0 time=125\n",
      "note_on channel=0 note=60 velocity=85 time=625\n",
      "note_on channel=0 note=64 velocity=85 time=30\n",
      "note_on channel=0 note=60 velocity=0 time=6\n",
      "note_on channel=0 note=66 velocity=89 time=24\n",
      "note_on channel=0 note=64 velocity=0 time=9\n",
      "note_on channel=0 note=67 velocity=82 time=21\n",
      "note_on channel=0 note=66 velocity=0 time=7\n",
      "note_on channel=0 note=67 velocity=0 time=19\n",
      "note_on channel=0 note=66 velocity=100 time=4\n",
      "note_on channel=0 note=67 velocity=82 time=30\n",
      "note_on channel=0 note=66 velocity=0 time=1\n",
      "note_on channel=0 note=71 velocity=102 time=29\n",
      "note_on channel=0 note=67 velocity=0 time=4\n",
      "note_on channel=0 note=69 velocity=100 time=26\n",
      "note_on channel=0 note=71 velocity=0 time=3\n",
      "note_on channel=0 note=67 velocity=87 time=27\n",
      "note_on channel=0 note=69 velocity=0 time=6\n",
      "note_on channel=0 note=66 velocity=98 time=24\n",
      "note_on channel=0 note=67 velocity=0 time=4\n",
      "note_on channel=0 note=66 velocity=0 time=20\n",
      "note_on channel=0 note=64 velocity=80 time=6\n",
      "note_on channel=0 note=64 velocity=0 time=26\n",
      "note_on channel=0 note=62 velocity=102 time=4\n",
      "note_on channel=0 note=64 velocity=95 time=30\n",
      "note_on channel=0 note=62 velocity=0 time=9\n",
      "note_on channel=0 note=66 velocity=95 time=21\n",
      "note_on channel=0 note=64 velocity=0 time=6\n",
      "note_on channel=0 note=66 velocity=0 time=20\n",
      "note_on channel=0 note=67 velocity=85 time=4\n",
      "note_on channel=0 note=69 velocity=105 time=30\n",
      "note_on channel=0 note=67 velocity=0 time=2\n",
      "note_on channel=0 note=72 velocity=91 time=28\n",
      "note_on channel=0 note=69 velocity=0 time=3\n",
      "note_on channel=0 note=71 velocity=100 time=27\n",
      "note_on channel=0 note=72 velocity=0 time=4\n",
      "note_on channel=0 note=69 velocity=100 time=26\n",
      "note_on channel=0 note=71 velocity=0 time=7\n",
      "note_on channel=0 note=69 velocity=0 time=22\n",
      "note_on channel=0 note=74 velocity=85 time=1\n",
      "note_on channel=0 note=72 velocity=100 time=30\n",
      "note_on channel=0 note=74 velocity=0 time=12\n",
      "note_on channel=0 note=71 velocity=100 time=18\n",
      "note_on channel=0 note=72 velocity=0 time=9\n",
      "note_on channel=0 note=69 velocity=102 time=21\n",
      "note_on channel=0 note=71 velocity=0 time=18\n",
      "note_on channel=0 note=71 velocity=87 time=12\n",
      "note_on channel=0 note=69 velocity=0 time=1\n",
      "note_on channel=0 note=67 velocity=100 time=29\n",
      "note_on channel=0 note=71 velocity=0 time=9\n",
      "note_on channel=0 note=65 velocity=85 time=21\n",
      "note_on channel=0 note=67 velocity=0 time=4\n",
      "note_on channel=0 note=64 velocity=70 time=26\n",
      "note_on channel=0 note=65 velocity=0 time=1\n",
      "note_on channel=0 note=62 velocity=91 time=29\n",
      "note_on channel=0 note=64 velocity=0 time=2\n",
      "note_on channel=0 note=60 velocity=93 time=28\n",
      "note_on channel=0 note=62 velocity=0 time=4\n",
      "note_on channel=0 note=60 velocity=0 time=26\n",
      "note_on channel=0 note=59 velocity=68 time=0\n",
      "note_on channel=0 note=57 velocity=95 time=30\n",
      "note_on channel=0 note=59 velocity=0 time=4\n",
      "note_on channel=0 note=57 velocity=0 time=25\n",
      "note_on channel=0 note=55 velocity=100 time=1\n",
      "note_on channel=0 note=55 velocity=0 time=239\n",
      "note_on channel=0 note=60 velocity=87 time=61\n",
      "note_on channel=0 note=65 velocity=105 time=60\n",
      "note_on channel=0 note=60 velocity=0 time=2\n",
      "note_on channel=0 note=64 velocity=100 time=28\n",
      "note_on channel=0 note=65 velocity=0 time=2\n",
      "note_on channel=0 note=65 velocity=102 time=28\n",
      "note_on channel=0 note=64 velocity=0 time=7\n",
      "note_on channel=0 note=67 velocity=98 time=23\n",
      "note_on channel=0 note=65 velocity=0 time=4\n",
      "note_on channel=0 note=69 velocity=102 time=26\n",
      "note_on channel=0 note=67 velocity=0 time=2\n",
      "note_on channel=0 note=69 velocity=0 time=12\n",
      "note_on channel=0 note=69 velocity=102 time=16\n",
      "note_on channel=0 note=67 velocity=91 time=30\n",
      "note_on channel=0 note=69 velocity=0 time=5\n",
      "note_on channel=0 note=65 velocity=102 time=25\n",
      "note_on channel=0 note=67 velocity=0 time=9\n",
      "note_on channel=0 note=64 velocity=98 time=21\n",
      "note_on channel=0 note=65 velocity=0 time=8\n",
      "note_on channel=0 note=62 velocity=85 time=22\n",
      "note_on channel=0 note=64 velocity=0 time=2\n",
      "note_on channel=0 note=61 velocity=102 time=28\n",
      "note_on channel=0 note=62 velocity=0 time=7\n",
      "note_on channel=0 note=59 velocity=98 time=23\n",
      "note_on channel=0 note=61 velocity=0 time=2\n",
      "note_on channel=0 note=57 velocity=82 time=28\n",
      "note_on channel=0 note=59 velocity=0 time=6\n",
      "note_on channel=0 note=57 velocity=0 time=232\n",
      "note_on channel=0 note=62 velocity=100 time=62\n",
      "note_on channel=0 note=62 velocity=0 time=47\n",
      "note_on channel=0 note=68 velocity=110 time=13\n",
      "note_on channel=0 note=66 velocity=105 time=30\n",
      "note_on channel=0 note=68 velocity=0 time=1\n",
      "note_on channel=0 note=68 velocity=98 time=29\n",
      "note_on channel=0 note=66 velocity=0 time=10\n",
      "note_on channel=0 note=69 velocity=98 time=20\n",
      "note_on channel=0 note=68 velocity=0 time=5\n",
      "note_on channel=0 note=71 velocity=100 time=25\n",
      "note_on channel=0 note=69 velocity=0 time=2\n",
      "note_on channel=0 note=71 velocity=0 time=29\n",
      "note_on channel=0 note=64 velocity=102 time=29\n",
      "note_on channel=0 note=64 velocity=0 time=92\n",
      "note_on channel=0 note=69 velocity=105 time=28\n",
      "note_on channel=0 note=69 velocity=0 time=90\n",
      "note_on channel=0 note=62 velocity=107 time=30\n",
      "note_on channel=0 note=62 velocity=0 time=47\n",
      "note_on channel=0 note=64 velocity=98 time=13\n",
      "note_on channel=0 note=64 velocity=0 time=728\n",
      "note_on channel=0 note=60 velocity=85 time=22\n",
      "note_on channel=0 note=62 velocity=102 time=30\n",
      "note_on channel=0 note=60 velocity=0 time=6\n",
      "note_on channel=0 note=64 velocity=100 time=24\n",
      "note_on channel=0 note=62 velocity=0 time=7\n",
      "note_on channel=0 note=65 velocity=102 time=23\n",
      "note_on channel=0 note=64 velocity=0 time=4\n",
      "note_on channel=0 note=65 velocity=0 time=26\n",
      "note_on channel=0 note=64 velocity=100 time=0\n",
      "note_on channel=0 note=65 velocity=102 time=30\n",
      "note_on channel=0 note=64 velocity=0 time=6\n",
      "note_on channel=0 note=69 velocity=89 time=24\n",
      "note_on channel=0 note=65 velocity=0 time=3\n",
      "note_on channel=0 note=67 velocity=95 time=27\n",
      "note_on channel=0 note=69 velocity=0 time=7\n",
      "note_on channel=0 note=65 velocity=100 time=23\n",
      "note_on channel=0 note=67 velocity=0 time=10\n",
      "note_on channel=0 note=64 velocity=102 time=20\n",
      "note_on channel=0 note=65 velocity=0 time=4\n",
      "note_on channel=0 note=62 velocity=89 time=26\n",
      "note_on channel=0 note=64 velocity=0 time=4\n",
      "note_on channel=0 note=60 velocity=98 time=26\n",
      "note_on channel=0 note=62 velocity=0 time=4\n",
      "note_on channel=0 note=60 velocity=0 time=22\n",
      "note_on channel=0 note=62 velocity=89 time=4\n",
      "note_on channel=0 note=64 velocity=89 time=30\n",
      "note_on channel=0 note=62 velocity=0 time=1\n",
      "note_on channel=0 note=65 velocity=98 time=29\n",
      "note_on channel=0 note=64 velocity=0 time=6\n",
      "note_on channel=0 note=67 velocity=87 time=24\n",
      "note_on channel=0 note=65 velocity=0 time=5\n",
      "note_on channel=0 note=67 velocity=0 time=21\n",
      "note_on channel=0 note=70 velocity=102 time=4\n",
      "note_on channel=0 note=70 velocity=0 time=30\n",
      "note_on channel=0 note=69 velocity=91 time=0\n",
      "note_on channel=0 note=67 velocity=91 time=30\n",
      "note_on channel=0 note=69 velocity=0 time=1\n",
      "note_on channel=0 note=67 velocity=0 time=28\n",
      "note_on channel=0 note=72 velocity=100 time=1\n",
      "note_on channel=0 note=70 velocity=107 time=30\n",
      "note_on channel=0 note=72 velocity=0 time=12\n",
      "note_on channel=0 note=69 velocity=100 time=18\n",
      "note_on channel=0 note=70 velocity=0 time=4\n",
      "note_on channel=0 note=67 velocity=89 time=26\n",
      "note_on channel=0 note=69 velocity=0 time=2\n",
      "note_on channel=0 note=69 velocity=105 time=28\n",
      "note_on channel=0 note=67 velocity=0 time=2\n",
      "note_on channel=0 note=69 velocity=0 time=711\n",
      "note_on channel=0 note=57 velocity=85 time=37\n",
      "note_on channel=0 note=59 velocity=100 time=30\n",
      "note_on channel=0 note=57 velocity=0 time=6\n",
      "note_on channel=0 note=61 velocity=91 time=24\n",
      "note_on channel=0 note=59 velocity=0 time=9\n",
      "note_on channel=0 note=62 velocity=85 time=21\n",
      "note_on channel=0 note=61 velocity=0 time=5\n",
      "note_on channel=0 note=61 velocity=89 time=25\n",
      "note_on channel=0 note=62 velocity=0 time=1\n",
      "note_on channel=0 note=62 velocity=82 time=29\n",
      "note_on channel=0 note=61 velocity=0 time=6\n",
      "note_on channel=0 note=65 velocity=93 time=24\n",
      "note_on channel=0 note=62 velocity=0 time=4\n",
      "note_on channel=0 note=64 velocity=87 time=26\n",
      "note_on channel=0 note=65 velocity=0 time=4\n",
      "note_on channel=0 note=62 velocity=82 time=26\n",
      "note_on channel=0 note=64 velocity=0 time=7\n",
      "note_on channel=0 note=61 velocity=105 time=23\n",
      "note_on channel=0 note=62 velocity=0 time=9\n",
      "note_on channel=0 note=59 velocity=100 time=21\n",
      "note_on channel=0 note=61 velocity=0 time=1\n",
      "note_on channel=0 note=57 velocity=85 time=29\n",
      "note_on channel=0 note=59 velocity=0 time=6\n",
      "note_on channel=0 note=59 velocity=95 time=24\n",
      "note_on channel=0 note=57 velocity=0 time=5\n",
      "note_on channel=0 note=61 velocity=98 time=25\n",
      "note_on channel=0 note=59 velocity=0 time=6\n",
      "note_on channel=0 note=61 velocity=0 time=20\n",
      "note_on channel=0 note=62 velocity=87 time=4\n",
      "note_on channel=0 note=64 velocity=102 time=30\n",
      "note_on channel=0 note=62 velocity=0 time=6\n",
      "note_on channel=0 note=67 velocity=91 time=24\n",
      "note_on channel=0 note=64 velocity=0 time=8\n",
      "note_on channel=0 note=65 velocity=105 time=22\n",
      "note_on channel=0 note=67 velocity=0 time=6\n",
      "note_on channel=0 note=64 velocity=105 time=24\n",
      "note_on channel=0 note=65 velocity=0 time=4\n",
      "note_on channel=0 note=69 velocity=85 time=26\n",
      "note_on channel=0 note=64 velocity=0 time=8\n",
      "note_on channel=0 note=67 velocity=95 time=22\n",
      "note_on channel=0 note=69 velocity=0 time=7\n",
      "note_on channel=0 note=65 velocity=105 time=23\n",
      "note_on channel=0 note=67 velocity=0 time=6\n",
      "note_on channel=0 note=64 velocity=100 time=24\n",
      "note_on channel=0 note=65 velocity=0 time=3\n",
      "note_on channel=0 note=65 velocity=105 time=27\n",
      "note_on channel=0 note=64 velocity=0 time=5\n",
      "note_on channel=0 note=65 velocity=0 time=348\n",
      "note_on channel=0 note=64 velocity=98 time=37\n",
      "note_on channel=0 note=62 velocity=82 time=30\n",
      "note_on channel=0 note=64 velocity=0 time=2\n",
      "note_on channel=0 note=64 velocity=102 time=28\n",
      "note_on channel=0 note=62 velocity=0 time=3\n",
      "note_on channel=0 note=65 velocity=98 time=27\n",
      "note_on channel=0 note=64 velocity=0 time=9\n",
      "note_on channel=0 note=69 velocity=85 time=21\n",
      "note_on channel=0 note=65 velocity=0 time=3\n",
      "note_on channel=0 note=67 velocity=98 time=27\n",
      "note_on channel=0 note=69 velocity=0 time=7\n",
      "note_on channel=0 note=67 velocity=0 time=21\n",
      "note_on channel=0 note=65 velocity=82 time=2\n",
      "note_on channel=0 note=70 velocity=105 time=30\n",
      "note_on channel=0 note=65 velocity=0 time=3\n",
      "note_on channel=0 note=69 velocity=100 time=27\n",
      "note_on channel=0 note=70 velocity=0 time=5\n",
      "note_on channel=0 note=67 velocity=102 time=25\n",
      "note_on channel=0 note=69 velocity=0 time=4\n",
      "note_on channel=0 note=65 velocity=76 time=26\n",
      "note_on channel=0 note=67 velocity=0 time=1\n",
      "note_on channel=0 note=67 velocity=105 time=29\n",
      "note_on channel=0 note=65 velocity=0 time=2\n",
      "note_on channel=0 note=67 velocity=0 time=353\n",
      "note_on channel=0 note=65 velocity=87 time=35\n",
      "note_on channel=0 note=64 velocity=89 time=30\n",
      "note_on channel=0 note=65 velocity=0 time=4\n",
      "note_on channel=0 note=65 velocity=98 time=26\n",
      "note_on channel=0 note=64 velocity=0 time=7\n",
      "note_on channel=0 note=67 velocity=102 time=23\n",
      "note_on channel=0 note=65 velocity=0 time=8\n",
      "note_on channel=0 note=70 velocity=98 time=22\n",
      "note_on channel=0 note=67 velocity=0 time=3\n",
      "note_on channel=0 note=69 velocity=100 time=27\n",
      "note_on channel=0 note=70 velocity=0 time=5\n",
      "note_on channel=0 note=67 velocity=102 time=25\n",
      "note_on channel=0 note=69 velocity=0 time=4\n",
      "note_on channel=0 note=72 velocity=95 time=26\n",
      "note_on channel=0 note=67 velocity=0 time=5\n",
      "note_on channel=0 note=72 velocity=0 time=12\n",
      "note_on channel=0 note=70 velocity=107 time=13\n",
      "note_on channel=0 note=70 velocity=0 time=12\n",
      "note_on channel=0 note=69 velocity=105 time=18\n",
      "note_on channel=0 note=69 velocity=0 time=15\n",
      "note_on channel=0 note=67 velocity=102 time=15\n",
      "note_on channel=0 note=67 velocity=0 time=15\n",
      "note_on channel=0 note=69 velocity=100 time=15\n",
      "note_on channel=0 note=69 velocity=0 time=139\n",
      "note_on channel=0 note=62 velocity=91 time=5802\n",
      "note_on channel=0 note=62 velocity=0 time=48\n",
      "note_on channel=0 note=67 velocity=102 time=12\n",
      "note_on channel=0 note=66 velocity=80 time=30\n",
      "note_on channel=0 note=67 velocity=0 time=4\n",
      "note_on channel=0 note=67 velocity=80 time=29\n",
      "note_on channel=0 note=66 velocity=0 time=9\n",
      "note_on channel=0 note=69 velocity=89 time=18\n",
      "note_on channel=0 note=67 velocity=0 time=8\n",
      "note_on channel=0 note=71 velocity=100 time=25\n",
      "note_on channel=0 note=69 velocity=0 time=3\n",
      "note_on channel=0 note=67 velocity=95 time=25\n",
      "note_on channel=0 note=71 velocity=0 time=5\n",
      "note_on channel=0 note=66 velocity=107 time=24\n",
      "note_on channel=0 note=67 velocity=0 time=11\n",
      "note_on channel=0 note=64 velocity=91 time=17\n",
      "note_on channel=0 note=66 velocity=0 time=4\n",
      "note_on channel=0 note=62 velocity=89 time=29\n",
      "note_on channel=0 note=64 velocity=0 time=2\n",
      "note_on channel=0 note=60 velocity=98 time=21\n",
      "note_on channel=0 note=62 velocity=0 time=5\n",
      "note_on channel=0 note=59 velocity=100 time=29\n",
      "note_on channel=0 note=60 velocity=0 time=1\n",
      "note_on channel=0 note=57 velocity=76 time=26\n",
      "note_on channel=0 note=59 velocity=0 time=1\n",
      "note_on channel=0 note=55 velocity=102 time=30\n",
      "note_on channel=0 note=57 velocity=0 time=6\n",
      "note_on channel=0 note=55 velocity=0 time=233\n",
      "note_on channel=0 note=64 velocity=98 time=65\n",
      "note_on channel=0 note=64 velocity=0 time=49\n",
      "note_on channel=0 note=69 velocity=102 time=9\n",
      "note_on channel=0 note=68 velocity=74 time=29\n",
      "note_on channel=0 note=69 velocity=0 time=4\n",
      "note_on channel=0 note=69 velocity=87 time=27\n",
      "note_on channel=0 note=68 velocity=0 time=7\n",
      "note_on channel=0 note=71 velocity=102 time=24\n",
      "note_on channel=0 note=69 velocity=0 time=7\n",
      "note_on channel=0 note=72 velocity=102 time=23\n",
      "note_on channel=0 note=71 velocity=0 time=3\n",
      "note_on channel=0 note=69 velocity=91 time=22\n",
      "note_on channel=0 note=72 velocity=0 time=6\n",
      "note_on channel=0 note=67 velocity=100 time=24\n",
      "note_on channel=0 note=69 velocity=0 time=9\n",
      "note_on channel=0 note=65 velocity=89 time=20\n",
      "note_on channel=0 note=67 velocity=0 time=6\n",
      "note_on channel=0 note=64 velocity=87 time=28\n",
      "note_on channel=0 note=65 velocity=0 time=1\n",
      "note_on channel=0 note=62 velocity=102 time=23\n",
      "note_on channel=0 note=64 velocity=0 time=5\n",
      "note_on channel=0 note=60 velocity=102 time=28\n",
      "note_on channel=0 note=62 velocity=0 time=3\n",
      "note_on channel=0 note=59 velocity=72 time=26\n",
      "note_on channel=0 note=60 velocity=0 time=1\n",
      "note_on channel=0 note=59 velocity=0 time=27\n",
      "note_on channel=0 note=57 velocity=105 time=3\n",
      "note_on channel=0 note=59 velocity=39 time=0\n",
      "note_on channel=0 note=59 velocity=0 time=5\n",
      "note_on channel=0 note=57 velocity=0 time=146\n",
      "note_on channel=0 note=66 velocity=102 time=6\n",
      "note_on channel=0 note=66 velocity=0 time=29\n",
      "note_on channel=0 note=57 velocity=87 time=0\n",
      "note_on channel=0 note=66 velocity=100 time=27\n",
      "note_on channel=0 note=57 velocity=0 time=2\n",
      "note_on channel=0 note=66 velocity=0 time=29\n",
      "note_on channel=0 note=55 velocity=91 time=0\n",
      "note_on channel=0 note=64 velocity=98 time=28\n",
      "note_on channel=0 note=55 velocity=0 time=5\n",
      "note_on channel=0 note=64 velocity=0 time=24\n",
      "note_on channel=0 note=55 velocity=93 time=2\n",
      "note_on channel=0 note=64 velocity=87 time=28\n",
      "note_on channel=0 note=55 velocity=0 time=3\n",
      "note_on channel=0 note=64 velocity=0 time=23\n",
      "note_on channel=0 note=54 velocity=91 time=5\n",
      "note_on channel=0 note=64 velocity=72 time=30\n",
      "note_on channel=0 note=54 velocity=0 time=2\n",
      "note_on channel=0 note=64 velocity=0 time=23\n",
      "note_on channel=0 note=52 velocity=72 time=4\n",
      "note_on channel=0 note=64 velocity=82 time=29\n",
      "note_on channel=0 note=52 velocity=0 time=5\n",
      "note_on channel=0 note=63 velocity=85 time=25\n",
      "note_on channel=0 note=64 velocity=0 time=1\n",
      "note_on channel=0 note=59 velocity=87 time=30\n",
      "note_on channel=0 note=63 velocity=0 time=2\n",
      "note_on channel=0 note=61 velocity=91 time=28\n",
      "note_on channel=0 note=59 velocity=0 time=8\n",
      "note_on channel=0 note=63 velocity=76 time=19\n",
      "note_on channel=0 note=61 velocity=0 time=7\n",
      "note_on channel=0 note=64 velocity=80 time=23\n",
      "note_on channel=0 note=63 velocity=0 time=4\n",
      "note_on channel=0 note=64 velocity=0 time=25\n",
      "note_on channel=0 note=63 velocity=87 time=3\n",
      "note_on channel=0 note=64 velocity=61 time=30\n",
      "note_on channel=0 note=63 velocity=0 time=6\n",
      "note_on channel=0 note=67 velocity=76 time=25\n",
      "note_on channel=0 note=64 velocity=0 time=5\n",
      "note_on channel=0 note=66 velocity=82 time=25\n",
      "note_on channel=0 note=67 velocity=0 time=5\n",
      "note_on channel=0 note=64 velocity=72 time=23\n",
      "note_on channel=0 note=66 velocity=0 time=4\n",
      "note_on channel=0 note=63 velocity=95 time=28\n",
      "note_on channel=0 note=64 velocity=0 time=8\n",
      "note_on channel=0 note=61 velocity=100 time=22\n",
      "note_on channel=0 note=63 velocity=0 time=3\n",
      "note_on channel=0 note=61 velocity=0 time=30\n",
      "note_on channel=0 note=59 velocity=82 time=0\n",
      "note_on channel=0 note=61 velocity=102 time=26\n",
      "note_on channel=0 note=59 velocity=0 time=5\n",
      "note_on channel=0 note=61 velocity=0 time=26\n",
      "note_on channel=0 note=62 velocity=82 time=1\n",
      "note_on channel=0 note=64 velocity=98 time=26\n",
      "note_on channel=0 note=62 velocity=0 time=4\n",
      "note_on channel=0 note=66 velocity=105 time=27\n",
      "note_on channel=0 note=64 velocity=0 time=10\n",
      "note_on channel=0 note=69 velocity=87 time=20\n",
      "note_on channel=0 note=66 velocity=0 time=5\n",
      "note_on channel=0 note=67 velocity=80 time=25\n",
      "note_on channel=0 note=65 velocity=70 time=1\n",
      "note_on channel=0 note=69 velocity=0 time=3\n",
      "note_on channel=0 note=65 velocity=0 time=1\n",
      "note_on channel=0 note=66 velocity=95 time=23\n",
      "note_on channel=0 note=67 velocity=0 time=4\n",
      "note_on channel=0 note=71 velocity=85 time=26\n",
      "note_on channel=0 note=66 velocity=0 time=6\n",
      "note_on channel=0 note=69 velocity=95 time=25\n",
      "note_on channel=0 note=71 velocity=0 time=7\n",
      "note_on channel=0 note=67 velocity=91 time=23\n",
      "note_on channel=0 note=69 velocity=0 time=9\n",
      "note_on channel=0 note=66 velocity=85 time=22\n",
      "note_on channel=0 note=67 velocity=0 time=4\n",
      "note_on channel=0 note=67 velocity=80 time=30\n",
      "note_on channel=0 note=66 velocity=0 time=4\n",
      "note_on channel=0 note=67 velocity=0 time=704\n",
      "note_on channel=0 note=64 velocity=82 time=45\n",
      "note_on channel=0 note=66 velocity=105 time=30\n",
      "note_on channel=0 note=64 velocity=0 time=6\n",
      "note_on channel=0 note=68 velocity=82 time=21\n",
      "note_on channel=0 note=66 velocity=0 time=7\n",
      "note_on channel=0 note=69 velocity=82 time=24\n",
      "note_on channel=0 note=68 velocity=0 time=4\n",
      "note_on channel=0 note=69 velocity=0 time=25\n",
      "note_on channel=0 note=68 velocity=87 time=2\n",
      "note_on channel=0 note=69 velocity=72 time=29\n",
      "note_on channel=0 note=68 velocity=0 time=5\n",
      "note_on channel=0 note=72 velocity=76 time=24\n",
      "note_on channel=0 note=69 velocity=0 time=5\n",
      "note_on channel=0 note=71 velocity=72 time=22\n",
      "note_on channel=0 note=72 velocity=0 time=4\n",
      "note_on channel=0 note=69 velocity=72 time=28\n",
      "note_on channel=0 note=71 velocity=0 time=7\n",
      "note_on channel=0 note=68 velocity=100 time=25\n",
      "note_on channel=0 note=69 velocity=0 time=7\n",
      "note_on channel=0 note=66 velocity=107 time=23\n",
      "note_on channel=0 note=68 velocity=0 time=6\n",
      "note_on channel=0 note=64 velocity=87 time=23\n",
      "note_on channel=0 note=66 velocity=0 time=1\n",
      "note_on channel=0 note=66 velocity=105 time=26\n",
      "note_on channel=0 note=64 velocity=0 time=2\n",
      "note_on channel=0 note=66 velocity=0 time=27\n",
      "note_on channel=0 note=67 velocity=85 time=1\n",
      "note_on channel=0 note=69 velocity=89 time=28\n",
      "note_on channel=0 note=67 velocity=0 time=3\n",
      "note_on channel=0 note=71 velocity=102 time=28\n",
      "note_on channel=0 note=69 velocity=0 time=5\n",
      "note_on channel=0 note=74 velocity=87 time=26\n",
      "note_on channel=0 note=71 velocity=0 time=5\n",
      "note_on channel=0 note=72 velocity=100 time=25\n",
      "note_on channel=0 note=74 velocity=0 time=5\n",
      "note_on channel=0 note=71 velocity=93 time=22\n",
      "note_on channel=0 note=72 velocity=0 time=4\n",
      "note_on channel=0 note=76 velocity=87 time=28\n",
      "note_on channel=0 note=71 velocity=0 time=4\n",
      "note_on channel=0 note=74 velocity=95 time=26\n",
      "note_on channel=0 note=76 velocity=0 time=7\n",
      "note_on channel=0 note=72 velocity=95 time=25\n",
      "note_on channel=0 note=74 velocity=0 time=9\n",
      "note_on channel=0 note=71 velocity=91 time=20\n",
      "note_on channel=0 note=72 velocity=0 time=2\n",
      "note_on channel=0 note=72 velocity=82 time=29\n",
      "note_on channel=0 note=71 velocity=0 time=5\n",
      "note_on channel=0 note=71 velocity=98 time=26\n",
      "note_on channel=0 note=72 velocity=0 time=6\n",
      "note_on channel=0 note=69 velocity=102 time=23\n",
      "note_on channel=0 note=71 velocity=0 time=2\n",
      "note_on channel=0 note=71 velocity=93 time=28\n",
      "note_on channel=0 note=69 velocity=0 time=6\n",
      "note_on channel=0 note=72 velocity=91 time=25\n",
      "note_on channel=0 note=71 velocity=0 time=3\n",
      "note_on channel=0 note=72 velocity=0 time=25\n",
      "note_on channel=0 note=71 velocity=91 time=0\n",
      "note_on channel=0 note=72 velocity=98 time=31\n",
      "note_on channel=0 note=71 velocity=0 time=5\n",
      "note_on channel=0 note=76 velocity=76 time=25\n",
      "note_on channel=0 note=72 velocity=0 time=3\n",
      "note_on channel=0 note=74 velocity=91 time=25\n",
      "note_on channel=0 note=76 velocity=0 time=7\n",
      "note_on channel=0 note=72 velocity=98 time=24\n",
      "note_on channel=0 note=74 velocity=0 time=8\n",
      "note_on channel=0 note=71 velocity=91 time=22\n",
      "note_on channel=0 note=72 velocity=0 time=3\n",
      "note_on channel=0 note=71 velocity=0 time=25\n",
      "note_on channel=0 note=69 velocity=78 time=1\n",
      "note_on channel=0 note=71 velocity=87 time=30\n",
      "note_on channel=0 note=69 velocity=0 time=4\n",
      "note_on channel=0 note=71 velocity=0 time=42\n",
      "note_on channel=0 note=64 velocity=87 time=18\n",
      "note_on channel=0 note=64 velocity=0 time=49\n",
      "note_on channel=0 note=69 velocity=87 time=289\n",
      "note_on channel=0 note=69 velocity=0 time=28\n",
      "note_on channel=0 note=68 velocity=87 time=1\n",
      "note_on channel=0 note=69 velocity=85 time=29\n",
      "note_on channel=0 note=68 velocity=0 time=3\n",
      "note_on channel=0 note=72 velocity=95 time=29\n",
      "note_on channel=0 note=69 velocity=0 time=3\n",
      "note_on channel=0 note=69 velocity=91 time=25\n",
      "note_on channel=0 note=72 velocity=0 time=3\n",
      "note_on channel=0 note=68 velocity=100 time=29\n",
      "note_on channel=0 note=69 velocity=0 time=4\n",
      "note_on channel=0 note=69 velocity=82 time=22\n",
      "note_on channel=0 note=68 velocity=0 time=4\n",
      "note_on channel=0 note=64 velocity=98 time=29\n",
      "note_on channel=0 note=69 velocity=0 time=2\n",
      "note_on channel=0 note=69 velocity=98 time=24\n",
      "note_on channel=0 note=64 velocity=0 time=5\n",
      "note_on channel=0 note=69 velocity=0 time=26\n",
      "note_on channel=0 note=60 velocity=100 time=0\n",
      "note_on channel=0 note=64 velocity=95 time=29\n",
      "note_on channel=0 note=60 velocity=0 time=4\n",
      "note_on channel=0 note=64 velocity=0 time=21\n",
      "note_on channel=0 note=57 velocity=87 time=5\n",
      "note_on channel=0 note=57 velocity=0 time=59\n",
      "note_on channel=0 note=67 velocity=102 time=330\n",
      "note_on channel=0 note=66 velocity=89 time=30\n",
      "note_on channel=0 note=67 velocity=0 time=1\n",
      "note_on channel=0 note=67 velocity=85 time=27\n",
      "note_on channel=0 note=66 velocity=0 time=10\n",
      "note_on channel=0 note=71 velocity=80 time=23\n",
      "note_on channel=0 note=67 velocity=0 time=3\n",
      "note_on channel=0 note=67 velocity=85 time=23\n",
      "note_on channel=0 note=71 velocity=0 time=3\n",
      "note_on channel=0 note=66 velocity=107 time=30\n",
      "note_on channel=0 note=67 velocity=0 time=2\n",
      "note_on channel=0 note=67 velocity=80 time=27\n",
      "note_on channel=0 note=66 velocity=0 time=1\n",
      "note_on channel=0 note=62 velocity=98 time=32\n",
      "note_on channel=0 note=67 velocity=0 time=2\n",
      "note_on channel=0 note=67 velocity=98 time=26\n",
      "note_on channel=0 note=62 velocity=0 time=5\n",
      "note_on channel=0 note=59 velocity=100 time=26\n",
      "note_on channel=0 note=67 velocity=0 time=2\n",
      "note_on channel=0 note=62 velocity=85 time=25\n",
      "note_on channel=0 note=59 velocity=0 time=4\n",
      "note_on channel=0 note=62 velocity=0 time=22\n",
      "note_on channel=0 note=55 velocity=85 time=5\n",
      "note_on channel=0 note=55 velocity=0 time=56\n",
      "note_on channel=0 note=64 velocity=100 time=725\n",
      "note_on channel=0 note=64 velocity=0 time=29\n",
      "note_on channel=0 note=60 velocity=85 time=31\n",
      "note_on channel=0 note=60 velocity=0 time=34\n",
      "note_on channel=0 note=64 velocity=89 time=26\n",
      "note_on channel=0 note=64 velocity=0 time=32\n",
      "note_on channel=0 note=65 velocity=100 time=28\n",
      "note_on channel=0 note=65 velocity=0 time=36\n",
      "note_on channel=0 note=64 velocity=102 time=24\n",
      "note_on channel=0 note=64 velocity=0 time=27\n",
      "note_on channel=0 note=62 velocity=105 time=3\n",
      "note_on channel=0 note=64 velocity=95 time=30\n",
      "note_on channel=0 note=62 velocity=0 time=2\n",
      "note_on channel=0 note=60 velocity=102 time=28\n",
      "note_on channel=0 note=64 velocity=0 time=4\n",
      "note_on channel=0 note=59 velocity=100 time=26\n",
      "note_on channel=0 note=60 velocity=0 time=4\n",
      "note_on channel=0 note=60 velocity=95 time=26\n",
      "note_on channel=0 note=59 velocity=0 time=7\n",
      "note_on channel=0 note=64 velocity=87 time=23\n",
      "note_on channel=0 note=60 velocity=0 time=5\n",
      "note_on channel=0 note=60 velocity=93 time=25\n",
      "note_on channel=0 note=64 velocity=0 time=3\n",
      "note_on channel=0 note=59 velocity=100 time=27\n",
      "note_on channel=0 note=60 velocity=0 time=6\n",
      "note_on channel=0 note=60 velocity=82 time=24\n",
      "note_on channel=0 note=59 velocity=0 time=3\n",
      "note_on channel=0 note=55 velocity=102 time=27\n",
      "note_on channel=0 note=60 velocity=0 time=3\n",
      "note_on channel=0 note=55 velocity=0 time=12\n",
      "note_on channel=0 note=60 velocity=102 time=15\n",
      "note_on channel=0 note=60 velocity=0 time=15\n",
      "note_on channel=0 note=52 velocity=100 time=15\n",
      "note_on channel=0 note=52 velocity=0 time=15\n",
      "note_on channel=0 note=55 velocity=82 time=15\n",
      "note_on channel=0 note=55 velocity=0 time=15\n",
      "note_on channel=0 note=48 velocity=100 time=15\n",
      "note_on channel=0 note=48 velocity=0 time=38\n",
      "note_on channel=0 note=67 velocity=82 time=22\n",
      "note_on channel=0 note=67 velocity=0 time=19\n",
      "note_on channel=0 note=64 velocity=95 time=41\n",
      "note_on channel=0 note=64 velocity=0 time=23\n",
      "note_on channel=0 note=67 velocity=89 time=37\n",
      "note_on channel=0 note=67 velocity=0 time=23\n",
      "note_on channel=0 note=69 velocity=89 time=37\n",
      "note_on channel=0 note=69 velocity=0 time=46\n",
      "note_on channel=0 note=67 velocity=107 time=14\n",
      "note_on channel=0 note=67 velocity=0 time=30\n",
      "note_on channel=0 note=65 velocity=98 time=0\n",
      "note_on channel=0 note=67 velocity=68 time=30\n",
      "note_on channel=0 note=65 velocity=0 time=6\n",
      "note_on channel=0 note=64 velocity=89 time=24\n",
      "note_on channel=0 note=67 velocity=0 time=2\n",
      "note_on channel=0 note=60 velocity=91 time=28\n",
      "note_on channel=0 note=64 velocity=0 time=1\n",
      "note_on channel=0 note=64 velocity=93 time=29\n",
      "note_on channel=0 note=60 velocity=0 time=3\n",
      "note_on channel=0 note=69 velocity=85 time=27\n",
      "note_on channel=0 note=64 velocity=0 time=4\n",
      "note_on channel=0 note=64 velocity=89 time=26\n",
      "note_on channel=0 note=69 velocity=0 time=3\n",
      "note_on channel=0 note=60 velocity=78 time=27\n",
      "note_on channel=0 note=64 velocity=0 time=1\n",
      "note_on channel=0 note=64 velocity=85 time=29\n",
      "note_on channel=0 note=60 velocity=0 time=2\n",
      "note_on channel=0 note=64 velocity=0 time=27\n",
      "note_on channel=0 note=72 velocity=91 time=1\n",
      "note_on channel=0 note=72 velocity=0 time=115\n",
      "note_on channel=0 note=65 velocity=113 time=35\n",
      "note_on channel=0 note=62 velocity=82 time=30\n",
      "note_on channel=0 note=65 velocity=0 time=1\n",
      "note_on channel=0 note=65 velocity=85 time=29\n",
      "note_on channel=0 note=62 velocity=0 time=1\n",
      "note_on channel=0 note=71 velocity=85 time=29\n",
      "note_on channel=0 note=65 velocity=0 time=4\n",
      "note_on channel=0 note=65 velocity=91 time=26\n",
      "note_on channel=0 note=71 velocity=0 time=3\n",
      "note_on channel=0 note=65 velocity=0 time=26\n",
      "note_on channel=0 note=62 velocity=87 time=1\n",
      "note_on channel=0 note=62 velocity=0 time=19\n",
      "note_on channel=0 note=65 velocity=91 time=11\n",
      "note_on channel=0 note=65 velocity=0 time=13\n",
      "note_on channel=0 note=74 velocity=102 time=17\n",
      "note_on channel=0 note=74 velocity=0 time=135\n",
      "note_on channel=0 note=67 velocity=89 time=15\n",
      "note_on channel=0 note=64 velocity=87 time=30\n",
      "note_on channel=0 note=67 velocity=0 time=3\n",
      "note_on channel=0 note=67 velocity=87 time=27\n",
      "note_on channel=0 note=64 velocity=0 time=5\n",
      "note_on channel=0 note=72 velocity=91 time=25\n",
      "note_on channel=0 note=67 velocity=0 time=10\n",
      "note_on channel=0 note=67 velocity=85 time=20\n",
      "note_on channel=0 note=72 velocity=0 time=4\n",
      "note_on channel=0 note=67 velocity=0 time=24\n",
      "note_on channel=0 note=64 velocity=87 time=2\n",
      "note_on channel=0 note=64 velocity=0 time=16\n",
      "note_on channel=0 note=67 velocity=89 time=14\n",
      "note_on channel=0 note=67 velocity=0 time=13\n",
      "note_on channel=0 note=76 velocity=105 time=17\n",
      "note_on channel=0 note=76 velocity=0 time=140\n",
      "note_on channel=0 note=74 velocity=107 time=40\n",
      "note_on channel=0 note=74 velocity=0 time=29\n",
      "note_on channel=0 note=72 velocity=100 time=1\n",
      "note_on channel=0 note=72 velocity=0 time=26\n",
      "note_on channel=0 note=74 velocity=98 time=4\n",
      "note_on channel=0 note=74 velocity=0 time=26\n",
      "note_on channel=0 note=69 velocity=85 time=34\n",
      "note_on channel=0 note=69 velocity=0 time=22\n",
      "note_on channel=0 note=77 velocity=95 time=38\n",
      "note_on channel=0 note=77 velocity=0 time=131\n",
      "note_on channel=0 note=74 velocity=87 time=49\n",
      "note_on channel=0 note=74 velocity=0 time=32\n",
      "note_on channel=0 note=71 velocity=89 time=28\n",
      "note_on channel=0 note=71 velocity=0 time=30\n",
      "note_on channel=0 note=74 velocity=87 time=30\n",
      "note_on channel=0 note=74 velocity=0 time=31\n",
      "note_on channel=0 note=67 velocity=91 time=29\n",
      "note_on channel=0 note=67 velocity=0 time=30\n",
      "note_on channel=0 note=71 velocity=98 time=30\n",
      "note_on channel=0 note=71 velocity=0 time=26\n",
      "note_on channel=0 note=72 velocity=89 time=34\n",
      "note_on channel=0 note=74 velocity=100 time=30\n",
      "note_on channel=0 note=72 velocity=0 time=2\n",
      "note_on channel=0 note=75 velocity=105 time=28\n",
      "note_on channel=0 note=74 velocity=0 time=8\n",
      "note_on channel=0 note=77 velocity=80 time=22\n",
      "note_on channel=0 note=75 velocity=0 time=4\n",
      "note_on channel=0 note=75 velocity=100 time=26\n",
      "note_on channel=0 note=77 velocity=0 time=13\n",
      "note_on channel=0 note=74 velocity=91 time=17\n",
      "note_on channel=0 note=75 velocity=0 time=5\n",
      "note_on channel=0 note=72 velocity=63 time=25\n",
      "note_on channel=0 note=74 velocity=0 time=1\n",
      "note_on channel=0 note=70 velocity=95 time=29\n",
      "note_on channel=0 note=72 velocity=0 time=4\n",
      "note_on channel=0 note=69 velocity=85 time=26\n",
      "note_on channel=0 note=70 velocity=0 time=3\n",
      "note_on channel=0 note=67 velocity=70 time=27\n",
      "note_on channel=0 note=69 velocity=0 time=3\n",
      "note_on channel=0 note=66 velocity=100 time=27\n",
      "note_on channel=0 note=67 velocity=0 time=8\n",
      "note_on channel=0 note=66 velocity=0 time=22\n",
      "note_on channel=0 note=64 velocity=98 time=0\n",
      "note_on channel=0 note=66 velocity=107 time=30\n",
      "note_on channel=0 note=64 velocity=0 time=12\n",
      "note_on channel=0 note=66 velocity=0 time=10\n",
      "note_on channel=0 note=60 velocity=82 time=38\n",
      "note_on channel=0 note=60 velocity=0 time=33\n",
      "note_on channel=0 note=69 velocity=89 time=27\n",
      "note_on channel=0 note=69 velocity=0 time=25\n",
      "note_on channel=0 note=66 velocity=82 time=35\n",
      "note_on channel=0 note=66 velocity=0 time=29\n",
      "note_on channel=0 note=72 velocity=93 time=31\n",
      "note_on channel=0 note=72 velocity=0 time=123\n",
      "note_on channel=0 note=71 velocity=105 time=27\n",
      "note_on channel=0 note=69 velocity=102 time=30\n",
      "note_on channel=0 note=71 velocity=0 time=3\n",
      "note_on channel=0 note=71 velocity=91 time=27\n",
      "note_on channel=0 note=69 velocity=0 time=4\n",
      "note_on channel=0 note=67 velocity=87 time=26\n",
      "note_on channel=0 note=71 velocity=0 time=1\n",
      "note_on channel=0 note=76 velocity=85 time=29\n",
      "note_on channel=0 note=67 velocity=0 time=2\n",
      "note_on channel=0 note=74 velocity=87 time=28\n",
      "note_on channel=0 note=76 velocity=0 time=2\n",
      "note_on channel=0 note=72 velocity=105 time=28\n",
      "note_on channel=0 note=74 velocity=0 time=8\n",
      "note_on channel=0 note=71 velocity=100 time=22\n",
      "note_on channel=0 note=72 velocity=0 time=7\n",
      "note_on channel=0 note=69 velocity=76 time=23\n",
      "note_on channel=0 note=71 velocity=0 time=3\n",
      "note_on channel=0 note=69 velocity=0 time=20\n",
      "note_on channel=0 note=67 velocity=91 time=7\n",
      "note_on channel=0 note=66 velocity=105 time=30\n",
      "note_on channel=0 note=67 velocity=0 time=9\n",
      "note_on channel=0 note=64 velocity=102 time=21\n",
      "note_on channel=0 note=66 velocity=0 time=3\n",
      "note_on channel=0 note=66 velocity=98 time=27\n",
      "note_on channel=0 note=64 velocity=0 time=5\n",
      "note_on channel=0 note=62 velocity=89 time=25\n",
      "note_on channel=0 note=66 velocity=0 time=12\n",
      "note_on channel=0 note=64 velocity=89 time=18\n",
      "note_on channel=0 note=62 velocity=0 time=1\n",
      "note_on channel=0 note=60 velocity=72 time=29\n",
      "note_on channel=0 note=64 velocity=0 time=1\n",
      "note_on channel=0 note=60 velocity=0 time=24\n",
      "note_on channel=0 note=74 velocity=85 time=5\n",
      "note_on channel=0 note=72 velocity=98 time=30\n",
      "note_on channel=0 note=74 velocity=0 time=5\n",
      "note_on channel=0 note=71 velocity=95 time=25\n",
      "note_on channel=0 note=72 velocity=0 time=7\n",
      "note_on channel=0 note=69 velocity=95 time=23\n",
      "note_on channel=0 note=71 velocity=0 time=5\n",
      "note_on channel=0 note=69 velocity=0 time=25\n",
      "note_on channel=0 note=67 velocity=70 time=0\n",
      "note_on channel=0 note=66 velocity=89 time=30\n",
      "note_on channel=0 note=67 velocity=0 time=5\n",
      "note_on channel=0 note=64 velocity=91 time=25\n",
      "note_on channel=0 note=66 velocity=0 time=3\n",
      "note_on channel=0 note=62 velocity=72 time=27\n",
      "note_on channel=0 note=64 velocity=0 time=4\n",
      "note_on channel=0 note=64 velocity=87 time=26\n",
      "note_on channel=0 note=62 velocity=0 time=3\n",
      "note_on channel=0 note=60 velocity=82 time=27\n",
      "note_on channel=0 note=64 velocity=0 time=8\n",
      "note_on channel=0 note=62 velocity=89 time=22\n",
      "note_on channel=0 note=60 velocity=0 time=2\n",
      "note_on channel=0 note=62 velocity=0 time=28\n",
      "note_on channel=0 note=59 velocity=74 time=0\n",
      "note_on channel=0 note=57 velocity=64 time=0\n",
      "note_on channel=0 note=57 velocity=0 time=15\n",
      "note_on channel=0 note=59 velocity=0 time=12\n",
      "note_on channel=0 note=72 velocity=82 time=3\n",
      "note_on channel=0 note=71 velocity=89 time=30\n",
      "note_on channel=0 note=72 velocity=0 time=5\n",
      "note_on channel=0 note=69 velocity=89 time=25\n",
      "note_on channel=0 note=71 velocity=0 time=9\n",
      "note_on channel=0 note=69 velocity=0 time=20\n",
      "note_on channel=0 note=67 velocity=74 time=1\n",
      "note_on channel=0 note=66 velocity=100 time=30\n",
      "note_on channel=0 note=67 velocity=0 time=6\n",
      "note_on channel=0 note=64 velocity=87 time=24\n",
      "note_on channel=0 note=66 velocity=0 time=3\n",
      "note_on channel=0 note=62 velocity=82 time=27\n",
      "note_on channel=0 note=64 velocity=0 time=3\n",
      "note_on channel=0 note=62 velocity=0 time=25\n",
      "note_on channel=0 note=60 velocity=102 time=2\n",
      "note_on channel=0 note=60 velocity=0 time=41\n",
      "note_on channel=0 note=64 velocity=93 time=19\n",
      "note_on channel=0 note=64 velocity=0 time=114\n",
      "note_on channel=0 note=69 velocity=102 time=6\n",
      "note_on channel=0 note=69 velocity=0 time=115\n",
      "note_on channel=0 note=72 velocity=100 time=5\n",
      "note_on channel=0 note=67 velocity=105 time=86\n",
      "note_on channel=0 note=72 velocity=0 time=5\n",
      "note_on channel=0 note=69 velocity=100 time=25\n",
      "note_on channel=0 note=67 velocity=0 time=5\n",
      "note_on channel=0 note=66 velocity=105 time=21\n",
      "note_on channel=0 note=69 velocity=0 time=5\n",
      "note_on channel=0 note=67 velocity=89 time=28\n",
      "note_on channel=0 note=66 velocity=0 time=2\n",
      "note_on channel=0 note=67 velocity=0 time=26\n",
      "note_on channel=0 note=69 velocity=85 time=37\n",
      "note_on channel=0 note=69 velocity=0 time=26\n",
      "note_on channel=0 note=62 velocity=98 time=31\n",
      "note_on channel=0 note=62 velocity=0 time=24\n",
      "note_on channel=0 note=66 velocity=102 time=40\n",
      "note_on channel=0 note=66 velocity=0 time=45\n",
      "note_on channel=0 note=67 velocity=102 time=3494\n",
      "note_on channel=0 note=65 velocity=102 time=150\n",
      "note_on channel=0 note=67 velocity=0 time=3\n",
      "note_on channel=0 note=64 velocity=105 time=27\n",
      "note_on channel=0 note=65 velocity=0 time=6\n",
      "note_on channel=0 note=64 velocity=0 time=24\n",
      "note_on channel=0 note=62 velocity=89 time=0\n",
      "note_on channel=0 note=61 velocity=107 time=30\n",
      "note_on channel=0 note=62 velocity=0 time=4\n",
      "note_on channel=0 note=61 velocity=0 time=26\n",
      "note_on channel=0 note=64 velocity=82 time=0\n",
      "note_on channel=0 note=58 velocity=105 time=30\n",
      "note_on channel=0 note=64 velocity=0 time=4\n",
      "note_on channel=0 note=57 velocity=89 time=26\n",
      "note_on channel=0 note=58 velocity=0 time=3\n",
      "note_on channel=0 note=58 velocity=105 time=27\n",
      "note_on channel=0 note=57 velocity=0 time=4\n",
      "note_on channel=0 note=58 velocity=0 time=24\n",
      "note_on channel=0 note=55 velocity=93 time=2\n",
      "note_on channel=0 note=62 velocity=93 time=30\n",
      "note_on channel=0 note=55 velocity=0 time=1\n",
      "note_on channel=0 note=61 velocity=87 time=29\n",
      "note_on channel=0 note=62 velocity=0 time=3\n",
      "note_on channel=0 note=62 velocity=82 time=27\n",
      "note_on channel=0 note=61 velocity=0 time=1\n",
      "note_on channel=0 note=71 velocity=113 time=149\n",
      "note_on channel=0 note=62 velocity=0 time=4\n",
      "note_on channel=0 note=69 velocity=107 time=26\n",
      "note_on channel=0 note=71 velocity=0 time=3\n",
      "note_on channel=0 note=67 velocity=105 time=27\n",
      "note_on channel=0 note=69 velocity=0 time=4\n",
      "note_on channel=0 note=74 velocity=105 time=26\n",
      "note_on channel=0 note=67 velocity=0 time=1\n",
      "note_on channel=0 note=74 velocity=0 time=130\n",
      "note_on channel=0 note=71 velocity=107 time=19\n",
      "note_on channel=0 note=76 velocity=87 time=30\n",
      "note_on channel=0 note=71 velocity=0 time=3\n",
      "note_on channel=0 note=74 velocity=100 time=27\n",
      "note_on channel=0 note=76 velocity=0 time=6\n",
      "note_on channel=0 note=72 velocity=107 time=24\n",
      "note_on channel=0 note=74 velocity=0 time=8\n",
      "note_on channel=0 note=71 velocity=98 time=22\n",
      "note_on channel=0 note=72 velocity=0 time=3\n",
      "note_on channel=0 note=69 velocity=80 time=27\n",
      "note_on channel=0 note=71 velocity=0 time=1\n",
      "note_on channel=0 note=67 velocity=102 time=29\n",
      "note_on channel=0 note=69 velocity=0 time=1\n",
      "note_on channel=0 note=66 velocity=107 time=29\n",
      "note_on channel=0 note=67 velocity=0 time=8\n",
      "note_on channel=0 note=66 velocity=0 time=38\n",
      "note_on channel=0 note=72 velocity=107 time=14\n",
      "note_on channel=0 note=71 velocity=105 time=90\n",
      "note_on channel=0 note=72 velocity=0 time=1\n",
      "note_on channel=0 note=69 velocity=100 time=29\n",
      "note_on channel=0 note=71 velocity=0 time=2\n",
      "note_on channel=0 note=67 velocity=80 time=28\n",
      "note_on channel=0 note=69 velocity=0 time=4\n",
      "note_on channel=0 note=76 velocity=102 time=26\n",
      "note_on channel=0 note=67 velocity=0 time=3\n",
      "note_on channel=0 note=76 velocity=0 time=117\n",
      "note_on channel=0 note=77 velocity=100 time=30\n",
      "note_on channel=0 note=76 velocity=87 time=30\n",
      "note_on channel=0 note=77 velocity=0 time=9\n",
      "note_on channel=0 note=74 velocity=98 time=21\n",
      "note_on channel=0 note=76 velocity=0 time=6\n",
      "note_on channel=0 note=72 velocity=85 time=24\n",
      "note_on channel=0 note=74 velocity=0 time=6\n",
      "note_on channel=0 note=71 velocity=100 time=174\n",
      "note_on channel=0 note=72 velocity=0 time=7\n",
      "note_on channel=0 note=69 velocity=98 time=23\n",
      "note_on channel=0 note=71 velocity=0 time=8\n",
      "note_on channel=0 note=67 velocity=98 time=22\n",
      "note_on channel=0 note=69 velocity=0 time=5\n",
      "note_on channel=0 note=67 velocity=0 time=24\n",
      "note_on channel=0 note=65 velocity=68 time=1\n",
      "note_on channel=0 note=64 velocity=102 time=30\n",
      "note_on channel=0 note=65 velocity=0 time=4\n",
      "note_on channel=0 note=62 velocity=100 time=26\n",
      "note_on channel=0 note=64 velocity=0 time=7\n",
      "note_on channel=0 note=60 velocity=100 time=23\n",
      "note_on channel=0 note=62 velocity=0 time=2\n"
     ]
    },
    {
     "name": "stdout",
     "output_type": "stream",
     "text": [
      "note_on channel=0 note=60 velocity=0 time=29\n",
      "note_on channel=0 note=67 velocity=95 time=29\n",
      "note_on channel=0 note=67 velocity=0 time=22\n",
      "note_on channel=0 note=64 velocity=87 time=38\n",
      "note_on channel=0 note=64 velocity=0 time=28\n",
      "note_on channel=0 note=67 velocity=93 time=32\n",
      "note_on channel=0 note=67 velocity=0 time=34\n",
      "note_on channel=0 note=69 velocity=102 time=26\n",
      "note_on channel=0 note=69 velocity=0 time=111\n",
      "note_on channel=0 note=65 velocity=113 time=39\n",
      "note_on channel=0 note=64 velocity=85 time=30\n",
      "note_on channel=0 note=65 velocity=0 time=3\n",
      "note_on channel=0 note=65 velocity=102 time=27\n",
      "note_on channel=0 note=64 velocity=0 time=9\n",
      "note_on channel=0 note=69 velocity=85 time=21\n",
      "note_on channel=0 note=65 velocity=0 time=4\n",
      "note_on channel=0 note=65 velocity=95 time=26\n",
      "note_on channel=0 note=69 velocity=0 time=5\n",
      "note_on channel=0 note=64 velocity=105 time=25\n",
      "note_on channel=0 note=65 velocity=0 time=8\n",
      "note_on channel=0 note=65 velocity=98 time=22\n",
      "note_on channel=0 note=64 velocity=0 time=4\n",
      "note_on channel=0 note=62 velocity=100 time=26\n",
      "note_on channel=0 note=65 velocity=0 time=7\n",
      "note_on channel=0 note=65 velocity=100 time=23\n",
      "note_on channel=0 note=62 velocity=0 time=5\n",
      "note_on channel=0 note=58 velocity=89 time=25\n",
      "note_on channel=0 note=65 velocity=0 time=2\n",
      "note_on channel=0 note=62 velocity=85 time=28\n",
      "note_on channel=0 note=58 velocity=0 time=3\n",
      "note_on channel=0 note=55 velocity=93 time=27\n",
      "note_on channel=0 note=62 velocity=0 time=2\n",
      "note_on channel=0 note=55 velocity=0 time=25\n",
      "note_on channel=0 note=70 velocity=102 time=33\n",
      "note_on channel=0 note=70 velocity=0 time=31\n",
      "note_on channel=0 note=67 velocity=89 time=29\n",
      "note_on channel=0 note=67 velocity=0 time=27\n",
      "note_on channel=0 note=70 velocity=93 time=33\n",
      "note_on channel=0 note=70 velocity=0 time=27\n",
      "note_on channel=0 note=72 velocity=105 time=33\n",
      "note_on channel=0 note=72 velocity=0 time=127\n",
      "note_on channel=0 note=65 velocity=102 time=53\n",
      "note_on channel=0 note=65 velocity=0 time=40\n",
      "note_on channel=0 note=69 velocity=89 time=20\n",
      "note_on channel=0 note=69 velocity=0 time=30\n",
      "note_on channel=0 note=72 velocity=93 time=30\n",
      "note_on channel=0 note=72 velocity=0 time=32\n",
      "note_on channel=0 note=75 velocity=100 time=28\n",
      "note_on channel=0 note=75 velocity=0 time=57\n",
      "note_on channel=0 note=74 velocity=87 time=3\n",
      "note_on channel=0 note=72 velocity=102 time=30\n",
      "note_on channel=0 note=74 velocity=0 time=2\n",
      "note_on channel=0 note=74 velocity=105 time=28\n",
      "note_on channel=0 note=72 velocity=0 time=8\n",
      "note_on channel=0 note=74 velocity=0 time=22\n",
      "note_on channel=0 note=70 velocity=95 time=30\n",
      "note_on channel=0 note=70 velocity=0 time=31\n",
      "note_on channel=0 note=65 velocity=89 time=29\n",
      "note_on channel=0 note=65 velocity=0 time=32\n",
      "note_on channel=0 note=70 velocity=98 time=28\n",
      "note_on channel=0 note=70 velocity=0 time=27\n",
      "note_on channel=0 note=74 velocity=91 time=33\n",
      "note_on channel=0 note=72 velocity=98 time=60\n",
      "note_on channel=0 note=74 velocity=0 time=2\n",
      "note_on channel=0 note=70 velocity=110 time=28\n",
      "note_on channel=0 note=72 velocity=0 time=2\n",
      "note_on channel=0 note=70 velocity=0 time=24\n",
      "note_on channel=0 note=72 velocity=100 time=4\n",
      "note_on channel=0 note=72 velocity=0 time=31\n",
      "note_on channel=0 note=69 velocity=95 time=29\n",
      "note_on channel=0 note=69 velocity=0 time=28\n",
      "note_on channel=0 note=65 velocity=89 time=32\n",
      "note_on channel=0 note=65 velocity=0 time=31\n",
      "note_on channel=0 note=69 velocity=89 time=29\n",
      "note_on channel=0 note=69 velocity=0 time=32\n",
      "note_on channel=0 note=72 velocity=105 time=28\n",
      "note_on channel=0 note=70 velocity=107 time=60\n",
      "note_on channel=0 note=72 velocity=0 time=7\n",
      "note_on channel=0 note=69 velocity=100 time=23\n",
      "note_on channel=0 note=70 velocity=0 time=2\n",
      "note_on channel=0 note=70 velocity=98 time=28\n",
      "note_on channel=0 note=69 velocity=0 time=5\n",
      "note_on channel=0 note=70 velocity=0 time=30\n",
      "note_on channel=0 note=67 velocity=95 time=25\n",
      "note_on channel=0 note=67 velocity=0 time=28\n",
      "note_on channel=0 note=64 velocity=87 time=32\n",
      "note_on channel=0 note=64 velocity=0 time=32\n",
      "note_on channel=0 note=67 velocity=91 time=28\n",
      "note_on channel=0 note=67 velocity=0 time=25\n",
      "note_on channel=0 note=70 velocity=98 time=35\n",
      "note_on channel=0 note=70 velocity=0 time=52\n",
      "note_on channel=0 note=69 velocity=89 time=8\n",
      "note_on channel=0 note=67 velocity=102 time=30\n",
      "note_on channel=0 note=69 velocity=0 time=1\n",
      "note_on channel=0 note=69 velocity=100 time=29\n",
      "note_on channel=0 note=67 velocity=0 time=8\n",
      "note_on channel=0 note=65 velocity=85 time=22\n",
      "note_on channel=0 note=69 velocity=0 time=3\n",
      "note_on channel=0 note=64 velocity=82 time=27\n",
      "note_on channel=0 note=65 velocity=0 time=1\n",
      "note_on channel=0 note=65 velocity=100 time=29\n",
      "note_on channel=0 note=64 velocity=0 time=4\n",
      "note_on channel=0 note=69 velocity=89 time=26\n",
      "note_on channel=0 note=65 velocity=0 time=4\n",
      "note_on channel=0 note=65 velocity=100 time=26\n",
      "note_on channel=0 note=69 velocity=0 time=4\n",
      "note_on channel=0 note=64 velocity=98 time=26\n",
      "note_on channel=0 note=65 velocity=0 time=7\n",
      "note_on channel=0 note=65 velocity=93 time=23\n",
      "note_on channel=0 note=64 velocity=0 time=2\n",
      "note_on channel=0 note=62 velocity=105 time=28\n",
      "note_on channel=0 note=65 velocity=0 time=7\n",
      "note_on channel=0 note=65 velocity=87 time=23\n",
      "note_on channel=0 note=62 velocity=0 time=1\n",
      "note_on channel=0 note=59 velocity=102 time=29\n",
      "note_on channel=0 note=65 velocity=0 time=7\n",
      "note_on channel=0 note=62 velocity=91 time=23\n",
      "note_on channel=0 note=59 velocity=0 time=4\n",
      "note_on channel=0 note=55 velocity=85 time=26\n",
      "note_on channel=0 note=62 velocity=0 time=1\n",
      "note_on channel=0 note=64 velocity=87 time=29\n",
      "note_on channel=0 note=55 velocity=0 time=2\n",
      "note_on channel=0 note=62 velocity=102 time=28\n",
      "note_on channel=0 note=64 velocity=0 time=6\n",
      "note_on channel=0 note=64 velocity=95 time=24\n",
      "note_on channel=0 note=62 velocity=0 time=4\n",
      "note_on channel=0 note=67 velocity=98 time=26\n",
      "note_on channel=0 note=64 velocity=0 time=3\n",
      "note_on channel=0 note=64 velocity=98 time=27\n",
      "note_on channel=0 note=67 velocity=0 time=3\n",
      "note_on channel=0 note=62 velocity=105 time=27\n",
      "note_on channel=0 note=64 velocity=0 time=4\n",
      "note_on channel=0 note=64 velocity=91 time=26\n",
      "note_on channel=0 note=62 velocity=0 time=2\n",
      "note_on channel=0 note=60 velocity=105 time=28\n",
      "note_on channel=0 note=64 velocity=0 time=7\n",
      "note_on channel=0 note=60 velocity=0 time=22\n",
      "note_on channel=0 note=64 velocity=85 time=1\n",
      "note_on channel=0 note=57 velocity=102 time=30\n",
      "note_on channel=0 note=64 velocity=0 time=5\n",
      "note_on channel=0 note=60 velocity=91 time=25\n",
      "note_on channel=0 note=57 velocity=0 time=5\n",
      "note_on channel=0 note=60 velocity=0 time=23\n",
      "note_on channel=0 note=53 velocity=85 time=2\n",
      "note_on channel=0 note=62 velocity=87 time=30\n",
      "note_on channel=0 note=53 velocity=0 time=5\n",
      "note_on channel=0 note=59 velocity=87 time=25\n",
      "note_on channel=0 note=62 velocity=0 time=5\n",
      "note_on channel=0 note=59 velocity=0 time=25\n",
      "note_on channel=0 note=62 velocity=91 time=0\n",
      "note_on channel=0 note=65 velocity=91 time=30\n",
      "note_on channel=0 note=62 velocity=0 time=6\n",
      "note_on channel=0 note=62 velocity=105 time=24\n",
      "note_on channel=0 note=65 velocity=0 time=7\n",
      "note_on channel=0 note=60 velocity=105 time=23\n",
      "note_on channel=0 note=62 velocity=0 time=7\n",
      "note_on channel=0 note=62 velocity=102 time=23\n",
      "note_on channel=0 note=60 velocity=0 time=3\n",
      "note_on channel=0 note=59 velocity=110 time=27\n",
      "note_on channel=0 note=62 velocity=0 time=9\n",
      "note_on channel=0 note=62 velocity=102 time=21\n",
      "note_on channel=0 note=59 velocity=0 time=2\n",
      "note_on channel=0 note=55 velocity=102 time=28\n",
      "note_on channel=0 note=62 velocity=0 time=7\n",
      "note_on channel=0 note=59 velocity=89 time=23\n",
      "note_on channel=0 note=55 velocity=0 time=3\n",
      "note_on channel=0 note=59 velocity=0 time=24\n",
      "note_on channel=0 note=52 velocity=78 time=3\n",
      "note_on channel=0 note=52 velocity=0 time=21\n",
      "note_on channel=0 note=64 velocity=89 time=9\n",
      "note_on channel=0 note=62 velocity=100 time=30\n",
      "note_on channel=0 note=64 velocity=0 time=4\n",
      "note_on channel=0 note=64 velocity=100 time=26\n",
      "note_on channel=0 note=62 velocity=0 time=6\n",
      "note_on channel=0 note=67 velocity=85 time=24\n",
      "note_on channel=0 note=64 velocity=0 time=1\n",
      "note_on channel=0 note=64 velocity=95 time=29\n",
      "note_on channel=0 note=67 velocity=0 time=7\n",
      "note_on channel=0 note=62 velocity=105 time=23\n",
      "note_on channel=0 note=64 velocity=0 time=4\n",
      "note_on channel=0 note=64 velocity=89 time=26\n",
      "note_on channel=0 note=62 velocity=0 time=9\n",
      "note_on channel=0 note=64 velocity=0 time=17\n",
      "note_on channel=0 note=60 velocity=102 time=4\n",
      "note_on channel=0 note=60 velocity=0 time=15\n",
      "note_on channel=0 note=64 velocity=113 time=15\n",
      "note_on channel=0 note=64 velocity=0 time=10\n",
      "note_on channel=0 note=67 velocity=110 time=20\n",
      "note_on channel=0 note=67 velocity=0 time=83\n",
      "note_on channel=0 note=65 velocity=102 time=7\n",
      "note_on channel=0 note=64 velocity=100 time=30\n",
      "note_on channel=0 note=65 velocity=0 time=6\n",
      "note_on channel=0 note=65 velocity=100 time=24\n",
      "note_on channel=0 note=64 velocity=0 time=3\n",
      "note_on channel=0 note=67 velocity=89 time=27\n",
      "note_on channel=0 note=65 velocity=0 time=9\n",
      "note_on channel=0 note=65 velocity=100 time=21\n",
      "note_on channel=0 note=67 velocity=0 time=9\n",
      "note_on channel=0 note=64 velocity=105 time=21\n",
      "note_on channel=0 note=65 velocity=0 time=7\n",
      "note_on channel=0 note=65 velocity=93 time=23\n",
      "note_on channel=0 note=64 velocity=0 time=4\n",
      "note_on channel=0 note=60 velocity=89 time=26\n",
      "note_on channel=0 note=65 velocity=0 time=1\n",
      "note_on channel=0 note=60 velocity=0 time=13\n",
      "note_on channel=0 note=64 velocity=116 time=16\n",
      "note_on channel=0 note=64 velocity=0 time=9\n",
      "note_on channel=0 note=65 velocity=107 time=21\n",
      "note_on channel=0 note=64 velocity=105 time=90\n",
      "note_on channel=0 note=65 velocity=0 time=5\n",
      "note_on channel=0 note=62 velocity=107 time=25\n",
      "note_on channel=0 note=64 velocity=0 time=4\n",
      "note_on channel=0 note=64 velocity=100 time=26\n",
      "note_on channel=0 note=62 velocity=0 time=3\n",
      "note_on channel=0 note=65 velocity=87 time=27\n",
      "note_on channel=0 note=64 velocity=0 time=10\n",
      "note_on channel=0 note=64 velocity=98 time=20\n",
      "note_on channel=0 note=65 velocity=0 time=10\n",
      "note_on channel=0 note=62 velocity=98 time=20\n",
      "note_on channel=0 note=64 velocity=0 time=7\n",
      "note_on channel=0 note=64 velocity=87 time=23\n",
      "note_on channel=0 note=62 velocity=0 time=4\n",
      "note_on channel=0 note=60 velocity=85 time=26\n",
      "note_on channel=0 note=64 velocity=0 time=4\n",
      "note_on channel=0 note=60 velocity=0 time=6\n",
      "note_on channel=0 note=62 velocity=110 time=20\n",
      "note_on channel=0 note=62 velocity=0 time=10\n",
      "note_on channel=0 note=64 velocity=110 time=20\n",
      "note_on channel=0 note=62 velocity=105 time=90\n",
      "note_on channel=0 note=64 velocity=0 time=7\n",
      "note_on channel=0 note=60 velocity=87 time=23\n",
      "note_on channel=0 note=62 velocity=0 time=2\n",
      "note_on channel=0 note=62 velocity=102 time=28\n",
      "note_on channel=0 note=60 velocity=0 time=3\n",
      "note_on channel=0 note=65 velocity=85 time=27\n",
      "note_on channel=0 note=62 velocity=0 time=5\n",
      "note_on channel=0 note=62 velocity=102 time=25\n",
      "note_on channel=0 note=65 velocity=0 time=8\n",
      "note_on channel=0 note=60 velocity=105 time=22\n",
      "note_on channel=0 note=62 velocity=0 time=6\n",
      "note_on channel=0 note=62 velocity=100 time=24\n",
      "note_on channel=0 note=60 velocity=0 time=6\n",
      "note_on channel=0 note=59 velocity=105 time=24\n",
      "note_on channel=0 note=62 velocity=0 time=4\n",
      "note_on channel=0 note=59 velocity=0 time=27\n",
      "note_on channel=0 note=71 velocity=102 time=29\n",
      "note_on channel=0 note=71 velocity=0 time=39\n",
      "note_on channel=0 note=72 velocity=107 time=21\n",
      "note_on channel=0 note=67 velocity=87 time=30\n",
      "note_on channel=0 note=72 velocity=0 time=3\n",
      "note_on channel=0 note=67 velocity=0 time=27\n",
      "note_on channel=0 note=65 velocity=72 time=0\n",
      "note_on channel=0 note=67 velocity=89 time=30\n",
      "note_on channel=0 note=65 velocity=0 time=2\n",
      "note_on channel=0 note=67 velocity=0 time=23\n",
      "note_on channel=0 note=76 velocity=113 time=5\n",
      "note_on channel=0 note=76 velocity=0 time=233\n",
      "note_on channel=0 note=65 velocity=98 time=37\n",
      "note_on channel=0 note=64 velocity=89 time=30\n",
      "note_on channel=0 note=65 velocity=0 time=1\n",
      "note_on channel=0 note=65 velocity=102 time=29\n",
      "note_on channel=0 note=64 velocity=0 time=3\n",
      "note_on channel=0 note=65 velocity=0 time=20\n",
      "note_on channel=0 note=74 velocity=107 time=7\n",
      "note_on channel=0 note=74 velocity=0 time=237\n",
      "note_on channel=0 note=64 velocity=98 time=33\n",
      "note_on channel=0 note=64 velocity=0 time=29\n",
      "note_on channel=0 note=62 velocity=89 time=1\n",
      "note_on channel=0 note=64 velocity=89 time=30\n",
      "note_on channel=0 note=62 velocity=0 time=4\n",
      "note_on channel=0 note=64 velocity=0 time=22\n",
      "note_on channel=0 note=72 velocity=107 time=4\n",
      "note_on channel=0 note=71 velocity=87 time=270\n",
      "note_on channel=0 note=72 velocity=0 time=6\n",
      "note_on channel=0 note=69 velocity=102 time=24\n",
      "note_on channel=0 note=71 velocity=0 time=3\n",
      "note_on channel=0 note=67 velocity=100 time=27\n",
      "note_on channel=0 note=69 velocity=0 time=7\n",
      "note_on channel=0 note=65 velocity=80 time=23\n",
      "note_on channel=0 note=67 velocity=0 time=3\n",
      "note_on channel=0 note=64 velocity=95 time=27\n",
      "note_on channel=0 note=65 velocity=0 time=3\n",
      "note_on channel=0 note=62 velocity=102 time=27\n",
      "note_on channel=0 note=64 velocity=0 time=8\n",
      "note_on channel=0 note=62 velocity=0 time=20\n",
      "note_on channel=0 note=60 velocity=74 time=2\n",
      "note_on channel=0 note=60 velocity=0 time=30\n",
      "note_on channel=0 note=59 velocity=105 time=0\n",
      "note_on channel=0 note=57 velocity=100 time=30\n",
      "note_on channel=0 note=59 velocity=0 time=15\n",
      "note_on channel=0 note=55 velocity=100 time=15\n",
      "note_on channel=0 note=57 velocity=0 time=7\n",
      "note_on channel=0 note=55 velocity=0 time=20\n",
      "note_on channel=0 note=53 velocity=91 time=3\n",
      "note_on channel=0 note=55 velocity=107 time=30\n",
      "note_on channel=0 note=53 velocity=0 time=1\n",
      "note_on channel=0 note=55 velocity=0 time=35\n",
      "note_on channel=0 note=65 velocity=98 time=24\n",
      "note_on channel=0 note=65 velocity=0 time=24\n",
      "note_on channel=0 note=64 velocity=100 time=36\n",
      "note_on channel=0 note=64 velocity=0 time=40\n",
      "note_on channel=0 note=69 velocity=102 time=20\n",
      "note_on channel=0 note=67 velocity=100 time=30\n",
      "note_on channel=0 note=69 velocity=0 time=7\n",
      "note_on channel=0 note=65 velocity=113 time=23\n",
      "note_on channel=0 note=67 velocity=0 time=10\n",
      "note_on channel=0 note=64 velocity=100 time=20\n",
      "note_on channel=0 note=65 velocity=0 time=5\n",
      "note_on channel=0 note=62 velocity=80 time=25\n",
      "note_on channel=0 note=64 velocity=0 time=2\n",
      "note_on channel=0 note=60 velocity=105 time=28\n",
      "note_on channel=0 note=62 velocity=0 time=5\n",
      "note_on channel=0 note=60 velocity=0 time=19\n",
      "note_on channel=0 note=60 velocity=98 time=6\n",
      "note_on channel=0 note=60 velocity=0 time=119\n",
      "<meta message end_of_track time=0>\n",
      "Track 2: Great RH\n",
      "<meta message midi_port port=0 time=0>\n",
      "<meta message track_name name='Great RH' time=0>\n",
      "program_change channel=2 program=73 time=0\n",
      "control_change channel=2 control=7 value=127 time=0\n",
      "control_change channel=2 control=10 value=55 time=0\n",
      "control_change channel=2 control=91 value=65 time=385\n",
      "control_change channel=2 control=1 value=7 time=0\n",
      "note_on channel=2 note=72 velocity=68 time=5\n",
      "note_on channel=2 note=71 velocity=66 time=30\n",
      "note_on channel=2 note=72 velocity=0 time=1\n",
      "note_on channel=2 note=72 velocity=66 time=29\n",
      "note_on channel=2 note=71 velocity=0 time=4\n",
      "note_on channel=2 note=76 velocity=82 time=26\n",
      "note_on channel=2 note=72 velocity=0 time=4\n",
      "note_on channel=2 note=72 velocity=82 time=26\n",
      "note_on channel=2 note=76 velocity=0 time=2\n",
      "note_on channel=2 note=71 velocity=82 time=28\n",
      "note_on channel=2 note=72 velocity=0 time=4\n",
      "note_on channel=2 note=72 velocity=72 time=26\n",
      "note_on channel=2 note=71 velocity=0 time=4\n",
      "note_on channel=2 note=67 velocity=63 time=26\n",
      "note_on channel=2 note=72 velocity=0 time=5\n",
      "note_on channel=2 note=72 velocity=76 time=25\n",
      "note_on channel=2 note=67 velocity=0 time=5\n",
      "note_on channel=2 note=72 velocity=0 time=24\n",
      "note_on channel=2 note=64 velocity=74 time=1\n",
      "note_on channel=2 note=67 velocity=72 time=30\n",
      "note_on channel=2 note=64 velocity=0 time=1\n",
      "note_on channel=2 note=60 velocity=85 time=29\n",
      "note_on channel=2 note=67 velocity=0 time=3\n",
      "note_on channel=2 note=60 velocity=0 time=33\n",
      "note_on channel=2 note=79 velocity=85 time=24\n",
      "note_on channel=2 note=79 velocity=0 time=20\n",
      "note_on channel=2 note=76 velocity=91 time=40\n",
      "note_on channel=2 note=76 velocity=0 time=26\n",
      "note_on channel=2 note=79 velocity=82 time=34\n",
      "note_on channel=2 note=79 velocity=0 time=27\n",
      "note_on channel=2 note=81 velocity=102 time=33\n",
      "note_on channel=2 note=81 velocity=0 time=54\n",
      "note_on channel=2 note=79 velocity=95 time=6\n",
      "note_on channel=2 note=79 velocity=0 time=30\n",
      "note_on channel=2 note=77 velocity=100 time=0\n",
      "note_on channel=2 note=77 velocity=0 time=28\n",
      "note_on channel=2 note=79 velocity=105 time=2\n",
      "note_on channel=2 note=79 velocity=0 time=125\n",
      "note_on channel=2 note=76 velocity=93 time=295\n",
      "note_on channel=2 note=76 velocity=0 time=21\n",
      "note_on channel=2 note=72 velocity=95 time=39\n",
      "note_on channel=2 note=72 velocity=0 time=33\n",
      "note_on channel=2 note=76 velocity=91 time=27\n",
      "note_on channel=2 note=76 velocity=0 time=37\n",
      "note_on channel=2 note=77 velocity=98 time=23\n",
      "note_on channel=2 note=76 velocity=102 time=60\n",
      "note_on channel=2 note=77 velocity=0 time=4\n",
      "note_on channel=2 note=74 velocity=100 time=26\n",
      "note_on channel=2 note=76 velocity=0 time=2\n",
      "note_on channel=2 note=74 velocity=0 time=27\n",
      "note_on channel=2 note=76 velocity=105 time=1\n",
      "note_on channel=2 note=76 velocity=0 time=38\n",
      "note_on channel=2 note=79 velocity=85 time=22\n",
      "note_on channel=2 note=79 velocity=0 time=32\n",
      "note_on channel=2 note=72 velocity=89 time=28\n",
      "note_on channel=2 note=72 velocity=0 time=24\n",
      "note_on channel=2 note=76 velocity=80 time=36\n",
      "note_on channel=2 note=76 velocity=0 time=31\n",
      "note_on channel=2 note=69 velocity=87 time=29\n",
      "note_on channel=2 note=72 velocity=87 time=30\n",
      "note_on channel=2 note=69 velocity=0 time=2\n",
      "note_on channel=2 note=74 velocity=100 time=28\n",
      "note_on channel=2 note=72 velocity=0 time=4\n",
      "note_on channel=2 note=76 velocity=102 time=26\n",
      "note_on channel=2 note=74 velocity=0 time=1\n",
      "note_on channel=2 note=77 velocity=98 time=29\n",
      "note_on channel=2 note=76 velocity=0 time=7\n",
      "note_on channel=2 note=77 velocity=0 time=34\n",
      "note_on channel=2 note=81 velocity=95 time=19\n",
      "note_on channel=2 note=81 velocity=0 time=30\n",
      "note_on channel=2 note=74 velocity=98 time=30\n",
      "note_on channel=2 note=74 velocity=0 time=32\n",
      "note_on channel=2 note=77 velocity=85 time=28\n",
      "note_on channel=2 note=77 velocity=0 time=30\n",
      "note_on channel=2 note=71 velocity=82 time=30\n",
      "note_on channel=2 note=71 velocity=0 time=30\n",
      "note_on channel=2 note=74 velocity=100 time=0\n",
      "note_on channel=2 note=76 velocity=100 time=30\n",
      "note_on channel=2 note=74 velocity=0 time=4\n",
      "note_on channel=2 note=76 velocity=0 time=25\n",
      "note_on channel=2 note=77 velocity=100 time=1\n",
      "note_on channel=2 note=79 velocity=95 time=30\n",
      "note_on channel=2 note=77 velocity=0 time=6\n",
      "note_on channel=2 note=79 velocity=0 time=25\n",
      "note_on channel=2 note=84 velocity=93 time=29\n",
      "note_on channel=2 note=84 velocity=0 time=25\n",
      "note_on channel=2 note=79 velocity=95 time=5\n",
      "note_on channel=2 note=79 velocity=0 time=24\n",
      "note_on channel=2 note=76 velocity=105 time=6\n",
      "note_on channel=2 note=76 velocity=0 time=54\n",
      "note_on channel=2 note=79 velocity=85 time=6\n",
      "note_on channel=2 note=79 velocity=0 time=29\n",
      "note_on channel=2 note=76 velocity=100 time=1\n",
      "note_on channel=2 note=76 velocity=0 time=29\n",
      "note_on channel=2 note=72 velocity=82 time=1\n",
      "note_on channel=2 note=72 velocity=0 time=30\n",
      "note_on channel=2 note=76 velocity=98 time=0\n",
      "note_on channel=2 note=77 velocity=91 time=30\n",
      "note_on channel=2 note=76 velocity=0 time=3\n",
      "note_on channel=2 note=79 velocity=95 time=27\n",
      "note_on channel=2 note=77 velocity=0 time=2\n",
      "note_on channel=2 note=81 velocity=93 time=28\n",
      "note_on channel=2 note=79 velocity=0 time=5\n",
      "note_on channel=2 note=79 velocity=70 time=25\n",
      "note_on channel=2 note=81 velocity=0 time=4\n",
      "note_on channel=2 note=81 velocity=89 time=26\n",
      "note_on channel=2 note=79 velocity=0 time=6\n",
      "note_on channel=2 note=82 velocity=87 time=24\n",
      "note_on channel=2 note=81 velocity=0 time=4\n",
      "note_on channel=2 note=81 velocity=100 time=26\n",
      "note_on channel=2 note=82 velocity=0 time=10\n",
      "note_on channel=2 note=79 velocity=98 time=20\n",
      "note_on channel=2 note=81 velocity=0 time=5\n",
      "note_on channel=2 note=77 velocity=76 time=25\n",
      "note_on channel=2 note=79 velocity=0 time=1\n",
      "note_on channel=2 note=77 velocity=0 time=29\n",
      "note_on channel=2 note=76 velocity=80 time=0\n",
      "note_on channel=2 note=74 velocity=100 time=30\n",
      "note_on channel=2 note=76 velocity=0 time=7\n",
      "note_on channel=2 note=74 velocity=0 time=21\n",
      "note_on channel=2 note=72 velocity=68 time=2\n",
      "note_on channel=2 note=71 velocity=91 time=30\n",
      "note_on channel=2 note=72 velocity=0 time=28\n",
      "note_on channel=2 note=69 velocity=93 time=2\n",
      "note_on channel=2 note=71 velocity=0 time=2\n",
      "note_on channel=2 note=71 velocity=102 time=28\n",
      "note_on channel=2 note=69 velocity=0 time=5\n",
      "note_on channel=2 note=72 velocity=91 time=25\n",
      "note_on channel=2 note=71 velocity=0 time=5\n",
      "note_on channel=2 note=71 velocity=82 time=25\n",
      "note_on channel=2 note=72 velocity=0 time=4\n",
      "note_on channel=2 note=71 velocity=0 time=21\n",
      "note_on channel=2 note=67 velocity=66 time=5\n",
      "note_on channel=2 note=67 velocity=0 time=28\n",
      "note_on channel=2 note=74 velocity=87 time=2\n",
      "note_on channel=2 note=76 velocity=80 time=30\n",
      "note_on channel=2 note=74 velocity=0 time=2\n",
      "note_on channel=2 note=74 velocity=85 time=28\n",
      "note_on channel=2 note=76 velocity=0 time=10\n",
      "note_on channel=2 note=74 velocity=0 time=15\n",
      "note_on channel=2 note=71 velocity=62 time=5\n",
      "note_on channel=2 note=77 velocity=91 time=30\n",
      "note_on channel=2 note=71 velocity=0 time=7\n",
      "note_on channel=2 note=79 velocity=85 time=23\n",
      "note_on channel=2 note=77 velocity=0 time=4\n",
      "note_on channel=2 note=77 velocity=78 time=26\n",
      "note_on channel=2 note=79 velocity=0 time=4\n",
      "note_on channel=2 note=77 velocity=0 time=24\n",
      "note_on channel=2 note=74 velocity=91 time=2\n",
      "note_on channel=2 note=74 velocity=0 time=28\n",
      "note_on channel=2 note=75 velocity=98 time=2\n",
      "note_on channel=2 note=75 velocity=0 time=33\n",
      "note_on channel=2 note=72 velocity=93 time=27\n",
      "note_on channel=2 note=72 velocity=0 time=34\n",
      "note_on channel=2 note=79 velocity=100 time=26\n",
      "note_on channel=2 note=79 velocity=0 time=25\n",
      "note_on channel=2 note=75 velocity=95 time=35\n",
      "note_on channel=2 note=75 velocity=0 time=25\n",
      "note_on channel=2 note=84 velocity=110 time=35\n",
      "note_on channel=2 note=82 velocity=74 time=150\n",
      "note_on channel=2 note=84 velocity=0 time=6\n",
      "note_on channel=2 note=81 velocity=91 time=24\n",
      "note_on channel=2 note=82 velocity=0 time=4\n",
      "note_on channel=2 note=81 velocity=0 time=21\n",
      "note_on channel=2 note=79 velocity=80 time=5\n",
      "note_on channel=2 note=78 velocity=105 time=30\n",
      "note_on channel=2 note=79 velocity=0 time=2\n",
      "note_on channel=2 note=78 velocity=0 time=28\n",
      "note_on channel=2 note=81 velocity=80 time=0\n",
      "note_on channel=2 note=75 velocity=102 time=30\n",
      "note_on channel=2 note=81 velocity=0 time=3\n",
      "note_on channel=2 note=74 velocity=89 time=27\n",
      "note_on channel=2 note=75 velocity=0 time=2\n",
      "note_on channel=2 note=75 velocity=105 time=28\n",
      "note_on channel=2 note=74 velocity=0 time=6\n",
      "note_on channel=2 note=72 velocity=82 time=24\n",
      "note_on channel=2 note=75 velocity=0 time=4\n",
      "note_on channel=2 note=79 velocity=87 time=26\n",
      "note_on channel=2 note=72 velocity=0 time=6\n",
      "note_on channel=2 note=78 velocity=91 time=24\n",
      "note_on channel=2 note=79 velocity=0 time=5\n",
      "note_on channel=2 note=79 velocity=89 time=25\n",
      "note_on channel=2 note=78 velocity=0 time=4\n",
      "note_on channel=2 note=74 velocity=85 time=26\n",
      "note_on channel=2 note=79 velocity=0 time=7\n",
      "note_on channel=2 note=74 velocity=0 time=21\n",
      "note_on channel=2 note=72 velocity=76 time=2\n",
      "note_on channel=2 note=74 velocity=82 time=30\n",
      "note_on channel=2 note=72 velocity=0 time=4\n",
      "note_on channel=2 note=74 velocity=0 time=25\n",
      "note_on channel=2 note=83 velocity=91 time=1\n",
      "note_on channel=2 note=83 velocity=0 time=225\n",
      "note_on channel=2 note=72 velocity=85 time=45\n",
      "note_on channel=2 note=71 velocity=68 time=30\n",
      "note_on channel=2 note=72 velocity=0 time=3\n",
      "note_on channel=2 note=71 velocity=0 time=27\n",
      "note_on channel=2 note=72 velocity=80 time=0\n",
      "note_on channel=2 note=72 velocity=0 time=26\n",
      "note_on channel=2 note=81 velocity=82 time=4\n",
      "note_on channel=2 note=81 velocity=0 time=250\n",
      "note_on channel=2 note=71 velocity=85 time=20\n",
      "note_on channel=2 note=71 velocity=0 time=30\n",
      "note_on channel=2 note=69 velocity=70 time=0\n",
      "note_on channel=2 note=71 velocity=76 time=30\n",
      "note_on channel=2 note=69 velocity=0 time=1\n",
      "note_on channel=2 note=71 velocity=0 time=25\n",
      "note_on channel=2 note=79 velocity=87 time=4\n",
      "note_on channel=2 note=79 velocity=0 time=264\n",
      "note_on channel=2 note=78 velocity=85 time=6\n",
      "note_on channel=2 note=76 velocity=93 time=30\n",
      "note_on channel=2 note=78 velocity=0 time=3\n",
      "note_on channel=2 note=76 velocity=0 time=27\n",
      "note_on channel=2 note=74 velocity=87 time=0\n",
      "note_on channel=2 note=72 velocity=55 time=30\n",
      "note_on channel=2 note=74 velocity=0 time=3\n",
      "note_on channel=2 note=72 velocity=0 time=24\n",
      "note_on channel=2 note=71 velocity=91 time=3\n",
      "note_on channel=2 note=69 velocity=93 time=30\n",
      "note_on channel=2 note=71 velocity=0 time=6\n",
      "note_on channel=2 note=69 velocity=0 time=20\n",
      "note_on channel=2 note=67 velocity=72 time=4\n",
      "note_on channel=2 note=66 velocity=102 time=30\n",
      "note_on channel=2 note=67 velocity=0 time=3\n",
      "note_on channel=2 note=64 velocity=95 time=27\n",
      "note_on channel=2 note=66 velocity=0 time=3\n",
      "note_on channel=2 note=64 velocity=0 time=26\n",
      "note_on channel=2 note=62 velocity=74 time=1\n",
      "note_on channel=2 note=60 velocity=98 time=30\n",
      "note_on channel=2 note=62 velocity=0 time=3\n",
      "note_on channel=2 note=60 velocity=0 time=27\n",
      "note_on channel=2 note=62 velocity=91 time=0\n",
      "note_on channel=2 note=62 velocity=0 time=43\n",
      "note_on channel=2 note=72 velocity=89 time=17\n",
      "note_on channel=2 note=72 velocity=0 time=56\n",
      "note_on channel=2 note=71 velocity=95 time=4\n",
      "note_on channel=2 note=71 velocity=0 time=49\n",
      "note_on channel=2 note=76 velocity=107 time=11\n",
      "note_on channel=2 note=74 velocity=102 time=30\n",
      "note_on channel=2 note=76 velocity=0 time=4\n",
      "note_on channel=2 note=72 velocity=105 time=26\n",
      "note_on channel=2 note=74 velocity=0 time=7\n",
      "note_on channel=2 note=71 velocity=102 time=23\n",
      "note_on channel=2 note=72 velocity=0 time=3\n",
      "note_on channel=2 note=69 velocity=66 time=27\n",
      "note_on channel=2 note=71 velocity=0 time=1\n",
      "note_on channel=2 note=67 velocity=105 time=29\n",
      "note_on channel=2 note=69 velocity=0 time=1\n",
      "note_on channel=2 note=67 velocity=0 time=21\n",
      "note_on channel=2 note=67 velocity=102 time=8\n",
      "note_on channel=2 note=67 velocity=0 time=130\n",
      "note_on channel=2 note=83 velocity=89 time=290\n",
      "note_on channel=2 note=83 velocity=0 time=28\n",
      "note_on channel=2 note=79 velocity=80 time=32\n",
      "note_on channel=2 note=79 velocity=0 time=28\n",
      "note_on channel=2 note=83 velocity=89 time=32\n",
      "note_on channel=2 note=83 velocity=0 time=28\n",
      "note_on channel=2 note=84 velocity=102 time=32\n",
      "note_on channel=2 note=83 velocity=100 time=60\n",
      "note_on channel=2 note=84 velocity=0 time=2\n",
      "note_on channel=2 note=81 velocity=102 time=28\n",
      "note_on channel=2 note=83 velocity=0 time=4\n",
      "note_on channel=2 note=83 velocity=95 time=26\n",
      "note_on channel=2 note=81 velocity=0 time=6\n",
      "note_on channel=2 note=83 velocity=0 time=21\n",
      "note_on channel=2 note=79 velocity=68 time=3\n",
      "note_on channel=2 note=78 velocity=98 time=30\n",
      "note_on channel=2 note=79 velocity=0 time=5\n",
      "note_on channel=2 note=79 velocity=85 time=25\n",
      "note_on channel=2 note=78 velocity=0 time=1\n",
      "note_on channel=2 note=83 velocity=105 time=29\n",
      "note_on channel=2 note=79 velocity=0 time=4\n",
      "note_on channel=2 note=79 velocity=85 time=26\n",
      "note_on channel=2 note=83 velocity=0 time=5\n",
      "note_on channel=2 note=78 velocity=107 time=25\n",
      "note_on channel=2 note=79 velocity=0 time=4\n",
      "note_on channel=2 note=79 velocity=78 time=26\n",
      "note_on channel=2 note=78 velocity=0 time=4\n",
      "note_on channel=2 note=74 velocity=102 time=26\n",
      "note_on channel=2 note=79 velocity=0 time=3\n",
      "note_on channel=2 note=79 velocity=100 time=27\n",
      "note_on channel=2 note=74 velocity=0 time=2\n",
      "note_on channel=2 note=71 velocity=102 time=28\n",
      "note_on channel=2 note=79 velocity=0 time=6\n",
      "note_on channel=2 note=74 velocity=89 time=24\n",
      "note_on channel=2 note=71 velocity=0 time=7\n",
      "note_on channel=2 note=74 velocity=0 time=22\n",
      "note_on channel=2 note=67 velocity=91 time=1\n",
      "note_on channel=2 note=67 velocity=0 time=38\n",
      "note_on channel=2 note=74 velocity=102 time=22\n",
      "note_on channel=2 note=74 velocity=0 time=36\n",
      "note_on channel=2 note=71 velocity=82 time=24\n",
      "note_on channel=2 note=71 velocity=0 time=33\n",
      "note_on channel=2 note=74 velocity=105 time=27\n",
      "note_on channel=2 note=74 velocity=0 time=31\n",
      "note_on channel=2 note=76 velocity=105 time=29\n",
      "note_on channel=2 note=74 velocity=105 time=60\n",
      "note_on channel=2 note=76 velocity=0 time=4\n",
      "note_on channel=2 note=74 velocity=0 time=26\n",
      "note_on channel=2 note=72 velocity=102 time=0\n",
      "note_on channel=2 note=74 velocity=98 time=30\n",
      "note_on channel=2 note=72 velocity=0 time=3\n",
      "note_on channel=2 note=71 velocity=87 time=27\n",
      "note_on channel=2 note=74 velocity=0 time=4\n",
      "note_on channel=2 note=67 velocity=82 time=26\n",
      "note_on channel=2 note=71 velocity=0 time=1\n",
      "note_on channel=2 note=67 velocity=0 time=29\n",
      "note_on channel=2 note=71 velocity=102 time=0\n",
      "note_on channel=2 note=76 velocity=102 time=30\n",
      "note_on channel=2 note=71 velocity=0 time=1\n",
      "note_on channel=2 note=71 velocity=93 time=29\n",
      "note_on channel=2 note=76 velocity=0 time=3\n",
      "note_on channel=2 note=71 velocity=0 time=26\n",
      "note_on channel=2 note=67 velocity=66 time=1\n",
      "note_on channel=2 note=71 velocity=85 time=30\n",
      "note_on channel=2 note=67 velocity=0 time=4\n",
      "note_on channel=2 note=71 velocity=0 time=24\n",
      "note_on channel=2 note=79 velocity=105 time=2\n",
      "note_on channel=2 note=79 velocity=0 time=120\n",
      "note_on channel=2 note=72 velocity=87 time=30\n",
      "note_on channel=2 note=72 velocity=0 time=28\n",
      "note_on channel=2 note=69 velocity=80 time=2\n",
      "note_on channel=2 note=69 velocity=0 time=30\n",
      "note_on channel=2 note=72 velocity=82 time=0\n",
      "note_on channel=2 note=78 velocity=89 time=30\n",
      "note_on channel=2 note=72 velocity=0 time=1\n",
      "note_on channel=2 note=72 velocity=72 time=29\n",
      "note_on channel=2 note=78 velocity=0 time=1\n",
      "note_on channel=2 note=72 velocity=0 time=29\n",
      "note_on channel=2 note=69 velocity=66 time=0\n",
      "note_on channel=2 note=72 velocity=78 time=30\n",
      "note_on channel=2 note=69 velocity=0 time=2\n",
      "note_on channel=2 note=72 velocity=0 time=25\n",
      "note_on channel=2 note=81 velocity=102 time=3\n",
      "note_on channel=2 note=81 velocity=0 time=121\n",
      "note_on channel=2 note=74 velocity=89 time=29\n",
      "note_on channel=2 note=71 velocity=74 time=30\n",
      "note_on channel=2 note=74 velocity=0 time=3\n",
      "note_on channel=2 note=74 velocity=85 time=27\n",
      "note_on channel=2 note=71 velocity=0 time=1\n",
      "note_on channel=2 note=74 velocity=0 time=28\n",
      "note_on channel=2 note=79 velocity=82 time=1\n",
      "note_on channel=2 note=74 velocity=70 time=30\n",
      "note_on channel=2 note=79 velocity=0 time=6\n",
      "note_on channel=2 note=71 velocity=82 time=24\n",
      "note_on channel=2 note=74 velocity=0 time=8\n",
      "note_on channel=2 note=71 velocity=0 time=21\n",
      "note_on channel=2 note=74 velocity=87 time=1\n",
      "note_on channel=2 note=74 velocity=0 time=26\n",
      "note_on channel=2 note=83 velocity=105 time=4\n",
      "note_on channel=2 note=83 velocity=0 time=130\n",
      "note_on channel=2 note=81 velocity=95 time=50\n",
      "note_on channel=2 note=80 velocity=85 time=30\n",
      "note_on channel=2 note=81 velocity=0 time=1\n",
      "note_on channel=2 note=80 velocity=0 time=23\n",
      "note_on channel=2 note=81 velocity=95 time=6\n",
      "note_on channel=2 note=81 velocity=0 time=29\n",
      "note_on channel=2 note=76 velocity=89 time=31\n",
      "note_on channel=2 note=76 velocity=0 time=25\n",
      "note_on channel=2 note=84 velocity=102 time=35\n",
      "note_on channel=2 note=84 velocity=0 time=137\n",
      "note_on channel=2 note=81 velocity=85 time=43\n",
      "note_on channel=2 note=81 velocity=0 time=33\n",
      "note_on channel=2 note=78 velocity=89 time=27\n",
      "note_on channel=2 note=78 velocity=0 time=29\n",
      "note_on channel=2 note=81 velocity=85 time=31\n",
      "note_on channel=2 note=81 velocity=0 time=22\n",
      "note_on channel=2 note=74 velocity=91 time=38\n",
      "note_on channel=2 note=74 velocity=0 time=30\n",
      "note_on channel=2 note=78 velocity=93 time=30\n",
      "note_on channel=2 note=78 velocity=0 time=26\n",
      "note_on channel=2 note=79 velocity=59 time=34\n",
      "note_on channel=2 note=81 velocity=64 time=30\n",
      "note_on channel=2 note=79 velocity=0 time=3\n",
      "note_on channel=2 note=82 velocity=68 time=27\n",
      "note_on channel=2 note=81 velocity=0 time=8\n",
      "note_on channel=2 note=84 velocity=70 time=22\n",
      "note_on channel=2 note=82 velocity=0 time=2\n",
      "note_on channel=2 note=82 velocity=72 time=28\n",
      "note_on channel=2 note=84 velocity=0 time=12\n",
      "note_on channel=2 note=81 velocity=68 time=18\n",
      "note_on channel=2 note=82 velocity=0 time=7\n",
      "note_on channel=2 note=79 velocity=64 time=23\n",
      "note_on channel=2 note=81 velocity=0 time=1\n",
      "note_on channel=2 note=77 velocity=70 time=29\n",
      "note_on channel=2 note=79 velocity=0 time=2\n",
      "note_on channel=2 note=76 velocity=85 time=28\n",
      "note_on channel=2 note=77 velocity=0 time=9\n",
      "note_on channel=2 note=76 velocity=0 time=19\n",
      "note_on channel=2 note=74 velocity=60 time=2\n",
      "note_on channel=2 note=73 velocity=89 time=30\n",
      "note_on channel=2 note=74 velocity=0 time=3\n",
      "note_on channel=2 note=71 velocity=78 time=27\n",
      "note_on channel=2 note=73 velocity=0 time=3\n",
      "note_on channel=2 note=73 velocity=95 time=27\n",
      "note_on channel=2 note=71 velocity=0 time=12\n",
      "note_on channel=2 note=73 velocity=0 time=10\n",
      "note_on channel=2 note=67 velocity=72 time=38\n",
      "note_on channel=2 note=67 velocity=0 time=32\n",
      "note_on channel=2 note=76 velocity=82 time=28\n",
      "note_on channel=2 note=76 velocity=0 time=23\n",
      "note_on channel=2 note=73 velocity=78 time=37\n",
      "note_on channel=2 note=73 velocity=0 time=17\n",
      "note_on channel=2 note=79 velocity=89 time=43\n",
      "note_on channel=2 note=79 velocity=0 time=127\n",
      "note_on channel=2 note=78 velocity=85 time=23\n",
      "note_on channel=2 note=78 velocity=0 time=28\n",
      "note_on channel=2 note=76 velocity=78 time=2\n",
      "note_on channel=2 note=76 velocity=0 time=29\n",
      "note_on channel=2 note=74 velocity=76 time=1\n",
      "note_on channel=2 note=74 velocity=0 time=30\n",
      "note_on channel=2 note=83 velocity=91 time=0\n",
      "note_on channel=2 note=83 velocity=0 time=134\n",
      "note_on channel=2 note=84 velocity=85 time=16\n",
      "note_on channel=2 note=83 velocity=72 time=30\n",
      "note_on channel=2 note=84 velocity=0 time=10\n",
      "note_on channel=2 note=81 velocity=91 time=20\n",
      "note_on channel=2 note=83 velocity=0 time=3\n",
      "note_on channel=2 note=79 velocity=68 time=27\n",
      "note_on channel=2 note=81 velocity=0 time=3\n",
      "note_on channel=2 note=79 velocity=0 time=144\n",
      "note_on channel=2 note=78 velocity=95 time=33\n",
      "note_on channel=2 note=76 velocity=82 time=30\n",
      "note_on channel=2 note=78 velocity=0 time=2\n",
      "note_on channel=2 note=74 velocity=87 time=28\n",
      "note_on channel=2 note=76 velocity=0 time=6\n",
      "note_on channel=2 note=74 velocity=0 time=24\n",
      "note_on channel=2 note=72 velocity=64 time=0\n",
      "note_on channel=2 note=71 velocity=89 time=30\n",
      "note_on channel=2 note=72 velocity=0 time=3\n",
      "note_on channel=2 note=69 velocity=100 time=27\n",
      "note_on channel=2 note=71 velocity=0 time=8\n",
      "note_on channel=2 note=67 velocity=80 time=22\n",
      "note_on channel=2 note=69 velocity=0 time=1\n",
      "note_on channel=2 note=67 velocity=0 time=124\n",
      "note_on channel=2 note=76 velocity=87 time=25\n",
      "note_on channel=2 note=74 velocity=82 time=30\n",
      "note_on channel=2 note=76 velocity=0 time=4\n",
      "note_on channel=2 note=74 velocity=0 time=25\n",
      "note_on channel=2 note=72 velocity=64 time=1\n",
      "note_on channel=2 note=72 velocity=0 time=30\n",
      "note_on channel=2 note=79 velocity=89 time=0\n",
      "note_on channel=2 note=79 velocity=0 time=124\n",
      "note_on channel=2 note=76 velocity=68 time=26\n",
      "note_on channel=2 note=81 velocity=85 time=30\n",
      "note_on channel=2 note=76 velocity=0 time=3\n",
      "note_on channel=2 note=79 velocity=70 time=27\n",
      "note_on channel=2 note=81 velocity=0 time=5\n",
      "note_on channel=2 note=77 velocity=87 time=25\n",
      "note_on channel=2 note=79 velocity=0 time=9\n",
      "note_on channel=2 note=76 velocity=85 time=21\n",
      "note_on channel=2 note=77 velocity=0 time=2\n",
      "note_on channel=2 note=76 velocity=0 time=28\n",
      "note_on channel=2 note=74 velocity=66 time=0\n",
      "note_on channel=2 note=72 velocity=87 time=30\n",
      "note_on channel=2 note=74 velocity=0 time=1\n",
      "note_on channel=2 note=71 velocity=85 time=29\n",
      "note_on channel=2 note=72 velocity=0 time=3\n",
      "note_on channel=2 note=71 velocity=0 time=25\n",
      "note_on channel=2 note=77 velocity=100 time=32\n",
      "note_on channel=2 note=76 velocity=95 time=90\n",
      "note_on channel=2 note=77 velocity=0 time=6\n",
      "note_on channel=2 note=76 velocity=0 time=24\n",
      "note_on channel=2 note=74 velocity=85 time=0\n",
      "note_on channel=2 note=76 velocity=91 time=30\n",
      "note_on channel=2 note=74 velocity=0 time=4\n",
      "note_on channel=2 note=79 velocity=85 time=26\n",
      "note_on channel=2 note=76 velocity=0 time=2\n",
      "note_on channel=2 note=76 velocity=82 time=28\n",
      "note_on channel=2 note=79 velocity=0 time=9\n",
      "note_on channel=2 note=76 velocity=0 time=21\n",
      "note_on channel=2 note=74 velocity=87 time=0\n",
      "note_on channel=2 note=76 velocity=68 time=30\n",
      "note_on channel=2 note=74 velocity=0 time=2\n",
      "note_on channel=2 note=72 velocity=102 time=28\n",
      "note_on channel=2 note=76 velocity=0 time=1\n",
      "note_on channel=2 note=76 velocity=78 time=29\n",
      "note_on channel=2 note=72 velocity=0 time=3\n",
      "note_on channel=2 note=69 velocity=72 time=27\n",
      "note_on channel=2 note=76 velocity=0 time=9\n",
      "note_on channel=2 note=72 velocity=85 time=21\n",
      "note_on channel=2 note=69 velocity=0 time=1\n",
      "note_on channel=2 note=65 velocity=85 time=29\n",
      "note_on channel=2 note=72 velocity=0 time=2\n",
      "note_on channel=2 note=65 velocity=0 time=25\n",
      "note_on channel=2 note=81 velocity=95 time=33\n",
      "note_on channel=2 note=81 velocity=0 time=25\n",
      "note_on channel=2 note=77 velocity=89 time=35\n",
      "note_on channel=2 note=77 velocity=0 time=26\n",
      "note_on channel=2 note=81 velocity=85 time=34\n",
      "note_on channel=2 note=81 velocity=0 time=31\n",
      "note_on channel=2 note=82 velocity=107 time=29\n",
      "note_on channel=2 note=82 velocity=0 time=136\n",
      "note_on channel=2 note=79 velocity=82 time=14\n",
      "note_on channel=2 note=77 velocity=89 time=30\n",
      "note_on channel=2 note=79 velocity=0 time=5\n",
      "note_on channel=2 note=77 velocity=0 time=24\n",
      "note_on channel=2 note=79 velocity=82 time=1\n",
      "note_on channel=2 note=82 velocity=74 time=30\n",
      "note_on channel=2 note=79 velocity=0 time=3\n",
      "note_on channel=2 note=79 velocity=87 time=27\n",
      "note_on channel=2 note=82 velocity=0 time=4\n",
      "note_on channel=2 note=77 velocity=85 time=26\n",
      "note_on channel=2 note=79 velocity=0 time=6\n",
      "note_on channel=2 note=79 velocity=80 time=24\n",
      "note_on channel=2 note=77 velocity=0 time=6\n",
      "note_on channel=2 note=79 velocity=0 time=23\n",
      "note_on channel=2 note=76 velocity=76 time=1\n",
      "note_on channel=2 note=79 velocity=78 time=30\n",
      "note_on channel=2 note=76 velocity=0 time=5\n",
      "note_on channel=2 note=72 velocity=58 time=25\n",
      "note_on channel=2 note=79 velocity=0 time=8\n",
      "note_on channel=2 note=76 velocity=82 time=22\n",
      "note_on channel=2 note=72 velocity=0 time=2\n",
      "note_on channel=2 note=76 velocity=0 time=28\n",
      "note_on channel=2 note=69 velocity=68 time=0\n",
      "note_on channel=2 note=69 velocity=0 time=25\n",
      "note_on channel=2 note=81 velocity=85 time=5\n",
      "note_on channel=2 note=79 velocity=98 time=30\n",
      "note_on channel=2 note=81 velocity=0 time=6\n",
      "note_on channel=2 note=81 velocity=91 time=24\n",
      "note_on channel=2 note=79 velocity=0 time=4\n",
      "note_on channel=2 note=84 velocity=102 time=26\n",
      "note_on channel=2 note=81 velocity=0 time=7\n",
      "note_on channel=2 note=81 velocity=93 time=23\n",
      "note_on channel=2 note=84 velocity=0 time=8\n",
      "note_on channel=2 note=79 velocity=95 time=22\n",
      "note_on channel=2 note=81 velocity=0 time=2\n",
      "note_on channel=2 note=81 velocity=82 time=28\n",
      "note_on channel=2 note=79 velocity=0 time=2\n",
      "note_on channel=2 note=81 velocity=0 time=26\n",
      "note_on channel=2 note=77 velocity=89 time=2\n",
      "note_on channel=2 note=77 velocity=0 time=11\n",
      "note_on channel=2 note=81 velocity=102 time=19\n",
      "note_on channel=2 note=81 velocity=0 time=9\n",
      "note_on channel=2 note=84 velocity=110 time=21\n",
      "note_on channel=2 note=84 velocity=0 time=82\n",
      "note_on channel=2 note=82 velocity=100 time=8\n",
      "note_on channel=2 note=81 velocity=85 time=30\n",
      "note_on channel=2 note=82 velocity=0 time=3\n",
      "note_on channel=2 note=82 velocity=95 time=27\n",
      "note_on channel=2 note=81 velocity=0 time=10\n",
      "note_on channel=2 note=84 velocity=89 time=20\n",
      "note_on channel=2 note=82 velocity=0 time=6\n",
      "note_on channel=2 note=82 velocity=85 time=24\n",
      "note_on channel=2 note=84 velocity=0 time=8\n",
      "note_on channel=2 note=81 velocity=82 time=22\n",
      "note_on channel=2 note=82 velocity=0 time=2\n",
      "note_on channel=2 note=82 velocity=72 time=28\n",
      "note_on channel=2 note=81 velocity=0 time=5\n",
      "note_on channel=2 note=82 velocity=0 time=21\n",
      "note_on channel=2 note=77 velocity=89 time=4\n",
      "note_on channel=2 note=77 velocity=0 time=14\n",
      "note_on channel=2 note=81 velocity=100 time=16\n",
      "note_on channel=2 note=81 velocity=0 time=11\n",
      "note_on channel=2 note=82 velocity=105 time=19\n",
      "note_on channel=2 note=81 velocity=78 time=90\n",
      "note_on channel=2 note=82 velocity=0 time=4\n",
      "note_on channel=2 note=79 velocity=82 time=26\n",
      "note_on channel=2 note=81 velocity=0 time=8\n",
      "note_on channel=2 note=81 velocity=85 time=22\n",
      "note_on channel=2 note=79 velocity=0 time=2\n",
      "note_on channel=2 note=82 velocity=82 time=28\n",
      "note_on channel=2 note=81 velocity=0 time=10\n",
      "note_on channel=2 note=81 velocity=85 time=20\n",
      "note_on channel=2 note=82 velocity=0 time=7\n",
      "note_on channel=2 note=79 velocity=85 time=23\n",
      "note_on channel=2 note=81 velocity=0 time=5\n",
      "note_on channel=2 note=81 velocity=80 time=25\n",
      "note_on channel=2 note=79 velocity=0 time=2\n",
      "note_on channel=2 note=81 velocity=0 time=27\n",
      "note_on channel=2 note=77 velocity=82 time=1\n",
      "note_on channel=2 note=77 velocity=0 time=9\n",
      "note_on channel=2 note=79 velocity=100 time=21\n",
      "note_on channel=2 note=79 velocity=0 time=9\n",
      "note_on channel=2 note=81 velocity=95 time=21\n",
      "note_on channel=2 note=81 velocity=0 time=90\n",
      "note_on channel=2 note=79 velocity=107 time=0\n",
      "note_on channel=2 note=79 velocity=0 time=30\n",
      "note_on channel=2 note=77 velocity=98 time=0\n",
      "note_on channel=2 note=79 velocity=85 time=30\n",
      "note_on channel=2 note=77 velocity=0 time=5\n",
      "note_on channel=2 note=82 velocity=82 time=25\n",
      "note_on channel=2 note=79 velocity=0 time=1\n",
      "note_on channel=2 note=79 velocity=87 time=29\n",
      "note_on channel=2 note=82 velocity=0 time=3\n",
      "note_on channel=2 note=77 velocity=102 time=27\n",
      "note_on channel=2 note=79 velocity=0 time=4\n",
      "note_on channel=2 note=79 velocity=85 time=26\n",
      "note_on channel=2 note=77 velocity=0 time=1\n",
      "note_on channel=2 note=76 velocity=66 time=29\n",
      "note_on channel=2 note=79 velocity=0 time=1\n",
      "note_on channel=2 note=76 velocity=0 time=14\n",
      "note_on channel=2 note=77 velocity=98 time=15\n",
      "note_on channel=2 note=77 velocity=0 time=11\n",
      "note_on channel=2 note=79 velocity=98 time=19\n",
      "note_on channel=2 note=79 velocity=0 time=78\n",
      "note_on channel=2 note=72 velocity=85 time=42\n",
      "note_on channel=2 note=77 velocity=89 time=60\n",
      "note_on channel=2 note=72 velocity=0 time=6\n",
      "note_on channel=2 note=81 velocity=95 time=54\n",
      "note_on channel=2 note=77 velocity=0 time=4\n",
      "note_on channel=2 note=81 velocity=0 time=97\n",
      "note_on channel=2 note=74 velocity=105 time=19\n",
      "note_on channel=2 note=71 velocity=89 time=120\n",
      "note_on channel=2 note=74 velocity=0 time=2\n",
      "note_on channel=2 note=76 velocity=105 time=58\n",
      "note_on channel=2 note=71 velocity=0 time=6\n",
      "note_on channel=2 note=76 velocity=0 time=53\n",
      "note_on channel=2 note=79 velocity=89 time=1\n",
      "note_on channel=2 note=79 velocity=0 time=92\n",
      "note_on channel=2 note=72 velocity=105 time=28\n",
      "note_on channel=2 note=69 velocity=85 time=120\n",
      "note_on channel=2 note=72 velocity=0 time=6\n",
      "note_on channel=2 note=69 velocity=0 time=54\n",
      "note_on channel=2 note=74 velocity=87 time=0\n",
      "note_on channel=2 note=77 velocity=100 time=60\n",
      "note_on channel=2 note=74 velocity=0 time=1\n",
      "note_on channel=2 note=77 velocity=0 time=119\n",
      "note_on channel=2 note=71 velocity=107 time=0\n",
      "note_on channel=2 note=71 velocity=0 time=56\n",
      "note_on channel=2 note=72 velocity=87 time=64\n",
      "note_on channel=2 note=72 velocity=0 time=49\n",
      "note_on channel=2 note=76 velocity=91 time=11\n",
      "note_on channel=2 note=76 velocity=0 time=30\n",
      "note_on channel=2 note=79 velocity=89 time=30\n",
      "note_on channel=2 note=79 velocity=0 time=27\n",
      "note_on channel=2 note=82 velocity=102 time=33\n",
      "note_on channel=2 note=81 velocity=78 time=60\n",
      "note_on channel=2 note=82 velocity=0 time=1\n",
      "note_on channel=2 note=79 velocity=95 time=29\n",
      "note_on channel=2 note=81 velocity=0 time=4\n",
      "note_on channel=2 note=79 velocity=0 time=13\n",
      "note_on channel=2 note=81 velocity=102 time=13\n",
      "note_on channel=2 note=81 velocity=0 time=38\n",
      "note_on channel=2 note=77 velocity=89 time=22\n",
      "note_on channel=2 note=77 velocity=0 time=26\n",
      "note_on channel=2 note=72 velocity=85 time=34\n",
      "note_on channel=2 note=72 velocity=0 time=25\n",
      "note_on channel=2 note=77 velocity=85 time=35\n",
      "note_on channel=2 note=77 velocity=0 time=22\n",
      "note_on channel=2 note=81 velocity=98 time=38\n",
      "note_on channel=2 note=79 velocity=102 time=60\n",
      "note_on channel=2 note=81 velocity=0 time=6\n",
      "note_on channel=2 note=79 velocity=0 time=21\n",
      "note_on channel=2 note=77 velocity=102 time=3\n",
      "note_on channel=2 note=77 velocity=0 time=27\n",
      "note_on channel=2 note=79 velocity=102 time=3\n",
      "note_on channel=2 note=79 velocity=0 time=35\n",
      "note_on channel=2 note=76 velocity=87 time=25\n",
      "note_on channel=2 note=76 velocity=0 time=25\n",
      "note_on channel=2 note=72 velocity=82 time=35\n",
      "note_on channel=2 note=72 velocity=0 time=24\n",
      "note_on channel=2 note=76 velocity=85 time=36\n",
      "note_on channel=2 note=76 velocity=0 time=21\n",
      "note_on channel=2 note=79 velocity=100 time=39\n",
      "note_on channel=2 note=77 velocity=98 time=60\n",
      "note_on channel=2 note=79 velocity=0 time=2\n",
      "note_on channel=2 note=76 velocity=102 time=28\n",
      "note_on channel=2 note=77 velocity=0 time=2\n",
      "note_on channel=2 note=77 velocity=100 time=28\n",
      "note_on channel=2 note=76 velocity=0 time=5\n",
      "note_on channel=2 note=77 velocity=0 time=34\n",
      "note_on channel=2 note=74 velocity=89 time=21\n",
      "note_on channel=2 note=74 velocity=0 time=23\n",
      "note_on channel=2 note=71 velocity=78 time=37\n",
      "note_on channel=2 note=71 velocity=0 time=17\n",
      "note_on channel=2 note=74 velocity=87 time=43\n",
      "note_on channel=2 note=74 velocity=0 time=20\n",
      "note_on channel=2 note=77 velocity=98 time=40\n",
      "note_on channel=2 note=76 velocity=89 time=30\n",
      "note_on channel=2 note=77 velocity=0 time=3\n",
      "note_on channel=2 note=74 velocity=93 time=27\n",
      "note_on channel=2 note=76 velocity=0 time=4\n",
      "note_on channel=2 note=76 velocity=87 time=26\n",
      "note_on channel=2 note=74 velocity=0 time=4\n",
      "note_on channel=2 note=77 velocity=89 time=26\n",
      "note_on channel=2 note=76 velocity=0 time=12\n",
      "note_on channel=2 note=76 velocity=85 time=18\n",
      "note_on channel=2 note=77 velocity=0 time=9\n",
      "note_on channel=2 note=74 velocity=93 time=21\n",
      "note_on channel=2 note=76 velocity=0 time=3\n",
      "note_on channel=2 note=76 velocity=85 time=27\n",
      "note_on channel=2 note=74 velocity=0 time=6\n",
      "note_on channel=2 note=72 velocity=95 time=24\n",
      "note_on channel=2 note=76 velocity=0 time=3\n",
      "note_on channel=2 note=81 velocity=89 time=27\n",
      "note_on channel=2 note=72 velocity=0 time=2\n",
      "note_on channel=2 note=79 velocity=85 time=28\n",
      "note_on channel=2 note=81 velocity=0 time=5\n",
      "note_on channel=2 note=77 velocity=89 time=25\n",
      "note_on channel=2 note=79 velocity=0 time=9\n",
      "note_on channel=2 note=76 velocity=87 time=21\n",
      "note_on channel=2 note=77 velocity=0 time=9\n",
      "note_on channel=2 note=74 velocity=72 time=21\n",
      "note_on channel=2 note=76 velocity=0 time=3\n",
      "note_on channel=2 note=74 velocity=0 time=23\n",
      "note_on channel=2 note=72 velocity=64 time=4\n",
      "note_on channel=2 note=74 velocity=70 time=0\n",
      "note_on channel=2 note=74 velocity=0 time=10\n",
      "note_on channel=2 note=70 velocity=60 time=20\n",
      "note_on channel=2 note=72 velocity=0 time=6\n",
      "note_on channel=2 note=69 velocity=95 time=24\n",
      "note_on channel=2 note=70 velocity=0 time=6\n",
      "note_on channel=2 note=70 velocity=89 time=24\n",
      "note_on channel=2 note=69 velocity=0 time=6\n",
      "note_on channel=2 note=67 velocity=74 time=24\n",
      "note_on channel=2 note=70 velocity=0 time=5\n",
      "note_on channel=2 note=69 velocity=89 time=25\n",
      "note_on channel=2 note=67 velocity=0 time=5\n",
      "note_on channel=2 note=65 velocity=87 time=25\n",
      "note_on channel=2 note=69 velocity=0 time=1\n",
      "note_on channel=2 note=79 velocity=82 time=29\n",
      "note_on channel=2 note=65 velocity=0 time=2\n",
      "note_on channel=2 note=77 velocity=89 time=28\n",
      "note_on channel=2 note=79 velocity=0 time=8\n",
      "note_on channel=2 note=76 velocity=91 time=22\n",
      "note_on channel=2 note=77 velocity=0 time=7\n",
      "note_on channel=2 note=74 velocity=87 time=23\n",
      "note_on channel=2 note=76 velocity=0 time=5\n",
      "note_on channel=2 note=74 velocity=0 time=23\n",
      "note_on channel=2 note=72 velocity=72 time=2\n",
      "note_on channel=2 note=72 velocity=0 time=25\n",
      "note_on channel=2 note=71 velocity=89 time=5\n",
      "note_on channel=2 note=69 velocity=98 time=30\n",
      "note_on channel=2 note=71 velocity=0 time=8\n",
      "note_on channel=2 note=67 velocity=113 time=22\n",
      "note_on channel=2 note=69 velocity=0 time=3\n",
      "note_on channel=2 note=69 velocity=82 time=27\n",
      "note_on channel=2 note=67 velocity=0 time=9\n",
      "note_on channel=2 note=65 velocity=66 time=21\n",
      "note_on channel=2 note=69 velocity=0 time=8\n",
      "note_on channel=2 note=67 velocity=85 time=22\n",
      "note_on channel=2 note=65 velocity=0 time=1\n",
      "note_on channel=2 note=67 velocity=0 time=29\n",
      "note_on channel=2 note=64 velocity=64 time=0\n",
      "note_on channel=2 note=64 velocity=0 time=29\n",
      "note_on channel=2 note=77 velocity=85 time=1\n",
      "note_on channel=2 note=76 velocity=87 time=30\n",
      "note_on channel=2 note=77 velocity=0 time=10\n",
      "note_on channel=2 note=74 velocity=89 time=20\n",
      "note_on channel=2 note=76 velocity=0 time=7\n",
      "note_on channel=2 note=72 velocity=80 time=23\n",
      "note_on channel=2 note=74 velocity=0 time=5\n",
      "note_on channel=2 note=71 velocity=78 time=25\n",
      "note_on channel=2 note=72 velocity=0 time=3\n",
      "note_on channel=2 note=71 velocity=0 time=25\n",
      "note_on channel=2 note=69 velocity=82 time=2\n",
      "note_on channel=2 note=67 velocity=100 time=30\n",
      "note_on channel=2 note=69 velocity=0 time=1\n",
      "note_on channel=2 note=65 velocity=100 time=29\n",
      "note_on channel=2 note=67 velocity=0 time=1\n",
      "note_on channel=2 note=65 velocity=0 time=27\n",
      "note_on channel=2 note=69 velocity=89 time=32\n",
      "note_on channel=2 note=69 velocity=0 time=91\n",
      "note_on channel=2 note=74 velocity=105 time=29\n",
      "note_on channel=2 note=74 velocity=0 time=85\n",
      "note_on channel=2 note=77 velocity=102 time=35\n",
      "note_on channel=2 note=77 velocity=0 time=81\n",
      "note_on channel=2 note=72 velocity=105 time=9\n",
      "note_on channel=2 note=74 velocity=93 time=30\n",
      "note_on channel=2 note=72 velocity=0 time=5\n",
      "note_on channel=2 note=74 velocity=0 time=25\n",
      "note_on channel=2 note=71 velocity=102 time=0\n",
      "note_on channel=2 note=72 velocity=105 time=30\n",
      "note_on channel=2 note=71 velocity=0 time=4\n",
      "note_on channel=2 note=74 velocity=91 time=56\n",
      "note_on channel=2 note=72 velocity=0 time=10\n",
      "note_on channel=2 note=67 velocity=85 time=50\n",
      "note_on channel=2 note=74 velocity=0 time=1\n",
      "note_on channel=2 note=71 velocity=100 time=59\n",
      "note_on channel=2 note=67 velocity=0 time=5\n",
      "note_on channel=2 note=71 velocity=0 time=55\n",
      "note_on channel=2 note=72 velocity=85 time=0\n",
      "note_on channel=2 note=67 velocity=76 time=30\n",
      "note_on channel=2 note=72 velocity=0 time=4\n",
      "note_on channel=2 note=69 velocity=98 time=26\n",
      "note_on channel=2 note=67 velocity=0 time=4\n",
      "note_on channel=2 note=71 velocity=102 time=26\n",
      "note_on channel=2 note=69 velocity=0 time=2\n",
      "note_on channel=2 note=72 velocity=98 time=28\n",
      "note_on channel=2 note=71 velocity=0 time=6\n",
      "note_on channel=2 note=72 velocity=0 time=21\n",
      "note_on channel=2 note=71 velocity=87 time=3\n",
      "note_on channel=2 note=72 velocity=100 time=30\n",
      "note_on channel=2 note=71 velocity=0 time=7\n",
      "note_on channel=2 note=76 velocity=85 time=23\n",
      "note_on channel=2 note=72 velocity=0 time=2\n",
      "note_on channel=2 note=74 velocity=98 time=28\n",
      "note_on channel=2 note=76 velocity=0 time=8\n",
      "note_on channel=2 note=72 velocity=95 time=22\n",
      "note_on channel=2 note=74 velocity=0 time=8\n",
      "note_on channel=2 note=71 velocity=89 time=22\n",
      "note_on channel=2 note=72 velocity=0 time=4\n",
      "note_on channel=2 note=69 velocity=70 time=26\n",
      "note_on channel=2 note=71 velocity=0 time=1\n",
      "note_on channel=2 note=67 velocity=100 time=29\n",
      "note_on channel=2 note=69 velocity=0 time=3\n",
      "note_on channel=2 note=69 velocity=82 time=27\n",
      "note_on channel=2 note=67 velocity=0 time=1\n",
      "note_on channel=2 note=71 velocity=85 time=29\n",
      "note_on channel=2 note=69 velocity=0 time=1\n",
      "note_on channel=2 note=72 velocity=68 time=29\n",
      "note_on channel=2 note=71 velocity=0 time=8\n",
      "note_on channel=2 note=74 velocity=87 time=22\n",
      "note_on channel=2 note=72 velocity=0 time=4\n",
      "note_on channel=2 note=77 velocity=87 time=26\n",
      "note_on channel=2 note=74 velocity=0 time=2\n",
      "note_on channel=2 note=76 velocity=82 time=28\n",
      "note_on channel=2 note=77 velocity=0 time=5\n",
      "note_on channel=2 note=76 velocity=0 time=24\n",
      "note_on channel=2 note=74 velocity=87 time=1\n",
      "note_on channel=2 note=79 velocity=85 time=30\n",
      "note_on channel=2 note=74 velocity=0 time=9\n",
      "note_on channel=2 note=77 velocity=91 time=21\n",
      "note_on channel=2 note=79 velocity=0 time=7\n",
      "note_on channel=2 note=76 velocity=102 time=23\n",
      "note_on channel=2 note=77 velocity=0 time=9\n",
      "note_on channel=2 note=74 velocity=98 time=21\n",
      "note_on channel=2 note=76 velocity=0 time=2\n",
      "note_on channel=2 note=76 velocity=105 time=28\n",
      "note_on channel=2 note=74 velocity=0 time=11\n",
      "note_on channel=2 note=76 velocity=0 time=9\n",
      "note_on channel=2 note=79 velocity=95 time=40\n",
      "note_on channel=2 note=79 velocity=0 time=30\n",
      "note_on channel=2 note=74 velocity=91 time=30\n",
      "note_on channel=2 note=74 velocity=0 time=24\n",
      "note_on channel=2 note=79 velocity=93 time=36\n",
      "note_on channel=2 note=79 velocity=0 time=22\n",
      "note_on channel=2 note=72 velocity=87 time=38\n",
      "note_on channel=2 note=72 velocity=0 time=27\n",
      "note_on channel=2 note=84 velocity=107 time=33\n",
      "note_on channel=2 note=83 velocity=98 time=90\n",
      "note_on channel=2 note=84 velocity=0 time=7\n",
      "note_on channel=2 note=81 velocity=82 time=23\n",
      "note_on channel=2 note=83 velocity=0 time=7\n",
      "note_on channel=2 note=81 velocity=0 time=20\n",
      "note_on channel=2 note=79 velocity=78 time=3\n",
      "note_on channel=2 note=78 velocity=107 time=30\n",
      "note_on channel=2 note=79 velocity=0 time=5\n",
      "note_on channel=2 note=76 velocity=93 time=25\n",
      "note_on channel=2 note=78 velocity=0 time=1\n",
      "note_on channel=2 note=74 velocity=72 time=29\n",
      "note_on channel=2 note=76 velocity=0 time=1\n",
      "note_on channel=2 note=74 velocity=0 time=21\n",
      "note_on channel=2 note=72 velocity=98 time=8\n",
      "note_on channel=2 note=71 velocity=110 time=30\n",
      "note_on channel=2 note=72 velocity=0 time=11\n",
      "note_on channel=2 note=69 velocity=95 time=19\n",
      "note_on channel=2 note=71 velocity=0 time=22\n",
      "note_on channel=2 note=69 velocity=0 time=8\n",
      "note_on channel=2 note=67 velocity=76 time=0\n",
      "note_on channel=2 note=66 velocity=107 time=30\n",
      "note_on channel=2 note=67 velocity=0 time=2\n",
      "note_on channel=2 note=67 velocity=100 time=28\n",
      "note_on channel=2 note=66 velocity=0 time=3\n",
      "note_on channel=2 note=67 velocity=0 time=91\n",
      "note_on channel=2 note=67 velocity=78 time=90\n",
      "note_on channel=2 note=72 velocity=98 time=58\n",
      "note_on channel=2 note=67 velocity=0 time=2\n",
      "note_on channel=2 note=71 velocity=93 time=31\n",
      "note_on channel=2 note=72 velocity=0 time=3\n",
      "note_on channel=2 note=72 velocity=87 time=27\n",
      "note_on channel=2 note=71 velocity=0 time=7\n",
      "note_on channel=2 note=74 velocity=91 time=20\n",
      "note_on channel=2 note=72 velocity=0 time=7\n",
      "note_on channel=2 note=76 velocity=87 time=24\n",
      "note_on channel=2 note=74 velocity=0 time=4\n",
      "note_on channel=2 note=72 velocity=82 time=21\n",
      "note_on channel=2 note=76 velocity=0 time=6\n",
      "note_on channel=2 note=71 velocity=100 time=25\n",
      "note_on channel=2 note=72 velocity=0 time=9\n",
      "note_on channel=2 note=69 velocity=82 time=20\n",
      "note_on channel=2 note=71 velocity=0 time=7\n",
      "note_on channel=2 note=67 velocity=72 time=25\n",
      "note_on channel=2 note=69 velocity=0 time=1\n",
      "note_on channel=2 note=65 velocity=82 time=25\n",
      "note_on channel=2 note=67 velocity=0 time=3\n",
      "note_on channel=2 note=64 velocity=78 time=26\n",
      "note_on channel=2 note=65 velocity=0 time=10\n",
      "note_on channel=2 note=62 velocity=89 time=22\n",
      "note_on channel=2 note=64 velocity=0 time=5\n",
      "note_on channel=2 note=60 velocity=78 time=27\n",
      "note_on channel=2 note=62 velocity=0 time=3\n",
      "note_on channel=2 note=60 velocity=0 time=232\n",
      "note_on channel=2 note=69 velocity=85 time=66\n",
      "note_on channel=2 note=69 velocity=0 time=59\n",
      "note_on channel=2 note=74 velocity=91 time=1\n",
      "note_on channel=2 note=73 velocity=87 time=30\n",
      "note_on channel=2 note=74 velocity=0 time=6\n",
      "note_on channel=2 note=74 velocity=85 time=24\n",
      "note_on channel=2 note=73 velocity=0 time=8\n",
      "note_on channel=2 note=76 velocity=95 time=22\n",
      "note_on channel=2 note=74 velocity=0 time=2\n",
      "note_on channel=2 note=77 velocity=89 time=28\n",
      "note_on channel=2 note=76 velocity=0 time=3\n",
      "note_on channel=2 note=74 velocity=80 time=27\n",
      "note_on channel=2 note=77 velocity=0 time=2\n",
      "note_on channel=2 note=72 velocity=76 time=28\n",
      "note_on channel=2 note=74 velocity=0 time=9\n",
      "note_on channel=2 note=70 velocity=72 time=21\n",
      "note_on channel=2 note=72 velocity=0 time=8\n",
      "note_on channel=2 note=69 velocity=70 time=22\n",
      "note_on channel=2 note=70 velocity=0 time=1\n",
      "note_on channel=2 note=69 velocity=0 time=27\n",
      "note_on channel=2 note=67 velocity=80 time=2\n",
      "note_on channel=2 note=65 velocity=89 time=30\n",
      "note_on channel=2 note=67 velocity=0 time=6\n",
      "note_on channel=2 note=65 velocity=0 time=22\n",
      "note_on channel=2 note=64 velocity=70 time=2\n",
      "note_on channel=2 note=62 velocity=102 time=30\n",
      "note_on channel=2 note=64 velocity=0 time=8\n",
      "note_on channel=2 note=71 velocity=105 time=142\n",
      "note_on channel=2 note=62 velocity=0 time=1\n",
      "note_on channel=2 note=62 velocity=98 time=29\n",
      "note_on channel=2 note=71 velocity=0 time=1\n",
      "note_on channel=2 note=71 velocity=102 time=29\n",
      "note_on channel=2 note=62 velocity=0 time=1\n",
      "note_on channel=2 note=71 velocity=0 time=27\n",
      "note_on channel=2 note=60 velocity=95 time=2\n",
      "note_on channel=2 note=60 velocity=0 time=30\n",
      "note_on channel=2 note=69 velocity=102 time=0\n",
      "note_on channel=2 note=69 velocity=0 time=27\n",
      "note_on channel=2 note=60 velocity=89 time=3\n",
      "note_on channel=2 note=69 velocity=98 time=30\n",
      "note_on channel=2 note=60 velocity=0 time=1\n",
      "note_on channel=2 note=69 velocity=0 time=29\n",
      "note_on channel=2 note=59 velocity=89 time=0\n",
      "note_on channel=2 note=69 velocity=98 time=30\n",
      "note_on channel=2 note=59 velocity=0 time=1\n",
      "note_on channel=2 note=69 velocity=0 time=28\n",
      "note_on channel=2 note=57 velocity=78 time=1\n",
      "note_on channel=2 note=69 velocity=89 time=30\n",
      "note_on channel=2 note=57 velocity=0 time=7\n",
      "note_on channel=2 note=68 velocity=87 time=23\n",
      "note_on channel=2 note=69 velocity=0 time=2\n",
      "note_on channel=2 note=64 velocity=82 time=28\n",
      "note_on channel=2 note=68 velocity=0 time=1\n",
      "note_on channel=2 note=66 velocity=74 time=29\n",
      "note_on channel=2 note=64 velocity=0 time=9\n",
      "note_on channel=2 note=68 velocity=82 time=21\n",
      "note_on channel=2 note=66 velocity=0 time=5\n",
      "note_on channel=2 note=69 velocity=80 time=25\n",
      "note_on channel=2 note=68 velocity=0 time=4\n",
      "note_on channel=2 note=69 velocity=0 time=26\n",
      "note_on channel=2 note=68 velocity=80 time=0\n",
      "note_on channel=2 note=69 velocity=76 time=30\n",
      "note_on channel=2 note=68 velocity=0 time=6\n",
      "note_on channel=2 note=72 velocity=78 time=24\n",
      "note_on channel=2 note=69 velocity=0 time=3\n",
      "note_on channel=2 note=71 velocity=68 time=27\n",
      "note_on channel=2 note=72 velocity=0 time=4\n",
      "note_on channel=2 note=69 velocity=80 time=26\n",
      "note_on channel=2 note=71 velocity=0 time=7\n",
      "note_on channel=2 note=68 velocity=87 time=23\n",
      "note_on channel=2 note=69 velocity=0 time=6\n",
      "note_on channel=2 note=66 velocity=59 time=24\n",
      "note_on channel=2 note=68 velocity=0 time=1\n",
      "note_on channel=2 note=66 velocity=0 time=18\n",
      "note_on channel=2 note=64 velocity=58 time=11\n",
      "note_on channel=2 note=66 velocity=78 time=30\n",
      "note_on channel=2 note=64 velocity=0 time=12\n",
      "note_on channel=2 note=66 velocity=0 time=17\n",
      "note_on channel=2 note=67 velocity=87 time=1\n",
      "note_on channel=2 note=69 velocity=95 time=30\n",
      "note_on channel=2 note=67 velocity=0 time=2\n",
      "note_on channel=2 note=71 velocity=102 time=28\n",
      "note_on channel=2 note=69 velocity=0 time=10\n",
      "note_on channel=2 note=74 velocity=85 time=20\n",
      "note_on channel=2 note=71 velocity=0 time=7\n",
      "note_on channel=2 note=72 velocity=85 time=23\n",
      "note_on channel=2 note=74 velocity=0 time=7\n",
      "note_on channel=2 note=71 velocity=100 time=23\n",
      "note_on channel=2 note=72 velocity=0 time=3\n",
      "note_on channel=2 note=76 velocity=87 time=27\n",
      "note_on channel=2 note=71 velocity=0 time=4\n",
      "note_on channel=2 note=74 velocity=91 time=26\n",
      "note_on channel=2 note=76 velocity=0 time=8\n",
      "note_on channel=2 note=72 velocity=98 time=22\n",
      "note_on channel=2 note=74 velocity=0 time=9\n",
      "note_on channel=2 note=71 velocity=85 time=21\n",
      "note_on channel=2 note=72 velocity=0 time=1\n",
      "note_on channel=2 note=72 velocity=95 time=29\n",
      "note_on channel=2 note=71 velocity=0 time=7\n",
      "note_on channel=2 note=72 velocity=0 time=713\n",
      "note_on channel=2 note=69 velocity=82 time=30\n",
      "note_on channel=2 note=71 velocity=80 time=30\n",
      "note_on channel=2 note=69 velocity=0 time=5\n",
      "note_on channel=2 note=73 velocity=82 time=25\n",
      "note_on channel=2 note=71 velocity=0 time=7\n",
      "note_on channel=2 note=74 velocity=80 time=23\n",
      "note_on channel=2 note=73 velocity=0 time=5\n",
      "note_on channel=2 note=74 velocity=0 time=23\n",
      "note_on channel=2 note=73 velocity=80 time=2\n",
      "note_on channel=2 note=74 velocity=76 time=30\n",
      "note_on channel=2 note=73 velocity=0 time=6\n",
      "note_on channel=2 note=77 velocity=72 time=24\n",
      "note_on channel=2 note=74 velocity=0 time=3\n",
      "note_on channel=2 note=76 velocity=70 time=27\n",
      "note_on channel=2 note=77 velocity=0 time=5\n",
      "note_on channel=2 note=74 velocity=78 time=25\n",
      "note_on channel=2 note=76 velocity=0 time=7\n",
      "note_on channel=2 note=73 velocity=66 time=23\n",
      "note_on channel=2 note=74 velocity=0 time=3\n",
      "note_on channel=2 note=73 velocity=0 time=24\n",
      "note_on channel=2 note=71 velocity=68 time=3\n",
      "note_on channel=2 note=69 velocity=93 time=30\n",
      "note_on channel=2 note=71 velocity=0 time=4\n",
      "note_on channel=2 note=69 velocity=0 time=25\n",
      "note_on channel=2 note=71 velocity=87 time=1\n",
      "note_on channel=2 note=72 velocity=80 time=30\n",
      "note_on channel=2 note=71 velocity=0 time=1\n",
      "note_on channel=2 note=74 velocity=76 time=29\n",
      "note_on channel=2 note=72 velocity=0 time=7\n",
      "note_on channel=2 note=76 velocity=72 time=23\n",
      "note_on channel=2 note=74 velocity=0 time=6\n",
      "note_on channel=2 note=79 velocity=82 time=24\n",
      "note_on channel=2 note=76 velocity=0 time=4\n",
      "note_on channel=2 note=77 velocity=72 time=26\n",
      "note_on channel=2 note=79 velocity=0 time=8\n",
      "note_on channel=2 note=76 velocity=72 time=22\n",
      "note_on channel=2 note=77 velocity=0 time=4\n",
      "note_on channel=2 note=81 velocity=80 time=26\n",
      "note_on channel=2 note=76 velocity=0 time=5\n",
      "note_on channel=2 note=79 velocity=72 time=25\n",
      "note_on channel=2 note=81 velocity=0 time=6\n",
      "note_on channel=2 note=77 velocity=87 time=24\n",
      "note_on channel=2 note=79 velocity=0 time=11\n",
      "note_on channel=2 note=76 velocity=76 time=19\n",
      "note_on channel=2 note=77 velocity=0 time=2\n",
      "note_on channel=2 note=77 velocity=74 time=28\n",
      "note_on channel=2 note=76 velocity=0 time=8\n",
      "note_on channel=2 note=76 velocity=82 time=22\n",
      "note_on channel=2 note=77 velocity=0 time=9\n",
      "note_on channel=2 note=74 velocity=80 time=21\n",
      "note_on channel=2 note=76 velocity=0 time=4\n",
      "note_on channel=2 note=76 velocity=82 time=26\n",
      "note_on channel=2 note=74 velocity=0 time=7\n",
      "note_on channel=2 note=77 velocity=66 time=23\n",
      "note_on channel=2 note=76 velocity=0 time=3\n",
      "note_on channel=2 note=76 velocity=68 time=27\n",
      "note_on channel=2 note=77 velocity=0 time=3\n",
      "note_on channel=2 note=77 velocity=82 time=27\n",
      "note_on channel=2 note=76 velocity=0 time=6\n",
      "note_on channel=2 note=81 velocity=70 time=24\n",
      "note_on channel=2 note=77 velocity=0 time=5\n",
      "note_on channel=2 note=79 velocity=80 time=25\n",
      "note_on channel=2 note=81 velocity=0 time=5\n",
      "note_on channel=2 note=77 velocity=78 time=25\n",
      "note_on channel=2 note=79 velocity=0 time=8\n",
      "note_on channel=2 note=76 velocity=85 time=22\n",
      "note_on channel=2 note=77 velocity=0 time=5\n",
      "note_on channel=2 note=76 velocity=0 time=20\n",
      "note_on channel=2 note=74 velocity=68 time=5\n",
      "note_on channel=2 note=76 velocity=82 time=30\n",
      "note_on channel=2 note=74 velocity=0 time=3\n",
      "note_on channel=2 note=76 velocity=0 time=56\n",
      "note_on channel=2 note=69 velocity=89 time=1\n",
      "note_on channel=2 note=69 velocity=0 time=51\n",
      "note_on channel=2 note=74 velocity=91 time=279\n",
      "note_on channel=2 note=73 velocity=87 time=30\n",
      "note_on channel=2 note=74 velocity=0 time=1\n",
      "note_on channel=2 note=74 velocity=82 time=29\n",
      "note_on channel=2 note=73 velocity=0 time=3\n",
      "note_on channel=2 note=77 velocity=82 time=27\n",
      "note_on channel=2 note=74 velocity=0 time=5\n",
      "note_on channel=2 note=77 velocity=0 time=25\n",
      "note_on channel=2 note=74 velocity=85 time=0\n",
      "note_on channel=2 note=73 velocity=102 time=30\n",
      "note_on channel=2 note=74 velocity=0 time=5\n",
      "note_on channel=2 note=74 velocity=80 time=25\n",
      "note_on channel=2 note=73 velocity=0 time=1\n",
      "note_on channel=2 note=69 velocity=100 time=29\n",
      "note_on channel=2 note=74 velocity=0 time=2\n",
      "note_on channel=2 note=74 velocity=102 time=28\n",
      "note_on channel=2 note=69 velocity=0 time=2\n",
      "note_on channel=2 note=65 velocity=102 time=28\n",
      "note_on channel=2 note=74 velocity=0 time=5\n",
      "note_on channel=2 note=69 velocity=93 time=25\n",
      "note_on channel=2 note=65 velocity=0 time=5\n",
      "note_on channel=2 note=69 velocity=0 time=25\n",
      "note_on channel=2 note=62 velocity=91 time=0\n",
      "note_on channel=2 note=62 velocity=0 time=81\n",
      "note_on channel=2 note=72 velocity=102 time=309\n",
      "note_on channel=2 note=72 velocity=0 time=30\n",
      "note_on channel=2 note=71 velocity=82 time=0\n",
      "note_on channel=2 note=72 velocity=85 time=30\n",
      "note_on channel=2 note=71 velocity=0 time=8\n",
      "note_on channel=2 note=76 velocity=85 time=22\n",
      "note_on channel=2 note=72 velocity=0 time=2\n",
      "note_on channel=2 note=72 velocity=85 time=28\n",
      "note_on channel=2 note=76 velocity=0 time=4\n",
      "note_on channel=2 note=71 velocity=89 time=26\n",
      "note_on channel=2 note=72 velocity=0 time=6\n",
      "note_on channel=2 note=72 velocity=82 time=24\n",
      "note_on channel=2 note=71 velocity=0 time=1\n",
      "note_on channel=2 note=67 velocity=95 time=29\n",
      "note_on channel=2 note=72 velocity=0 time=6\n",
      "note_on channel=2 note=72 velocity=91 time=24\n",
      "note_on channel=2 note=67 velocity=0 time=3\n",
      "note_on channel=2 note=72 velocity=0 time=13\n",
      "note_on channel=2 note=64 velocity=100 time=14\n",
      "note_on channel=2 note=64 velocity=0 time=14\n",
      "note_on channel=2 note=67 velocity=100 time=16\n",
      "note_on channel=2 note=67 velocity=0 time=11\n",
      "note_on channel=2 note=60 velocity=102 time=19\n",
      "note_on channel=2 note=60 velocity=0 time=94\n",
      "note_on channel=2 note=77 velocity=87 time=296\n",
      "note_on channel=2 note=76 velocity=82 time=30\n",
      "note_on channel=2 note=77 velocity=0 time=3\n",
      "note_on channel=2 note=77 velocity=80 time=27\n",
      "note_on channel=2 note=76 velocity=0 time=8\n",
      "note_on channel=2 note=81 velocity=72 time=22\n",
      "note_on channel=2 note=77 velocity=0 time=5\n",
      "note_on channel=2 note=77 velocity=72 time=25\n",
      "note_on channel=2 note=81 velocity=0 time=5\n",
      "note_on channel=2 note=76 velocity=82 time=25\n",
      "note_on channel=2 note=77 velocity=0 time=6\n",
      "note_on channel=2 note=77 velocity=76 time=24\n",
      "note_on channel=2 note=76 velocity=0 time=7\n",
      "note_on channel=2 note=77 velocity=0 time=19\n",
      "note_on channel=2 note=72 velocity=85 time=4\n",
      "note_on channel=2 note=72 velocity=0 time=16\n",
      "note_on channel=2 note=77 velocity=91 time=14\n",
      "note_on channel=2 note=77 velocity=0 time=15\n",
      "note_on channel=2 note=69 velocity=66 time=15\n",
      "note_on channel=2 note=69 velocity=0 time=20\n",
      "note_on channel=2 note=72 velocity=59 time=10\n",
      "note_on channel=2 note=72 velocity=0 time=12\n",
      "note_on channel=2 note=65 velocity=74 time=18\n",
      "note_on channel=2 note=65 velocity=0 time=22\n",
      "note_on channel=2 note=81 velocity=89 time=38\n",
      "note_on channel=2 note=81 velocity=0 time=19\n",
      "note_on channel=2 note=77 velocity=87 time=41\n",
      "note_on channel=2 note=77 velocity=0 time=21\n",
      "note_on channel=2 note=81 velocity=85 time=39\n",
      "note_on channel=2 note=81 velocity=0 time=21\n",
      "note_on channel=2 note=82 velocity=93 time=39\n",
      "note_on channel=2 note=82 velocity=0 time=56\n",
      "note_on channel=2 note=81 velocity=89 time=4\n",
      "note_on channel=2 note=81 velocity=0 time=30\n",
      "note_on channel=2 note=79 velocity=102 time=0\n",
      "note_on channel=2 note=79 velocity=0 time=21\n",
      "note_on channel=2 note=81 velocity=102 time=9\n",
      "note_on channel=2 note=81 velocity=0 time=127\n",
      "note_on channel=2 note=72 velocity=85 time=293\n",
      "note_on channel=2 note=72 velocity=0 time=18\n",
      "note_on channel=2 note=69 velocity=85 time=42\n",
      "note_on channel=2 note=69 velocity=0 time=19\n",
      "note_on channel=2 note=72 velocity=89 time=41\n",
      "note_on channel=2 note=72 velocity=0 time=18\n",
      "note_on channel=2 note=74 velocity=89 time=42\n",
      "note_on channel=2 note=74 velocity=0 time=57\n",
      "note_on channel=2 note=72 velocity=93 time=3\n",
      "note_on channel=2 note=72 velocity=0 time=29\n",
      "note_on channel=2 note=70 velocity=100 time=1\n",
      "note_on channel=2 note=72 velocity=85 time=30\n",
      "note_on channel=2 note=70 velocity=0 time=2\n",
      "note_on channel=2 note=72 velocity=0 time=30\n",
      "note_on channel=2 note=65 velocity=85 time=28\n",
      "note_on channel=2 note=65 velocity=0 time=23\n",
      "note_on channel=2 note=67 velocity=100 time=7\n",
      "note_on channel=2 note=69 velocity=100 time=30\n",
      "note_on channel=2 note=67 velocity=0 time=4\n",
      "note_on channel=2 note=69 velocity=0 time=17\n",
      "note_on channel=2 note=60 velocity=87 time=39\n",
      "note_on channel=2 note=60 velocity=0 time=27\n",
      "note_on channel=2 note=62 velocity=87 time=33\n",
      "note_on channel=2 note=62 velocity=0 time=33\n",
      "note_on channel=2 note=71 velocity=85 time=27\n",
      "note_on channel=2 note=71 velocity=0 time=24\n",
      "note_on channel=2 note=72 velocity=91 time=36\n",
      "note_on channel=2 note=67 velocity=60 time=30\n",
      "note_on channel=2 note=72 velocity=0 time=1\n",
      "note_on channel=2 note=69 velocity=80 time=29\n",
      "note_on channel=2 note=67 velocity=0 time=5\n",
      "note_on channel=2 note=71 velocity=80 time=25\n",
      "note_on channel=2 note=69 velocity=0 time=6\n",
      "note_on channel=2 note=72 velocity=85 time=24\n",
      "note_on channel=2 note=71 velocity=0 time=4\n",
      "note_on channel=2 note=71 velocity=82 time=26\n",
      "note_on channel=2 note=72 velocity=0 time=1\n",
      "note_on channel=2 note=72 velocity=85 time=29\n",
      "note_on channel=2 note=71 velocity=0 time=6\n",
      "note_on channel=2 note=76 velocity=80 time=24\n",
      "note_on channel=2 note=72 velocity=0 time=4\n",
      "note_on channel=2 note=74 velocity=91 time=26\n",
      "note_on channel=2 note=76 velocity=0 time=5\n",
      "note_on channel=2 note=72 velocity=95 time=25\n",
      "note_on channel=2 note=74 velocity=0 time=13\n",
      "note_on channel=2 note=71 velocity=85 time=17\n",
      "note_on channel=2 note=72 velocity=0 time=7\n",
      "note_on channel=2 note=71 velocity=0 time=20\n",
      "note_on channel=2 note=69 velocity=64 time=3\n",
      "note_on channel=2 note=71 velocity=89 time=30\n",
      "note_on channel=2 note=69 velocity=0 time=9\n",
      "note_on channel=2 note=71 velocity=0 time=13\n",
      "note_on channel=2 note=67 velocity=87 time=38\n",
      "note_on channel=2 note=69 velocity=93 time=30\n",
      "note_on channel=2 note=67 velocity=0 time=1\n",
      "note_on channel=2 note=71 velocity=102 time=29\n",
      "note_on channel=2 note=69 velocity=0 time=6\n",
      "note_on channel=2 note=71 velocity=0 time=17\n",
      "note_on channel=2 note=62 velocity=87 time=37\n",
      "note_on channel=2 note=62 velocity=0 time=34\n",
      "note_on channel=2 note=64 velocity=85 time=26\n",
      "note_on channel=2 note=64 velocity=0 time=29\n",
      "note_on channel=2 note=73 velocity=93 time=31\n",
      "note_on channel=2 note=73 velocity=0 time=24\n",
      "note_on channel=2 note=74 velocity=98 time=36\n",
      "note_on channel=2 note=69 velocity=87 time=30\n",
      "note_on channel=2 note=74 velocity=0 time=3\n",
      "note_on channel=2 note=71 velocity=89 time=27\n",
      "note_on channel=2 note=69 velocity=0 time=7\n",
      "note_on channel=2 note=72 velocity=85 time=23\n",
      "note_on channel=2 note=71 velocity=0 time=2\n",
      "note_on channel=2 note=74 velocity=85 time=28\n",
      "note_on channel=2 note=72 velocity=0 time=4\n",
      "note_on channel=2 note=72 velocity=68 time=26\n",
      "note_on channel=2 note=74 velocity=0 time=5\n",
      "note_on channel=2 note=74 velocity=89 time=25\n",
      "note_on channel=2 note=72 velocity=0 time=7\n",
      "note_on channel=2 note=77 velocity=85 time=23\n",
      "note_on channel=2 note=74 velocity=0 time=2\n",
      "note_on channel=2 note=76 velocity=95 time=28\n",
      "note_on channel=2 note=77 velocity=0 time=9\n",
      "note_on channel=2 note=74 velocity=98 time=21\n",
      "note_on channel=2 note=76 velocity=0 time=6\n",
      "note_on channel=2 note=72 velocity=93 time=24\n",
      "note_on channel=2 note=74 velocity=0 time=8\n",
      "note_on channel=2 note=71 velocity=68 time=22\n",
      "note_on channel=2 note=72 velocity=0 time=2\n",
      "note_on channel=2 note=71 velocity=0 time=27\n",
      "note_on channel=2 note=72 velocity=89 time=1\n",
      "note_on channel=2 note=72 velocity=0 time=119\n",
      "note_on channel=2 note=76 velocity=85 time=301\n",
      "note_on channel=2 note=76 velocity=0 time=21\n",
      "note_on channel=2 note=72 velocity=87 time=39\n",
      "note_on channel=2 note=72 velocity=0 time=24\n",
      "note_on channel=2 note=76 velocity=80 time=36\n",
      "note_on channel=2 note=76 velocity=0 time=24\n",
      "note_on channel=2 note=77 velocity=107 time=36\n",
      "note_on channel=2 note=76 velocity=98 time=60\n",
      "note_on channel=2 note=77 velocity=0 time=6\n",
      "note_on channel=2 note=74 velocity=66 time=24\n",
      "note_on channel=2 note=76 velocity=0 time=1\n",
      "note_on channel=2 note=74 velocity=0 time=28\n",
      "note_on channel=2 note=76 velocity=85 time=1\n",
      "note_on channel=2 note=76 velocity=0 time=28\n",
      "note_on channel=2 note=81 velocity=78 time=2\n",
      "note_on channel=2 note=81 velocity=0 time=28\n",
      "note_on channel=2 note=80 velocity=85 time=2\n",
      "note_on channel=2 note=81 velocity=80 time=30\n",
      "note_on channel=2 note=80 velocity=0 time=6\n",
      "note_on channel=2 note=84 velocity=89 time=24\n",
      "note_on channel=2 note=81 velocity=0 time=3\n",
      "note_on channel=2 note=81 velocity=82 time=27\n",
      "note_on channel=2 note=84 velocity=0 time=1\n",
      "note_on channel=2 note=80 velocity=100 time=29\n",
      "note_on channel=2 note=81 velocity=0 time=5\n",
      "note_on channel=2 note=81 velocity=82 time=25\n",
      "note_on channel=2 note=80 velocity=0 time=1\n",
      "note_on channel=2 note=76 velocity=85 time=29\n",
      "note_on channel=2 note=81 velocity=0 time=2\n",
      "note_on channel=2 note=81 velocity=95 time=28\n",
      "note_on channel=2 note=76 velocity=0 time=1\n",
      "note_on channel=2 note=72 velocity=102 time=29\n",
      "note_on channel=2 note=81 velocity=0 time=1\n",
      "note_on channel=2 note=76 velocity=85 time=29\n",
      "note_on channel=2 note=72 velocity=0 time=4\n",
      "note_on channel=2 note=76 velocity=0 time=25\n",
      "note_on channel=2 note=69 velocity=85 time=1\n",
      "note_on channel=2 note=69 velocity=0 time=30\n",
      "note_on channel=2 note=72 velocity=95 time=30\n",
      "note_on channel=2 note=72 velocity=0 time=20\n",
      "note_on channel=2 note=69 velocity=91 time=40\n",
      "note_on channel=2 note=69 velocity=0 time=24\n",
      "note_on channel=2 note=72 velocity=95 time=36\n",
      "note_on channel=2 note=72 velocity=0 time=22\n",
      "note_on channel=2 note=74 velocity=98 time=38\n",
      "note_on channel=2 note=74 velocity=0 time=48\n",
      "note_on channel=2 note=72 velocity=107 time=12\n",
      "note_on channel=2 note=71 velocity=107 time=30\n",
      "note_on channel=2 note=72 velocity=0 time=3\n",
      "note_on channel=2 note=71 velocity=0 time=23\n",
      "note_on channel=2 note=72 velocity=100 time=4\n",
      "note_on channel=2 note=72 velocity=0 time=107\n",
      "note_on channel=2 note=69 velocity=74 time=643\n",
      "note_on channel=2 note=71 velocity=87 time=30\n",
      "note_on channel=2 note=69 velocity=0 time=1\n",
      "note_on channel=2 note=73 velocity=85 time=29\n",
      "note_on channel=2 note=71 velocity=0 time=5\n",
      "note_on channel=2 note=74 velocity=87 time=25\n",
      "note_on channel=2 note=73 velocity=0 time=2\n",
      "note_on channel=2 note=74 velocity=0 time=27\n",
      "note_on channel=2 note=73 velocity=89 time=1\n",
      "note_on channel=2 note=74 velocity=78 time=30\n",
      "note_on channel=2 note=73 velocity=0 time=8\n",
      "note_on channel=2 note=77 velocity=85 time=22\n",
      "note_on channel=2 note=74 velocity=0 time=7\n",
      "note_on channel=2 note=76 velocity=91 time=23\n",
      "note_on channel=2 note=77 velocity=0 time=4\n",
      "note_on channel=2 note=74 velocity=95 time=26\n",
      "note_on channel=2 note=76 velocity=0 time=5\n",
      "note_on channel=2 note=73 velocity=98 time=25\n",
      "note_on channel=2 note=74 velocity=0 time=1\n",
      "note_on channel=2 note=73 velocity=0 time=22\n",
      "note_on channel=2 note=71 velocity=70 time=7\n",
      "note_on channel=2 note=69 velocity=100 time=30\n",
      "note_on channel=2 note=71 velocity=0 time=1\n",
      "note_on channel=2 note=69 velocity=0 time=26\n",
      "note_on channel=2 note=71 velocity=85 time=3\n",
      "note_on channel=2 note=73 velocity=98 time=30\n",
      "note_on channel=2 note=71 velocity=0 time=5\n",
      "note_on channel=2 note=74 velocity=89 time=25\n",
      "note_on channel=2 note=73 velocity=0 time=5\n",
      "note_on channel=2 note=76 velocity=100 time=25\n",
      "note_on channel=2 note=74 velocity=0 time=10\n",
      "note_on channel=2 note=79 velocity=85 time=20\n",
      "note_on channel=2 note=76 velocity=0 time=5\n",
      "note_on channel=2 note=77 velocity=100 time=25\n",
      "note_on channel=2 note=79 velocity=0 time=7\n",
      "note_on channel=2 note=76 velocity=87 time=23\n",
      "note_on channel=2 note=77 velocity=0 time=2\n",
      "note_on channel=2 note=81 velocity=85 time=28\n",
      "note_on channel=2 note=76 velocity=0 time=5\n",
      "note_on channel=2 note=79 velocity=93 time=25\n",
      "note_on channel=2 note=81 velocity=0 time=3\n",
      "note_on channel=2 note=77 velocity=98 time=27\n",
      "note_on channel=2 note=79 velocity=0 time=8\n",
      "note_on channel=2 note=76 velocity=89 time=22\n",
      "note_on channel=2 note=77 velocity=0 time=1\n",
      "note_on channel=2 note=77 velocity=89 time=29\n",
      "note_on channel=2 note=76 velocity=0 time=4\n",
      "note_on channel=2 note=74 velocity=95 time=26\n",
      "note_on channel=2 note=77 velocity=0 time=5\n",
      "note_on channel=2 note=73 velocity=82 time=25\n",
      "note_on channel=2 note=74 velocity=0 time=2\n",
      "note_on channel=2 note=71 velocity=80 time=28\n",
      "note_on channel=2 note=73 velocity=0 time=1\n",
      "note_on channel=2 note=71 velocity=0 time=25\n",
      "note_on channel=2 note=69 velocity=105 time=4\n",
      "note_on channel=2 note=67 velocity=98 time=30\n",
      "note_on channel=2 note=69 velocity=0 time=9\n",
      "note_on channel=2 note=65 velocity=102 time=21\n",
      "note_on channel=2 note=67 velocity=0 time=3\n",
      "note_on channel=2 note=65 velocity=0 time=25\n",
      "note_on channel=2 note=64 velocity=72 time=2\n",
      "note_on channel=2 note=62 velocity=100 time=30\n",
      "note_on channel=2 note=64 velocity=0 time=6\n",
      "note_on channel=2 note=62 velocity=0 time=228\n",
      "note_on channel=2 note=67 velocity=89 time=66\n",
      "note_on channel=2 note=67 velocity=0 time=24\n",
      "note_on channel=2 note=72 velocity=95 time=36\n",
      "note_on channel=2 note=71 velocity=80 time=30\n",
      "note_on channel=2 note=72 velocity=0 time=4\n",
      "note_on channel=2 note=72 velocity=80 time=26\n",
      "note_on channel=2 note=71 velocity=0 time=10\n",
      "note_on channel=2 note=74 velocity=87 time=20\n",
      "note_on channel=2 note=72 velocity=0 time=1\n",
      "note_on channel=2 note=76 velocity=98 time=29\n",
      "note_on channel=2 note=74 velocity=0 time=4\n",
      "note_on channel=2 note=76 velocity=0 time=6\n",
      "note_on channel=2 note=76 velocity=100 time=20\n",
      "note_on channel=2 note=74 velocity=85 time=30\n",
      "note_on channel=2 note=76 velocity=0 time=3\n",
      "note_on channel=2 note=72 velocity=102 time=27\n",
      "note_on channel=2 note=74 velocity=0 time=11\n",
      "note_on channel=2 note=71 velocity=91 time=19\n",
      "note_on channel=2 note=72 velocity=0 time=6\n",
      "note_on channel=2 note=71 velocity=0 time=24\n",
      "note_on channel=2 note=69 velocity=76 time=0\n",
      "note_on channel=2 note=68 velocity=102 time=30\n",
      "note_on channel=2 note=69 velocity=0 time=4\n",
      "note_on channel=2 note=66 velocity=107 time=26\n",
      "note_on channel=2 note=68 velocity=0 time=6\n",
      "note_on channel=2 note=64 velocity=93 time=24\n",
      "note_on channel=2 note=66 velocity=0 time=6\n",
      "note_on channel=2 note=64 velocity=0 time=230\n",
      "note_on channel=2 note=69 velocity=95 time=64\n",
      "note_on channel=2 note=69 velocity=0 time=26\n",
      "note_on channel=2 note=75 velocity=113 time=34\n",
      "note_on channel=2 note=73 velocity=93 time=30\n",
      "note_on channel=2 note=75 velocity=0 time=4\n",
      "note_on channel=2 note=75 velocity=89 time=26\n",
      "note_on channel=2 note=73 velocity=0 time=8\n",
      "note_on channel=2 note=76 velocity=80 time=22\n",
      "note_on channel=2 note=75 velocity=0 time=1\n",
      "note_on channel=2 note=78 velocity=102 time=29\n",
      "note_on channel=2 note=76 velocity=0 time=3\n",
      "note_on channel=2 note=78 velocity=0 time=24\n",
      "note_on channel=2 note=71 velocity=95 time=33\n",
      "note_on channel=2 note=71 velocity=0 time=86\n",
      "note_on channel=2 note=76 velocity=102 time=34\n",
      "note_on channel=2 note=76 velocity=0 time=96\n",
      "note_on channel=2 note=69 velocity=102 time=24\n",
      "note_on channel=2 note=69 velocity=0 time=36\n",
      "note_on channel=2 note=71 velocity=95 time=24\n",
      "note_on channel=2 note=71 velocity=0 time=724\n",
      "note_on channel=2 note=67 velocity=76 time=26\n",
      "note_on channel=2 note=69 velocity=102 time=30\n",
      "note_on channel=2 note=67 velocity=0 time=7\n",
      "note_on channel=2 note=71 velocity=102 time=23\n",
      "note_on channel=2 note=69 velocity=0 time=6\n",
      "note_on channel=2 note=72 velocity=98 time=24\n",
      "note_on channel=2 note=71 velocity=0 time=2\n",
      "note_on channel=2 note=72 velocity=0 time=27\n",
      "note_on channel=2 note=71 velocity=102 time=1\n",
      "note_on channel=2 note=72 velocity=95 time=30\n",
      "note_on channel=2 note=71 velocity=0 time=5\n",
      "note_on channel=2 note=76 velocity=85 time=25\n",
      "note_on channel=2 note=72 velocity=0 time=3\n",
      "note_on channel=2 note=74 velocity=95 time=27\n",
      "note_on channel=2 note=76 velocity=0 time=6\n",
      "note_on channel=2 note=72 velocity=98 time=24\n",
      "note_on channel=2 note=74 velocity=0 time=11\n",
      "note_on channel=2 note=71 velocity=95 time=19\n",
      "note_on channel=2 note=72 velocity=0 time=3\n",
      "note_on channel=2 note=69 velocity=68 time=27\n",
      "note_on channel=2 note=71 velocity=0 time=4\n",
      "note_on channel=2 note=67 velocity=93 time=26\n",
      "note_on channel=2 note=69 velocity=0 time=4\n",
      "note_on channel=2 note=67 velocity=0 time=25\n",
      "note_on channel=2 note=69 velocity=87 time=1\n",
      "note_on channel=2 note=71 velocity=87 time=30\n",
      "note_on channel=2 note=69 velocity=0 time=4\n",
      "note_on channel=2 note=72 velocity=82 time=26\n",
      "note_on channel=2 note=71 velocity=0 time=7\n",
      "note_on channel=2 note=74 velocity=85 time=23\n",
      "note_on channel=2 note=72 velocity=0 time=5\n",
      "note_on channel=2 note=77 velocity=87 time=25\n",
      "note_on channel=2 note=74 velocity=0 time=3\n",
      "note_on channel=2 note=76 velocity=102 time=27\n",
      "note_on channel=2 note=77 velocity=0 time=7\n",
      "note_on channel=2 note=74 velocity=100 time=23\n",
      "note_on channel=2 note=76 velocity=0 time=3\n",
      "note_on channel=2 note=79 velocity=85 time=27\n",
      "note_on channel=2 note=74 velocity=0 time=4\n",
      "note_on channel=2 note=77 velocity=91 time=26\n",
      "note_on channel=2 note=79 velocity=0 time=9\n",
      "note_on channel=2 note=76 velocity=102 time=21\n",
      "note_on channel=2 note=77 velocity=0 time=5\n",
      "note_on channel=2 note=74 velocity=85 time=25\n",
      "note_on channel=2 note=76 velocity=0 time=2\n",
      "note_on channel=2 note=76 velocity=102 time=28\n",
      "note_on channel=2 note=74 velocity=0 time=6\n",
      "note_on channel=2 note=76 velocity=0 time=701\n",
      "note_on channel=2 note=64 velocity=87 time=43\n",
      "note_on channel=2 note=66 velocity=98 time=30\n",
      "note_on channel=2 note=64 velocity=0 time=6\n",
      "note_on channel=2 note=68 velocity=80 time=24\n",
      "note_on channel=2 note=66 velocity=0 time=5\n",
      "note_on channel=2 note=69 velocity=80 time=25\n",
      "note_on channel=2 note=68 velocity=0 time=5\n",
      "note_on channel=2 note=68 velocity=85 time=25\n",
      "note_on channel=2 note=69 velocity=0 time=3\n",
      "note_on channel=2 note=69 velocity=74 time=27\n",
      "note_on channel=2 note=68 velocity=0 time=5\n",
      "note_on channel=2 note=72 velocity=82 time=25\n",
      "note_on channel=2 note=69 velocity=0 time=1\n",
      "note_on channel=2 note=71 velocity=82 time=29\n",
      "note_on channel=2 note=72 velocity=0 time=8\n",
      "note_on channel=2 note=69 velocity=78 time=22\n",
      "note_on channel=2 note=71 velocity=0 time=3\n",
      "note_on channel=2 note=68 velocity=105 time=27\n",
      "note_on channel=2 note=69 velocity=0 time=7\n",
      "note_on channel=2 note=66 velocity=82 time=23\n",
      "note_on channel=2 note=68 velocity=0 time=5\n",
      "note_on channel=2 note=64 velocity=85 time=25\n",
      "note_on channel=2 note=66 velocity=0 time=4\n",
      "note_on channel=2 note=66 velocity=98 time=26\n",
      "note_on channel=2 note=64 velocity=0 time=6\n",
      "note_on channel=2 note=68 velocity=78 time=24\n",
      "note_on channel=2 note=66 velocity=0 time=5\n",
      "note_on channel=2 note=68 velocity=0 time=22\n",
      "note_on channel=2 note=69 velocity=76 time=3\n",
      "note_on channel=2 note=71 velocity=110 time=30\n",
      "note_on channel=2 note=69 velocity=0 time=3\n",
      "note_on channel=2 note=74 velocity=82 time=27\n",
      "note_on channel=2 note=71 velocity=0 time=7\n",
      "note_on channel=2 note=72 velocity=100 time=23\n",
      "note_on channel=2 note=74 velocity=0 time=5\n",
      "note_on channel=2 note=72 velocity=0 time=24\n",
      "note_on channel=2 note=71 velocity=98 time=1\n",
      "note_on channel=2 note=76 velocity=85 time=30\n",
      "note_on channel=2 note=71 velocity=0 time=3\n",
      "note_on channel=2 note=74 velocity=93 time=27\n",
      "note_on channel=2 note=76 velocity=0 time=5\n",
      "note_on channel=2 note=72 velocity=102 time=25\n",
      "note_on channel=2 note=74 velocity=0 time=8\n",
      "note_on channel=2 note=71 velocity=98 time=22\n",
      "note_on channel=2 note=72 velocity=0 time=1\n",
      "note_on channel=2 note=72 velocity=102 time=29\n",
      "note_on channel=2 note=71 velocity=0 time=7\n",
      "note_on channel=2 note=72 velocity=0 time=361\n",
      "note_on channel=2 note=71 velocity=91 time=22\n",
      "note_on channel=2 note=71 velocity=0 time=30\n",
      "note_on channel=2 note=69 velocity=80 time=0\n",
      "note_on channel=2 note=71 velocity=102 time=30\n",
      "note_on channel=2 note=69 velocity=0 time=2\n",
      "note_on channel=2 note=72 velocity=102 time=28\n",
      "note_on channel=2 note=71 velocity=0 time=6\n",
      "note_on channel=2 note=76 velocity=78 time=24\n",
      "note_on channel=2 note=72 velocity=0 time=1\n",
      "note_on channel=2 note=74 velocity=95 time=29\n",
      "note_on channel=2 note=76 velocity=0 time=6\n",
      "note_on channel=2 note=72 velocity=89 time=24\n",
      "note_on channel=2 note=74 velocity=0 time=4\n",
      "note_on channel=2 note=77 velocity=82 time=26\n",
      "note_on channel=2 note=72 velocity=0 time=3\n",
      "note_on channel=2 note=76 velocity=87 time=27\n",
      "note_on channel=2 note=77 velocity=0 time=4\n",
      "note_on channel=2 note=74 velocity=100 time=26\n",
      "note_on channel=2 note=76 velocity=0 time=6\n",
      "note_on channel=2 note=72 velocity=95 time=24\n",
      "note_on channel=2 note=74 velocity=0 time=1\n",
      "note_on channel=2 note=74 velocity=89 time=29\n",
      "note_on channel=2 note=72 velocity=0 time=6\n",
      "note_on channel=2 note=74 velocity=0 time=356\n",
      "note_on channel=2 note=72 velocity=82 time=28\n",
      "note_on channel=2 note=71 velocity=80 time=30\n",
      "note_on channel=2 note=72 velocity=0 time=1\n",
      "note_on channel=2 note=72 velocity=89 time=29\n",
      "note_on channel=2 note=71 velocity=0 time=5\n",
      "note_on channel=2 note=74 velocity=93 time=25\n",
      "note_on channel=2 note=72 velocity=0 time=7\n",
      "note_on channel=2 note=77 velocity=80 time=23\n",
      "note_on channel=2 note=74 velocity=0 time=2\n",
      "note_on channel=2 note=76 velocity=91 time=28\n",
      "note_on channel=2 note=77 velocity=0 time=7\n",
      "note_on channel=2 note=74 velocity=85 time=23\n",
      "note_on channel=2 note=76 velocity=0 time=5\n",
      "note_on channel=2 note=79 velocity=80 time=25\n",
      "note_on channel=2 note=74 velocity=0 time=6\n",
      "note_on channel=2 note=77 velocity=85 time=24\n",
      "note_on channel=2 note=79 velocity=0 time=5\n",
      "note_on channel=2 note=76 velocity=95 time=25\n",
      "note_on channel=2 note=77 velocity=0 time=9\n",
      "note_on channel=2 note=74 velocity=82 time=21\n",
      "note_on channel=2 note=76 velocity=0 time=1\n",
      "note_on channel=2 note=76 velocity=76 time=29\n",
      "note_on channel=2 note=74 velocity=0 time=7\n",
      "note_on channel=2 note=72 velocity=87 time=23\n",
      "note_on channel=2 note=76 velocity=0 time=3\n",
      "note_on channel=2 note=71 velocity=82 time=27\n",
      "note_on channel=2 note=72 velocity=0 time=2\n",
      "note_on channel=2 note=72 velocity=85 time=28\n",
      "note_on channel=2 note=71 velocity=0 time=2\n",
      "note_on channel=2 note=72 velocity=0 time=21\n",
      "note_on channel=2 note=76 velocity=89 time=7\n",
      "note_on channel=2 note=72 velocity=87 time=30\n",
      "note_on channel=2 note=76 velocity=0 time=3\n",
      "note_on channel=2 note=71 velocity=102 time=27\n",
      "note_on channel=2 note=72 velocity=0 time=4\n",
      "note_on channel=2 note=72 velocity=89 time=26\n",
      "note_on channel=2 note=71 velocity=0 time=1\n",
      "note_on channel=2 note=67 velocity=102 time=29\n",
      "note_on channel=2 note=72 velocity=0 time=1\n",
      "note_on channel=2 note=72 velocity=95 time=29\n",
      "note_on channel=2 note=67 velocity=0 time=3\n",
      "note_on channel=2 note=72 velocity=0 time=12\n",
      "note_on channel=2 note=64 velocity=105 time=15\n",
      "note_on channel=2 note=64 velocity=0 time=13\n",
      "note_on channel=2 note=67 velocity=102 time=17\n",
      "note_on channel=2 note=67 velocity=0 time=11\n",
      "note_on channel=2 note=60 velocity=93 time=19\n",
      "note_on channel=2 note=60 velocity=0 time=29\n",
      "note_on channel=2 note=79 velocity=95 time=31\n",
      "note_on channel=2 note=79 velocity=0 time=20\n",
      "note_on channel=2 note=76 velocity=93 time=40\n",
      "note_on channel=2 note=76 velocity=0 time=21\n",
      "note_on channel=2 note=79 velocity=95 time=39\n",
      "note_on channel=2 note=79 velocity=0 time=27\n",
      "note_on channel=2 note=81 velocity=105 time=33\n",
      "note_on channel=2 note=79 velocity=100 time=60\n",
      "note_on channel=2 note=81 velocity=0 time=5\n",
      "note_on channel=2 note=77 velocity=102 time=25\n",
      "note_on channel=2 note=79 velocity=0 time=3\n",
      "note_on channel=2 note=77 velocity=0 time=24\n",
      "note_on channel=2 note=79 velocity=105 time=3\n",
      "note_on channel=2 note=79 velocity=0 time=113\n",
      "note_on channel=2 note=76 velocity=91 time=307\n",
      "note_on channel=2 note=76 velocity=0 time=28\n",
      "note_on channel=2 note=72 velocity=85 time=32\n",
      "note_on channel=2 note=72 velocity=0 time=24\n",
      "note_on channel=2 note=76 velocity=89 time=36\n",
      "note_on channel=2 note=76 velocity=0 time=25\n",
      "note_on channel=2 note=77 velocity=102 time=35\n",
      "note_on channel=2 note=76 velocity=98 time=60\n",
      "note_on channel=2 note=77 velocity=0 time=5\n",
      "note_on channel=2 note=76 velocity=0 time=25\n",
      "note_on channel=2 note=74 velocity=102 time=0\n",
      "note_on channel=2 note=76 velocity=105 time=30\n",
      "note_on channel=2 note=74 velocity=0 time=9\n",
      "note_on channel=2 note=76 velocity=0 time=26\n",
      "note_on channel=2 note=79 velocity=102 time=25\n",
      "note_on channel=2 note=79 velocity=0 time=30\n",
      "note_on channel=2 note=72 velocity=87 time=30\n",
      "note_on channel=2 note=72 velocity=0 time=26\n",
      "note_on channel=2 note=76 velocity=89 time=34\n",
      "note_on channel=2 note=76 velocity=0 time=23\n",
      "note_on channel=2 note=69 velocity=85 time=37\n",
      "note_on channel=2 note=72 velocity=110 time=30\n",
      "note_on channel=2 note=69 velocity=0 time=2\n",
      "note_on channel=2 note=74 velocity=105 time=28\n",
      "note_on channel=2 note=72 velocity=0 time=7\n",
      "note_on channel=2 note=76 velocity=105 time=23\n",
      "note_on channel=2 note=74 velocity=0 time=9\n",
      "note_on channel=2 note=77 velocity=95 time=21\n",
      "note_on channel=2 note=76 velocity=0 time=11\n",
      "note_on channel=2 note=77 velocity=0 time=13\n",
      "note_on channel=2 note=81 velocity=85 time=36\n",
      "note_on channel=2 note=81 velocity=0 time=22\n",
      "note_on channel=2 note=74 velocity=89 time=38\n",
      "note_on channel=2 note=74 velocity=0 time=22\n",
      "note_on channel=2 note=77 velocity=82 time=38\n",
      "note_on channel=2 note=77 velocity=0 time=22\n",
      "note_on channel=2 note=71 velocity=78 time=38\n",
      "note_on channel=2 note=74 velocity=105 time=30\n",
      "note_on channel=2 note=71 velocity=0 time=2\n",
      "note_on channel=2 note=76 velocity=105 time=28\n",
      "note_on channel=2 note=74 velocity=0 time=6\n",
      "note_on channel=2 note=77 velocity=105 time=24\n",
      "note_on channel=2 note=76 velocity=0 time=7\n",
      "note_on channel=2 note=79 velocity=95 time=23\n",
      "note_on channel=2 note=77 velocity=0 time=9\n",
      "note_on channel=2 note=79 velocity=0 time=20\n",
      "note_on channel=2 note=84 velocity=91 time=31\n",
      "note_on channel=2 note=84 velocity=0 time=19\n",
      "note_on channel=2 note=79 velocity=82 time=11\n",
      "note_on channel=2 note=79 velocity=0 time=22\n",
      "note_on channel=2 note=76 velocity=95 time=8\n",
      "note_on channel=2 note=76 velocity=0 time=48\n",
      "note_on channel=2 note=79 velocity=100 time=12\n",
      "note_on channel=2 note=79 velocity=0 time=29\n",
      "note_on channel=2 note=76 velocity=98 time=1\n",
      "note_on channel=2 note=76 velocity=0 time=26\n",
      "note_on channel=2 note=72 velocity=87 time=4\n",
      "note_on channel=2 note=76 velocity=100 time=30\n",
      "note_on channel=2 note=72 velocity=0 time=3\n",
      "note_on channel=2 note=77 velocity=105 time=27\n",
      "note_on channel=2 note=76 velocity=0 time=9\n",
      "note_on channel=2 note=79 velocity=102 time=21\n",
      "note_on channel=2 note=77 velocity=0 time=7\n",
      "note_on channel=2 note=81 velocity=100 time=23\n",
      "note_on channel=2 note=79 velocity=0 time=5\n",
      "note_on channel=2 note=79 velocity=82 time=25\n",
      "note_on channel=2 note=81 velocity=0 time=6\n",
      "note_on channel=2 note=81 velocity=93 time=24\n",
      "note_on channel=2 note=79 velocity=0 time=7\n",
      "note_on channel=2 note=82 velocity=95 time=23\n",
      "note_on channel=2 note=81 velocity=0 time=7\n",
      "note_on channel=2 note=81 velocity=98 time=23\n",
      "note_on channel=2 note=82 velocity=0 time=6\n",
      "note_on channel=2 note=79 velocity=87 time=24\n",
      "note_on channel=2 note=81 velocity=0 time=6\n",
      "note_on channel=2 note=77 velocity=70 time=24\n",
      "note_on channel=2 note=79 velocity=0 time=6\n",
      "note_on channel=2 note=77 velocity=0 time=22\n",
      "note_on channel=2 note=76 velocity=89 time=2\n",
      "note_on channel=2 note=74 velocity=105 time=30\n",
      "note_on channel=2 note=76 velocity=0 time=7\n",
      "note_on channel=2 note=74 velocity=0 time=23\n",
      "note_on channel=2 note=72 velocity=68 time=0\n",
      "note_on channel=2 note=71 velocity=102 time=30\n",
      "note_on channel=2 note=72 velocity=0 time=5\n",
      "note_on channel=2 note=69 velocity=110 time=25\n",
      "note_on channel=2 note=71 velocity=0 time=6\n",
      "note_on channel=2 note=69 velocity=0 time=13\n",
      "note_on channel=2 note=71 velocity=119 time=11\n",
      "note_on channel=2 note=72 velocity=89 time=30\n",
      "note_on channel=2 note=71 velocity=0 time=5\n",
      "note_on channel=2 note=71 velocity=87 time=25\n",
      "note_on channel=2 note=72 velocity=0 time=4\n",
      "note_on channel=2 note=71 velocity=0 time=20\n",
      "note_on channel=2 note=67 velocity=80 time=6\n",
      "note_on channel=2 note=67 velocity=0 time=25\n",
      "note_on channel=2 note=74 velocity=93 time=5\n",
      "note_on channel=2 note=76 velocity=89 time=30\n",
      "note_on channel=2 note=74 velocity=0 time=4\n",
      "note_on channel=2 note=74 velocity=93 time=26\n",
      "note_on channel=2 note=76 velocity=0 time=7\n",
      "note_on channel=2 note=74 velocity=0 time=17\n",
      "note_on channel=2 note=71 velocity=74 time=6\n",
      "note_on channel=2 note=71 velocity=0 time=26\n",
      "note_on channel=2 note=77 velocity=91 time=4\n",
      "note_on channel=2 note=79 velocity=80 time=30\n",
      "note_on channel=2 note=77 velocity=0 time=6\n",
      "note_on channel=2 note=77 velocity=89 time=24\n",
      "note_on channel=2 note=79 velocity=0 time=4\n",
      "note_on channel=2 note=77 velocity=0 time=24\n",
      "note_on channel=2 note=74 velocity=85 time=2\n",
      "note_on channel=2 note=75 velocity=98 time=30\n",
      "note_on channel=2 note=74 velocity=0 time=4\n",
      "note_on channel=2 note=75 velocity=0 time=22\n",
      "note_on channel=2 note=72 velocity=100 time=34\n",
      "note_on channel=2 note=72 velocity=0 time=29\n",
      "note_on channel=2 note=79 velocity=85 time=31\n",
      "note_on channel=2 note=79 velocity=0 time=20\n",
      "note_on channel=2 note=75 velocity=85 time=40\n",
      "note_on channel=2 note=75 velocity=0 time=19\n",
      "note_on channel=2 note=84 velocity=100 time=41\n",
      "note_on channel=2 note=82 velocity=102 time=150\n",
      "note_on channel=2 note=84 velocity=0 time=8\n",
      "note_on channel=2 note=81 velocity=87 time=22\n",
      "note_on channel=2 note=82 velocity=0 time=3\n",
      "note_on channel=2 note=81 velocity=0 time=26\n",
      "note_on channel=2 note=79 velocity=74 time=1\n",
      "note_on channel=2 note=79 velocity=0 time=30\n",
      "note_on channel=2 note=78 velocity=87 time=0\n",
      "note_on channel=2 note=78 velocity=0 time=29\n",
      "note_on channel=2 note=81 velocity=70 time=1\n",
      "note_on channel=2 note=75 velocity=102 time=30\n",
      "note_on channel=2 note=81 velocity=0 time=3\n",
      "note_on channel=2 note=74 velocity=95 time=27\n",
      "note_on channel=2 note=75 velocity=0 time=5\n",
      "note_on channel=2 note=75 velocity=105 time=25\n",
      "note_on channel=2 note=74 velocity=0 time=7\n",
      "note_on channel=2 note=72 velocity=74 time=23\n",
      "note_on channel=2 note=75 velocity=0 time=6\n",
      "note_on channel=2 note=72 velocity=0 time=24\n",
      "note_on channel=2 note=79 velocity=91 time=0\n",
      "note_on channel=2 note=78 velocity=100 time=30\n",
      "note_on channel=2 note=79 velocity=0 time=6\n",
      "note_on channel=2 note=79 velocity=98 time=24\n",
      "note_on channel=2 note=78 velocity=0 time=8\n",
      "note_on channel=2 note=74 velocity=82 time=22\n",
      "note_on channel=2 note=79 velocity=0 time=8\n",
      "note_on channel=2 note=74 velocity=0 time=21\n",
      "note_on channel=2 note=72 velocity=82 time=1\n",
      "note_on channel=2 note=74 velocity=89 time=30\n",
      "note_on channel=2 note=72 velocity=0 time=2\n",
      "note_on channel=2 note=74 velocity=0 time=25\n",
      "note_on channel=2 note=83 velocity=105 time=3\n",
      "note_on channel=2 note=83 velocity=0 time=237\n",
      "note_on channel=2 note=72 velocity=87 time=33\n",
      "note_on channel=2 note=71 velocity=76 time=30\n",
      "note_on channel=2 note=72 velocity=0 time=2\n",
      "note_on channel=2 note=72 velocity=82 time=28\n",
      "note_on channel=2 note=71 velocity=0 time=1\n",
      "note_on channel=2 note=72 velocity=0 time=24\n",
      "note_on channel=2 note=81 velocity=107 time=5\n",
      "note_on channel=2 note=81 velocity=0 time=242\n",
      "note_on channel=2 note=71 velocity=82 time=28\n",
      "note_on channel=2 note=69 velocity=82 time=30\n",
      "note_on channel=2 note=71 velocity=0 time=3\n",
      "note_on channel=2 note=71 velocity=85 time=27\n",
      "note_on channel=2 note=69 velocity=0 time=3\n",
      "note_on channel=2 note=71 velocity=0 time=27\n",
      "note_on channel=2 note=79 velocity=98 time=0\n",
      "note_on channel=2 note=79 velocity=0 time=267\n",
      "note_on channel=2 note=78 velocity=85 time=3\n",
      "note_on channel=2 note=76 velocity=95 time=30\n",
      "note_on channel=2 note=78 velocity=0 time=6\n",
      "note_on channel=2 note=74 velocity=91 time=24\n",
      "note_on channel=2 note=76 velocity=0 time=5\n",
      "note_on channel=2 note=72 velocity=68 time=25\n",
      "note_on channel=2 note=74 velocity=0 time=4\n",
      "note_on channel=2 note=71 velocity=87 time=26\n",
      "note_on channel=2 note=72 velocity=0 time=2\n",
      "note_on channel=2 note=69 velocity=98 time=28\n",
      "note_on channel=2 note=71 velocity=0 time=7\n",
      "note_on channel=2 note=69 velocity=0 time=20\n",
      "note_on channel=2 note=67 velocity=70 time=3\n",
      "note_on channel=2 note=66 velocity=87 time=30\n",
      "note_on channel=2 note=67 velocity=0 time=3\n",
      "note_on channel=2 note=64 velocity=85 time=27\n",
      "note_on channel=2 note=66 velocity=0 time=7\n",
      "note_on channel=2 note=62 velocity=89 time=23\n",
      "note_on channel=2 note=64 velocity=0 time=6\n",
      "note_on channel=2 note=62 velocity=0 time=23\n",
      "note_on channel=2 note=60 velocity=82 time=1\n",
      "note_on channel=2 note=62 velocity=89 time=30\n",
      "note_on channel=2 note=60 velocity=0 time=3\n",
      "note_on channel=2 note=62 velocity=0 time=25\n",
      "note_on channel=2 note=72 velocity=98 time=32\n",
      "note_on channel=2 note=72 velocity=0 time=19\n",
      "note_on channel=2 note=71 velocity=87 time=41\n",
      "note_on channel=2 note=71 velocity=0 time=59\n",
      "note_on channel=2 note=76 velocity=91 time=1\n",
      "note_on channel=2 note=74 velocity=98 time=30\n",
      "note_on channel=2 note=76 velocity=0 time=8\n",
      "note_on channel=2 note=72 velocity=105 time=22\n",
      "note_on channel=2 note=74 velocity=0 time=12\n",
      "note_on channel=2 note=71 velocity=98 time=18\n",
      "note_on channel=2 note=72 velocity=0 time=6\n",
      "note_on channel=2 note=69 velocity=78 time=24\n",
      "note_on channel=2 note=71 velocity=0 time=3\n",
      "note_on channel=2 note=67 velocity=102 time=27\n",
      "note_on channel=2 note=69 velocity=0 time=2\n",
      "note_on channel=2 note=67 velocity=0 time=21\n",
      "note_on channel=2 note=67 velocity=70 time=7\n",
      "note_on channel=2 note=67 velocity=0 time=138\n",
      "note_on channel=2 note=83 velocity=100 time=282\n",
      "note_on channel=2 note=83 velocity=0 time=28\n",
      "note_on channel=2 note=79 velocity=87 time=32\n",
      "note_on channel=2 note=79 velocity=0 time=30\n",
      "note_on channel=2 note=83 velocity=100 time=30\n",
      "note_on channel=2 note=83 velocity=0 time=30\n",
      "note_on channel=2 note=84 velocity=107 time=30\n",
      "note_on channel=2 note=83 velocity=102 time=60\n",
      "note_on channel=2 note=84 velocity=0 time=4\n",
      "note_on channel=2 note=81 velocity=107 time=26\n",
      "note_on channel=2 note=83 velocity=0 time=1\n",
      "note_on channel=2 note=83 velocity=85 time=29\n",
      "note_on channel=2 note=81 velocity=0 time=9\n",
      "note_on channel=2 note=79 velocity=74 time=21\n",
      "note_on channel=2 note=83 velocity=0 time=1\n",
      "note_on channel=2 note=78 velocity=107 time=29\n",
      "note_on channel=2 note=79 velocity=0 time=6\n",
      "note_on channel=2 note=79 velocity=85 time=24\n",
      "note_on channel=2 note=78 velocity=0 time=10\n",
      "note_on channel=2 note=83 velocity=105 time=20\n",
      "note_on channel=2 note=79 velocity=0 time=3\n",
      "note_on channel=2 note=79 velocity=100 time=27\n",
      "note_on channel=2 note=83 velocity=0 time=6\n",
      "note_on channel=2 note=78 velocity=105 time=24\n",
      "note_on channel=2 note=79 velocity=0 time=3\n",
      "note_on channel=2 note=79 velocity=87 time=27\n",
      "note_on channel=2 note=78 velocity=0 time=5\n",
      "note_on channel=2 note=79 velocity=0 time=25\n",
      "note_on channel=2 note=74 velocity=55 time=0\n",
      "note_on channel=2 note=74 velocity=0 time=29\n",
      "note_on channel=2 note=79 velocity=85 time=1\n",
      "note_on channel=2 note=71 velocity=80 time=30\n",
      "note_on channel=2 note=79 velocity=0 time=4\n",
      "note_on channel=2 note=74 velocity=85 time=26\n",
      "note_on channel=2 note=71 velocity=0 time=5\n",
      "note_on channel=2 note=74 velocity=0 time=25\n",
      "note_on channel=2 note=67 velocity=98 time=0\n",
      "note_on channel=2 note=67 velocity=0 time=34\n",
      "note_on channel=2 note=74 velocity=100 time=26\n",
      "note_on channel=2 note=74 velocity=0 time=35\n",
      "note_on channel=2 note=71 velocity=98 time=25\n",
      "note_on channel=2 note=71 velocity=0 time=39\n",
      "note_on channel=2 note=74 velocity=102 time=21\n",
      "note_on channel=2 note=74 velocity=0 time=34\n",
      "note_on channel=2 note=76 velocity=102 time=26\n",
      "note_on channel=2 note=74 velocity=102 time=60\n",
      "note_on channel=2 note=76 velocity=0 time=3\n",
      "note_on channel=2 note=72 velocity=107 time=27\n",
      "note_on channel=2 note=74 velocity=0 time=5\n",
      "note_on channel=2 note=74 velocity=102 time=25\n",
      "note_on channel=2 note=72 velocity=0 time=7\n",
      "note_on channel=2 note=71 velocity=80 time=23\n",
      "note_on channel=2 note=74 velocity=0 time=5\n",
      "note_on channel=2 note=67 velocity=85 time=25\n",
      "note_on channel=2 note=71 velocity=0 time=1\n",
      "note_on channel=2 note=71 velocity=95 time=29\n",
      "note_on channel=2 note=67 velocity=0 time=2\n",
      "note_on channel=2 note=76 velocity=85 time=28\n",
      "note_on channel=2 note=71 velocity=0 time=1\n",
      "note_on channel=2 note=71 velocity=85 time=29\n",
      "note_on channel=2 note=76 velocity=0 time=8\n",
      "note_on channel=2 note=67 velocity=78 time=22\n",
      "note_on channel=2 note=71 velocity=0 time=1\n",
      "note_on channel=2 note=71 velocity=80 time=29\n",
      "note_on channel=2 note=67 velocity=0 time=1\n",
      "note_on channel=2 note=71 velocity=0 time=28\n",
      "note_on channel=2 note=79 velocity=100 time=1\n",
      "note_on channel=2 note=79 velocity=0 time=137\n",
      "note_on channel=2 note=72 velocity=89 time=13\n",
      "note_on channel=2 note=72 velocity=0 time=30\n",
      "note_on channel=2 note=69 velocity=82 time=0\n",
      "note_on channel=2 note=72 velocity=93 time=30\n",
      "note_on channel=2 note=69 velocity=0 time=4\n",
      "note_on channel=2 note=78 velocity=95 time=26\n",
      "note_on channel=2 note=72 velocity=0 time=1\n",
      "note_on channel=2 note=78 velocity=0 time=29\n",
      "note_on channel=2 note=72 velocity=68 time=0\n",
      "note_on channel=2 note=72 velocity=0 time=30\n",
      "note_on channel=2 note=69 velocity=80 time=0\n",
      "note_on channel=2 note=72 velocity=82 time=30\n",
      "note_on channel=2 note=69 velocity=0 time=2\n",
      "note_on channel=2 note=72 velocity=0 time=23\n",
      "note_on channel=2 note=81 velocity=105 time=5\n",
      "note_on channel=2 note=81 velocity=0 time=131\n",
      "note_on channel=2 note=74 velocity=93 time=19\n",
      "note_on channel=2 note=74 velocity=0 time=29\n",
      "note_on channel=2 note=71 velocity=66 time=1\n",
      "note_on channel=2 note=74 velocity=89 time=30\n",
      "note_on channel=2 note=71 velocity=0 time=4\n",
      "note_on channel=2 note=79 velocity=82 time=26\n",
      "note_on channel=2 note=74 velocity=0 time=2\n",
      "note_on channel=2 note=74 velocity=76 time=28\n",
      "note_on channel=2 note=79 velocity=0 time=2\n",
      "note_on channel=2 note=71 velocity=72 time=28\n",
      "note_on channel=2 note=74 velocity=0 time=2\n",
      "note_on channel=2 note=74 velocity=82 time=28\n",
      "note_on channel=2 note=71 velocity=0 time=3\n",
      "note_on channel=2 note=74 velocity=0 time=25\n",
      "note_on channel=2 note=83 velocity=105 time=2\n",
      "note_on channel=2 note=83 velocity=0 time=138\n",
      "note_on channel=2 note=81 velocity=102 time=42\n",
      "note_on channel=2 note=80 velocity=105 time=30\n",
      "note_on channel=2 note=81 velocity=0 time=2\n",
      "note_on channel=2 note=81 velocity=100 time=28\n",
      "note_on channel=2 note=80 velocity=0 time=10\n",
      "note_on channel=2 note=81 velocity=0 time=8\n",
      "note_on channel=2 note=76 velocity=85 time=42\n",
      "note_on channel=2 note=76 velocity=0 time=20\n",
      "note_on channel=2 note=84 velocity=105 time=40\n",
      "note_on channel=2 note=84 velocity=0 time=154\n",
      "note_on channel=2 note=81 velocity=98 time=26\n",
      "note_on channel=2 note=81 velocity=0 time=38\n",
      "note_on channel=2 note=78 velocity=102 time=22\n",
      "note_on channel=2 note=78 velocity=0 time=36\n",
      "note_on channel=2 note=81 velocity=100 time=24\n",
      "note_on channel=2 note=81 velocity=0 time=26\n",
      "note_on channel=2 note=74 velocity=93 time=34\n",
      "note_on channel=2 note=74 velocity=0 time=38\n",
      "note_on channel=2 note=78 velocity=95 time=22\n",
      "note_on channel=2 note=78 velocity=0 time=44\n",
      "note_on channel=2 note=79 velocity=80 time=16\n",
      "note_on channel=2 note=81 velocity=93 time=30\n",
      "note_on channel=2 note=79 velocity=0 time=3\n",
      "note_on channel=2 note=82 velocity=100 time=27\n",
      "note_on channel=2 note=81 velocity=0 time=6\n",
      "note_on channel=2 note=84 velocity=95 time=24\n",
      "note_on channel=2 note=82 velocity=0 time=5\n",
      "note_on channel=2 note=82 velocity=107 time=25\n",
      "note_on channel=2 note=84 velocity=0 time=10\n",
      "note_on channel=2 note=81 velocity=91 time=20\n",
      "note_on channel=2 note=82 velocity=0 time=4\n",
      "note_on channel=2 note=79 velocity=82 time=26\n",
      "note_on channel=2 note=81 velocity=0 time=5\n",
      "note_on channel=2 note=79 velocity=0 time=13\n",
      "note_on channel=2 note=77 velocity=95 time=12\n",
      "note_on channel=2 note=76 velocity=95 time=30\n",
      "note_on channel=2 note=77 velocity=0 time=6\n",
      "note_on channel=2 note=76 velocity=0 time=21\n",
      "note_on channel=2 note=74 velocity=85 time=3\n",
      "note_on channel=2 note=73 velocity=107 time=30\n",
      "note_on channel=2 note=74 velocity=0 time=2\n",
      "note_on channel=2 note=71 velocity=89 time=28\n",
      "note_on channel=2 note=73 velocity=0 time=3\n",
      "note_on channel=2 note=73 velocity=107 time=27\n",
      "note_on channel=2 note=71 velocity=0 time=9\n",
      "note_on channel=2 note=73 velocity=0 time=37\n",
      "note_on channel=2 note=67 velocity=85 time=14\n",
      "note_on channel=2 note=67 velocity=0 time=36\n",
      "note_on channel=2 note=76 velocity=87 time=24\n",
      "note_on channel=2 note=76 velocity=0 time=25\n",
      "note_on channel=2 note=73 velocity=87 time=35\n",
      "note_on channel=2 note=73 velocity=0 time=22\n",
      "note_on channel=2 note=79 velocity=107 time=38\n",
      "note_on channel=2 note=79 velocity=0 time=128\n",
      "note_on channel=2 note=78 velocity=93 time=22\n",
      "note_on channel=2 note=76 velocity=87 time=30\n",
      "note_on channel=2 note=78 velocity=0 time=1\n",
      "note_on channel=2 note=76 velocity=0 time=28\n",
      "note_on channel=2 note=74 velocity=85 time=1\n",
      "note_on channel=2 note=74 velocity=0 time=27\n",
      "note_on channel=2 note=83 velocity=110 time=3\n",
      "note_on channel=2 note=83 velocity=0 time=135\n",
      "note_on channel=2 note=84 velocity=107 time=15\n",
      "note_on channel=2 note=83 velocity=102 time=30\n",
      "note_on channel=2 note=84 velocity=0 time=8\n",
      "note_on channel=2 note=81 velocity=105 time=22\n",
      "note_on channel=2 note=83 velocity=0 time=7\n",
      "note_on channel=2 note=79 velocity=89 time=23\n",
      "note_on channel=2 note=81 velocity=0 time=1\n",
      "note_on channel=2 note=78 velocity=105 time=179\n",
      "note_on channel=2 note=79 velocity=0 time=4\n",
      "note_on channel=2 note=76 velocity=89 time=26\n",
      "note_on channel=2 note=78 velocity=0 time=4\n",
      "note_on channel=2 note=74 velocity=102 time=26\n",
      "note_on channel=2 note=76 velocity=0 time=8\n",
      "note_on channel=2 note=74 velocity=0 time=22\n",
      "note_on channel=2 note=72 velocity=70 time=0\n",
      "note_on channel=2 note=71 velocity=89 time=30\n",
      "note_on channel=2 note=72 velocity=0 time=5\n",
      "note_on channel=2 note=69 velocity=98 time=25\n",
      "note_on channel=2 note=71 velocity=0 time=6\n",
      "note_on channel=2 note=67 velocity=98 time=24\n",
      "note_on channel=2 note=69 velocity=0 time=1\n",
      "note_on channel=2 note=67 velocity=0 time=127\n",
      "note_on channel=2 note=76 velocity=95 time=22\n",
      "note_on channel=2 note=74 velocity=100 time=30\n",
      "note_on channel=2 note=76 velocity=0 time=4\n",
      "note_on channel=2 note=72 velocity=70 time=26\n",
      "note_on channel=2 note=74 velocity=0 time=4\n",
      "note_on channel=2 note=79 velocity=105 time=26\n",
      "note_on channel=2 note=72 velocity=0 time=4\n",
      "note_on channel=2 note=79 velocity=0 time=116\n",
      "note_on channel=2 note=76 velocity=82 time=30\n",
      "note_on channel=2 note=81 velocity=85 time=30\n",
      "note_on channel=2 note=76 velocity=0 time=9\n",
      "note_on channel=2 note=79 velocity=89 time=21\n",
      "note_on channel=2 note=81 velocity=0 time=7\n",
      "note_on channel=2 note=77 velocity=102 time=23\n",
      "note_on channel=2 note=79 velocity=0 time=9\n",
      "note_on channel=2 note=76 velocity=89 time=21\n",
      "note_on channel=2 note=77 velocity=0 time=4\n",
      "note_on channel=2 note=76 velocity=0 time=26\n",
      "note_on channel=2 note=74 velocity=64 time=0\n",
      "note_on channel=2 note=74 velocity=0 time=30\n",
      "note_on channel=2 note=72 velocity=95 time=0\n",
      "note_on channel=2 note=71 velocity=85 time=30\n",
      "note_on channel=2 note=72 velocity=0 time=6\n",
      "note_on channel=2 note=71 velocity=0 time=26\n",
      "note_on channel=2 note=77 velocity=113 time=28\n",
      "note_on channel=2 note=76 velocity=102 time=90\n",
      "note_on channel=2 note=77 velocity=0 time=5\n",
      "note_on channel=2 note=74 velocity=102 time=25\n",
      "note_on channel=2 note=76 velocity=0 time=7\n",
      "note_on channel=2 note=76 velocity=98 time=23\n",
      "note_on channel=2 note=74 velocity=0 time=6\n",
      "note_on channel=2 note=79 velocity=87 time=24\n",
      "note_on channel=2 note=76 velocity=0 time=3\n",
      "note_on channel=2 note=76 velocity=95 time=27\n",
      "note_on channel=2 note=79 velocity=0 time=4\n",
      "note_on channel=2 note=74 velocity=105 time=26\n",
      "note_on channel=2 note=76 velocity=0 time=4\n",
      "note_on channel=2 note=76 velocity=93 time=26\n",
      "note_on channel=2 note=74 velocity=0 time=3\n",
      "note_on channel=2 note=72 velocity=93 time=27\n",
      "note_on channel=2 note=76 velocity=0 time=3\n",
      "note_on channel=2 note=76 velocity=82 time=27\n",
      "note_on channel=2 note=72 velocity=0 time=3\n",
      "note_on channel=2 note=69 velocity=74 time=27\n",
      "note_on channel=2 note=76 velocity=0 time=18\n",
      "note_on channel=2 note=69 velocity=0 time=12\n",
      "note_on channel=2 note=72 velocity=80 time=0\n",
      "note_on channel=2 note=65 velocity=95 time=30\n",
      "note_on channel=2 note=72 velocity=0 time=2\n",
      "note_on channel=2 note=65 velocity=0 time=18\n",
      "note_on channel=2 note=81 velocity=93 time=40\n",
      "note_on channel=2 note=81 velocity=0 time=20\n",
      "note_on channel=2 note=77 velocity=89 time=40\n",
      "note_on channel=2 note=77 velocity=0 time=23\n",
      "note_on channel=2 note=81 velocity=87 time=37\n",
      "note_on channel=2 note=81 velocity=0 time=23\n",
      "note_on channel=2 note=82 velocity=95 time=37\n",
      "note_on channel=2 note=82 velocity=0 time=125\n",
      "note_on channel=2 note=79 velocity=91 time=25\n",
      "note_on channel=2 note=77 velocity=102 time=30\n",
      "note_on channel=2 note=79 velocity=0 time=5\n",
      "note_on channel=2 note=79 velocity=80 time=25\n",
      "note_on channel=2 note=77 velocity=0 time=7\n",
      "note_on channel=2 note=82 velocity=80 time=23\n",
      "note_on channel=2 note=79 velocity=0 time=4\n",
      "note_on channel=2 note=79 velocity=95 time=26\n",
      "note_on channel=2 note=82 velocity=0 time=4\n",
      "note_on channel=2 note=77 velocity=100 time=26\n",
      "note_on channel=2 note=79 velocity=0 time=8\n",
      "note_on channel=2 note=79 velocity=82 time=22\n",
      "note_on channel=2 note=77 velocity=0 time=3\n",
      "note_on channel=2 note=76 velocity=93 time=27\n",
      "note_on channel=2 note=79 velocity=0 time=7\n",
      "note_on channel=2 note=79 velocity=68 time=23\n",
      "note_on channel=2 note=76 velocity=0 time=7\n",
      "note_on channel=2 note=76 velocity=70 time=23\n",
      "note_on channel=2 note=79 velocity=0 time=1\n",
      "note_on channel=2 note=79 velocity=68 time=29\n",
      "note_on channel=2 note=76 velocity=0 time=10\n",
      "note_on channel=2 note=69 velocity=78 time=20\n",
      "note_on channel=2 note=79 velocity=0 time=3\n",
      "note_on channel=2 note=69 velocity=0 time=24\n",
      "note_on channel=2 note=81 velocity=80 time=3\n",
      "note_on channel=2 note=79 velocity=85 time=30\n",
      "note_on channel=2 note=81 velocity=0 time=5\n",
      "note_on channel=2 note=81 velocity=82 time=25\n",
      "note_on channel=2 note=79 velocity=0 time=4\n",
      "note_on channel=2 note=84 velocity=93 time=26\n",
      "note_on channel=2 note=81 velocity=0 time=3\n",
      "note_on channel=2 note=81 velocity=76 time=27\n",
      "note_on channel=2 note=84 velocity=0 time=7\n",
      "note_on channel=2 note=81 velocity=0 time=23\n",
      "note_on channel=2 note=79 velocity=102 time=0\n",
      "note_on channel=2 note=81 velocity=85 time=30\n",
      "note_on channel=2 note=79 velocity=0 time=7\n",
      "note_on channel=2 note=77 velocity=91 time=23\n",
      "note_on channel=2 note=81 velocity=0 time=5\n",
      "note_on channel=2 note=77 velocity=0 time=6\n",
      "note_on channel=2 note=81 velocity=102 time=19\n",
      "note_on channel=2 note=81 velocity=0 time=10\n",
      "note_on channel=2 note=84 velocity=105 time=20\n",
      "note_on channel=2 note=82 velocity=85 time=90\n",
      "note_on channel=2 note=84 velocity=0 time=4\n",
      "note_on channel=2 note=81 velocity=105 time=26\n",
      "note_on channel=2 note=82 velocity=0 time=4\n",
      "note_on channel=2 note=82 velocity=102 time=26\n",
      "note_on channel=2 note=81 velocity=0 time=9\n",
      "note_on channel=2 note=84 velocity=95 time=21\n",
      "note_on channel=2 note=82 velocity=0 time=5\n",
      "note_on channel=2 note=82 velocity=95 time=25\n",
      "note_on channel=2 note=84 velocity=0 time=7\n",
      "note_on channel=2 note=81 velocity=95 time=23\n",
      "note_on channel=2 note=82 velocity=0 time=2\n",
      "note_on channel=2 note=82 velocity=85 time=28\n",
      "note_on channel=2 note=81 velocity=0 time=5\n",
      "note_on channel=2 note=77 velocity=82 time=25\n",
      "note_on channel=2 note=82 velocity=0 time=2\n",
      "note_on channel=2 note=77 velocity=0 time=11\n",
      "note_on channel=2 note=81 velocity=102 time=17\n",
      "note_on channel=2 note=81 velocity=0 time=11\n",
      "note_on channel=2 note=82 velocity=102 time=19\n",
      "note_on channel=2 note=81 velocity=91 time=90\n",
      "note_on channel=2 note=82 velocity=0 time=2\n",
      "note_on channel=2 note=79 velocity=102 time=28\n",
      "note_on channel=2 note=81 velocity=0 time=5\n",
      "note_on channel=2 note=81 velocity=87 time=25\n",
      "note_on channel=2 note=79 velocity=0 time=3\n",
      "note_on channel=2 note=82 velocity=87 time=27\n",
      "note_on channel=2 note=81 velocity=0 time=10\n",
      "note_on channel=2 note=81 velocity=87 time=20\n",
      "note_on channel=2 note=82 velocity=0 time=8\n",
      "note_on channel=2 note=79 velocity=95 time=22\n",
      "note_on channel=2 note=81 velocity=0 time=5\n",
      "note_on channel=2 note=81 velocity=89 time=25\n",
      "note_on channel=2 note=79 velocity=0 time=1\n",
      "note_on channel=2 note=77 velocity=80 time=29\n",
      "note_on channel=2 note=81 velocity=0 time=1\n",
      "note_on channel=2 note=77 velocity=0 time=13\n",
      "note_on channel=2 note=79 velocity=95 time=16\n",
      "note_on channel=2 note=79 velocity=0 time=10\n",
      "note_on channel=2 note=81 velocity=105 time=20\n",
      "note_on channel=2 note=79 velocity=93 time=90\n",
      "note_on channel=2 note=81 velocity=0 time=6\n",
      "note_on channel=2 note=77 velocity=87 time=24\n"
     ]
    },
    {
     "name": "stdout",
     "output_type": "stream",
     "text": [
      "note_on channel=2 note=79 velocity=0 time=5\n",
      "note_on channel=2 note=79 velocity=82 time=25\n",
      "note_on channel=2 note=77 velocity=0 time=8\n",
      "note_on channel=2 note=82 velocity=87 time=22\n",
      "note_on channel=2 note=79 velocity=0 time=5\n",
      "note_on channel=2 note=79 velocity=82 time=25\n",
      "note_on channel=2 note=82 velocity=0 time=3\n",
      "note_on channel=2 note=77 velocity=82 time=27\n",
      "note_on channel=2 note=79 velocity=0 time=6\n",
      "note_on channel=2 note=77 velocity=0 time=24\n",
      "note_on channel=2 note=79 velocity=82 time=0\n",
      "note_on channel=2 note=76 velocity=87 time=30\n",
      "note_on channel=2 note=79 velocity=0 time=3\n",
      "note_on channel=2 note=76 velocity=0 time=9\n",
      "note_on channel=2 note=77 velocity=105 time=18\n",
      "note_on channel=2 note=77 velocity=0 time=10\n",
      "note_on channel=2 note=79 velocity=89 time=20\n",
      "note_on channel=2 note=72 velocity=87 time=120\n",
      "note_on channel=2 note=71 velocity=82 time=0\n",
      "note_on channel=2 note=79 velocity=0 time=1\n",
      "note_on channel=2 note=71 velocity=0 time=11\n",
      "note_on channel=2 note=77 velocity=89 time=48\n",
      "note_on channel=2 note=72 velocity=0 time=5\n",
      "note_on channel=2 note=81 velocity=105 time=55\n",
      "note_on channel=2 note=77 velocity=0 time=1\n",
      "note_on channel=2 note=74 velocity=102 time=119\n",
      "note_on channel=2 note=81 velocity=0 time=8\n",
      "note_on channel=2 note=71 velocity=85 time=112\n",
      "note_on channel=2 note=74 velocity=0 time=4\n",
      "note_on channel=2 note=76 velocity=107 time=56\n",
      "note_on channel=2 note=71 velocity=0 time=5\n",
      "note_on channel=2 note=76 velocity=0 time=50\n",
      "note_on channel=2 note=79 velocity=107 time=5\n",
      "note_on channel=2 note=79 velocity=0 time=117\n",
      "note_on channel=2 note=72 velocity=95 time=3\n",
      "note_on channel=2 note=72 velocity=0 time=100\n",
      "note_on channel=2 note=69 velocity=76 time=20\n",
      "note_on channel=2 note=69 velocity=0 time=48\n",
      "note_on channel=2 note=74 velocity=89 time=12\n",
      "note_on channel=2 note=74 velocity=0 time=48\n",
      "note_on channel=2 note=77 velocity=102 time=12\n",
      "note_on channel=2 note=71 velocity=85 time=120\n",
      "note_on channel=2 note=77 velocity=0 time=2\n",
      "note_on channel=2 note=71 velocity=0 time=52\n",
      "note_on channel=2 note=72 velocity=100 time=66\n",
      "note_on channel=2 note=72 velocity=0 time=28\n",
      "note_on channel=2 note=76 velocity=85 time=32\n",
      "note_on channel=2 note=76 velocity=0 time=22\n",
      "note_on channel=2 note=79 velocity=87 time=38\n",
      "note_on channel=2 note=79 velocity=0 time=26\n",
      "note_on channel=2 note=82 velocity=107 time=34\n",
      "note_on channel=2 note=81 velocity=89 time=60\n",
      "note_on channel=2 note=82 velocity=0 time=1\n",
      "note_on channel=2 note=81 velocity=0 time=29\n",
      "note_on channel=2 note=79 velocity=105 time=0\n",
      "note_on channel=2 note=81 velocity=102 time=30\n",
      "note_on channel=2 note=79 velocity=0 time=5\n",
      "note_on channel=2 note=81 velocity=0 time=22\n",
      "note_on channel=2 note=77 velocity=89 time=33\n",
      "note_on channel=2 note=77 velocity=0 time=24\n",
      "note_on channel=2 note=72 velocity=85 time=36\n",
      "note_on channel=2 note=72 velocity=0 time=24\n",
      "note_on channel=2 note=77 velocity=87 time=36\n",
      "note_on channel=2 note=77 velocity=0 time=24\n",
      "note_on channel=2 note=81 velocity=102 time=36\n",
      "note_on channel=2 note=79 velocity=102 time=60\n",
      "note_on channel=2 note=81 velocity=0 time=6\n",
      "note_on channel=2 note=77 velocity=100 time=24\n",
      "note_on channel=2 note=79 velocity=0 time=3\n",
      "note_on channel=2 note=79 velocity=89 time=27\n",
      "note_on channel=2 note=77 velocity=0 time=11\n",
      "note_on channel=2 note=79 velocity=0 time=6\n",
      "note_on channel=2 note=76 velocity=91 time=43\n",
      "note_on channel=2 note=76 velocity=0 time=21\n",
      "note_on channel=2 note=72 velocity=85 time=39\n",
      "note_on channel=2 note=72 velocity=0 time=21\n",
      "note_on channel=2 note=76 velocity=87 time=39\n",
      "note_on channel=2 note=76 velocity=0 time=16\n",
      "note_on channel=2 note=79 velocity=105 time=44\n",
      "note_on channel=2 note=77 velocity=102 time=60\n",
      "note_on channel=2 note=79 velocity=0 time=5\n",
      "note_on channel=2 note=76 velocity=105 time=25\n",
      "note_on channel=2 note=77 velocity=0 time=5\n",
      "note_on channel=2 note=77 velocity=100 time=25\n",
      "note_on channel=2 note=76 velocity=0 time=7\n",
      "note_on channel=2 note=77 velocity=0 time=18\n",
      "note_on channel=2 note=74 velocity=93 time=35\n",
      "note_on channel=2 note=74 velocity=0 time=21\n",
      "note_on channel=2 note=71 velocity=87 time=39\n",
      "note_on channel=2 note=71 velocity=0 time=24\n",
      "note_on channel=2 note=74 velocity=80 time=36\n",
      "note_on channel=2 note=74 velocity=0 time=36\n",
      "note_on channel=2 note=77 velocity=107 time=24\n",
      "note_on channel=2 note=76 velocity=102 time=30\n",
      "note_on channel=2 note=77 velocity=0 time=4\n",
      "note_on channel=2 note=74 velocity=102 time=26\n",
      "note_on channel=2 note=76 velocity=0 time=5\n",
      "note_on channel=2 note=76 velocity=100 time=25\n",
      "note_on channel=2 note=74 velocity=0 time=3\n",
      "note_on channel=2 note=77 velocity=98 time=27\n",
      "note_on channel=2 note=76 velocity=0 time=8\n",
      "note_on channel=2 note=76 velocity=89 time=22\n",
      "note_on channel=2 note=77 velocity=0 time=9\n",
      "note_on channel=2 note=74 velocity=102 time=21\n",
      "note_on channel=2 note=76 velocity=0 time=4\n",
      "note_on channel=2 note=76 velocity=89 time=26\n",
      "note_on channel=2 note=74 velocity=0 time=5\n",
      "note_on channel=2 note=72 velocity=85 time=25\n",
      "note_on channel=2 note=76 velocity=0 time=2\n",
      "note_on channel=2 note=72 velocity=0 time=28\n",
      "note_on channel=2 note=81 velocity=85 time=0\n",
      "note_on channel=2 note=79 velocity=87 time=30\n",
      "note_on channel=2 note=81 velocity=0 time=3\n",
      "note_on channel=2 note=77 velocity=105 time=27\n",
      "note_on channel=2 note=79 velocity=0 time=9\n",
      "note_on channel=2 note=76 velocity=98 time=21\n",
      "note_on channel=2 note=77 velocity=0 time=5\n",
      "note_on channel=2 note=74 velocity=74 time=25\n",
      "note_on channel=2 note=76 velocity=0 time=1\n",
      "note_on channel=2 note=72 velocity=80 time=29\n",
      "note_on channel=2 note=74 velocity=0 time=1\n",
      "note_on channel=2 note=70 velocity=98 time=29\n",
      "note_on channel=2 note=72 velocity=0 time=2\n",
      "note_on channel=2 note=69 velocity=78 time=28\n",
      "note_on channel=2 note=70 velocity=0 time=3\n",
      "note_on channel=2 note=70 velocity=110 time=27\n",
      "note_on channel=2 note=69 velocity=0 time=4\n",
      "note_on channel=2 note=70 velocity=0 time=24\n",
      "note_on channel=2 note=67 velocity=68 time=2\n",
      "note_on channel=2 note=69 velocity=98 time=30\n",
      "note_on channel=2 note=67 velocity=0 time=1\n",
      "note_on channel=2 note=69 velocity=0 time=29\n",
      "note_on channel=2 note=65 velocity=82 time=0\n",
      "note_on channel=2 note=65 velocity=0 time=25\n",
      "note_on channel=2 note=79 velocity=85 time=5\n",
      "note_on channel=2 note=77 velocity=89 time=30\n",
      "note_on channel=2 note=79 velocity=0 time=5\n",
      "note_on channel=2 note=76 velocity=105 time=25\n",
      "note_on channel=2 note=77 velocity=0 time=7\n",
      "note_on channel=2 note=74 velocity=93 time=23\n",
      "note_on channel=2 note=76 velocity=0 time=6\n",
      "note_on channel=2 note=72 velocity=72 time=24\n",
      "note_on channel=2 note=74 velocity=0 time=1\n",
      "note_on channel=2 note=72 velocity=0 time=28\n",
      "note_on channel=2 note=71 velocity=93 time=1\n",
      "note_on channel=2 note=69 velocity=98 time=30\n",
      "note_on channel=2 note=71 velocity=0 time=7\n",
      "note_on channel=2 note=69 velocity=0 time=21\n",
      "note_on channel=2 note=67 velocity=82 time=2\n",
      "note_on channel=2 note=67 velocity=0 time=28\n",
      "note_on channel=2 note=69 velocity=82 time=2\n",
      "note_on channel=2 note=69 velocity=0 time=29\n",
      "note_on channel=2 note=65 velocity=87 time=1\n",
      "note_on channel=2 note=65 velocity=0 time=30\n",
      "note_on channel=2 note=67 velocity=91 time=0\n",
      "note_on channel=2 note=64 velocity=85 time=30\n",
      "note_on channel=2 note=67 velocity=0 time=3\n",
      "note_on channel=2 note=64 velocity=0 time=23\n",
      "note_on channel=2 note=77 velocity=89 time=4\n",
      "note_on channel=2 note=76 velocity=95 time=30\n",
      "note_on channel=2 note=77 velocity=0 time=6\n",
      "note_on channel=2 note=74 velocity=100 time=24\n",
      "note_on channel=2 note=76 velocity=0 time=8\n",
      "note_on channel=2 note=72 velocity=87 time=22\n",
      "note_on channel=2 note=74 velocity=0 time=8\n",
      "note_on channel=2 note=71 velocity=74 time=22\n",
      "note_on channel=2 note=72 velocity=0 time=1\n",
      "note_on channel=2 note=69 velocity=95 time=29\n",
      "note_on channel=2 note=71 velocity=0 time=2\n",
      "note_on channel=2 note=67 velocity=102 time=28\n",
      "note_on channel=2 note=69 velocity=0 time=7\n",
      "note_on channel=2 note=65 velocity=87 time=23\n",
      "note_on channel=2 note=67 velocity=0 time=2\n",
      "note_on channel=2 note=65 velocity=0 time=29\n",
      "note_on channel=2 note=69 velocity=102 time=29\n",
      "note_on channel=2 note=69 velocity=0 time=88\n",
      "note_on channel=2 note=74 velocity=100 time=32\n",
      "note_on channel=2 note=74 velocity=0 time=102\n",
      "note_on channel=2 note=77 velocity=105 time=18\n",
      "note_on channel=2 note=77 velocity=0 time=86\n",
      "note_on channel=2 note=72 velocity=102 time=4\n",
      "note_on channel=2 note=74 velocity=91 time=30\n",
      "note_on channel=2 note=72 velocity=0 time=5\n",
      "note_on channel=2 note=74 velocity=0 time=25\n",
      "note_on channel=2 note=71 velocity=100 time=0\n",
      "note_on channel=2 note=72 velocity=102 time=30\n",
      "note_on channel=2 note=71 velocity=0 time=5\n",
      "note_on channel=2 note=72 velocity=0 time=29\n",
      "note_on channel=2 note=74 velocity=85 time=26\n",
      "note_on channel=2 note=74 velocity=0 time=27\n",
      "note_on channel=2 note=67 velocity=95 time=33\n",
      "note_on channel=2 note=67 velocity=0 time=35\n",
      "note_on channel=2 note=71 velocity=107 time=25\n",
      "note_on channel=2 note=71 velocity=0 time=43\n",
      "note_on channel=2 note=72 velocity=102 time=17\n",
      "note_on channel=2 note=72 velocity=0 time=119\n",
      "<meta message end_of_track time=0>\n",
      "Track 3: Great LH\n",
      "<meta message midi_port port=0 time=0>\n",
      "<meta message track_name name='Great LH' time=0>\n",
      "program_change channel=1 program=6 time=0\n",
      "control_change channel=1 control=7 value=100 time=0\n",
      "control_change channel=1 control=10 value=70 time=0\n",
      "control_change channel=1 control=91 value=65 time=7266\n",
      "note_on channel=1 note=59 velocity=89 time=2\n",
      "note_on channel=1 note=59 velocity=0 time=22\n",
      "note_on channel=1 note=55 velocity=85 time=34\n",
      "note_on channel=1 note=55 velocity=0 time=23\n",
      "note_on channel=1 note=59 velocity=89 time=33\n",
      "note_on channel=1 note=59 velocity=0 time=27\n",
      "note_on channel=1 note=60 velocity=82 time=34\n",
      "note_on channel=1 note=59 velocity=76 time=60\n",
      "note_on channel=1 note=60 velocity=0 time=4\n",
      "note_on channel=1 note=57 velocity=74 time=25\n",
      "note_on channel=1 note=59 velocity=0 time=7\n",
      "note_on channel=1 note=59 velocity=100 time=22\n",
      "note_on channel=1 note=57 velocity=0 time=2\n",
      "note_on channel=1 note=59 velocity=0 time=25\n",
      "note_on channel=1 note=62 velocity=87 time=35\n",
      "note_on channel=1 note=62 velocity=0 time=32\n",
      "note_on channel=1 note=55 velocity=82 time=26\n",
      "note_on channel=1 note=55 velocity=0 time=22\n",
      "note_on channel=1 note=59 velocity=82 time=40\n",
      "note_on channel=1 note=59 velocity=0 time=22\n",
      "note_on channel=1 note=52 velocity=87 time=40\n",
      "note_on channel=1 note=55 velocity=62 time=28\n",
      "note_on channel=1 note=52 velocity=0 time=5\n",
      "note_on channel=1 note=57 velocity=91 time=23\n",
      "note_on channel=1 note=55 velocity=0 time=5\n",
      "note_on channel=1 note=59 velocity=91 time=24\n",
      "note_on channel=1 note=57 velocity=0 time=2\n",
      "note_on channel=1 note=59 velocity=0 time=28\n",
      "note_on channel=1 note=60 velocity=87 time=0\n",
      "note_on channel=1 note=60 velocity=0 time=29\n",
      "note_on channel=1 note=64 velocity=85 time=30\n",
      "note_on channel=1 note=64 velocity=0 time=29\n",
      "note_on channel=1 note=57 velocity=87 time=30\n",
      "note_on channel=1 note=57 velocity=0 time=29\n",
      "note_on channel=1 note=60 velocity=91 time=33\n",
      "note_on channel=1 note=60 velocity=0 time=26\n",
      "note_on channel=1 note=54 velocity=82 time=36\n",
      "note_on channel=1 note=57 velocity=85 time=28\n",
      "note_on channel=1 note=54 velocity=0 time=5\n",
      "note_on channel=1 note=59 velocity=82 time=23\n",
      "note_on channel=1 note=57 velocity=0 time=2\n",
      "note_on channel=1 note=59 velocity=0 time=28\n",
      "note_on channel=1 note=60 velocity=82 time=1\n",
      "note_on channel=1 note=60 velocity=0 time=27\n",
      "note_on channel=1 note=62 velocity=102 time=6\n",
      "note_on channel=1 note=62 velocity=0 time=33\n",
      "note_on channel=1 note=67 velocity=82 time=30\n",
      "note_on channel=1 note=62 velocity=89 time=29\n",
      "note_on channel=1 note=67 velocity=0 time=5\n",
      "note_on channel=1 note=62 velocity=0 time=19\n",
      "note_on channel=1 note=59 velocity=82 time=3\n",
      "note_on channel=1 note=59 velocity=0 time=29\n",
      "note_on channel=1 note=62 velocity=85 time=33\n",
      "note_on channel=1 note=62 velocity=0 time=29\n",
      "note_on channel=1 note=59 velocity=80 time=0\n",
      "note_on channel=1 note=55 velocity=87 time=30\n",
      "note_on channel=1 note=59 velocity=0 time=2\n",
      "note_on channel=1 note=59 velocity=87 time=27\n",
      "note_on channel=1 note=55 velocity=0 time=7\n",
      "note_on channel=1 note=60 velocity=87 time=23\n",
      "note_on channel=1 note=59 velocity=0 time=2\n",
      "note_on channel=1 note=60 velocity=0 time=27\n",
      "note_on channel=1 note=62 velocity=80 time=0\n",
      "note_on channel=1 note=64 velocity=80 time=31\n",
      "note_on channel=1 note=62 velocity=0 time=3\n",
      "note_on channel=1 note=62 velocity=82 time=25\n",
      "note_on channel=1 note=64 velocity=0 time=4\n",
      "note_on channel=1 note=64 velocity=76 time=28\n",
      "note_on channel=1 note=62 velocity=0 time=3\n",
      "note_on channel=1 note=64 velocity=0 time=27\n",
      "note_on channel=1 note=65 velocity=82 time=0\n",
      "note_on channel=1 note=64 velocity=87 time=34\n",
      "note_on channel=1 note=65 velocity=0 time=5\n",
      "note_on channel=1 note=62 velocity=89 time=24\n",
      "note_on channel=1 note=64 velocity=0 time=6\n",
      "note_on channel=1 note=62 velocity=0 time=24\n",
      "note_on channel=1 note=60 velocity=82 time=2\n",
      "note_on channel=1 note=59 velocity=59 time=26\n",
      "note_on channel=1 note=60 velocity=0 time=7\n",
      "note_on channel=1 note=57 velocity=72 time=22\n",
      "note_on channel=1 note=59 velocity=0 time=6\n",
      "note_on channel=1 note=55 velocity=82 time=23\n",
      "note_on channel=1 note=57 velocity=0 time=3\n",
      "note_on channel=1 note=54 velocity=72 time=27\n",
      "note_on channel=1 note=55 velocity=0 time=5\n",
      "note_on channel=1 note=54 velocity=0 time=17\n",
      "note_on channel=1 note=52 velocity=82 time=5\n",
      "note_on channel=1 note=52 velocity=0 time=28\n",
      "note_on channel=1 note=54 velocity=76 time=0\n",
      "note_on channel=1 note=55 velocity=82 time=33\n",
      "note_on channel=1 note=54 velocity=0 time=3\n",
      "note_on channel=1 note=54 velocity=87 time=29\n",
      "note_on channel=1 note=55 velocity=0 time=2\n",
      "note_on channel=1 note=50 velocity=85 time=29\n",
      "note_on channel=1 note=54 velocity=0 time=4\n",
      "note_on channel=1 note=57 velocity=87 time=26\n",
      "note_on channel=1 note=50 velocity=0 time=2\n",
      "note_on channel=1 note=59 velocity=80 time=30\n",
      "note_on channel=1 note=57 velocity=0 time=1\n",
      "note_on channel=1 note=57 velocity=87 time=30\n",
      "note_on channel=1 note=59 velocity=0 time=5\n",
      "note_on channel=1 note=50 velocity=87 time=23\n",
      "note_on channel=1 note=57 velocity=0 time=3\n",
      "note_on channel=1 note=50 velocity=0 time=22\n",
      "note_on channel=1 note=60 velocity=93 time=4\n",
      "note_on channel=1 note=62 velocity=87 time=32\n",
      "note_on channel=1 note=60 velocity=0 time=4\n",
      "note_on channel=1 note=60 velocity=85 time=26\n",
      "note_on channel=1 note=62 velocity=0 time=5\n",
      "note_on channel=1 note=57 velocity=80 time=23\n",
      "note_on channel=1 note=60 velocity=0 time=5\n",
      "note_on channel=1 note=58 velocity=100 time=24\n",
      "note_on channel=1 note=57 velocity=0 time=2\n",
      "note_on channel=1 note=58 velocity=0 time=30\n",
      "note_on channel=1 note=55 velocity=87 time=32\n",
      "note_on channel=1 note=55 velocity=0 time=35\n",
      "note_on channel=1 note=62 velocity=91 time=24\n",
      "note_on channel=1 note=62 velocity=0 time=33\n",
      "note_on channel=1 note=58 velocity=80 time=27\n",
      "note_on channel=1 note=58 velocity=0 time=43\n",
      "note_on channel=1 note=60 velocity=87 time=16756\n",
      "note_on channel=1 note=60 velocity=0 time=25\n",
      "note_on channel=1 note=57 velocity=87 time=35\n",
      "note_on channel=1 note=57 velocity=0 time=33\n",
      "note_on channel=1 note=60 velocity=98 time=27\n",
      "note_on channel=1 note=60 velocity=0 time=31\n",
      "note_on channel=1 note=62 velocity=105 time=29\n",
      "note_on channel=1 note=60 velocity=82 time=60\n",
      "note_on channel=1 note=62 velocity=0 time=5\n",
      "note_on channel=1 note=58 velocity=91 time=25\n",
      "note_on channel=1 note=60 velocity=0 time=5\n",
      "note_on channel=1 note=58 velocity=0 time=22\n",
      "note_on channel=1 note=60 velocity=80 time=3\n",
      "note_on channel=1 note=65 velocity=93 time=30\n",
      "note_on channel=1 note=60 velocity=0 time=2\n",
      "note_on channel=1 note=64 velocity=102 time=28\n",
      "note_on channel=1 note=65 velocity=0 time=5\n",
      "note_on channel=1 note=65 velocity=102 time=25\n",
      "note_on channel=1 note=64 velocity=0 time=4\n",
      "note_on channel=1 note=69 velocity=100 time=26\n",
      "note_on channel=1 note=65 velocity=0 time=2\n",
      "note_on channel=1 note=65 velocity=85 time=28\n",
      "note_on channel=1 note=69 velocity=0 time=7\n",
      "note_on channel=1 note=64 velocity=98 time=23\n",
      "note_on channel=1 note=65 velocity=0 time=6\n",
      "note_on channel=1 note=65 velocity=91 time=24\n",
      "note_on channel=1 note=64 velocity=0 time=4\n",
      "note_on channel=1 note=60 velocity=102 time=26\n",
      "note_on channel=1 note=65 velocity=0 time=4\n",
      "note_on channel=1 note=65 velocity=100 time=26\n",
      "note_on channel=1 note=60 velocity=0 time=3\n",
      "note_on channel=1 note=57 velocity=91 time=27\n",
      "note_on channel=1 note=65 velocity=0 time=8\n",
      "note_on channel=1 note=60 velocity=72 time=22\n",
      "note_on channel=1 note=57 velocity=0 time=5\n",
      "note_on channel=1 note=60 velocity=0 time=25\n",
      "note_on channel=1 note=53 velocity=87 time=0\n",
      "note_on channel=1 note=53 velocity=0 time=32\n",
      "note_on channel=1 note=69 velocity=91 time=28\n",
      "note_on channel=1 note=69 velocity=0 time=22\n",
      "note_on channel=1 note=65 velocity=89 time=38\n",
      "note_on channel=1 note=65 velocity=0 time=27\n",
      "note_on channel=1 note=69 velocity=89 time=33\n",
      "note_on channel=1 note=69 velocity=0 time=26\n",
      "note_on channel=1 note=70 velocity=100 time=34\n",
      "note_on channel=1 note=69 velocity=95 time=60\n",
      "note_on channel=1 note=70 velocity=0 time=1\n",
      "note_on channel=1 note=67 velocity=102 time=29\n",
      "note_on channel=1 note=69 velocity=0 time=3\n",
      "note_on channel=1 note=69 velocity=102 time=27\n",
      "note_on channel=1 note=67 velocity=0 time=7\n",
      "note_on channel=1 note=69 velocity=0 time=14\n",
      "note_on channel=1 note=60 velocity=66 time=9\n",
      "note_on channel=1 note=62 velocity=87 time=30\n",
      "note_on channel=1 note=60 velocity=0 time=5\n",
      "note_on channel=1 note=64 velocity=100 time=25\n",
      "note_on channel=1 note=62 velocity=0 time=11\n",
      "note_on channel=1 note=65 velocity=100 time=19\n",
      "note_on channel=1 note=64 velocity=0 time=8\n",
      "note_on channel=1 note=64 velocity=91 time=22\n",
      "note_on channel=1 note=65 velocity=0 time=3\n",
      "note_on channel=1 note=65 velocity=102 time=27\n",
      "note_on channel=1 note=64 velocity=0 time=8\n",
      "note_on channel=1 note=69 velocity=87 time=22\n",
      "note_on channel=1 note=65 velocity=0 time=4\n",
      "note_on channel=1 note=67 velocity=95 time=26\n",
      "note_on channel=1 note=69 velocity=0 time=7\n",
      "note_on channel=1 note=65 velocity=102 time=23\n",
      "note_on channel=1 note=67 velocity=0 time=11\n",
      "note_on channel=1 note=64 velocity=98 time=19\n",
      "note_on channel=1 note=65 velocity=0 time=7\n",
      "note_on channel=1 note=64 velocity=0 time=22\n",
      "note_on channel=1 note=62 velocity=80 time=1\n",
      "note_on channel=1 note=64 velocity=105 time=30\n",
      "note_on channel=1 note=62 velocity=0 time=6\n",
      "note_on channel=1 note=64 velocity=0 time=19\n",
      "note_on channel=1 note=60 velocity=102 time=35\n",
      "note_on channel=1 note=62 velocity=102 time=30\n",
      "note_on channel=1 note=60 velocity=0 time=3\n",
      "note_on channel=1 note=64 velocity=107 time=27\n",
      "note_on channel=1 note=62 velocity=0 time=4\n",
      "note_on channel=1 note=64 velocity=0 time=23\n",
      "note_on channel=1 note=55 velocity=87 time=33\n",
      "note_on channel=1 note=55 velocity=0 time=44\n",
      "note_on channel=1 note=57 velocity=85 time=16\n",
      "note_on channel=1 note=57 velocity=0 time=39\n",
      "note_on channel=1 note=66 velocity=98 time=21\n",
      "note_on channel=1 note=66 velocity=0 time=40\n",
      "note_on channel=1 note=67 velocity=89 time=20\n",
      "note_on channel=1 note=62 velocity=91 time=30\n",
      "note_on channel=1 note=67 velocity=0 time=2\n",
      "note_on channel=1 note=64 velocity=102 time=28\n",
      "note_on channel=1 note=62 velocity=0 time=9\n",
      "note_on channel=1 note=65 velocity=102 time=21\n",
      "note_on channel=1 note=64 velocity=0 time=6\n",
      "note_on channel=1 note=67 velocity=89 time=24\n",
      "note_on channel=1 note=65 velocity=0 time=5\n",
      "note_on channel=1 note=67 velocity=0 time=25\n",
      "note_on channel=1 note=65 velocity=82 time=0\n",
      "note_on channel=1 note=67 velocity=82 time=30\n",
      "note_on channel=1 note=65 velocity=0 time=13\n",
      "note_on channel=1 note=70 velocity=89 time=17\n",
      "note_on channel=1 note=67 velocity=0 time=2\n",
      "note_on channel=1 note=69 velocity=91 time=28\n",
      "note_on channel=1 note=70 velocity=0 time=10\n",
      "note_on channel=1 note=67 velocity=100 time=20\n",
      "note_on channel=1 note=69 velocity=0 time=7\n",
      "note_on channel=1 note=65 velocity=82 time=23\n",
      "note_on channel=1 note=67 velocity=0 time=3\n",
      "note_on channel=1 note=64 velocity=100 time=27\n",
      "note_on channel=1 note=65 velocity=0 time=3\n",
      "note_on channel=1 note=65 velocity=85 time=27\n",
      "note_on channel=1 note=64 velocity=0 time=4\n",
      "note_on channel=1 note=65 velocity=0 time=25\n",
      "note_on channel=1 note=62 velocity=87 time=31\n",
      "note_on channel=1 note=64 velocity=98 time=30\n",
      "note_on channel=1 note=62 velocity=0 time=2\n",
      "note_on channel=1 note=66 velocity=110 time=28\n",
      "note_on channel=1 note=64 velocity=0 time=6\n",
      "note_on channel=1 note=66 velocity=0 time=22\n",
      "note_on channel=1 note=57 velocity=85 time=32\n",
      "note_on channel=1 note=57 velocity=0 time=40\n",
      "note_on channel=1 note=59 velocity=87 time=20\n",
      "note_on channel=1 note=59 velocity=0 time=43\n",
      "note_on channel=1 note=68 velocity=100 time=17\n",
      "note_on channel=1 note=68 velocity=0 time=41\n",
      "note_on channel=1 note=69 velocity=105 time=49\n",
      "note_on channel=1 note=68 velocity=95 time=30\n",
      "note_on channel=1 note=69 velocity=0 time=3\n",
      "note_on channel=1 note=69 velocity=91 time=27\n",
      "note_on channel=1 note=68 velocity=0 time=4\n",
      "note_on channel=1 note=72 velocity=98 time=26\n",
      "note_on channel=1 note=69 velocity=0 time=4\n",
      "note_on channel=1 note=69 velocity=89 time=26\n",
      "note_on channel=1 note=72 velocity=0 time=1\n",
      "note_on channel=1 note=68 velocity=107 time=29\n",
      "note_on channel=1 note=69 velocity=0 time=4\n",
      "note_on channel=1 note=69 velocity=82 time=26\n",
      "note_on channel=1 note=68 velocity=0 time=3\n",
      "note_on channel=1 note=64 velocity=100 time=27\n",
      "note_on channel=1 note=69 velocity=0 time=5\n",
      "note_on channel=1 note=69 velocity=102 time=25\n",
      "note_on channel=1 note=64 velocity=0 time=3\n",
      "note_on channel=1 note=69 velocity=0 time=26\n",
      "note_on channel=1 note=60 velocity=89 time=1\n",
      "note_on channel=1 note=64 velocity=98 time=30\n",
      "note_on channel=1 note=60 velocity=0 time=3\n",
      "note_on channel=1 note=64 velocity=0 time=25\n",
      "note_on channel=1 note=57 velocity=82 time=2\n",
      "note_on channel=1 note=57 velocity=0 time=31\n",
      "note_on channel=1 note=72 velocity=95 time=29\n",
      "note_on channel=1 note=72 velocity=0 time=26\n",
      "note_on channel=1 note=69 velocity=82 time=34\n",
      "note_on channel=1 note=69 velocity=0 time=29\n",
      "note_on channel=1 note=72 velocity=100 time=31\n",
      "note_on channel=1 note=72 velocity=0 time=27\n",
      "note_on channel=1 note=74 velocity=102 time=33\n",
      "note_on channel=1 note=74 velocity=0 time=53\n",
      "note_on channel=1 note=72 velocity=98 time=7\n",
      "note_on channel=1 note=71 velocity=116 time=30\n",
      "note_on channel=1 note=72 velocity=0 time=4\n",
      "note_on channel=1 note=71 velocity=0 time=25\n",
      "note_on channel=1 note=72 velocity=82 time=1\n",
      "note_on channel=1 note=72 velocity=0 time=61\n",
      "note_on channel=1 note=64 velocity=95 time=359\n",
      "note_on channel=1 note=64 velocity=0 time=31\n",
      "note_on channel=1 note=60 velocity=89 time=29\n",
      "note_on channel=1 note=60 velocity=0 time=30\n",
      "note_on channel=1 note=64 velocity=95 time=30\n",
      "note_on channel=1 note=64 velocity=0 time=38\n",
      "note_on channel=1 note=65 velocity=102 time=22\n",
      "note_on channel=1 note=65 velocity=0 time=45\n",
      "note_on channel=1 note=64 velocity=105 time=15\n",
      "note_on channel=1 note=62 velocity=102 time=30\n",
      "note_on channel=1 note=64 velocity=0 time=3\n",
      "note_on channel=1 note=64 velocity=95 time=27\n",
      "note_on channel=1 note=62 velocity=0 time=1\n",
      "note_on channel=1 note=64 velocity=0 time=13\n",
      "note_on channel=1 note=52 velocity=98 time=16\n",
      "note_on channel=1 note=54 velocity=82 time=30\n",
      "note_on channel=1 note=52 velocity=0 time=14\n",
      "note_on channel=1 note=56 velocity=80 time=16\n",
      "note_on channel=1 note=54 velocity=0 time=8\n",
      "note_on channel=1 note=57 velocity=70 time=22\n",
      "note_on channel=1 note=56 velocity=0 time=1\n",
      "note_on channel=1 note=56 velocity=91 time=29\n",
      "note_on channel=1 note=57 velocity=0 time=8\n",
      "note_on channel=1 note=56 velocity=0 time=20\n",
      "note_on channel=1 note=57 velocity=82 time=2\n",
      "note_on channel=1 note=57 velocity=0 time=30\n",
      "note_on channel=1 note=60 velocity=98 time=0\n",
      "note_on channel=1 note=59 velocity=102 time=30\n",
      "note_on channel=1 note=60 velocity=0 time=9\n",
      "note_on channel=1 note=59 velocity=0 time=20\n",
      "note_on channel=1 note=57 velocity=78 time=1\n",
      "note_on channel=1 note=56 velocity=105 time=30\n",
      "note_on channel=1 note=57 velocity=0 time=8\n",
      "note_on channel=1 note=54 velocity=95 time=22\n",
      "note_on channel=1 note=56 velocity=0 time=3\n",
      "note_on channel=1 note=52 velocity=80 time=27\n",
      "note_on channel=1 note=54 velocity=0 time=1\n",
      "note_on channel=1 note=54 velocity=89 time=29\n",
      "note_on channel=1 note=52 velocity=0 time=8\n",
      "note_on channel=1 note=56 velocity=82 time=22\n",
      "note_on channel=1 note=54 velocity=0 time=12\n",
      "note_on channel=1 note=56 velocity=0 time=15\n",
      "note_on channel=1 note=57 velocity=70 time=3\n",
      "note_on channel=1 note=59 velocity=80 time=30\n",
      "note_on channel=1 note=57 velocity=0 time=5\n",
      "note_on channel=1 note=59 velocity=0 time=20\n",
      "note_on channel=1 note=62 velocity=80 time=5\n",
      "note_on channel=1 note=60 velocity=105 time=30\n",
      "note_on channel=1 note=62 velocity=0 time=10\n",
      "note_on channel=1 note=59 velocity=98 time=20\n",
      "note_on channel=1 note=60 velocity=0 time=2\n",
      "note_on channel=1 note=64 velocity=85 time=28\n",
      "note_on channel=1 note=59 velocity=0 time=10\n",
      "note_on channel=1 note=62 velocity=93 time=20\n",
      "note_on channel=1 note=64 velocity=0 time=9\n",
      "note_on channel=1 note=61 velocity=102 time=21\n",
      "note_on channel=1 note=62 velocity=0 time=10\n",
      "note_on channel=1 note=59 velocity=91 time=20\n",
      "note_on channel=1 note=61 velocity=0 time=5\n",
      "note_on channel=1 note=61 velocity=107 time=25\n",
      "note_on channel=1 note=59 velocity=0 time=8\n",
      "note_on channel=1 note=61 velocity=0 time=27\n",
      "note_on channel=1 note=64 velocity=89 time=25\n",
      "note_on channel=1 note=64 velocity=0 time=31\n",
      "note_on channel=1 note=57 velocity=93 time=29\n",
      "note_on channel=1 note=57 velocity=0 time=30\n",
      "note_on channel=1 note=62 velocity=91 time=30\n",
      "note_on channel=1 note=62 velocity=0 time=25\n",
      "note_on channel=1 note=55 velocity=70 time=35\n",
      "note_on channel=1 note=55 velocity=0 time=24\n",
      "note_on channel=1 note=67 velocity=107 time=36\n",
      "note_on channel=1 note=67 velocity=0 time=90\n",
      "note_on channel=1 note=65 velocity=95 time=0\n",
      "note_on channel=1 note=64 velocity=98 time=30\n",
      "note_on channel=1 note=65 velocity=0 time=4\n",
      "note_on channel=1 note=64 velocity=0 time=24\n",
      "note_on channel=1 note=62 velocity=87 time=2\n",
      "note_on channel=1 note=61 velocity=110 time=30\n",
      "note_on channel=1 note=62 velocity=0 time=8\n",
      "note_on channel=1 note=59 velocity=98 time=22\n",
      "note_on channel=1 note=61 velocity=0 time=4\n",
      "note_on channel=1 note=57 velocity=72 time=26\n",
      "note_on channel=1 note=59 velocity=0 time=9\n",
      "note_on channel=1 note=57 velocity=0 time=20\n",
      "note_on channel=1 note=55 velocity=98 time=1\n",
      "note_on channel=1 note=53 velocity=102 time=30\n",
      "note_on channel=1 note=55 velocity=0 time=14\n",
      "note_on channel=1 note=52 velocity=100 time=16\n",
      "note_on channel=1 note=53 velocity=0 time=6\n",
      "note_on channel=1 note=50 velocity=87 time=24\n",
      "note_on channel=1 note=52 velocity=0 time=2\n",
      "note_on channel=1 note=49 velocity=102 time=28\n",
      "note_on channel=1 note=50 velocity=0 time=6\n",
      "note_on channel=1 note=49 velocity=0 time=27\n",
      "note_on channel=1 note=50 velocity=93 time=1\n",
      "note_on channel=1 note=50 velocity=0 time=116\n",
      "note_on channel=1 note=67 velocity=87 time=11790\n",
      "note_on channel=1 note=66 velocity=85 time=30\n",
      "note_on channel=1 note=67 velocity=0 time=4\n",
      "note_on channel=1 note=67 velocity=82 time=26\n",
      "note_on channel=1 note=66 velocity=0 time=3\n",
      "note_on channel=1 note=71 velocity=85 time=27\n",
      "note_on channel=1 note=67 velocity=0 time=5\n",
      "note_on channel=1 note=67 velocity=82 time=25\n",
      "note_on channel=1 note=71 velocity=0 time=2\n",
      "note_on channel=1 note=66 velocity=100 time=28\n",
      "note_on channel=1 note=67 velocity=0 time=7\n",
      "note_on channel=1 note=67 velocity=82 time=23\n",
      "note_on channel=1 note=66 velocity=0 time=1\n",
      "note_on channel=1 note=62 velocity=85 time=29\n",
      "note_on channel=1 note=67 velocity=0 time=7\n",
      "note_on channel=1 note=67 velocity=89 time=23\n",
      "note_on channel=1 note=62 velocity=0 time=4\n",
      "note_on channel=1 note=59 velocity=95 time=26\n",
      "note_on channel=1 note=67 velocity=0 time=3\n",
      "note_on channel=1 note=62 velocity=80 time=27\n",
      "note_on channel=1 note=59 velocity=0 time=5\n",
      "note_on channel=1 note=55 velocity=87 time=25\n",
      "note_on channel=1 note=62 velocity=0 time=1\n",
      "note_on channel=1 note=55 velocity=0 time=28\n",
      "note_on channel=1 note=74 velocity=95 time=31\n",
      "note_on channel=1 note=74 velocity=0 time=25\n",
      "note_on channel=1 note=71 velocity=85 time=35\n",
      "note_on channel=1 note=71 velocity=0 time=31\n",
      "note_on channel=1 note=74 velocity=85 time=29\n",
      "note_on channel=1 note=74 velocity=0 time=27\n",
      "note_on channel=1 note=76 velocity=89 time=33\n",
      "note_on channel=1 note=74 velocity=89 time=60\n",
      "note_on channel=1 note=76 velocity=0 time=4\n",
      "note_on channel=1 note=72 velocity=100 time=26\n",
      "note_on channel=1 note=74 velocity=0 time=9\n",
      "note_on channel=1 note=74 velocity=91 time=21\n",
      "note_on channel=1 note=72 velocity=0 time=3\n",
      "note_on channel=1 note=74 velocity=0 time=100\n",
      "note_on channel=1 note=59 velocity=85 time=317\n",
      "note_on channel=1 note=59 velocity=0 time=33\n",
      "note_on channel=1 note=55 velocity=80 time=27\n",
      "note_on channel=1 note=55 velocity=0 time=34\n",
      "note_on channel=1 note=59 velocity=85 time=26\n",
      "note_on channel=1 note=59 velocity=0 time=32\n",
      "note_on channel=1 note=60 velocity=85 time=28\n",
      "note_on channel=1 note=60 velocity=0 time=60\n",
      "note_on channel=1 note=59 velocity=82 time=0\n",
      "note_on channel=1 note=57 velocity=70 time=30\n",
      "note_on channel=1 note=59 velocity=0 time=5\n",
      "note_on channel=1 note=59 velocity=80 time=25\n",
      "note_on channel=1 note=57 velocity=0 time=2\n",
      "note_on channel=1 note=59 velocity=0 time=32\n",
      "note_on channel=1 note=62 velocity=85 time=26\n",
      "note_on channel=1 note=62 velocity=0 time=35\n",
      "note_on channel=1 note=55 velocity=82 time=25\n",
      "note_on channel=1 note=55 velocity=0 time=28\n",
      "note_on channel=1 note=59 velocity=82 time=32\n",
      "note_on channel=1 note=59 velocity=0 time=35\n",
      "note_on channel=1 note=52 velocity=87 time=25\n",
      "note_on channel=1 note=52 velocity=0 time=26\n",
      "note_on channel=1 note=55 velocity=100 time=4\n",
      "note_on channel=1 note=57 velocity=93 time=30\n",
      "note_on channel=1 note=55 velocity=0 time=6\n",
      "note_on channel=1 note=59 velocity=93 time=24\n",
      "note_on channel=1 note=57 velocity=0 time=2\n",
      "note_on channel=1 note=60 velocity=78 time=28\n",
      "note_on channel=1 note=59 velocity=0 time=4\n",
      "note_on channel=1 note=60 velocity=0 time=29\n",
      "note_on channel=1 note=64 velocity=85 time=27\n",
      "note_on channel=1 note=64 velocity=0 time=32\n",
      "note_on channel=1 note=57 velocity=82 time=28\n",
      "note_on channel=1 note=57 velocity=0 time=32\n",
      "note_on channel=1 note=60 velocity=85 time=28\n",
      "note_on channel=1 note=60 velocity=0 time=29\n",
      "note_on channel=1 note=54 velocity=78 time=31\n",
      "note_on channel=1 note=54 velocity=0 time=30\n",
      "note_on channel=1 note=57 velocity=60 time=0\n",
      "note_on channel=1 note=59 velocity=100 time=30\n",
      "note_on channel=1 note=57 velocity=0 time=2\n",
      "note_on channel=1 note=60 velocity=105 time=28\n",
      "note_on channel=1 note=59 velocity=0 time=6\n",
      "note_on channel=1 note=62 velocity=102 time=24\n",
      "note_on channel=1 note=60 velocity=0 time=13\n",
      "note_on channel=1 note=62 velocity=0 time=17\n",
      "note_on channel=1 note=67 velocity=87 time=30\n",
      "note_on channel=1 note=62 velocity=89 time=30\n",
      "note_on channel=1 note=67 velocity=0 time=5\n",
      "note_on channel=1 note=59 velocity=105 time=25\n",
      "note_on channel=1 note=62 velocity=0 time=6\n",
      "note_on channel=1 note=59 velocity=0 time=39\n",
      "note_on channel=1 note=62 velocity=100 time=15\n",
      "note_on channel=1 note=59 velocity=100 time=30\n",
      "note_on channel=1 note=62 velocity=0 time=6\n",
      "note_on channel=1 note=55 velocity=93 time=24\n",
      "note_on channel=1 note=59 velocity=0 time=1\n",
      "note_on channel=1 note=59 velocity=82 time=29\n",
      "note_on channel=1 note=55 velocity=0 time=1\n",
      "note_on channel=1 note=60 velocity=98 time=29\n",
      "note_on channel=1 note=59 velocity=0 time=3\n",
      "note_on channel=1 note=62 velocity=102 time=27\n",
      "note_on channel=1 note=60 velocity=0 time=8\n",
      "note_on channel=1 note=64 velocity=102 time=22\n",
      "note_on channel=1 note=62 velocity=0 time=10\n",
      "note_on channel=1 note=62 velocity=105 time=20\n",
      "note_on channel=1 note=64 velocity=0 time=5\n",
      "note_on channel=1 note=64 velocity=100 time=25\n",
      "note_on channel=1 note=62 velocity=0 time=7\n",
      "note_on channel=1 note=65 velocity=102 time=23\n",
      "note_on channel=1 note=64 velocity=0 time=8\n",
      "note_on channel=1 note=64 velocity=95 time=22\n",
      "note_on channel=1 note=65 velocity=0 time=7\n",
      "note_on channel=1 note=62 velocity=102 time=23\n",
      "note_on channel=1 note=64 velocity=0 time=12\n",
      "note_on channel=1 note=60 velocity=98 time=18\n",
      "note_on channel=1 note=62 velocity=0 time=8\n",
      "note_on channel=1 note=59 velocity=89 time=22\n",
      "note_on channel=1 note=60 velocity=0 time=2\n",
      "note_on channel=1 note=57 velocity=82 time=28\n",
      "note_on channel=1 note=59 velocity=0 time=4\n",
      "note_on channel=1 note=55 velocity=76 time=26\n",
      "note_on channel=1 note=57 velocity=0 time=6\n",
      "note_on channel=1 note=54 velocity=72 time=24\n",
      "note_on channel=1 note=55 velocity=0 time=8\n",
      "note_on channel=1 note=52 velocity=78 time=22\n",
      "note_on channel=1 note=54 velocity=0 time=4\n",
      "note_on channel=1 note=54 velocity=105 time=26\n",
      "note_on channel=1 note=52 velocity=0 time=8\n",
      "note_on channel=1 note=55 velocity=85 time=22\n",
      "note_on channel=1 note=54 velocity=0 time=5\n",
      "note_on channel=1 note=54 velocity=89 time=25\n",
      "note_on channel=1 note=55 velocity=0 time=4\n",
      "note_on channel=1 note=50 velocity=85 time=26\n",
      "note_on channel=1 note=54 velocity=0 time=5\n",
      "note_on channel=1 note=50 velocity=0 time=25\n",
      "note_on channel=1 note=57 velocity=80 time=0\n",
      "note_on channel=1 note=59 velocity=82 time=30\n",
      "note_on channel=1 note=57 velocity=0 time=3\n",
      "note_on channel=1 note=57 velocity=80 time=27\n",
      "note_on channel=1 note=59 velocity=0 time=9\n",
      "note_on channel=1 note=57 velocity=0 time=18\n",
      "note_on channel=1 note=50 velocity=87 time=3\n",
      "note_on channel=1 note=60 velocity=87 time=30\n",
      "note_on channel=1 note=50 velocity=0 time=2\n",
      "note_on channel=1 note=62 velocity=68 time=28\n",
      "note_on channel=1 note=60 velocity=0 time=4\n",
      "note_on channel=1 note=60 velocity=87 time=26\n",
      "note_on channel=1 note=62 velocity=0 time=5\n",
      "note_on channel=1 note=57 velocity=87 time=25\n",
      "note_on channel=1 note=60 velocity=0 time=4\n",
      "note_on channel=1 note=58 velocity=102 time=28\n",
      "note_on channel=1 note=57 velocity=0 time=5\n",
      "note_on channel=1 note=58 velocity=0 time=31\n",
      "note_on channel=1 note=55 velocity=89 time=25\n",
      "note_on channel=1 note=55 velocity=0 time=40\n",
      "note_on channel=1 note=62 velocity=82 time=15\n",
      "note_on channel=1 note=62 velocity=0 time=47\n",
      "note_on channel=1 note=58 velocity=85 time=9\n",
      "note_on channel=1 note=58 velocity=0 time=56\n",
      "<meta message end_of_track time=0>\n",
      "Track 4: Pedal\n",
      "<meta message midi_port port=0 time=0>\n",
      "<meta message track_name name='Pedal' time=0>\n",
      "program_change channel=3 program=6 time=0\n",
      "control_change channel=3 control=7 value=110 time=0\n",
      "control_change channel=3 control=10 value=70 time=0\n",
      "control_change channel=3 control=91 value=65 time=358\n",
      "note_on channel=3 note=48 velocity=110 time=2\n",
      "note_on channel=3 note=48 velocity=0 time=119\n",
      "note_on channel=3 note=60 velocity=98 time=301\n",
      "note_on channel=3 note=60 velocity=0 time=45\n",
      "note_on channel=3 note=48 velocity=95 time=15\n",
      "note_on channel=3 note=48 velocity=0 time=33\n",
      "note_on channel=3 note=60 velocity=98 time=27\n",
      "note_on channel=3 note=60 velocity=0 time=31\n",
      "note_on channel=3 note=48 velocity=87 time=29\n",
      "note_on channel=3 note=48 velocity=0 time=29\n",
      "note_on channel=3 note=60 velocity=89 time=31\n",
      "note_on channel=3 note=60 velocity=0 time=31\n",
      "note_on channel=3 note=48 velocity=102 time=29\n",
      "note_on channel=3 note=48 velocity=0 time=119\n",
      "note_on channel=3 note=48 velocity=87 time=301\n",
      "note_on channel=3 note=48 velocity=0 time=34\n",
      "note_on channel=3 note=36 velocity=98 time=26\n",
      "note_on channel=3 note=36 velocity=0 time=35\n",
      "note_on channel=3 note=48 velocity=91 time=25\n",
      "note_on channel=3 note=48 velocity=0 time=35\n",
      "note_on channel=3 note=36 velocity=93 time=25\n",
      "note_on channel=3 note=36 velocity=0 time=34\n",
      "note_on channel=3 note=48 velocity=87 time=26\n",
      "note_on channel=3 note=48 velocity=0 time=33\n",
      "note_on channel=3 note=36 velocity=91 time=27\n",
      "note_on channel=3 note=36 velocity=0 time=119\n",
      "note_on channel=3 note=48 velocity=95 time=1\n",
      "note_on channel=3 note=48 velocity=0 time=82\n",
      "note_on channel=3 note=36 velocity=98 time=98\n",
      "note_on channel=3 note=36 velocity=0 time=60\n",
      "note_on channel=3 note=38 velocity=95 time=0\n",
      "note_on channel=3 note=38 velocity=0 time=119\n",
      "note_on channel=3 note=50 velocity=89 time=1\n",
      "note_on channel=3 note=50 velocity=0 time=91\n",
      "note_on channel=3 note=38 velocity=93 time=89\n",
      "note_on channel=3 note=38 velocity=0 time=53\n",
      "note_on channel=3 note=40 velocity=87 time=7\n",
      "note_on channel=3 note=40 velocity=0 time=119\n",
      "note_on channel=3 note=52 velocity=87 time=1\n",
      "note_on channel=3 note=52 velocity=0 time=81\n",
      "note_on channel=3 note=40 velocity=91 time=99\n",
      "note_on channel=3 note=40 velocity=0 time=45\n",
      "note_on channel=3 note=41 velocity=85 time=15\n",
      "note_on channel=3 note=41 velocity=0 time=119\n",
      "note_on channel=3 note=53 velocity=91 time=1\n",
      "note_on channel=3 note=53 velocity=0 time=91\n",
      "note_on channel=3 note=50 velocity=91 time=89\n",
      "note_on channel=3 note=50 velocity=0 time=46\n",
      "note_on channel=3 note=55 velocity=80 time=14\n",
      "note_on channel=3 note=55 velocity=0 time=119\n",
      "note_on channel=3 note=43 velocity=95 time=1\n",
      "note_on channel=3 note=50 velocity=91 time=1020\n",
      "note_on channel=3 note=43 velocity=0 time=4\n",
      "note_on channel=3 note=50 velocity=0 time=56\n",
      "note_on channel=3 note=52 velocity=89 time=0\n",
      "note_on channel=3 note=54 velocity=102 time=60\n",
      "note_on channel=3 note=52 velocity=0 time=4\n",
      "note_on channel=3 note=55 velocity=87 time=56\n",
      "note_on channel=3 note=54 velocity=0 time=3\n",
      "note_on channel=3 note=47 velocity=98 time=57\n",
      "note_on channel=3 note=55 velocity=0 time=2\n",
      "note_on channel=3 note=48 velocity=85 time=58\n",
      "note_on channel=3 note=47 velocity=0 time=2\n",
      "note_on channel=3 note=52 velocity=82 time=58\n",
      "note_on channel=3 note=48 velocity=0 time=2\n",
      "note_on channel=3 note=54 velocity=100 time=58\n",
      "note_on channel=3 note=52 velocity=0 time=5\n",
      "note_on channel=3 note=55 velocity=78 time=55\n",
      "note_on channel=3 note=54 velocity=0 time=9\n",
      "note_on channel=3 note=57 velocity=85 time=51\n",
      "note_on channel=3 note=55 velocity=0 time=2\n",
      "note_on channel=3 note=48 velocity=89 time=58\n",
      "note_on channel=3 note=57 velocity=0 time=2\n",
      "note_on channel=3 note=50 velocity=85 time=58\n",
      "note_on channel=3 note=48 velocity=0 time=2\n",
      "note_on channel=3 note=54 velocity=85 time=58\n",
      "note_on channel=3 note=50 velocity=0 time=2\n",
      "note_on channel=3 note=55 velocity=80 time=58\n",
      "note_on channel=3 note=54 velocity=0 time=3\n",
      "note_on channel=3 note=57 velocity=76 time=57\n",
      "note_on channel=3 note=55 velocity=0 time=4\n",
      "note_on channel=3 note=59 velocity=85 time=56\n",
      "note_on channel=3 note=57 velocity=0 time=8\n",
      "note_on channel=3 note=50 velocity=93 time=52\n",
      "note_on channel=3 note=59 velocity=0 time=8\n",
      "note_on channel=3 note=52 velocity=87 time=52\n",
      "note_on channel=3 note=50 velocity=0 time=10\n",
      "note_on channel=3 note=55 velocity=85 time=50\n",
      "note_on channel=3 note=52 velocity=0 time=4\n",
      "note_on channel=3 note=57 velocity=80 time=56\n",
      "note_on channel=3 note=55 velocity=0 time=5\n",
      "note_on channel=3 note=57 velocity=0 time=53\n",
      "note_on channel=3 note=59 velocity=85 time=2\n",
      "note_on channel=3 note=60 velocity=85 time=60\n",
      "note_on channel=3 note=59 velocity=0 time=8\n",
      "note_on channel=3 note=52 velocity=87 time=52\n",
      "note_on channel=3 note=60 velocity=0 time=6\n",
      "note_on channel=3 note=54 velocity=80 time=54\n",
      "note_on channel=3 note=52 velocity=0 time=3\n",
      "note_on channel=3 note=50 velocity=82 time=57\n",
      "note_on channel=3 note=54 velocity=0 time=5\n",
      "note_on channel=3 note=55 velocity=85 time=55\n",
      "note_on channel=3 note=50 velocity=0 time=3\n",
      "note_on channel=3 note=48 velocity=82 time=57\n",
      "note_on channel=3 note=55 velocity=0 time=3\n",
      "note_on channel=3 note=50 velocity=64 time=57\n",
      "note_on channel=3 note=48 velocity=0 time=1\n",
      "note_on channel=3 note=38 velocity=82 time=59\n",
      "note_on channel=3 note=50 velocity=0 time=2\n",
      "note_on channel=3 note=43 velocity=91 time=59\n",
      "note_on channel=3 note=38 velocity=0 time=6\n",
      "note_on channel=3 note=43 velocity=0 time=113\n",
      "note_on channel=3 note=55 velocity=80 time=300\n",
      "note_on channel=3 note=55 velocity=0 time=32\n",
      "note_on channel=3 note=43 velocity=87 time=28\n",
      "note_on channel=3 note=43 velocity=0 time=33\n",
      "note_on channel=3 note=55 velocity=85 time=28\n",
      "note_on channel=3 note=55 velocity=0 time=33\n",
      "note_on channel=3 note=43 velocity=89 time=26\n",
      "note_on channel=3 note=43 velocity=0 time=30\n",
      "note_on channel=3 note=55 velocity=85 time=27\n",
      "note_on channel=3 note=55 velocity=0 time=36\n",
      "note_on channel=3 note=43 velocity=89 time=28\n",
      "note_on channel=3 note=43 velocity=0 time=112\n",
      "note_on channel=3 note=55 velocity=87 time=307\n",
      "note_on channel=3 note=55 velocity=0 time=40\n",
      "note_on channel=3 note=43 velocity=89 time=20\n",
      "note_on channel=3 note=43 velocity=0 time=30\n",
      "note_on channel=3 note=55 velocity=85 time=30\n",
      "note_on channel=3 note=55 velocity=0 time=37\n",
      "note_on channel=3 note=43 velocity=89 time=23\n",
      "note_on channel=3 note=43 velocity=0 time=33\n",
      "note_on channel=3 note=55 velocity=80 time=27\n",
      "note_on channel=3 note=55 velocity=0 time=34\n",
      "note_on channel=3 note=43 velocity=85 time=26\n",
      "note_on channel=3 note=55 velocity=89 time=120\n",
      "note_on channel=3 note=43 velocity=0 time=3\n",
      "note_on channel=3 note=55 velocity=0 time=90\n",
      "note_on channel=3 note=43 velocity=91 time=87\n",
      "note_on channel=3 note=45 velocity=87 time=60\n",
      "note_on channel=3 note=43 velocity=0 time=1\n",
      "note_on channel=3 note=57 velocity=85 time=119\n",
      "note_on channel=3 note=45 velocity=0 time=1\n",
      "note_on channel=3 note=57 velocity=0 time=96\n",
      "note_on channel=3 note=45 velocity=89 time=83\n",
      "note_on channel=3 note=45 velocity=0 time=60\n",
      "note_on channel=3 note=47 velocity=89 time=0\n",
      "note_on channel=3 note=59 velocity=82 time=120\n",
      "note_on channel=3 note=47 velocity=0 time=10\n",
      "note_on channel=3 note=59 velocity=0 time=78\n",
      "note_on channel=3 note=47 velocity=93 time=92\n",
      "note_on channel=3 note=48 velocity=85 time=60\n",
      "note_on channel=3 note=47 velocity=0 time=3\n",
      "note_on channel=3 note=60 velocity=76 time=117\n",
      "note_on channel=3 note=48 velocity=0 time=2\n",
      "note_on channel=3 note=60 velocity=0 time=70\n",
      "note_on channel=3 note=57 velocity=85 time=108\n",
      "note_on channel=3 note=62 velocity=95 time=60\n",
      "note_on channel=3 note=57 velocity=0 time=1\n",
      "note_on channel=3 note=50 velocity=87 time=119\n",
      "note_on channel=3 note=62 velocity=0 time=4\n",
      "note_on channel=3 note=54 velocity=95 time=1016\n",
      "note_on channel=3 note=50 velocity=0 time=11\n",
      "note_on channel=3 note=55 velocity=85 time=49\n",
      "note_on channel=3 note=54 velocity=0 time=1\n",
      "note_on channel=3 note=55 velocity=0 time=57\n",
      "note_on channel=3 note=57 velocity=68 time=2\n",
      "note_on channel=3 note=59 velocity=87 time=60\n",
      "note_on channel=3 note=57 velocity=0 time=11\n",
      "note_on channel=3 note=50 velocity=100 time=49\n",
      "note_on channel=3 note=59 velocity=0 time=3\n",
      "note_on channel=3 note=52 velocity=91 time=57\n",
      "note_on channel=3 note=50 velocity=0 time=10\n",
      "note_on channel=3 note=55 velocity=91 time=50\n",
      "note_on channel=3 note=52 velocity=0 time=8\n",
      "note_on channel=3 note=57 velocity=80 time=52\n",
      "note_on channel=3 note=55 velocity=0 time=5\n",
      "note_on channel=3 note=57 velocity=0 time=54\n",
      "note_on channel=3 note=59 velocity=74 time=1\n",
      "note_on channel=3 note=60 velocity=82 time=60\n",
      "note_on channel=3 note=59 velocity=0 time=8\n",
      "note_on channel=3 note=54 velocity=85 time=52\n",
      "note_on channel=3 note=60 velocity=0 time=5\n",
      "note_on channel=3 note=54 velocity=0 time=55\n",
      "note_on channel=3 note=55 velocity=66 time=0\n",
      "note_on channel=3 note=47 velocity=91 time=60\n",
      "note_on channel=3 note=55 velocity=0 time=7\n",
      "note_on channel=3 note=48 velocity=93 time=53\n",
      "note_on channel=3 note=47 velocity=0 time=7\n",
      "note_on channel=3 note=50 velocity=87 time=53\n",
      "note_on channel=3 note=48 velocity=0 time=10\n",
      "note_on channel=3 note=50 velocity=0 time=50\n",
      "note_on channel=3 note=52 velocity=82 time=0\n",
      "note_on channel=3 note=43 velocity=93 time=60\n",
      "note_on channel=3 note=52 velocity=0 time=5\n",
      "note_on channel=3 note=45 velocity=85 time=55\n",
      "note_on channel=3 note=43 velocity=0 time=8\n",
      "note_on channel=3 note=48 velocity=87 time=52\n",
      "note_on channel=3 note=45 velocity=0 time=5\n",
      "note_on channel=3 note=48 velocity=0 time=54\n",
      "note_on channel=3 note=50 velocity=74 time=1\n",
      "note_on channel=3 note=52 velocity=85 time=60\n",
      "note_on channel=3 note=50 velocity=0 time=7\n",
      "note_on channel=3 note=52 velocity=0 time=52\n",
      "note_on channel=3 note=53 velocity=72 time=1\n",
      "note_on channel=3 note=47 velocity=76 time=60\n",
      "note_on channel=3 note=53 velocity=0 time=14\n",
      "note_on channel=3 note=48 velocity=91 time=46\n",
      "note_on channel=3 note=47 velocity=0 time=8\n",
      "note_on channel=3 note=48 velocity=0 time=21\n",
      "note_on channel=3 note=48 velocity=93 time=31\n",
      "note_on channel=3 note=48 velocity=0 time=40\n",
      "note_on channel=3 note=36 velocity=95 time=20\n",
      "note_on channel=3 note=36 velocity=0 time=43\n",
      "note_on channel=3 note=48 velocity=85 time=17\n",
      "note_on channel=3 note=48 velocity=0 time=42\n",
      "note_on channel=3 note=36 velocity=82 time=18\n",
      "note_on channel=3 note=36 velocity=0 time=46\n",
      "note_on channel=3 note=48 velocity=85 time=14\n",
      "note_on channel=3 note=48 velocity=0 time=39\n",
      "note_on channel=3 note=38 velocity=91 time=21\n",
      "note_on channel=3 note=38 velocity=0 time=39\n",
      "note_on channel=3 note=50 velocity=82 time=21\n",
      "note_on channel=3 note=50 velocity=0 time=46\n",
      "note_on channel=3 note=38 velocity=89 time=14\n",
      "note_on channel=3 note=38 velocity=0 time=31\n",
      "note_on channel=3 note=50 velocity=85 time=29\n",
      "note_on channel=3 note=50 velocity=0 time=38\n",
      "note_on channel=3 note=38 velocity=89 time=22\n",
      "note_on channel=3 note=38 velocity=0 time=39\n",
      "note_on channel=3 note=50 velocity=85 time=21\n",
      "note_on channel=3 note=50 velocity=0 time=47\n",
      "note_on channel=3 note=40 velocity=89 time=13\n",
      "note_on channel=3 note=40 velocity=0 time=38\n",
      "note_on channel=3 note=52 velocity=82 time=22\n",
      "note_on channel=3 note=52 velocity=0 time=41\n",
      "note_on channel=3 note=40 velocity=87 time=19\n",
      "note_on channel=3 note=40 velocity=0 time=40\n",
      "note_on channel=3 note=52 velocity=78 time=20\n",
      "note_on channel=3 note=52 velocity=0 time=39\n",
      "note_on channel=3 note=40 velocity=85 time=21\n",
      "note_on channel=3 note=40 velocity=0 time=44\n",
      "note_on channel=3 note=52 velocity=85 time=16\n",
      "note_on channel=3 note=52 velocity=0 time=38\n",
      "note_on channel=3 note=41 velocity=85 time=22\n",
      "note_on channel=3 note=41 velocity=0 time=1459\n",
      "note_on channel=3 note=53 velocity=95 time=41\n",
      "note_on channel=3 note=53 velocity=0 time=47\n",
      "note_on channel=3 note=50 velocity=98 time=13\n",
      "note_on channel=3 note=50 velocity=0 time=38\n",
      "note_on channel=3 note=53 velocity=89 time=22\n",
      "note_on channel=3 note=53 velocity=0 time=49\n",
      "note_on channel=3 note=47 velocity=87 time=11\n",
      "note_on channel=3 note=47 velocity=0 time=49\n",
      "note_on channel=3 note=50 velocity=85 time=11\n",
      "note_on channel=3 note=50 velocity=0 time=58\n",
      "note_on channel=3 note=40 velocity=89 time=2\n",
      "note_on channel=3 note=40 velocity=0 time=45\n",
      "note_on channel=3 note=52 velocity=91 time=15\n",
      "note_on channel=3 note=52 velocity=0 time=55\n",
      "note_on channel=3 note=48 velocity=95 time=5\n",
      "note_on channel=3 note=48 velocity=0 time=50\n",
      "note_on channel=3 note=52 velocity=89 time=10\n",
      "note_on channel=3 note=52 velocity=0 time=53\n",
      "note_on channel=3 note=45 velocity=85 time=7\n",
      "note_on channel=3 note=45 velocity=0 time=48\n",
      "note_on channel=3 note=48 velocity=89 time=12\n",
      "note_on channel=3 note=48 velocity=0 time=34\n",
      "note_on channel=3 note=38 velocity=100 time=26\n",
      "note_on channel=3 note=38 velocity=0 time=47\n",
      "note_on channel=3 note=50 velocity=98 time=13\n",
      "note_on channel=3 note=50 velocity=0 time=54\n",
      "note_on channel=3 note=47 velocity=91 time=6\n",
      "note_on channel=3 note=47 velocity=0 time=50\n",
      "note_on channel=3 note=50 velocity=98 time=10\n",
      "note_on channel=3 note=50 velocity=0 time=50\n",
      "note_on channel=3 note=43 velocity=89 time=10\n",
      "note_on channel=3 note=43 velocity=0 time=54\n",
      "note_on channel=3 note=47 velocity=87 time=6\n",
      "note_on channel=3 note=47 velocity=0 time=42\n",
      "note_on channel=3 note=36 velocity=100 time=18\n",
      "note_on channel=3 note=36 velocity=0 time=1458\n",
      "note_on channel=3 note=43 velocity=100 time=42\n",
      "note_on channel=3 note=45 velocity=82 time=60\n",
      "note_on channel=3 note=43 velocity=0 time=1\n",
      "note_on channel=3 note=47 velocity=102 time=59\n",
      "note_on channel=3 note=45 velocity=0 time=7\n",
      "note_on channel=3 note=48 velocity=82 time=53\n",
      "note_on channel=3 note=47 velocity=0 time=2\n",
      "note_on channel=3 note=40 velocity=91 time=58\n",
      "note_on channel=3 note=48 velocity=0 time=3\n",
      "note_on channel=3 note=41 velocity=95 time=57\n",
      "note_on channel=3 note=40 velocity=0 time=11\n",
      "note_on channel=3 note=45 velocity=91 time=49\n",
      "note_on channel=3 note=41 velocity=0 time=6\n",
      "note_on channel=3 note=45 velocity=0 time=54\n",
      "note_on channel=3 note=47 velocity=82 time=0\n",
      "note_on channel=3 note=48 velocity=98 time=60\n",
      "note_on channel=3 note=47 velocity=0 time=9\n",
      "note_on channel=3 note=50 velocity=89 time=51\n",
      "note_on channel=3 note=48 velocity=0 time=3\n",
      "note_on channel=3 note=41 velocity=100 time=57\n",
      "note_on channel=3 note=50 velocity=0 time=2\n",
      "note_on channel=3 note=43 velocity=95 time=58\n",
      "note_on channel=3 note=41 velocity=0 time=8\n",
      "note_on channel=3 note=47 velocity=93 time=52\n",
      "note_on channel=3 note=43 velocity=0 time=5\n",
      "note_on channel=3 note=48 velocity=82 time=55\n",
      "note_on channel=3 note=47 velocity=0 time=3\n",
      "note_on channel=3 note=50 velocity=98 time=57\n",
      "note_on channel=3 note=48 velocity=0 time=9\n",
      "note_on channel=3 note=52 velocity=80 time=51\n",
      "note_on channel=3 note=50 velocity=0 time=4\n",
      "note_on channel=3 note=43 velocity=89 time=56\n",
      "note_on channel=3 note=52 velocity=0 time=7\n",
      "note_on channel=3 note=45 velocity=87 time=53\n",
      "note_on channel=3 note=43 velocity=0 time=5\n",
      "note_on channel=3 note=48 velocity=95 time=55\n",
      "note_on channel=3 note=45 velocity=0 time=9\n",
      "note_on channel=3 note=50 velocity=85 time=51\n",
      "note_on channel=3 note=48 velocity=0 time=3\n",
      "note_on channel=3 note=50 velocity=0 time=56\n",
      "note_on channel=3 note=52 velocity=80 time=1\n",
      "note_on channel=3 note=53 velocity=89 time=60\n",
      "note_on channel=3 note=52 velocity=0 time=9\n",
      "note_on channel=3 note=45 velocity=93 time=51\n",
      "note_on channel=3 note=53 velocity=0 time=4\n",
      "note_on channel=3 note=47 velocity=91 time=56\n",
      "note_on channel=3 note=45 velocity=0 time=8\n",
      "note_on channel=3 note=43 velocity=85 time=52\n",
      "note_on channel=3 note=47 velocity=0 time=5\n",
      "note_on channel=3 note=48 velocity=93 time=55\n",
      "note_on channel=3 note=43 velocity=0 time=5\n",
      "note_on channel=3 note=53 velocity=82 time=55\n",
      "note_on channel=3 note=48 velocity=0 time=2\n",
      "note_on channel=3 note=55 velocity=78 time=58\n",
      "note_on channel=3 note=53 velocity=0 time=2\n",
      "note_on channel=3 note=43 velocity=89 time=58\n",
      "note_on channel=3 note=55 velocity=0 time=5\n",
      "note_on channel=3 note=48 velocity=98 time=55\n",
      "note_on channel=3 note=43 velocity=0 time=1\n",
      "note_on channel=3 note=48 velocity=0 time=58\n",
      "note_on channel=3 note=52 velocity=85 time=61\n",
      "note_on channel=3 note=52 velocity=0 time=66\n",
      "note_on channel=3 note=53 velocity=93 time=54\n",
      "note_on channel=3 note=53 velocity=0 time=69\n",
      "note_on channel=3 note=47 velocity=87 time=51\n",
      "note_on channel=3 note=47 velocity=0 time=62\n",
      "note_on channel=3 note=43 velocity=85 time=58\n",
      "note_on channel=3 note=43 velocity=0 time=54\n",
      "note_on channel=3 note=47 velocity=87 time=66\n",
      "note_on channel=3 note=47 velocity=0 time=65\n",
      "note_on channel=3 note=48 velocity=87 time=55\n",
      "note_on channel=3 note=48 velocity=0 time=58\n",
      "note_on channel=3 note=47 velocity=89 time=62\n",
      "note_on channel=3 note=47 velocity=0 time=63\n",
      "note_on channel=3 note=48 velocity=89 time=57\n",
      "note_on channel=3 note=48 velocity=0 time=71\n",
      "note_on channel=3 note=42 velocity=85 time=49\n",
      "note_on channel=3 note=42 velocity=0 time=69\n",
      "note_on channel=3 note=38 velocity=87 time=51\n",
      "note_on channel=3 note=38 velocity=0 time=67\n",
      "note_on channel=3 note=50 velocity=85 time=53\n",
      "note_on channel=3 note=50 velocity=0 time=68\n",
      "note_on channel=3 note=43 velocity=98 time=52\n",
      "note_on channel=3 note=43 velocity=0 time=35\n",
      "note_on channel=3 note=55 velocity=100 time=25\n",
      "note_on channel=3 note=55 velocity=0 time=119\n",
      "note_on channel=3 note=53 velocity=98 time=1\n",
      "note_on channel=3 note=52 velocity=85 time=60\n",
      "note_on channel=3 note=53 velocity=0 time=9\n",
      "note_on channel=3 note=50 velocity=89 time=51\n",
      "note_on channel=3 note=52 velocity=0 time=10\n",
      "note_on channel=3 note=48 velocity=95 time=50\n",
      "note_on channel=3 note=50 velocity=0 time=5\n",
      "note_on channel=3 note=48 velocity=0 time=25\n",
      "note_on channel=3 note=60 velocity=102 time=30\n",
      "note_on channel=3 note=58 velocity=87 time=120\n",
      "note_on channel=3 note=60 velocity=0 time=4\n",
      "note_on channel=3 note=57 velocity=76 time=56\n",
      "note_on channel=3 note=58 velocity=0 time=7\n",
      "note_on channel=3 note=55 velocity=78 time=53\n",
      "note_on channel=3 note=57 velocity=0 time=3\n",
      "note_on channel=3 note=55 velocity=0 time=54\n",
      "note_on channel=3 note=53 velocity=87 time=3\n",
      "note_on channel=3 note=53 velocity=0 time=29\n",
      "note_on channel=3 note=57 velocity=91 time=31\n",
      "note_on channel=3 note=55 velocity=89 time=120\n",
      "note_on channel=3 note=57 velocity=0 time=1\n",
      "note_on channel=3 note=53 velocity=87 time=59\n",
      "note_on channel=3 note=55 velocity=0 time=8\n",
      "note_on channel=3 note=52 velocity=82 time=52\n",
      "note_on channel=3 note=53 velocity=0 time=1\n",
      "note_on channel=3 note=50 velocity=93 time=59\n",
      "note_on channel=3 note=52 velocity=0 time=2\n",
      "note_on channel=3 note=50 velocity=0 time=22\n",
      "note_on channel=3 note=62 velocity=105 time=36\n",
      "note_on channel=3 note=60 velocity=91 time=120\n",
      "note_on channel=3 note=62 velocity=0 time=1\n",
      "note_on channel=3 note=59 velocity=93 time=59\n",
      "note_on channel=3 note=60 velocity=0 time=4\n",
      "note_on channel=3 note=57 velocity=68 time=56\n",
      "note_on channel=3 note=59 velocity=0 time=3\n",
      "note_on channel=3 note=56 velocity=91 time=57\n",
      "note_on channel=3 note=57 velocity=0 time=5\n",
      "note_on channel=3 note=56 velocity=0 time=59\n",
      "note_on channel=3 note=57 velocity=89 time=56\n",
      "note_on channel=3 note=57 velocity=0 time=59\n",
      "note_on channel=3 note=53 velocity=91 time=61\n",
      "note_on channel=3 note=53 velocity=0 time=55\n",
      "note_on channel=3 note=52 velocity=85 time=65\n",
      "note_on channel=3 note=52 velocity=0 time=44\n",
      "note_on channel=3 note=53 velocity=91 time=76\n",
      "note_on channel=3 note=53 velocity=0 time=63\n",
      "note_on channel=3 note=54 velocity=89 time=57\n",
      "note_on channel=3 note=54 velocity=0 time=64\n",
      "note_on channel=3 note=55 velocity=89 time=56\n",
      "note_on channel=3 note=55 velocity=0 time=63\n",
      "note_on channel=3 note=56 velocity=87 time=57\n",
      "note_on channel=3 note=56 velocity=0 time=61\n",
      "note_on channel=3 note=52 velocity=91 time=59\n",
      "note_on channel=3 note=52 velocity=0 time=61\n",
      "note_on channel=3 note=57 velocity=85 time=59\n",
      "note_on channel=3 note=57 velocity=0 time=61\n",
      "note_on channel=3 note=45 velocity=89 time=59\n",
      "note_on channel=3 note=45 velocity=0 time=58\n",
      "note_on channel=3 note=48 velocity=89 time=62\n",
      "note_on channel=3 note=48 velocity=0 time=71\n",
      "note_on channel=3 note=52 velocity=85 time=49\n",
      "note_on channel=3 note=52 velocity=0 time=61\n",
      "note_on channel=3 note=48 velocity=85 time=59\n",
      "note_on channel=3 note=48 velocity=0 time=59\n",
      "note_on channel=3 note=52 velocity=82 time=61\n",
      "note_on channel=3 note=52 velocity=0 time=62\n",
      "note_on channel=3 note=53 velocity=98 time=58\n",
      "note_on channel=3 note=53 velocity=0 time=60\n",
      "note_on channel=3 note=46 velocity=100 time=60\n",
      "note_on channel=3 note=46 velocity=0 time=69\n",
      "note_on channel=3 note=47 velocity=89 time=51\n",
      "note_on channel=3 note=47 velocity=0 time=67\n",
      "note_on channel=3 note=48 velocity=95 time=53\n",
      "note_on channel=3 note=48 velocity=0 time=66\n",
      "note_on channel=3 note=49 velocity=95 time=54\n",
      "note_on channel=3 note=49 velocity=0 time=69\n",
      "note_on channel=3 note=45 velocity=93 time=51\n",
      "note_on channel=3 note=45 velocity=0 time=76\n",
      "note_on channel=3 note=50 velocity=87 time=44\n",
      "note_on channel=3 note=50 velocity=0 time=58\n",
      "note_on channel=3 note=38 velocity=98 time=62\n",
      "note_on channel=3 note=38 velocity=0 time=65\n",
      "note_on channel=3 note=50 velocity=82 time=55\n",
      "note_on channel=3 note=50 velocity=0 time=229\n",
      "note_on channel=3 note=49 velocity=105 time=11\n",
      "note_on channel=3 note=45 velocity=95 time=60\n",
      "note_on channel=3 note=49 velocity=0 time=2\n",
      "note_on channel=3 note=47 velocity=98 time=58\n",
      "note_on channel=3 note=45 velocity=0 time=9\n",
      "note_on channel=3 note=49 velocity=85 time=51\n",
      "note_on channel=3 note=47 velocity=0 time=6\n",
      "note_on channel=3 note=50 velocity=89 time=54\n",
      "note_on channel=3 note=49 velocity=0 time=7\n",
      "note_on channel=3 note=50 velocity=0 time=119\n",
      "note_on channel=3 note=52 velocity=89 time=54\n",
      "note_on channel=3 note=53 velocity=78 time=60\n",
      "note_on channel=3 note=52 velocity=0 time=2\n",
      "note_on channel=3 note=50 velocity=87 time=58\n",
      "note_on channel=3 note=53 velocity=0 time=1\n",
      "note_on channel=3 note=50 velocity=0 time=59\n",
      "note_on channel=3 note=58 velocity=93 time=0\n",
      "note_on channel=3 note=58 velocity=0 time=50\n",
      "note_on channel=3 note=46 velocity=82 time=70\n",
      "note_on channel=3 note=46 velocity=0 time=63\n",
      "note_on channel=3 note=50 velocity=95 time=57\n",
      "note_on channel=3 note=50 velocity=0 time=56\n",
      "note_on channel=3 note=52 velocity=95 time=64\n",
      "note_on channel=3 note=52 velocity=0 time=116\n",
      "note_on channel=3 note=50 velocity=93 time=64\n",
      "note_on channel=3 note=52 velocity=80 time=60\n",
      "note_on channel=3 note=50 velocity=0 time=6\n",
      "note_on channel=3 note=52 velocity=0 time=52\n",
      "note_on channel=3 note=48 velocity=85 time=2\n",
      "note_on channel=3 note=48 velocity=0 time=58\n",
      "note_on channel=3 note=57 velocity=78 time=2\n",
      "note_on channel=3 note=57 velocity=0 time=48\n",
      "note_on channel=3 note=58 velocity=85 time=72\n",
      "note_on channel=3 note=58 velocity=0 time=58\n",
      "note_on channel=3 note=52 velocity=89 time=62\n",
      "note_on channel=3 note=52 velocity=0 time=59\n",
      "note_on channel=3 note=53 velocity=87 time=61\n",
      "note_on channel=3 note=53 velocity=0 time=83\n",
      "note_on channel=3 note=41 velocity=89 time=37\n",
      "note_on channel=3 note=41 velocity=0 time=113\n",
      "note_on channel=3 note=53 velocity=89 time=187\n",
      "note_on channel=3 note=53 velocity=0 time=28\n",
      "note_on channel=3 note=41 velocity=95 time=32\n",
      "note_on channel=3 note=41 velocity=0 time=30\n",
      "note_on channel=3 note=53 velocity=87 time=30\n",
      "note_on channel=3 note=53 velocity=0 time=30\n",
      "note_on channel=3 note=41 velocity=91 time=30\n",
      "note_on channel=3 note=41 velocity=0 time=33\n",
      "note_on channel=3 note=53 velocity=82 time=27\n",
      "note_on channel=3 note=53 velocity=0 time=31\n",
      "note_on channel=3 note=41 velocity=100 time=29\n",
      "note_on channel=3 note=41 velocity=0 time=126\n",
      "note_on channel=3 note=53 velocity=89 time=294\n",
      "note_on channel=3 note=53 velocity=0 time=31\n",
      "note_on channel=3 note=41 velocity=93 time=29\n",
      "note_on channel=3 note=41 velocity=0 time=31\n",
      "note_on channel=3 note=53 velocity=93 time=29\n",
      "note_on channel=3 note=53 velocity=0 time=31\n",
      "note_on channel=3 note=41 velocity=89 time=29\n",
      "note_on channel=3 note=41 velocity=0 time=33\n",
      "note_on channel=3 note=53 velocity=82 time=27\n",
      "note_on channel=3 note=53 velocity=0 time=30\n",
      "note_on channel=3 note=41 velocity=91 time=30\n",
      "note_on channel=3 note=41 velocity=0 time=60\n",
      "note_on channel=3 note=40 velocity=85 time=60\n",
      "note_on channel=3 note=40 velocity=0 time=57\n",
      "note_on channel=3 note=38 velocity=93 time=63\n",
      "note_on channel=3 note=38 velocity=0 time=65\n",
      "note_on channel=3 note=36 velocity=98 time=55\n",
      "note_on channel=3 note=36 velocity=0 time=67\n",
      "note_on channel=3 note=47 velocity=72 time=53\n",
      "note_on channel=3 note=47 velocity=0 time=54\n",
      "note_on channel=3 note=45 velocity=91 time=66\n",
      "note_on channel=3 note=45 velocity=0 time=56\n",
      "note_on channel=3 note=43 velocity=95 time=64\n",
      "note_on channel=3 note=43 velocity=0 time=56\n",
      "note_on channel=3 note=41 velocity=89 time=64\n",
      "note_on channel=3 note=41 velocity=0 time=57\n",
      "note_on channel=3 note=40 velocity=87 time=63\n",
      "note_on channel=3 note=40 velocity=0 time=60\n",
      "note_on channel=3 note=38 velocity=100 time=60\n",
      "note_on channel=3 note=38 velocity=0 time=56\n",
      "note_on channel=3 note=48 velocity=87 time=64\n",
      "note_on channel=3 note=48 velocity=0 time=62\n",
      "note_on channel=3 note=47 velocity=100 time=58\n",
      "note_on channel=3 note=47 velocity=0 time=61\n",
      "note_on channel=3 note=45 velocity=85 time=59\n",
      "note_on channel=3 note=45 velocity=0 time=140\n",
      "note_on channel=3 note=57 velocity=87 time=280\n",
      "note_on channel=3 note=57 velocity=0 time=29\n",
      "note_on channel=3 note=45 velocity=98 time=31\n",
      "note_on channel=3 note=45 velocity=0 time=24\n",
      "note_on channel=3 note=57 velocity=82 time=36\n",
      "note_on channel=3 note=57 velocity=0 time=28\n",
      "note_on channel=3 note=45 velocity=98 time=32\n",
      "note_on channel=3 note=45 velocity=0 time=29\n",
      "note_on channel=3 note=57 velocity=89 time=31\n",
      "note_on channel=3 note=57 velocity=0 time=32\n",
      "note_on channel=3 note=45 velocity=93 time=28\n",
      "note_on channel=3 note=45 velocity=0 time=126\n",
      "note_on channel=3 note=57 velocity=85 time=294\n",
      "note_on channel=3 note=57 velocity=0 time=37\n",
      "note_on channel=3 note=45 velocity=95 time=23\n",
      "note_on channel=3 note=45 velocity=0 time=35\n",
      "note_on channel=3 note=57 velocity=87 time=25\n",
      "note_on channel=3 note=57 velocity=0 time=34\n",
      "note_on channel=3 note=45 velocity=98 time=26\n",
      "note_on channel=3 note=45 velocity=0 time=36\n",
      "note_on channel=3 note=57 velocity=82 time=24\n",
      "note_on channel=3 note=57 velocity=0 time=33\n",
      "note_on channel=3 note=45 velocity=93 time=27\n",
      "note_on channel=3 note=45 velocity=0 time=56\n",
      "note_on channel=3 note=48 velocity=98 time=64\n",
      "note_on channel=3 note=48 velocity=0 time=51\n",
      "note_on channel=3 note=50 velocity=95 time=69\n",
      "note_on channel=3 note=50 velocity=0 time=46\n",
      "note_on channel=3 note=44 velocity=91 time=74\n",
      "note_on channel=3 note=44 velocity=0 time=51\n",
      "note_on channel=3 note=40 velocity=91 time=69\n",
      "note_on channel=3 note=40 velocity=0 time=45\n",
      "note_on channel=3 note=43 velocity=102 time=75\n",
      "note_on channel=3 note=41 velocity=91 time=240\n",
      "note_on channel=3 note=43 velocity=0 time=2\n",
      "note_on channel=3 note=41 velocity=0 time=40\n",
      "note_on channel=3 note=43 velocity=95 time=78\n",
      "note_on channel=3 note=43 velocity=0 time=53\n",
      "note_on channel=3 note=45 velocity=95 time=67\n",
      "note_on channel=3 note=45 velocity=0 time=31\n",
      "note_on channel=3 note=57 velocity=91 time=29\n",
      "note_on channel=3 note=57 velocity=0 time=26\n",
      "note_on channel=3 note=45 velocity=89 time=34\n",
      "note_on channel=3 note=45 velocity=0 time=30\n",
      "note_on channel=3 note=57 velocity=82 time=30\n",
      "note_on channel=3 note=57 velocity=0 time=29\n",
      "note_on channel=3 note=45 velocity=93 time=31\n",
      "note_on channel=3 note=45 velocity=0 time=30\n",
      "note_on channel=3 note=57 velocity=82 time=30\n",
      "note_on channel=3 note=57 velocity=0 time=22\n",
      "note_on channel=3 note=38 velocity=98 time=38\n",
      "note_on channel=3 note=38 velocity=0 time=27\n",
      "note_on channel=3 note=50 velocity=91 time=33\n",
      "note_on channel=3 note=50 velocity=0 time=96\n",
      "note_on channel=3 note=48 velocity=95 time=24\n",
      "note_on channel=3 note=48 velocity=0 time=60\n",
      "note_on channel=3 note=47 velocity=89 time=0\n",
      "note_on channel=3 note=45 velocity=87 time=60\n",
      "note_on channel=3 note=47 velocity=0 time=4\n",
      "note_on channel=3 note=43 velocity=95 time=56\n",
      "note_on channel=3 note=45 velocity=0 time=6\n",
      "note_on channel=3 note=43 velocity=0 time=21\n",
      "note_on channel=3 note=55 velocity=89 time=33\n",
      "note_on channel=3 note=55 velocity=0 time=102\n",
      "note_on channel=3 note=53 velocity=89 time=18\n",
      "note_on channel=3 note=52 velocity=85 time=60\n",
      "note_on channel=3 note=53 velocity=0 time=7\n",
      "note_on channel=3 note=52 velocity=0 time=53\n",
      "note_on channel=3 note=50 velocity=87 time=0\n",
      "note_on channel=3 note=48 velocity=98 time=60\n",
      "note_on channel=3 note=50 velocity=0 time=4\n",
      "note_on channel=3 note=48 velocity=0 time=30\n",
      "note_on channel=3 note=52 velocity=82 time=26\n",
      "note_on channel=3 note=50 velocity=91 time=120\n",
      "note_on channel=3 note=52 velocity=0 time=3\n",
      "note_on channel=3 note=48 velocity=95 time=57\n",
      "note_on channel=3 note=50 velocity=0 time=5\n",
      "note_on channel=3 note=47 velocity=85 time=55\n",
      "note_on channel=3 note=48 velocity=0 time=6\n",
      "note_on channel=3 note=47 velocity=0 time=52\n",
      "note_on channel=3 note=45 velocity=91 time=2\n",
      "note_on channel=3 note=45 velocity=0 time=34\n",
      "note_on channel=3 note=57 velocity=98 time=26\n",
      "note_on channel=3 note=55 velocity=93 time=120\n",
      "note_on channel=3 note=57 velocity=0 time=1\n",
      "note_on channel=3 note=54 velocity=82 time=59\n",
      "note_on channel=3 note=55 velocity=0 time=1\n",
      "note_on channel=3 note=52 velocity=85 time=59\n",
      "note_on channel=3 note=54 velocity=0 time=4\n",
      "note_on channel=3 note=52 velocity=0 time=54\n",
      "note_on channel=3 note=51 velocity=82 time=2\n",
      "note_on channel=3 note=51 velocity=0 time=62\n",
      "note_on channel=3 note=52 velocity=95 time=58\n",
      "note_on channel=3 note=52 velocity=0 time=59\n",
      "note_on channel=3 note=48 velocity=89 time=61\n",
      "note_on channel=3 note=48 velocity=0 time=58\n",
      "note_on channel=3 note=47 velocity=87 time=62\n",
      "note_on channel=3 note=47 velocity=0 time=55\n",
      "note_on channel=3 note=48 velocity=95 time=65\n",
      "note_on channel=3 note=48 velocity=0 time=62\n",
      "note_on channel=3 note=49 velocity=100 time=58\n",
      "note_on channel=3 note=49 velocity=0 time=54\n",
      "note_on channel=3 note=50 velocity=102 time=66\n",
      "note_on channel=3 note=50 velocity=0 time=51\n",
      "note_on channel=3 note=51 velocity=93 time=69\n",
      "note_on channel=3 note=51 velocity=0 time=48\n",
      "note_on channel=3 note=47 velocity=95 time=72\n",
      "note_on channel=3 note=47 velocity=0 time=59\n",
      "note_on channel=3 note=52 velocity=85 time=61\n",
      "note_on channel=3 note=52 velocity=0 time=55\n",
      "note_on channel=3 note=40 velocity=85 time=65\n",
      "note_on channel=3 note=40 velocity=0 time=52\n",
      "note_on channel=3 note=43 velocity=89 time=68\n",
      "note_on channel=3 note=43 velocity=0 time=51\n",
      "note_on channel=3 note=47 velocity=95 time=69\n",
      "note_on channel=3 note=47 velocity=0 time=57\n",
      "note_on channel=3 note=43 velocity=89 time=63\n",
      "note_on channel=3 note=43 velocity=0 time=56\n",
      "note_on channel=3 note=47 velocity=89 time=64\n",
      "note_on channel=3 note=47 velocity=0 time=62\n",
      "note_on channel=3 note=48 velocity=89 time=58\n",
      "note_on channel=3 note=48 velocity=0 time=53\n",
      "note_on channel=3 note=53 velocity=95 time=67\n",
      "note_on channel=3 note=53 velocity=0 time=58\n",
      "note_on channel=3 note=54 velocity=89 time=62\n",
      "note_on channel=3 note=54 velocity=0 time=61\n",
      "note_on channel=3 note=55 velocity=91 time=59\n",
      "note_on channel=3 note=55 velocity=0 time=61\n",
      "note_on channel=3 note=56 velocity=89 time=59\n",
      "note_on channel=3 note=56 velocity=0 time=53\n",
      "note_on channel=3 note=52 velocity=98 time=67\n",
      "note_on channel=3 note=52 velocity=0 time=50\n",
      "note_on channel=3 note=57 velocity=85 time=70\n",
      "note_on channel=3 note=57 velocity=0 time=68\n",
      "note_on channel=3 note=45 velocity=95 time=52\n",
      "note_on channel=3 note=45 velocity=0 time=54\n",
      "note_on channel=3 note=57 velocity=93 time=66\n",
      "note_on channel=3 note=57 velocity=0 time=187\n",
      "note_on channel=3 note=56 velocity=89 time=53\n",
      "note_on channel=3 note=52 velocity=98 time=60\n",
      "note_on channel=3 note=56 velocity=0 time=3\n",
      "note_on channel=3 note=54 velocity=85 time=57\n",
      "note_on channel=3 note=52 velocity=0 time=2\n",
      "note_on channel=3 note=56 velocity=89 time=58\n",
      "note_on channel=3 note=54 velocity=0 time=6\n",
      "note_on channel=3 note=57 velocity=87 time=54\n",
      "note_on channel=3 note=56 velocity=0 time=6\n",
      "note_on channel=3 note=57 velocity=0 time=114\n",
      "note_on channel=3 note=47 velocity=91 time=60\n",
      "note_on channel=3 note=48 velocity=100 time=60\n",
      "note_on channel=3 note=47 velocity=0 time=4\n",
      "note_on channel=3 note=45 velocity=87 time=56\n",
      "note_on channel=3 note=48 velocity=0 time=2\n",
      "note_on channel=3 note=53 velocity=89 time=58\n",
      "note_on channel=3 note=45 velocity=0 time=1\n",
      "note_on channel=3 note=53 velocity=0 time=53\n",
      "note_on channel=3 note=41 velocity=91 time=66\n",
      "note_on channel=3 note=41 velocity=0 time=59\n",
      "note_on channel=3 note=45 velocity=93 time=61\n",
      "note_on channel=3 note=45 velocity=0 time=59\n",
      "note_on channel=3 note=47 velocity=93 time=61\n",
      "note_on channel=3 note=47 velocity=0 time=125\n",
      "note_on channel=3 note=45 velocity=98 time=55\n",
      "note_on channel=3 note=47 velocity=87 time=60\n",
      "note_on channel=3 note=45 velocity=0 time=2\n",
      "note_on channel=3 note=43 velocity=82 time=58\n",
      "note_on channel=3 note=47 velocity=0 time=1\n",
      "note_on channel=3 note=52 velocity=87 time=59\n",
      "note_on channel=3 note=43 velocity=0 time=1\n",
      "note_on channel=3 note=52 velocity=0 time=70\n",
      "note_on channel=3 note=53 velocity=95 time=49\n",
      "note_on channel=3 note=53 velocity=0 time=64\n",
      "note_on channel=3 note=47 velocity=85 time=56\n",
      "note_on channel=3 note=47 velocity=0 time=61\n",
      "note_on channel=3 note=48 velocity=95 time=59\n",
      "note_on channel=3 note=48 velocity=0 time=127\n",
      "note_on channel=3 note=60 velocity=85 time=293\n",
      "note_on channel=3 note=60 velocity=0 time=25\n",
      "note_on channel=3 note=48 velocity=100 time=35\n",
      "note_on channel=3 note=48 velocity=0 time=26\n",
      "note_on channel=3 note=60 velocity=80 time=34\n",
      "note_on channel=3 note=60 velocity=0 time=25\n",
      "note_on channel=3 note=48 velocity=89 time=35\n",
      "note_on channel=3 note=48 velocity=0 time=26\n",
      "note_on channel=3 note=60 velocity=85 time=34\n",
      "note_on channel=3 note=60 velocity=0 time=26\n",
      "note_on channel=3 note=48 velocity=82 time=34\n",
      "note_on channel=3 note=48 velocity=0 time=125\n",
      "note_on channel=3 note=48 velocity=91 time=295\n",
      "note_on channel=3 note=48 velocity=0 time=31\n",
      "note_on channel=3 note=36 velocity=95 time=29\n",
      "note_on channel=3 note=36 velocity=0 time=38\n",
      "note_on channel=3 note=48 velocity=85 time=22\n",
      "note_on channel=3 note=48 velocity=0 time=30\n",
      "note_on channel=3 note=36 velocity=91 time=30\n",
      "note_on channel=3 note=36 velocity=0 time=36\n",
      "note_on channel=3 note=48 velocity=82 time=24\n",
      "note_on channel=3 note=48 velocity=0 time=28\n",
      "note_on channel=3 note=36 velocity=93 time=32\n",
      "note_on channel=3 note=48 velocity=91 time=120\n",
      "note_on channel=3 note=36 velocity=0 time=15\n",
      "note_on channel=3 note=48 velocity=0 time=89\n",
      "note_on channel=3 note=36 velocity=93 time=76\n",
      "note_on channel=3 note=36 velocity=0 time=60\n",
      "note_on channel=3 note=38 velocity=85 time=0\n",
      "note_on channel=3 note=50 velocity=100 time=120\n",
      "note_on channel=3 note=38 velocity=0 time=1\n",
      "note_on channel=3 note=50 velocity=0 time=92\n",
      "note_on channel=3 note=38 velocity=100 time=87\n",
      "note_on channel=3 note=38 velocity=0 time=57\n",
      "note_on channel=3 note=40 velocity=89 time=3\n",
      "note_on channel=3 note=52 velocity=85 time=120\n",
      "note_on channel=3 note=40 velocity=0 time=2\n",
      "note_on channel=3 note=52 velocity=0 time=102\n",
      "note_on channel=3 note=40 velocity=89 time=76\n",
      "note_on channel=3 note=40 velocity=0 time=60\n",
      "note_on channel=3 note=41 velocity=89 time=0\n",
      "note_on channel=3 note=53 velocity=98 time=120\n",
      "note_on channel=3 note=41 velocity=0 time=4\n",
      "note_on channel=3 note=53 velocity=0 time=98\n",
      "note_on channel=3 note=50 velocity=100 time=78\n",
      "note_on channel=3 note=55 velocity=89 time=60\n",
      "note_on channel=3 note=50 velocity=0 time=1\n",
      "note_on channel=3 note=43 velocity=95 time=119\n",
      "note_on channel=3 note=55 velocity=0 time=4\n",
      "note_on channel=3 note=43 velocity=0 time=976\n",
      "note_on channel=3 note=50 velocity=100 time=40\n",
      "note_on channel=3 note=52 velocity=85 time=60\n",
      "note_on channel=3 note=50 velocity=0 time=1\n",
      "note_on channel=3 note=54 velocity=95 time=59\n",
      "note_on channel=3 note=52 velocity=0 time=8\n",
      "note_on channel=3 note=54 velocity=0 time=51\n",
      "note_on channel=3 note=55 velocity=85 time=1\n",
      "note_on channel=3 note=47 velocity=91 time=60\n",
      "note_on channel=3 note=55 velocity=0 time=2\n",
      "note_on channel=3 note=48 velocity=89 time=58\n",
      "note_on channel=3 note=47 velocity=0 time=2\n",
      "note_on channel=3 note=52 velocity=89 time=58\n",
      "note_on channel=3 note=48 velocity=0 time=6\n",
      "note_on channel=3 note=54 velocity=91 time=54\n",
      "note_on channel=3 note=52 velocity=0 time=9\n",
      "note_on channel=3 note=54 velocity=0 time=50\n",
      "note_on channel=3 note=55 velocity=89 time=1\n",
      "note_on channel=3 note=57 velocity=85 time=60\n",
      "note_on channel=3 note=55 velocity=0 time=3\n",
      "note_on channel=3 note=48 velocity=98 time=57\n",
      "note_on channel=3 note=57 velocity=0 time=10\n",
      "note_on channel=3 note=50 velocity=89 time=50\n",
      "note_on channel=3 note=48 velocity=0 time=7\n",
      "note_on channel=3 note=54 velocity=91 time=53\n",
      "note_on channel=3 note=50 velocity=0 time=6\n",
      "note_on channel=3 note=55 velocity=87 time=54\n",
      "note_on channel=3 note=54 velocity=0 time=1\n",
      "note_on channel=3 note=57 velocity=70 time=59\n",
      "note_on channel=3 note=55 velocity=0 time=2\n",
      "note_on channel=3 note=59 velocity=87 time=58\n",
      "note_on channel=3 note=57 velocity=0 time=6\n",
      "note_on channel=3 note=50 velocity=95 time=54\n",
      "note_on channel=3 note=59 velocity=0 time=7\n",
      "note_on channel=3 note=52 velocity=89 time=53\n",
      "note_on channel=3 note=50 velocity=0 time=7\n",
      "note_on channel=3 note=55 velocity=89 time=53\n",
      "note_on channel=3 note=52 velocity=0 time=7\n",
      "note_on channel=3 note=57 velocity=85 time=53\n",
      "note_on channel=3 note=55 velocity=0 time=8\n",
      "note_on channel=3 note=57 velocity=0 time=52\n",
      "note_on channel=3 note=59 velocity=72 time=0\n",
      "note_on channel=3 note=60 velocity=91 time=60\n",
      "note_on channel=3 note=59 velocity=0 time=2\n",
      "note_on channel=3 note=52 velocity=95 time=58\n",
      "note_on channel=3 note=60 velocity=0 time=4\n",
      "note_on channel=3 note=52 velocity=0 time=56\n",
      "note_on channel=3 note=54 velocity=91 time=0\n",
      "note_on channel=3 note=50 velocity=85 time=60\n",
      "note_on channel=3 note=54 velocity=0 time=2\n",
      "note_on channel=3 note=55 velocity=85 time=58\n",
      "note_on channel=3 note=50 velocity=0 time=1\n",
      "note_on channel=3 note=48 velocity=89 time=59\n",
      "note_on channel=3 note=55 velocity=0 time=4\n",
      "note_on channel=3 note=50 velocity=72 time=56\n",
      "note_on channel=3 note=48 velocity=0 time=4\n",
      "note_on channel=3 note=50 velocity=0 time=52\n",
      "note_on channel=3 note=38 velocity=87 time=4\n",
      "note_on channel=3 note=43 velocity=91 time=60\n",
      "note_on channel=3 note=38 velocity=0 time=9\n",
      "note_on channel=3 note=43 velocity=0 time=108\n",
      "note_on channel=3 note=55 velocity=100 time=303\n",
      "note_on channel=3 note=55 velocity=0 time=26\n",
      "note_on channel=3 note=43 velocity=98 time=34\n",
      "note_on channel=3 note=43 velocity=0 time=28\n",
      "note_on channel=3 note=55 velocity=89 time=32\n",
      "note_on channel=3 note=55 velocity=0 time=28\n",
      "note_on channel=3 note=43 velocity=95 time=32\n",
      "note_on channel=3 note=43 velocity=0 time=31\n",
      "note_on channel=3 note=55 velocity=85 time=29\n",
      "note_on channel=3 note=55 velocity=0 time=31\n",
      "note_on channel=3 note=43 velocity=93 time=29\n",
      "note_on channel=3 note=43 velocity=0 time=118\n",
      "note_on channel=3 note=55 velocity=85 time=302\n",
      "note_on channel=3 note=55 velocity=0 time=34\n",
      "note_on channel=3 note=43 velocity=95 time=26\n",
      "note_on channel=3 note=43 velocity=0 time=37\n",
      "note_on channel=3 note=55 velocity=89 time=23\n",
      "note_on channel=3 note=55 velocity=0 time=33\n",
      "note_on channel=3 note=43 velocity=100 time=27\n",
      "note_on channel=3 note=43 velocity=0 time=29\n",
      "note_on channel=3 note=55 velocity=87 time=31\n",
      "note_on channel=3 note=55 velocity=0 time=32\n",
      "note_on channel=3 note=43 velocity=89 time=28\n",
      "note_on channel=3 note=43 velocity=0 time=117\n",
      "note_on channel=3 note=55 velocity=91 time=3\n",
      "note_on channel=3 note=55 velocity=0 time=111\n",
      "note_on channel=3 note=43 velocity=98 time=69\n",
      "note_on channel=3 note=45 velocity=87 time=60\n",
      "note_on channel=3 note=43 velocity=0 time=5\n",
      "note_on channel=3 note=57 velocity=87 time=115\n",
      "note_on channel=3 note=45 velocity=0 time=2\n",
      "note_on channel=3 note=57 velocity=0 time=105\n",
      "note_on channel=3 note=45 velocity=93 time=73\n",
      "note_on channel=3 note=45 velocity=0 time=60\n",
      "note_on channel=3 note=47 velocity=87 time=0\n",
      "note_on channel=3 note=47 velocity=0 time=118\n",
      "note_on channel=3 note=59 velocity=74 time=2\n",
      "note_on channel=3 note=59 velocity=0 time=106\n",
      "note_on channel=3 note=47 velocity=91 time=74\n",
      "note_on channel=3 note=48 velocity=95 time=60\n",
      "note_on channel=3 note=47 velocity=0 time=2\n",
      "note_on channel=3 note=60 velocity=82 time=118\n",
      "note_on channel=3 note=48 velocity=0 time=3\n",
      "note_on channel=3 note=60 velocity=0 time=103\n",
      "note_on channel=3 note=57 velocity=85 time=74\n",
      "note_on channel=3 note=62 velocity=82 time=60\n",
      "note_on channel=3 note=57 velocity=0 time=8\n",
      "note_on channel=3 note=62 velocity=0 time=103\n",
      "note_on channel=3 note=50 velocity=95 time=9\n",
      "note_on channel=3 note=50 velocity=0 time=1018\n",
      "note_on channel=3 note=54 velocity=110 time=2\n",
      "note_on channel=3 note=55 velocity=89 time=60\n",
      "note_on channel=3 note=54 velocity=0 time=2\n",
      "note_on channel=3 note=57 velocity=80 time=58\n",
      "note_on channel=3 note=55 velocity=0 time=1\n",
      "note_on channel=3 note=57 velocity=0 time=58\n",
      "note_on channel=3 note=59 velocity=85 time=1\n",
      "note_on channel=3 note=50 velocity=91 time=60\n",
      "note_on channel=3 note=59 velocity=0 time=6\n",
      "note_on channel=3 note=52 velocity=91 time=54\n",
      "note_on channel=3 note=50 velocity=0 time=7\n",
      "note_on channel=3 note=55 velocity=89 time=53\n",
      "note_on channel=3 note=52 velocity=0 time=8\n",
      "note_on channel=3 note=57 velocity=85 time=52\n",
      "note_on channel=3 note=55 velocity=0 time=2\n",
      "note_on channel=3 note=59 velocity=82 time=58\n",
      "note_on channel=3 note=57 velocity=0 time=2\n",
      "note_on channel=3 note=60 velocity=85 time=58\n",
      "note_on channel=3 note=59 velocity=0 time=2\n",
      "note_on channel=3 note=54 velocity=80 time=58\n",
      "note_on channel=3 note=60 velocity=0 time=2\n",
      "note_on channel=3 note=55 velocity=82 time=58\n",
      "note_on channel=3 note=54 velocity=0 time=3\n",
      "note_on channel=3 note=47 velocity=93 time=57\n",
      "note_on channel=3 note=55 velocity=0 time=4\n",
      "note_on channel=3 note=48 velocity=89 time=56\n",
      "note_on channel=3 note=47 velocity=0 time=7\n",
      "note_on channel=3 note=50 velocity=89 time=53\n",
      "note_on channel=3 note=48 velocity=0 time=12\n",
      "note_on channel=3 note=50 velocity=0 time=48\n",
      "note_on channel=3 note=52 velocity=82 time=0\n",
      "note_on channel=3 note=43 velocity=93 time=60\n",
      "note_on channel=3 note=52 velocity=0 time=5\n",
      "note_on channel=3 note=45 velocity=82 time=55\n",
      "note_on channel=3 note=43 velocity=0 time=9\n",
      "note_on channel=3 note=48 velocity=98 time=51\n",
      "note_on channel=3 note=45 velocity=0 time=4\n",
      "note_on channel=3 note=50 velocity=95 time=56\n",
      "note_on channel=3 note=48 velocity=0 time=3\n",
      "note_on channel=3 note=52 velocity=82 time=57\n",
      "note_on channel=3 note=50 velocity=0 time=4\n",
      "note_on channel=3 note=52 velocity=0 time=56\n",
      "note_on channel=3 note=53 velocity=91 time=0\n",
      "note_on channel=3 note=47 velocity=91 time=60\n",
      "note_on channel=3 note=53 velocity=0 time=2\n",
      "note_on channel=3 note=47 velocity=0 time=57\n",
      "note_on channel=3 note=48 velocity=85 time=1\n",
      "note_on channel=3 note=48 velocity=0 time=26\n",
      "note_on channel=3 note=48 velocity=89 time=34\n",
      "note_on channel=3 note=48 velocity=0 time=26\n",
      "note_on channel=3 note=36 velocity=100 time=34\n",
      "note_on channel=3 note=36 velocity=0 time=33\n",
      "note_on channel=3 note=48 velocity=82 time=27\n",
      "note_on channel=3 note=48 velocity=0 time=32\n",
      "note_on channel=3 note=36 velocity=93 time=28\n",
      "note_on channel=3 note=36 velocity=0 time=38\n",
      "note_on channel=3 note=48 velocity=89 time=22\n",
      "note_on channel=3 note=48 velocity=0 time=34\n",
      "note_on channel=3 note=38 velocity=93 time=26\n",
      "note_on channel=3 note=38 velocity=0 time=40\n",
      "note_on channel=3 note=50 velocity=87 time=20\n",
      "note_on channel=3 note=50 velocity=0 time=34\n",
      "note_on channel=3 note=38 velocity=87 time=26\n",
      "note_on channel=3 note=38 velocity=0 time=42\n",
      "note_on channel=3 note=50 velocity=70 time=18\n",
      "note_on channel=3 note=50 velocity=0 time=36\n",
      "note_on channel=3 note=38 velocity=98 time=24\n",
      "note_on channel=3 note=38 velocity=0 time=50\n",
      "note_on channel=3 note=50 velocity=91 time=10\n",
      "note_on channel=3 note=50 velocity=0 time=30\n",
      "note_on channel=3 note=40 velocity=98 time=30\n",
      "note_on channel=3 note=40 velocity=0 time=44\n",
      "note_on channel=3 note=52 velocity=87 time=16\n",
      "note_on channel=3 note=52 velocity=0 time=36\n",
      "note_on channel=3 note=40 velocity=91 time=24\n",
      "note_on channel=3 note=40 velocity=0 time=44\n",
      "note_on channel=3 note=52 velocity=82 time=16\n",
      "note_on channel=3 note=52 velocity=0 time=37\n",
      "note_on channel=3 note=40 velocity=91 time=23\n",
      "note_on channel=3 note=40 velocity=0 time=39\n",
      "note_on channel=3 note=52 velocity=85 time=21\n",
      "note_on channel=3 note=52 velocity=0 time=33\n",
      "note_on channel=3 note=41 velocity=102 time=27\n",
      "note_on channel=3 note=41 velocity=0 time=1455\n",
      "note_on channel=3 note=53 velocity=93 time=45\n",
      "note_on channel=3 note=53 velocity=0 time=31\n",
      "note_on channel=3 note=50 velocity=95 time=29\n",
      "note_on channel=3 note=50 velocity=0 time=30\n",
      "note_on channel=3 note=53 velocity=89 time=30\n",
      "note_on channel=3 note=53 velocity=0 time=33\n",
      "note_on channel=3 note=47 velocity=89 time=27\n",
      "note_on channel=3 note=47 velocity=0 time=39\n",
      "note_on channel=3 note=50 velocity=89 time=21\n",
      "note_on channel=3 note=50 velocity=0 time=34\n",
      "note_on channel=3 note=40 velocity=91 time=26\n",
      "note_on channel=3 note=40 velocity=0 time=43\n",
      "note_on channel=3 note=52 velocity=93 time=17\n",
      "note_on channel=3 note=52 velocity=0 time=45\n",
      "note_on channel=3 note=48 velocity=91 time=15\n",
      "note_on channel=3 note=48 velocity=0 time=41\n",
      "note_on channel=3 note=52 velocity=82 time=19\n",
      "note_on channel=3 note=52 velocity=0 time=41\n",
      "note_on channel=3 note=45 velocity=87 time=19\n",
      "note_on channel=3 note=45 velocity=0 time=38\n",
      "note_on channel=3 note=48 velocity=82 time=22\n",
      "note_on channel=3 note=48 velocity=0 time=41\n",
      "note_on channel=3 note=38 velocity=95 time=19\n",
      "note_on channel=3 note=38 velocity=0 time=42\n",
      "note_on channel=3 note=50 velocity=89 time=18\n",
      "note_on channel=3 note=50 velocity=0 time=42\n",
      "note_on channel=3 note=47 velocity=95 time=18\n",
      "note_on channel=3 note=47 velocity=0 time=48\n",
      "note_on channel=3 note=50 velocity=89 time=12\n",
      "note_on channel=3 note=50 velocity=0 time=42\n",
      "note_on channel=3 note=43 velocity=87 time=18\n",
      "note_on channel=3 note=43 velocity=0 time=46\n",
      "note_on channel=3 note=47 velocity=85 time=14\n",
      "note_on channel=3 note=47 velocity=0 time=36\n",
      "note_on channel=3 note=36 velocity=100 time=24\n",
      "note_on channel=3 note=36 velocity=0 time=1462\n",
      "note_on channel=3 note=43 velocity=100 time=38\n",
      "note_on channel=3 note=43 velocity=0 time=60\n",
      "note_on channel=3 note=45 velocity=82 time=0\n",
      "note_on channel=3 note=47 velocity=91 time=60\n",
      "note_on channel=3 note=45 velocity=0 time=2\n",
      "note_on channel=3 note=47 velocity=0 time=58\n",
      "note_on channel=3 note=48 velocity=85 time=0\n",
      "note_on channel=3 note=40 velocity=89 time=60\n",
      "note_on channel=3 note=48 velocity=0 time=6\n",
      "note_on channel=3 note=41 velocity=89 time=54\n",
      "note_on channel=3 note=40 velocity=0 time=5\n",
      "note_on channel=3 note=45 velocity=87 time=55\n",
      "note_on channel=3 note=41 velocity=0 time=12\n",
      "note_on channel=3 note=45 velocity=0 time=47\n",
      "note_on channel=3 note=47 velocity=78 time=1\n",
      "note_on channel=3 note=48 velocity=91 time=60\n",
      "note_on channel=3 note=47 velocity=0 time=6\n",
      "note_on channel=3 note=48 velocity=0 time=54\n",
      "note_on channel=3 note=50 velocity=87 time=0\n",
      "note_on channel=3 note=41 velocity=93 time=60\n",
      "note_on channel=3 note=50 velocity=0 time=7\n",
      "note_on channel=3 note=43 velocity=91 time=53\n",
      "note_on channel=3 note=41 velocity=0 time=10\n",
      "note_on channel=3 note=47 velocity=87 time=50\n",
      "note_on channel=3 note=43 velocity=0 time=8\n",
      "note_on channel=3 note=48 velocity=82 time=52\n",
      "note_on channel=3 note=47 velocity=0 time=1\n",
      "note_on channel=3 note=50 velocity=87 time=59\n",
      "note_on channel=3 note=48 velocity=0 time=4\n",
      "note_on channel=3 note=50 velocity=0 time=55\n",
      "note_on channel=3 note=52 velocity=82 time=1\n",
      "note_on channel=3 note=43 velocity=93 time=60\n",
      "note_on channel=3 note=52 velocity=0 time=6\n",
      "note_on channel=3 note=45 velocity=87 time=54\n",
      "note_on channel=3 note=43 velocity=0 time=7\n",
      "note_on channel=3 note=48 velocity=93 time=53\n",
      "note_on channel=3 note=45 velocity=0 time=6\n",
      "note_on channel=3 note=50 velocity=85 time=54\n",
      "note_on channel=3 note=48 velocity=0 time=6\n",
      "note_on channel=3 note=52 velocity=70 time=54\n",
      "note_on channel=3 note=50 velocity=0 time=2\n",
      "note_on channel=3 note=52 velocity=0 time=58\n",
      "note_on channel=3 note=53 velocity=87 time=0\n",
      "note_on channel=3 note=45 velocity=89 time=60\n",
      "note_on channel=3 note=53 velocity=0 time=1\n",
      "note_on channel=3 note=47 velocity=89 time=59\n",
      "note_on channel=3 note=45 velocity=0 time=8\n",
      "note_on channel=3 note=43 velocity=74 time=52\n",
      "note_on channel=3 note=47 velocity=0 time=6\n",
      "note_on channel=3 note=48 velocity=87 time=54\n",
      "note_on channel=3 note=43 velocity=0 time=9\n",
      "note_on channel=3 note=48 velocity=0 time=49\n",
      "note_on channel=3 note=53 velocity=80 time=2\n",
      "note_on channel=3 note=53 velocity=0 time=60\n",
      "note_on channel=3 note=55 velocity=85 time=0\n",
      "note_on channel=3 note=55 velocity=0 time=59\n",
      "note_on channel=3 note=43 velocity=100 time=1\n",
      "note_on channel=3 note=43 velocity=0 time=59\n",
      "note_on channel=3 note=48 velocity=98 time=1\n",
      "note_on channel=3 note=48 velocity=0 time=59\n",
      "note_on channel=3 note=36 velocity=98 time=1\n",
      "note_on channel=3 note=36 velocity=0 time=59\n",
      "<meta message end_of_track time=0>\n",
      "Track 5: Trio Sonata #5- | J.S. Bach\n",
      "<meta message midi_port port=0 time=0>\n",
      "<meta message track_name name='Trio Sonata #5- | J.S. Bach' time=0>\n",
      "<meta message end_of_track time=0>\n",
      "Track 6: Mvt. #1\n",
      "<meta message midi_port port=0 time=0>\n",
      "<meta message track_name name='Mvt. #1' time=0>\n",
      "<meta message end_of_track time=0>\n",
      "Track 7: Sequenced by | Lloyd Thompkins\n",
      "<meta message midi_port port=0 time=0>\n",
      "<meta message track_name name='Sequenced by | Lloyd Thompkins' time=0>\n",
      "<meta message end_of_track time=0>\n",
      "Track 8: Please View | Comments\n",
      "<meta message midi_port port=0 time=0>\n",
      "<meta message track_name name='Please View | Comments' time=0>\n",
      "<meta message end_of_track time=0>\n"
     ]
    }
   ],
   "source": [
    "for i, track in enumerate(mid.tracks):\n",
    "    print('Track {}: {}'.format(i, track.name))\n",
    "    for msg in track:\n",
    "        print(msg)"
   ]
  },
  {
   "cell_type": "code",
   "execution_count": 6,
   "metadata": {},
   "outputs": [],
   "source": [
    "# port = mido.open_output()\n",
    "port = mido.open_input('New Port', virtual=True)"
   ]
  },
  {
   "cell_type": "code",
   "execution_count": 12,
   "metadata": {},
   "outputs": [
    {
     "data": {
      "text/plain": [
       "<open output 'IAC Driver Bus 1' (RtMidi/MACOSX_CORE)>"
      ]
     },
     "execution_count": 12,
     "metadata": {},
     "output_type": "execute_result"
    }
   ],
   "source": [
    "mido.open_output()"
   ]
  },
  {
   "cell_type": "code",
   "execution_count": 14,
   "metadata": {},
   "outputs": [
    {
     "data": {
      "text/plain": [
       "<open output 'IAC Driver Bus 1' (RtMidi/MACOSX_CORE)>"
      ]
     },
     "execution_count": 14,
     "metadata": {},
     "output_type": "execute_result"
    }
   ],
   "source": [
    "port"
   ]
  },
  {
   "cell_type": "code",
   "execution_count": 31,
   "metadata": {},
   "outputs": [
    {
     "ename": "KeyboardInterrupt",
     "evalue": "",
     "output_type": "error",
     "traceback": [
      "\u001b[0;31m---------------------------------------------------------------------------\u001b[0m",
      "\u001b[0;31mKeyboardInterrupt\u001b[0m                         Traceback (most recent call last)",
      "\u001b[0;32m<ipython-input-31-ac5578eb5452>\u001b[0m in \u001b[0;36m<module>\u001b[0;34m()\u001b[0m\n\u001b[1;32m      1\u001b[0m \u001b[0mmsg_list\u001b[0m \u001b[0;34m=\u001b[0m \u001b[0;34m[\u001b[0m\u001b[0;34m]\u001b[0m\u001b[0;34m\u001b[0m\u001b[0m\n\u001b[0;32m----> 2\u001b[0;31m \u001b[0;32mfor\u001b[0m \u001b[0mmsg\u001b[0m \u001b[0;32min\u001b[0m \u001b[0mmid\u001b[0m\u001b[0;34m.\u001b[0m\u001b[0mplay\u001b[0m\u001b[0;34m(\u001b[0m\u001b[0;34m)\u001b[0m\u001b[0;34m:\u001b[0m\u001b[0;34m\u001b[0m\u001b[0m\n\u001b[0m\u001b[1;32m      3\u001b[0m     \u001b[0mmsg_list\u001b[0m\u001b[0;34m.\u001b[0m\u001b[0mappend\u001b[0m\u001b[0;34m(\u001b[0m\u001b[0mmsg\u001b[0m\u001b[0;34m)\u001b[0m\u001b[0;34m\u001b[0m\u001b[0m\n",
      "\u001b[0;32m/usr/local/Cellar/python3/3.6.3/Frameworks/Python.framework/Versions/3.6/lib/python3.6/site-packages/mido/midifiles/midifiles.py\u001b[0m in \u001b[0;36mplay\u001b[0;34m(self, meta_messages)\u001b[0m\n\u001b[1;32m    389\u001b[0m \u001b[0;34m\u001b[0m\u001b[0m\n\u001b[1;32m    390\u001b[0m         \u001b[0;32mfor\u001b[0m \u001b[0mmsg\u001b[0m \u001b[0;32min\u001b[0m \u001b[0mself\u001b[0m\u001b[0;34m:\u001b[0m\u001b[0;34m\u001b[0m\u001b[0m\n\u001b[0;32m--> 391\u001b[0;31m             \u001b[0msleep\u001b[0m\u001b[0;34m(\u001b[0m\u001b[0mmsg\u001b[0m\u001b[0;34m.\u001b[0m\u001b[0mtime\u001b[0m\u001b[0;34m)\u001b[0m\u001b[0;34m\u001b[0m\u001b[0m\n\u001b[0m\u001b[1;32m    392\u001b[0m \u001b[0;34m\u001b[0m\u001b[0m\n\u001b[1;32m    393\u001b[0m             \u001b[0;32mif\u001b[0m \u001b[0misinstance\u001b[0m\u001b[0;34m(\u001b[0m\u001b[0mmsg\u001b[0m\u001b[0;34m,\u001b[0m \u001b[0mMetaMessage\u001b[0m\u001b[0;34m)\u001b[0m \u001b[0;32mand\u001b[0m \u001b[0;32mnot\u001b[0m \u001b[0mmeta_messages\u001b[0m\u001b[0;34m:\u001b[0m\u001b[0;34m\u001b[0m\u001b[0m\n",
      "\u001b[0;31mKeyboardInterrupt\u001b[0m: "
     ]
    }
   ],
   "source": [
    "msg_list = []\n",
    "for msg in mid.play():\n",
    "    msg_list.append(msg)"
   ]
  },
  {
   "cell_type": "code",
   "execution_count": 30,
   "metadata": {},
   "outputs": [],
   "source": [
    "i = 0\n",
    "for msg in mid.play():\n",
    "    i += 1\n",
    "    out.send(msg)\n",
    "    if i == 1000:\n",
    "        break\n",
    "    "
   ]
  },
  {
   "cell_type": "code",
   "execution_count": 20,
   "metadata": {},
   "outputs": [],
   "source": [
    "import mido\n",
    "# out = mido.open_output('test-midi', virtual=True)\n",
    "out = mido.open_output()\n",
    "msg = mido.Message('note_on', note=64, channel=1)\n",
    "out.send(msg)"
   ]
  },
  {
   "cell_type": "code",
   "execution_count": 29,
   "metadata": {},
   "outputs": [
    {
     "ename": "TypeError",
     "evalue": "object of type 'generator' has no len()",
     "output_type": "error",
     "traceback": [
      "\u001b[0;31m---------------------------------------------------------------------------\u001b[0m",
      "\u001b[0;31mTypeError\u001b[0m                                 Traceback (most recent call last)",
      "\u001b[0;32m<ipython-input-29-9cc5a8a338b3>\u001b[0m in \u001b[0;36m<module>\u001b[0;34m()\u001b[0m\n\u001b[0;32m----> 1\u001b[0;31m \u001b[0mlen\u001b[0m\u001b[0;34m(\u001b[0m\u001b[0mmid\u001b[0m\u001b[0;34m.\u001b[0m\u001b[0mplay\u001b[0m\u001b[0;34m(\u001b[0m\u001b[0;34m)\u001b[0m\u001b[0;34m)\u001b[0m\u001b[0;34m\u001b[0m\u001b[0m\n\u001b[0m",
      "\u001b[0;31mTypeError\u001b[0m: object of type 'generator' has no len()"
     ]
    }
   ],
   "source": [
    "mid.tracks"
   ]
  },
  {
   "cell_type": "code",
   "execution_count": 26,
   "metadata": {},
   "outputs": [
    {
     "name": "stdout",
     "output_type": "stream",
     "text": [
      "Track 0: \n",
      "43\n",
      "Track 1: Swell LH\n",
      "1845\n",
      "Track 2: Great RH\n",
      "2324\n",
      "Track 3: Great LH\n",
      "545\n",
      "Track 4: Pedal\n",
      "1065\n",
      "Track 5: Trio Sonata #5- | J.S. Bach\n",
      "3\n",
      "Track 6: Mvt. #1\n",
      "3\n",
      "Track 7: Sequenced by | Lloyd Thompkins\n",
      "3\n",
      "Track 8: Please View | Comments\n",
      "3\n"
     ]
    }
   ],
   "source": [
    "for i, track in enumerate(mid.tracks):\n",
    "    print('Track {}: {}'.format(i, track.name))\n",
    "    i = 0\n",
    "    print(len(track))\n",
    "    for msg in track:\n",
    "        out.send(msg)\n",
    "        i += 1\n",
    "#         if i == 1000:\n",
    "#             break\n"
   ]
  },
  {
   "cell_type": "code",
   "execution_count": 32,
   "metadata": {},
   "outputs": [
    {
     "name": "stdout",
     "output_type": "stream",
     "text": [
      "=== Track 0\n",
      "<meta message midi_port port=0 time=0>\n",
      "<message sysex data=(65,16,66,18,64,0,127,0,65) time=0>\n",
      "<meta message midi_port port=0 time=0>\n",
      "<meta message time_signature numerator=3 denominator=4 clocks_per_click=24 notated_32nd_notes_per_beat=8 time=0>\n",
      "<meta message key_signature key='C' time=0>\n",
      "<meta message set_tempo tempo=705882 time=0>\n",
      "<meta message set_tempo tempo=705882 time=55620>\n",
      "<meta message set_tempo tempo=714286 time=5>\n",
      "<meta message set_tempo tempo=722892 time=5>\n",
      "<meta message set_tempo tempo=731707 time=5>\n",
      "<meta message set_tempo tempo=740741 time=5>\n",
      "<meta message set_tempo tempo=750000 time=5>\n",
      "<meta message set_tempo tempo=759494 time=5>\n",
      "<meta message set_tempo tempo=769231 time=6>\n",
      "<meta message set_tempo tempo=779221 time=5>\n",
      "<meta message set_tempo tempo=789474 time=5>\n",
      "<meta message set_tempo tempo=800000 time=5>\n",
      "<meta message set_tempo tempo=810811 time=5>\n",
      "<meta message set_tempo tempo=821918 time=5>\n",
      "<meta message set_tempo tempo=833333 time=5>\n",
      "<meta message set_tempo tempo=845070 time=6>\n",
      "<meta message set_tempo tempo=857143 time=5>\n",
      "<meta message set_tempo tempo=869565 time=5>\n",
      "<meta message set_tempo tempo=882353 time=5>\n",
      "<meta message set_tempo tempo=895522 time=5>\n",
      "<meta message set_tempo tempo=909091 time=5>\n",
      "<meta message set_tempo tempo=923077 time=5>\n",
      "<meta message set_tempo tempo=937500 time=6>\n",
      "<meta message set_tempo tempo=952381 time=5>\n",
      "<meta message set_tempo tempo=967742 time=5>\n",
      "<meta message set_tempo tempo=983607 time=5>\n",
      "<meta message set_tempo tempo=1000000 time=5>\n",
      "<meta message set_tempo tempo=1016949 time=5>\n",
      "<meta message set_tempo tempo=1034483 time=5>\n",
      "<meta message set_tempo tempo=1052632 time=6>\n",
      "<meta message set_tempo tempo=1071429 time=5>\n",
      "<meta message set_tempo tempo=1090909 time=5>\n",
      "<meta message set_tempo tempo=1111111 time=5>\n",
      "<meta message set_tempo tempo=1132075 time=5>\n",
      "<meta message set_tempo tempo=1153846 time=5>\n",
      "<meta message set_tempo tempo=1176471 time=5>\n",
      "<meta message set_tempo tempo=2000000 time=6>\n",
      "<meta message end_of_track time=0>\n",
      "=== Track 1\n",
      "<meta message midi_port port=0 time=0>\n",
      "<meta message track_name name='Swell LH' time=0>\n",
      "<message program_change channel=0 program=6 time=0>\n",
      "<message control_change channel=0 control=7 value=110 time=0>\n",
      "<message control_change channel=0 control=10 value=75 time=0>\n",
      "<message control_change channel=0 control=91 value=65 time=775>\n",
      "<message note_on channel=0 note=64 velocity=98 time=5>\n",
      "<message note_on channel=0 note=64 velocity=0 time=28>\n",
      "<message note_on channel=0 note=60 velocity=87 time=32>\n",
      "<message note_on channel=0 note=60 velocity=0 time=32>\n",
      "<message note_on channel=0 note=64 velocity=82 time=28>\n",
      "<message note_on channel=0 note=64 velocity=0 time=45>\n",
      "<message note_on channel=0 note=65 velocity=107 time=15>\n",
      "<message note_on channel=0 note=64 velocity=107 time=60>\n",
      "<message note_on channel=0 note=65 velocity=0 time=3>\n",
      "<message note_on channel=0 note=62 velocity=102 time=27>\n",
      "<message note_on channel=0 note=64 velocity=0 time=2>\n",
      "<message note_on channel=0 note=64 velocity=98 time=28>\n",
      "<message note_on channel=0 note=62 velocity=0 time=3>\n",
      "<message note_on channel=0 note=60 velocity=98 time=27>\n",
      "<message note_on channel=0 note=64 velocity=0 time=4>\n",
      "<message note_on channel=0 note=59 velocity=85 time=26>\n",
      "<message note_on channel=0 note=60 velocity=0 time=2>\n",
      "<message note_on channel=0 note=60 velocity=102 time=28>\n",
      "<message note_on channel=0 note=59 velocity=0 time=2>\n",
      "<message note_on channel=0 note=64 velocity=102 time=28>\n",
      "<message note_on channel=0 note=60 velocity=0 time=2>\n",
      "<message note_on channel=0 note=60 velocity=95 time=28>\n",
      "<message note_on channel=0 note=64 velocity=0 time=4>\n",
      "<message note_on channel=0 note=60 velocity=0 time=24>\n",
      "<message note_on channel=0 note=59 velocity=87 time=2>\n",
      "<message note_on channel=0 note=59 velocity=0 time=28>\n",
      "<message note_on channel=0 note=60 velocity=85 time=2>\n",
      "<message note_on channel=0 note=55 velocity=87 time=30>\n",
      "<message note_on channel=0 note=60 velocity=0 time=3>\n",
      "<message note_on channel=0 note=60 velocity=85 time=27>\n",
      "<message note_on channel=0 note=55 velocity=0 time=4>\n",
      "<message note_on channel=0 note=60 velocity=0 time=26>\n",
      "<message note_on channel=0 note=52 velocity=82 time=0>\n",
      "<message note_on channel=0 note=55 velocity=85 time=30>\n",
      "<message note_on channel=0 note=52 velocity=0 time=6>\n",
      "<message note_on channel=0 note=55 velocity=0 time=21>\n",
      "<message note_on channel=0 note=48 velocity=85 time=3>\n",
      "<message note_on channel=0 note=48 velocity=0 time=32>\n",
      "<message note_on channel=0 note=67 velocity=98 time=28>\n",
      "<message note_on channel=0 note=67 velocity=0 time=17>\n",
      "<message note_on channel=0 note=64 velocity=89 time=43>\n",
      "<message note_on channel=0 note=64 velocity=0 time=22>\n",
      "<message note_on channel=0 note=67 velocity=89 time=38>\n",
      "<message note_on channel=0 note=67 velocity=0 time=31>\n",
      "<message note_on channel=0 note=69 velocity=98 time=29>\n",
      "<message note_on channel=0 note=67 velocity=95 time=60>\n",
      "<message note_on channel=0 note=69 velocity=0 time=2>\n",
      "<message note_on channel=0 note=67 velocity=0 time=28>\n",
      "<message note_on channel=0 note=65 velocity=95 time=0>\n",
      "<message note_on channel=0 note=67 velocity=95 time=30>\n",
      "<message note_on channel=0 note=65 velocity=0 time=2>\n",
      "<message note_on channel=0 note=64 velocity=82 time=28>\n",
      "<message note_on channel=0 note=67 velocity=0 time=5>\n",
      "<message note_on channel=0 note=64 velocity=0 time=25>\n",
      "<message note_on channel=0 note=60 velocity=80 time=0>\n",
      "<message note_on channel=0 note=64 velocity=80 time=30>\n",
      "<message note_on channel=0 note=60 velocity=0 time=3>\n",
      "<message note_on channel=0 note=69 velocity=85 time=27>\n",
      "<message note_on channel=0 note=64 velocity=0 time=3>\n",
      "<message note_on channel=0 note=64 velocity=85 time=27>\n",
      "<message note_on channel=0 note=69 velocity=0 time=3>\n",
      "<message note_on channel=0 note=64 velocity=0 time=26>\n",
      "<message note_on channel=0 note=60 velocity=72 time=1>\n",
      "<message note_on channel=0 note=64 velocity=82 time=30>\n",
      "<message note_on channel=0 note=60 velocity=0 time=4>\n",
      "<message note_on channel=0 note=64 velocity=0 time=24>\n",
      "<message note_on channel=0 note=72 velocity=110 time=2>\n",
      "<message note_on channel=0 note=72 velocity=0 time=145>\n",
      "<message note_on channel=0 note=65 velocity=91 time=5>\n",
      "<message note_on channel=0 note=62 velocity=87 time=30>\n",
      "<message note_on channel=0 note=65 velocity=0 time=1>\n",
      "<message note_on channel=0 note=65 velocity=89 time=29>\n",
      "<message note_on channel=0 note=62 velocity=0 time=4>\n",
      "<message note_on channel=0 note=71 velocity=95 time=26>\n",
      "<message note_on channel=0 note=65 velocity=0 time=2>\n",
      "<message note_on channel=0 note=65 velocity=85 time=28>\n",
      "<message note_on channel=0 note=71 velocity=0 time=2>\n",
      "<message note_on channel=0 note=65 velocity=0 time=27>\n",
      "<message note_on channel=0 note=62 velocity=70 time=1>\n",
      "<message note_on channel=0 note=62 velocity=0 time=29>\n",
      "<message note_on channel=0 note=65 velocity=87 time=1>\n",
      "<message note_on channel=0 note=65 velocity=0 time=28>\n",
      "<message note_on channel=0 note=74 velocity=107 time=2>\n",
      "<message note_on channel=0 note=74 velocity=0 time=133>\n",
      "<message note_on channel=0 note=67 velocity=105 time=17>\n",
      "<message note_on channel=0 note=67 velocity=0 time=30>\n",
      "<message note_on channel=0 note=64 velocity=85 time=0>\n",
      "<message note_on channel=0 note=67 velocity=87 time=30>\n",
      "<message note_on channel=0 note=64 velocity=0 time=7>\n",
      "<message note_on channel=0 note=72 velocity=93 time=23>\n",
      "<message note_on channel=0 note=67 velocity=0 time=3>\n",
      "<message note_on channel=0 note=67 velocity=80 time=27>\n",
      "<message note_on channel=0 note=72 velocity=0 time=7>\n",
      "<message note_on channel=0 note=64 velocity=80 time=23>\n",
      "<message note_on channel=0 note=67 velocity=0 time=2>\n",
      "<message note_on channel=0 note=67 velocity=85 time=28>\n",
      "<message note_on channel=0 note=64 velocity=0 time=3>\n",
      "<message note_on channel=0 note=67 velocity=0 time=24>\n",
      "<message note_on channel=0 note=76 velocity=105 time=3>\n",
      "<message note_on channel=0 note=76 velocity=0 time=143>\n",
      "<message note_on channel=0 note=74 velocity=91 time=37>\n",
      "<message note_on channel=0 note=72 velocity=107 time=30>\n",
      "<message note_on channel=0 note=74 velocity=0 time=2>\n",
      "<message note_on channel=0 note=72 velocity=0 time=27>\n",
      "<message note_on channel=0 note=74 velocity=105 time=1>\n",
      "<message note_on channel=0 note=74 velocity=0 time=35>\n",
      "<message note_on channel=0 note=69 velocity=93 time=25>\n",
      "<message note_on channel=0 note=69 velocity=0 time=37>\n",
      "<message note_on channel=0 note=77 velocity=105 time=23>\n",
      "<message note_on channel=0 note=77 velocity=0 time=161>\n",
      "<message note_on channel=0 note=74 velocity=102 time=19>\n",
      "<message note_on channel=0 note=71 velocity=102 time=60>\n",
      "<message note_on channel=0 note=74 velocity=0 time=2>\n",
      "<message note_on channel=0 note=71 velocity=0 time=55>\n",
      "<message note_on channel=0 note=74 velocity=102 time=3>\n",
      "<message note_on channel=0 note=67 velocity=85 time=60>\n",
      "<message note_on channel=0 note=74 velocity=0 time=2>\n",
      "<message note_on channel=0 note=67 velocity=0 time=53>\n",
      "<message note_on channel=0 note=71 velocity=80 time=5>\n",
      "<message note_on channel=0 note=71 velocity=0 time=54>\n",
      "<message note_on channel=0 note=72 velocity=87 time=6>\n",
      "<message note_on channel=0 note=74 velocity=105 time=30>\n",
      "<message note_on channel=0 note=72 velocity=0 time=3>\n",
      "<message note_on channel=0 note=75 velocity=105 time=27>\n",
      "<message note_on channel=0 note=74 velocity=0 time=8>\n",
      "<message note_on channel=0 note=77 velocity=98 time=22>\n",
      "<message note_on channel=0 note=75 velocity=0 time=4>\n",
      "<message note_on channel=0 note=75 velocity=110 time=26>\n",
      "<message note_on channel=0 note=77 velocity=0 time=12>\n",
      "<message note_on channel=0 note=74 velocity=105 time=18>\n",
      "<message note_on channel=0 note=75 velocity=0 time=4>\n",
      "<message note_on channel=0 note=72 velocity=78 time=26>\n",
      "<message note_on channel=0 note=74 velocity=0 time=3>\n",
      "<message note_on channel=0 note=70 velocity=95 time=27>\n",
      "<message note_on channel=0 note=72 velocity=0 time=2>\n",
      "<message note_on channel=0 note=69 velocity=89 time=28>\n",
      "<message note_on channel=0 note=70 velocity=0 time=8>\n",
      "<message note_on channel=0 note=69 velocity=0 time=21>\n",
      "<message note_on channel=0 note=67 velocity=70 time=1>\n",
      "<message note_on channel=0 note=66 velocity=107 time=30>\n",
      "<message note_on channel=0 note=67 velocity=0 time=6>\n",
      "<message note_on channel=0 note=64 velocity=100 time=24>\n",
      "<message note_on channel=0 note=66 velocity=0 time=1>\n",
      "<message note_on channel=0 note=66 velocity=110 time=29>\n",
      "<message note_on channel=0 note=64 velocity=0 time=11>\n",
      "<message note_on channel=0 note=66 velocity=0 time=21>\n",
      "<message note_on channel=0 note=60 velocity=100 time=28>\n",
      "<message note_on channel=0 note=60 velocity=0 time=38>\n",
      "<message note_on channel=0 note=69 velocity=85 time=22>\n",
      "<message note_on channel=0 note=69 velocity=0 time=34>\n",
      "<message note_on channel=0 note=66 velocity=85 time=26>\n",
      "<message note_on channel=0 note=66 velocity=0 time=41>\n",
      "<message note_on channel=0 note=72 velocity=107 time=19>\n",
      "<message note_on channel=0 note=72 velocity=0 time=127>\n",
      "<message note_on channel=0 note=71 velocity=113 time=23>\n",
      "<message note_on channel=0 note=69 velocity=100 time=30>\n",
      "<message note_on channel=0 note=71 velocity=0 time=4>\n",
      "<message note_on channel=0 note=71 velocity=87 time=26>\n",
      "<message note_on channel=0 note=69 velocity=0 time=4>\n",
      "<message note_on channel=0 note=67 velocity=89 time=26>\n",
      "<message note_on channel=0 note=71 velocity=0 time=2>\n",
      "<message note_on channel=0 note=67 velocity=0 time=27>\n",
      "<message note_on channel=0 note=76 velocity=93 time=1>\n",
      "<message note_on channel=0 note=74 velocity=89 time=30>\n",
      "<message note_on channel=0 note=76 velocity=0 time=6>\n",
      "<message note_on channel=0 note=72 velocity=105 time=24>\n",
      "<message note_on channel=0 note=74 velocity=0 time=10>\n",
      "<message note_on channel=0 note=71 velocity=100 time=20>\n",
      "<message note_on channel=0 note=72 velocity=0 time=5>\n",
      "<message note_on channel=0 note=71 velocity=0 time=25>\n",
      "<message note_on channel=0 note=69 velocity=85 time=0>\n",
      "<message note_on channel=0 note=69 velocity=0 time=20>\n",
      "<message note_on channel=0 note=67 velocity=85 time=10>\n",
      "<message note_on channel=0 note=66 velocity=74 time=30>\n",
      "<message note_on channel=0 note=67 velocity=0 time=6>\n",
      "<message note_on channel=0 note=64 velocity=102 time=24>\n",
      "<message note_on channel=0 note=66 velocity=0 time=6>\n",
      "<message note_on channel=0 note=66 velocity=102 time=24>\n",
      "<message note_on channel=0 note=64 velocity=0 time=5>\n",
      "<message note_on channel=0 note=62 velocity=91 time=25>\n",
      "<message note_on channel=0 note=66 velocity=0 time=4>\n",
      "<message note_on channel=0 note=64 velocity=93 time=26>\n",
      "<message note_on channel=0 note=62 velocity=0 time=1>\n",
      "<message note_on channel=0 note=64 velocity=0 time=27>\n",
      "<message note_on channel=0 note=60 velocity=80 time=2>\n",
      "<message note_on channel=0 note=60 velocity=0 time=26>\n",
      "<message note_on channel=0 note=74 velocity=87 time=4>\n",
      "<message note_on channel=0 note=72 velocity=95 time=30>\n",
      "<message note_on channel=0 note=74 velocity=0 time=5>\n",
      "<message note_on channel=0 note=71 velocity=102 time=25>\n",
      "<message note_on channel=0 note=72 velocity=0 time=10>\n",
      "<message note_on channel=0 note=69 velocity=95 time=20>\n",
      "<message note_on channel=0 note=71 velocity=0 time=5>\n",
      "<message note_on channel=0 note=69 velocity=0 time=21>\n",
      "<message note_on channel=0 note=67 velocity=72 time=4>\n",
      "<message note_on channel=0 note=66 velocity=102 time=30>\n",
      "<message note_on channel=0 note=67 velocity=0 time=4>\n",
      "<message note_on channel=0 note=64 velocity=98 time=26>\n",
      "<message note_on channel=0 note=66 velocity=0 time=4>\n",
      "<message note_on channel=0 note=62 velocity=82 time=26>\n",
      "<message note_on channel=0 note=64 velocity=0 time=2>\n",
      "<message note_on channel=0 note=64 velocity=85 time=28>\n",
      "<message note_on channel=0 note=62 velocity=0 time=3>\n",
      "<message note_on channel=0 note=60 velocity=80 time=27>\n",
      "<message note_on channel=0 note=64 velocity=0 time=7>\n",
      "<message note_on channel=0 note=60 velocity=0 time=23>\n",
      "<message note_on channel=0 note=62 velocity=89 time=0>\n",
      "<message note_on channel=0 note=62 velocity=0 time=30>\n",
      "<message note_on channel=0 note=59 velocity=82 time=0>\n",
      "<message note_on channel=0 note=59 velocity=0 time=27>\n",
      "<message note_on channel=0 note=72 velocity=95 time=3>\n",
      "<message note_on channel=0 note=71 velocity=98 time=30>\n",
      "<message note_on channel=0 note=72 velocity=0 time=9>\n",
      "<message note_on channel=0 note=69 velocity=98 time=21>\n",
      "<message note_on channel=0 note=71 velocity=0 time=9>\n",
      "<message note_on channel=0 note=69 velocity=0 time=20>\n",
      "<message note_on channel=0 note=67 velocity=80 time=1>\n",
      "<message note_on channel=0 note=66 velocity=105 time=30>\n",
      "<message note_on channel=0 note=67 velocity=0 time=5>\n",
      "<message note_on channel=0 note=64 velocity=85 time=25>\n",
      "<message note_on channel=0 note=66 velocity=0 time=4>\n",
      "<message note_on channel=0 note=64 velocity=0 time=22>\n",
      "<message note_on channel=0 note=62 velocity=76 time=4>\n",
      "<message note_on channel=0 note=60 velocity=105 time=30>\n",
      "<message note_on channel=0 note=62 velocity=0 time=3>\n",
      "<message note_on channel=0 note=60 velocity=0 time=40>\n",
      "<message note_on channel=0 note=64 velocity=105 time=17>\n",
      "<message note_on channel=0 note=64 velocity=0 time=93>\n",
      "<message note_on channel=0 note=69 velocity=113 time=27>\n",
      "<message note_on channel=0 note=69 velocity=0 time=95>\n",
      "<message note_on channel=0 note=72 velocity=105 time=25>\n",
      "<message note_on channel=0 note=72 velocity=0 time=82>\n",
      "<message note_on channel=0 note=67 velocity=110 time=8>\n",
      "<message note_on channel=0 note=69 velocity=102 time=30>\n",
      "<message note_on channel=0 note=67 velocity=0 time=6>\n",
      "<message note_on channel=0 note=69 velocity=0 time=23>\n",
      "<message note_on channel=0 note=66 velocity=107 time=1>\n",
      "<message note_on channel=0 note=67 velocity=102 time=30>\n",
      "<message note_on channel=0 note=66 velocity=0 time=6>\n",
      "<message note_on channel=0 note=67 velocity=0 time=53>\n",
      "<message note_on channel=0 note=69 velocity=102 time=1>\n",
      "<message note_on channel=0 note=62 velocity=93 time=60>\n",
      "<message note_on channel=0 note=69 velocity=0 time=5>\n",
      "<message note_on channel=0 note=62 velocity=0 time=52>\n",
      "<message note_on channel=0 note=66 velocity=110 time=3>\n",
      "<message note_on channel=0 note=66 velocity=0 time=63>\n",
      "<message note_on channel=0 note=67 velocity=95 time=27>\n",
      "<message note_on channel=0 note=66 velocity=89 time=30>\n",
      "<message note_on channel=0 note=67 velocity=0 time=1>\n",
      "<message note_on channel=0 note=67 velocity=85 time=29>\n",
      "<message note_on channel=0 note=66 velocity=0 time=5>\n",
      "<message note_on channel=0 note=67 velocity=0 time=23>\n",
      "<message note_on channel=0 note=71 velocity=100 time=2>\n",
      "<message note_on channel=0 note=67 velocity=100 time=30>\n",
      "<message note_on channel=0 note=71 velocity=0 time=6>\n",
      "<message note_on channel=0 note=66 velocity=105 time=24>\n",
      "<message note_on channel=0 note=67 velocity=0 time=4>\n",
      "<message note_on channel=0 note=66 velocity=0 time=25>\n",
      "<message note_on channel=0 note=67 velocity=85 time=1>\n",
      "<message note_on channel=0 note=62 velocity=105 time=30>\n",
      "<message note_on channel=0 note=67 velocity=0 time=5>\n",
      "<message note_on channel=0 note=67 velocity=100 time=25>\n",
      "<message note_on channel=0 note=62 velocity=0 time=3>\n",
      "<message note_on channel=0 note=59 velocity=102 time=27>\n",
      "<message note_on channel=0 note=67 velocity=0 time=12>\n",
      "<message note_on channel=0 note=62 velocity=93 time=18>\n",
      "<message note_on channel=0 note=59 velocity=0 time=3>\n",
      "<message note_on channel=0 note=55 velocity=102 time=27>\n",
      "<message note_on channel=0 note=62 velocity=0 time=1>\n",
      "<message note_on channel=0 note=55 velocity=0 time=38>\n",
      "<message note_on channel=0 note=74 velocity=100 time=21>\n",
      "<message note_on channel=0 note=74 velocity=0 time=22>\n",
      "<message note_on channel=0 note=71 velocity=91 time=38>\n",
      "<message note_on channel=0 note=71 velocity=0 time=31>\n",
      "<message note_on channel=0 note=74 velocity=102 time=29>\n",
      "<message note_on channel=0 note=74 velocity=0 time=30>\n",
      "<message note_on channel=0 note=76 velocity=107 time=30>\n",
      "<message note_on channel=0 note=76 velocity=0 time=56>\n",
      "<message note_on channel=0 note=74 velocity=102 time=4>\n",
      "<message note_on channel=0 note=74 velocity=0 time=26>\n",
      "<message note_on channel=0 note=72 velocity=105 time=4>\n",
      "<message note_on channel=0 note=72 velocity=0 time=22>\n",
      "<message note_on channel=0 note=74 velocity=102 time=8>\n",
      "<message note_on channel=0 note=74 velocity=0 time=105>\n",
      "<message note_on channel=0 note=67 velocity=110 time=2655>\n",
      "<message note_on channel=0 note=67 velocity=0 time=141>\n",
      "<message note_on channel=0 note=65 velocity=102 time=9>\n",
      "<message note_on channel=0 note=67 velocity=46 time=0>\n",
      "<message note_on channel=0 note=67 velocity=0 time=3>\n",
      "<message note_on channel=0 note=64 velocity=102 time=27>\n",
      "<message note_on channel=0 note=65 velocity=0 time=9>\n",
      "<message note_on channel=0 note=62 velocity=89 time=21>\n",
      "<message note_on channel=0 note=64 velocity=0 time=1>\n",
      "<message note_on channel=0 note=61 velocity=110 time=29>\n",
      "<message note_on channel=0 note=62 velocity=0 time=4>\n",
      "<message note_on channel=0 note=61 velocity=0 time=24>\n",
      "<message note_on channel=0 note=64 velocity=85 time=2>\n",
      "<message note_on channel=0 note=58 velocity=110 time=30>\n",
      "<message note_on channel=0 note=64 velocity=0 time=3>\n",
      "<message note_on channel=0 note=57 velocity=100 time=27>\n",
      "<message note_on channel=0 note=58 velocity=0 time=4>\n",
      "<message note_on channel=0 note=58 velocity=102 time=26>\n",
      "<message note_on channel=0 note=57 velocity=0 time=6>\n",
      "<message note_on channel=0 note=55 velocity=68 time=24>\n",
      "<message note_on channel=0 note=58 velocity=0 time=4>\n",
      "<message note_on channel=0 note=62 velocity=91 time=26>\n",
      "<message note_on channel=0 note=55 velocity=0 time=4>\n",
      "<message note_on channel=0 note=62 velocity=0 time=26>\n",
      "<message note_on channel=0 note=61 velocity=100 time=0>\n",
      "<message note_on channel=0 note=61 velocity=0 time=29>\n",
      "<message note_on channel=0 note=62 velocity=91 time=1>\n",
      "<message note_on channel=0 note=62 velocity=0 time=121>\n",
      "<message note_on channel=0 note=71 velocity=102 time=29>\n",
      "<message note_on channel=0 note=69 velocity=105 time=30>\n",
      "<message note_on channel=0 note=71 velocity=0 time=6>\n",
      "<message note_on channel=0 note=69 velocity=0 time=23>\n",
      "<message note_on channel=0 note=67 velocity=100 time=1>\n",
      "<message note_on channel=0 note=67 velocity=0 time=25>\n",
      "<message note_on channel=0 note=74 velocity=110 time=5>\n",
      "<message note_on channel=0 note=74 velocity=0 time=127>\n",
      "<message note_on channel=0 note=71 velocity=76 time=23>\n",
      "<message note_on channel=0 note=71 velocity=0 time=28>\n",
      "<message note_on channel=0 note=76 velocity=98 time=2>\n",
      "<message note_on channel=0 note=74 velocity=102 time=30>\n",
      "<message note_on channel=0 note=76 velocity=0 time=4>\n",
      "<message note_on channel=0 note=72 velocity=107 time=26>\n",
      "<message note_on channel=0 note=74 velocity=0 time=10>\n",
      "<message note_on channel=0 note=71 velocity=102 time=20>\n",
      "<message note_on channel=0 note=72 velocity=0 time=1>\n",
      "<message note_on channel=0 note=71 velocity=0 time=28>\n",
      "<message note_on channel=0 note=69 velocity=87 time=1>\n",
      "<message note_on channel=0 note=67 velocity=102 time=30>\n",
      "<message note_on channel=0 note=69 velocity=0 time=2>\n",
      "<message note_on channel=0 note=66 velocity=107 time=28>\n",
      "<message note_on channel=0 note=67 velocity=0 time=3>\n",
      "<message note_on channel=0 note=66 velocity=0 time=33>\n",
      "<message note_on channel=0 note=72 velocity=107 time=24>\n",
      "<message note_on channel=0 note=72 velocity=0 time=87>\n",
      "<message note_on channel=0 note=71 velocity=116 time=3>\n",
      "<message note_on channel=0 note=69 velocity=107 time=30>\n",
      "<message note_on channel=0 note=71 velocity=0 time=3>\n",
      "<message note_on channel=0 note=69 velocity=0 time=27>\n",
      "<message note_on channel=0 note=67 velocity=80 time=0>\n",
      "<message note_on channel=0 note=67 velocity=0 time=27>\n",
      "<message note_on channel=0 note=76 velocity=107 time=3>\n",
      "<message note_on channel=0 note=76 velocity=0 time=117>\n",
      "<message note_on channel=0 note=77 velocity=82 time=33>\n",
      "<message note_on channel=0 note=76 velocity=85 time=30>\n",
      "<message note_on channel=0 note=77 velocity=0 time=10>\n",
      "<message note_on channel=0 note=74 velocity=102 time=20>\n",
      "<message note_on channel=0 note=76 velocity=0 time=5>\n",
      "<message note_on channel=0 note=72 velocity=82 time=25>\n",
      "<message note_on channel=0 note=74 velocity=0 time=3>\n",
      "<message note_on channel=0 note=71 velocity=100 time=177>\n",
      "<message note_on channel=0 note=72 velocity=0 time=3>\n",
      "<message note_on channel=0 note=69 velocity=89 time=27>\n",
      "<message note_on channel=0 note=71 velocity=0 time=3>\n",
      "<message note_on channel=0 note=67 velocity=72 time=27>\n",
      "<message note_on channel=0 note=69 velocity=0 time=1>\n",
      "<message note_on channel=0 note=67 velocity=0 time=29>\n",
      "<message note_on channel=0 note=65 velocity=89 time=0>\n",
      "<message note_on channel=0 note=64 velocity=100 time=30>\n",
      "<message note_on channel=0 note=65 velocity=0 time=12>\n",
      "<message note_on channel=0 note=62 velocity=100 time=18>\n",
      "<message note_on channel=0 note=64 velocity=0 time=3>\n",
      "<message note_on channel=0 note=60 velocity=100 time=27>\n",
      "<message note_on channel=0 note=62 velocity=0 time=2>\n",
      "<message note_on channel=0 note=60 velocity=0 time=28>\n",
      "<message note_on channel=0 note=67 velocity=102 time=30>\n",
      "<message note_on channel=0 note=67 velocity=0 time=26>\n",
      "<message note_on channel=0 note=64 velocity=89 time=34>\n",
      "<message note_on channel=0 note=64 velocity=0 time=26>\n",
      "<message note_on channel=0 note=67 velocity=100 time=34>\n",
      "<message note_on channel=0 note=67 velocity=0 time=32>\n",
      "<message note_on channel=0 note=69 velocity=105 time=28>\n",
      "<message note_on channel=0 note=69 velocity=0 time=120>\n",
      "<message note_on channel=0 note=65 velocity=113 time=30>\n",
      "<message note_on channel=0 note=65 velocity=0 time=30>\n",
      "<message note_on channel=0 note=64 velocity=93 time=0>\n",
      "<message note_on channel=0 note=65 velocity=105 time=30>\n",
      "<message note_on channel=0 note=64 velocity=0 time=6>\n",
      "<message note_on channel=0 note=69 velocity=100 time=24>\n",
      "<message note_on channel=0 note=65 velocity=0 time=3>\n",
      "<message note_on channel=0 note=65 velocity=102 time=27>\n",
      "<message note_on channel=0 note=69 velocity=0 time=5>\n",
      "<message note_on channel=0 note=64 velocity=105 time=25>\n",
      "<message note_on channel=0 note=65 velocity=0 time=4>\n",
      "<message note_on channel=0 note=65 velocity=100 time=26>\n",
      "<message note_on channel=0 note=64 velocity=0 time=4>\n",
      "<message note_on channel=0 note=62 velocity=105 time=26>\n",
      "<message note_on channel=0 note=65 velocity=0 time=4>\n",
      "<message note_on channel=0 note=62 velocity=0 time=25>\n",
      "<message note_on channel=0 note=65 velocity=100 time=1>\n",
      "<message note_on channel=0 note=65 velocity=0 time=30>\n",
      "<message note_on channel=0 note=58 velocity=95 time=0>\n",
      "<message note_on channel=0 note=62 velocity=87 time=30>\n",
      "<message note_on channel=0 note=58 velocity=0 time=3>\n",
      "<message note_on channel=0 note=62 velocity=0 time=26>\n",
      "<message note_on channel=0 note=55 velocity=95 time=1>\n",
      "<message note_on channel=0 note=55 velocity=0 time=40>\n",
      "<message note_on channel=0 note=70 velocity=93 time=20>\n",
      "<message note_on channel=0 note=70 velocity=0 time=33>\n",
      "<message note_on channel=0 note=67 velocity=91 time=27>\n",
      "<message note_on channel=0 note=67 velocity=0 time=30>\n",
      "<message note_on channel=0 note=70 velocity=102 time=30>\n",
      "<message note_on channel=0 note=70 velocity=0 time=34>\n",
      "<message note_on channel=0 note=72 velocity=107 time=26>\n",
      "<message note_on channel=0 note=72 velocity=0 time=133>\n",
      "<message note_on channel=0 note=65 velocity=95 time=47>\n",
      "<message note_on channel=0 note=65 velocity=0 time=47>\n",
      "<message note_on channel=0 note=69 velocity=95 time=13>\n",
      "<message note_on channel=0 note=69 velocity=0 time=40>\n",
      "<message note_on channel=0 note=72 velocity=95 time=20>\n",
      "<message note_on channel=0 note=72 velocity=0 time=49>\n",
      "<message note_on channel=0 note=75 velocity=102 time=11>\n",
      "<message note_on channel=0 note=75 velocity=0 time=51>\n",
      "<message note_on channel=0 note=74 velocity=98 time=9>\n",
      "<message note_on channel=0 note=74 velocity=0 time=26>\n",
      "<message note_on channel=0 note=72 velocity=110 time=4>\n",
      "<message note_on channel=0 note=74 velocity=105 time=30>\n",
      "<message note_on channel=0 note=72 velocity=0 time=4>\n",
      "<message note_on channel=0 note=74 velocity=0 time=33>\n",
      "<message note_on channel=0 note=70 velocity=102 time=23>\n",
      "<message note_on channel=0 note=70 velocity=0 time=60>\n",
      "<message note_on channel=0 note=65 velocity=87 time=0>\n",
      "<message note_on channel=0 note=65 velocity=0 time=53>\n",
      "<message note_on channel=0 note=70 velocity=102 time=7>\n",
      "<message note_on channel=0 note=74 velocity=93 time=60>\n",
      "<message note_on channel=0 note=70 velocity=0 time=2>\n",
      "<message note_on channel=0 note=74 velocity=0 time=50>\n",
      "<message note_on channel=0 note=72 velocity=102 time=8>\n",
      "<message note_on channel=0 note=70 velocity=105 time=30>\n",
      "<message note_on channel=0 note=72 velocity=0 time=5>\n",
      "<message note_on channel=0 note=72 velocity=100 time=25>\n",
      "<message note_on channel=0 note=70 velocity=0 time=6>\n",
      "<message note_on channel=0 note=72 velocity=0 time=37>\n",
      "<message note_on channel=0 note=69 velocity=98 time=17>\n",
      "<message note_on channel=0 note=69 velocity=0 time=45>\n",
      "<message note_on channel=0 note=65 velocity=89 time=15>\n",
      "<message note_on channel=0 note=65 velocity=0 time=44>\n",
      "<message note_on channel=0 note=69 velocity=93 time=16>\n",
      "<message note_on channel=0 note=69 velocity=0 time=54>\n",
      "<message note_on channel=0 note=72 velocity=100 time=6>\n",
      "<message note_on channel=0 note=72 velocity=0 time=50>\n",
      "<message note_on channel=0 note=70 velocity=98 time=10>\n",
      "<message note_on channel=0 note=69 velocity=100 time=30>\n",
      "<message note_on channel=0 note=70 velocity=0 time=2>\n",
      "<message note_on channel=0 note=70 velocity=102 time=28>\n",
      "<message note_on channel=0 note=69 velocity=0 time=5>\n",
      "<message note_on channel=0 note=70 velocity=0 time=40>\n",
      "<message note_on channel=0 note=67 velocity=102 time=15>\n",
      "<message note_on channel=0 note=67 velocity=0 time=53>\n",
      "<message note_on channel=0 note=64 velocity=100 time=7>\n",
      "<message note_on channel=0 note=64 velocity=0 time=41>\n",
      "<message note_on channel=0 note=67 velocity=100 time=19>\n",
      "<message note_on channel=0 note=67 velocity=0 time=49>\n",
      "<message note_on channel=0 note=70 velocity=102 time=11>\n",
      "<message note_on channel=0 note=70 velocity=0 time=54>\n",
      "<message note_on channel=0 note=69 velocity=98 time=6>\n",
      "<message note_on channel=0 note=67 velocity=98 time=30>\n",
      "<message note_on channel=0 note=69 velocity=0 time=1>\n",
      "<message note_on channel=0 note=67 velocity=0 time=27>\n",
      "<message note_on channel=0 note=69 velocity=100 time=2>\n",
      "<message note_on channel=0 note=65 velocity=89 time=30>\n",
      "<message note_on channel=0 note=69 velocity=0 time=3>\n",
      "<message note_on channel=0 note=65 velocity=0 time=26>\n",
      "<message note_on channel=0 note=64 velocity=87 time=1>\n",
      "<message note_on channel=0 note=65 velocity=89 time=30>\n",
      "<message note_on channel=0 note=64 velocity=0 time=2>\n",
      "<message note_on channel=0 note=69 velocity=95 time=28>\n",
      "<message note_on channel=0 note=65 velocity=0 time=5>\n",
      "<message note_on channel=0 note=65 velocity=89 time=25>\n",
      "<message note_on channel=0 note=69 velocity=0 time=9>\n",
      "<message note_on channel=0 note=64 velocity=95 time=21>\n",
      "<message note_on channel=0 note=65 velocity=0 time=5>\n",
      "<message note_on channel=0 note=65 velocity=89 time=25>\n",
      "<message note_on channel=0 note=64 velocity=0 time=3>\n",
      "<message note_on channel=0 note=65 velocity=0 time=27>\n",
      "<message note_on channel=0 note=62 velocity=100 time=0>\n",
      "<message note_on channel=0 note=65 velocity=82 time=30>\n",
      "<message note_on channel=0 note=62 velocity=0 time=2>\n",
      "<message note_on channel=0 note=59 velocity=95 time=28>\n",
      "<message note_on channel=0 note=65 velocity=0 time=6>\n",
      "<message note_on channel=0 note=62 velocity=72 time=24>\n",
      "<message note_on channel=0 note=59 velocity=0 time=5>\n",
      "<message note_on channel=0 note=62 velocity=0 time=23>\n",
      "<message note_on channel=0 note=55 velocity=70 time=2>\n",
      "<message note_on channel=0 note=53 velocity=53 time=0>\n",
      "<message note_on channel=0 note=53 velocity=0 time=3>\n",
      "<message note_on channel=0 note=64 velocity=82 time=27>\n",
      "<message note_on channel=0 note=55 velocity=0 time=7>\n",
      "<message note_on channel=0 note=64 velocity=0 time=23>\n",
      "<message note_on channel=0 note=62 velocity=82 time=0>\n",
      "<message note_on channel=0 note=64 velocity=95 time=30>\n",
      "<message note_on channel=0 note=62 velocity=0 time=8>\n",
      "<message note_on channel=0 note=67 velocity=95 time=22>\n",
      "<message note_on channel=0 note=64 velocity=0 time=4>\n",
      "<message note_on channel=0 note=64 velocity=98 time=26>\n",
      "<message note_on channel=0 note=67 velocity=0 time=4>\n",
      "<message note_on channel=0 note=62 velocity=102 time=26>\n",
      "<message note_on channel=0 note=64 velocity=0 time=6>\n",
      "<message note_on channel=0 note=64 velocity=87 time=24>\n",
      "<message note_on channel=0 note=62 velocity=0 time=9>\n",
      "<message note_on channel=0 note=60 velocity=85 time=21>\n",
      "<message note_on channel=0 note=64 velocity=0 time=2>\n",
      "<message note_on channel=0 note=64 velocity=80 time=28>\n",
      "<message note_on channel=0 note=60 velocity=0 time=2>\n",
      "<message note_on channel=0 note=57 velocity=68 time=28>\n",
      "<message note_on channel=0 note=64 velocity=0 time=28>\n",
      "<message note_on channel=0 note=60 velocity=70 time=2>\n",
      "<message note_on channel=0 note=57 velocity=0 time=4>\n",
      "<message note_on channel=0 note=60 velocity=0 time=25>\n",
      "<message note_on channel=0 note=53 velocity=74 time=1>\n",
      "<message note_on channel=0 note=62 velocity=82 time=30>\n",
      "<message note_on channel=0 note=53 velocity=0 time=8>\n",
      "<message note_on channel=0 note=60 velocity=72 time=22>\n",
      "<message note_on channel=0 note=62 velocity=0 time=4>\n",
      "<message note_on channel=0 note=62 velocity=85 time=26>\n",
      "<message note_on channel=0 note=60 velocity=0 time=5>\n",
      "<message note_on channel=0 note=65 velocity=91 time=25>\n",
      "<message note_on channel=0 note=62 velocity=0 time=7>\n",
      "<message note_on channel=0 note=62 velocity=85 time=23>\n",
      "<message note_on channel=0 note=65 velocity=0 time=7>\n",
      "<message note_on channel=0 note=60 velocity=100 time=23>\n",
      "<message note_on channel=0 note=62 velocity=0 time=7>\n",
      "<message note_on channel=0 note=62 velocity=93 time=23>\n",
      "<message note_on channel=0 note=60 velocity=0 time=3>\n",
      "<message note_on channel=0 note=59 velocity=91 time=27>\n",
      "<message note_on channel=0 note=62 velocity=0 time=7>\n",
      "<message note_on channel=0 note=62 velocity=82 time=23>\n",
      "<message note_on channel=0 note=59 velocity=0 time=2>\n",
      "<message note_on channel=0 note=55 velocity=80 time=28>\n",
      "<message note_on channel=0 note=62 velocity=0 time=7>\n",
      "<message note_on channel=0 note=59 velocity=78 time=23>\n",
      "<message note_on channel=0 note=55 velocity=0 time=2>\n",
      "<message note_on channel=0 note=59 velocity=0 time=27>\n",
      "<message note_on channel=0 note=52 velocity=64 time=1>\n",
      "<message note_on channel=0 note=52 velocity=0 time=29>\n",
      "<message note_on channel=0 note=64 velocity=100 time=1>\n",
      "<message note_on channel=0 note=64 velocity=0 time=30>\n",
      "<message note_on channel=0 note=62 velocity=102 time=0>\n",
      "<message note_on channel=0 note=64 velocity=100 time=30>\n",
      "<message note_on channel=0 note=62 velocity=0 time=5>\n",
      "<message note_on channel=0 note=67 velocity=100 time=25>\n",
      "<message note_on channel=0 note=64 velocity=0 time=3>\n",
      "<message note_on channel=0 note=64 velocity=102 time=27>\n",
      "<message note_on channel=0 note=67 velocity=0 time=2>\n",
      "<message note_on channel=0 note=62 velocity=100 time=28>\n",
      "<message note_on channel=0 note=64 velocity=0 time=2>\n",
      "<message note_on channel=0 note=64 velocity=91 time=28>\n",
      "<message note_on channel=0 note=62 velocity=0 time=4>\n",
      "<message note_on channel=0 note=64 velocity=0 time=22>\n",
      "<message note_on channel=0 note=60 velocity=102 time=4>\n",
      "<message note_on channel=0 note=60 velocity=0 time=17>\n",
      "<message note_on channel=0 note=64 velocity=105 time=13>\n",
      "<message note_on channel=0 note=64 velocity=0 time=10>\n",
      "<message note_on channel=0 note=67 velocity=107 time=20>\n",
      "<message note_on channel=0 note=65 velocity=100 time=90>\n",
      "<message note_on channel=0 note=67 velocity=0 time=5>\n",
      "<message note_on channel=0 note=64 velocity=107 time=25>\n",
      "<message note_on channel=0 note=65 velocity=0 time=5>\n",
      "<message note_on channel=0 note=65 velocity=102 time=25>\n",
      "<message note_on channel=0 note=64 velocity=0 time=5>\n",
      "<message note_on channel=0 note=67 velocity=102 time=25>\n",
      "<message note_on channel=0 note=65 velocity=0 time=8>\n",
      "<message note_on channel=0 note=65 velocity=95 time=22>\n",
      "<message note_on channel=0 note=67 velocity=0 time=6>\n",
      "<message note_on channel=0 note=64 velocity=102 time=24>\n",
      "<message note_on channel=0 note=65 velocity=0 time=5>\n",
      "<message note_on channel=0 note=65 velocity=91 time=25>\n",
      "<message note_on channel=0 note=64 velocity=0 time=9>\n",
      "<message note_on channel=0 note=65 velocity=0 time=20>\n",
      "<message note_on channel=0 note=60 velocity=100 time=1>\n",
      "<message note_on channel=0 note=60 velocity=0 time=10>\n",
      "<message note_on channel=0 note=64 velocity=100 time=20>\n",
      "<message note_on channel=0 note=64 velocity=0 time=8>\n",
      "<message note_on channel=0 note=65 velocity=110 time=22>\n",
      "<message note_on channel=0 note=64 velocity=102 time=90>\n",
      "<message note_on channel=0 note=65 velocity=0 time=8>\n",
      "<message note_on channel=0 note=62 velocity=105 time=22>\n",
      "<message note_on channel=0 note=64 velocity=0 time=3>\n",
      "<message note_on channel=0 note=64 velocity=102 time=27>\n",
      "<message note_on channel=0 note=62 velocity=0 time=7>\n",
      "<message note_on channel=0 note=65 velocity=102 time=23>\n",
      "<message note_on channel=0 note=64 velocity=0 time=4>\n",
      "<message note_on channel=0 note=64 velocity=95 time=26>\n",
      "<message note_on channel=0 note=65 velocity=0 time=5>\n",
      "<message note_on channel=0 note=62 velocity=105 time=25>\n",
      "<message note_on channel=0 note=64 velocity=0 time=4>\n",
      "<message note_on channel=0 note=64 velocity=89 time=26>\n",
      "<message note_on channel=0 note=62 velocity=0 time=6>\n",
      "<message note_on channel=0 note=60 velocity=107 time=24>\n",
      "<message note_on channel=0 note=64 velocity=0 time=1>\n",
      "<message note_on channel=0 note=60 velocity=0 time=10>\n",
      "<message note_on channel=0 note=62 velocity=113 time=19>\n",
      "<message note_on channel=0 note=62 velocity=0 time=9>\n",
      "<message note_on channel=0 note=64 velocity=113 time=21>\n",
      "<message note_on channel=0 note=62 velocity=100 time=90>\n",
      "<message note_on channel=0 note=64 velocity=0 time=19>\n",
      "<message note_on channel=0 note=60 velocity=102 time=11>\n",
      "<message note_on channel=0 note=62 velocity=0 time=4>\n",
      "<message note_on channel=0 note=62 velocity=95 time=26>\n",
      "<message note_on channel=0 note=60 velocity=0 time=2>\n",
      "<message note_on channel=0 note=65 velocity=102 time=28>\n",
      "<message note_on channel=0 note=62 velocity=0 time=5>\n",
      "<message note_on channel=0 note=62 velocity=100 time=25>\n",
      "<message note_on channel=0 note=65 velocity=0 time=8>\n",
      "<message note_on channel=0 note=62 velocity=0 time=17>\n",
      "<message note_on channel=0 note=60 velocity=95 time=5>\n",
      "<message note_on channel=0 note=62 velocity=100 time=30>\n",
      "<message note_on channel=0 note=60 velocity=0 time=6>\n",
      "<message note_on channel=0 note=59 velocity=105 time=24>\n",
      "<message note_on channel=0 note=62 velocity=0 time=3>\n",
      "<message note_on channel=0 note=59 velocity=0 time=29>\n",
      "<message note_on channel=0 note=71 velocity=107 time=28>\n",
      "<message note_on channel=0 note=71 velocity=0 time=38>\n",
      "<message note_on channel=0 note=72 velocity=107 time=22>\n",
      "<message note_on channel=0 note=67 velocity=76 time=30>\n",
      "<message note_on channel=0 note=72 velocity=0 time=4>\n",
      "<message note_on channel=0 note=67 velocity=0 time=26>\n",
      "<message note_on channel=0 note=65 velocity=70 time=0>\n",
      "<message note_on channel=0 note=67 velocity=80 time=30>\n",
      "<message note_on channel=0 note=65 velocity=0 time=2>\n",
      "<message note_on channel=0 note=67 velocity=0 time=22>\n",
      "<message note_on channel=0 note=76 velocity=110 time=6>\n",
      "<message note_on channel=0 note=76 velocity=0 time=227>\n",
      "<message note_on channel=0 note=65 velocity=91 time=43>\n",
      "<message note_on channel=0 note=65 velocity=0 time=28>\n",
      "<message note_on channel=0 note=64 velocity=82 time=2>\n",
      "<message note_on channel=0 note=64 velocity=0 time=22>\n",
      "<message note_on channel=0 note=65 velocity=100 time=8>\n",
      "<message note_on channel=0 note=65 velocity=0 time=17>\n",
      "<message note_on channel=0 note=74 velocity=102 time=13>\n",
      "<message note_on channel=0 note=74 velocity=0 time=240>\n",
      "<message note_on channel=0 note=64 velocity=91 time=30>\n",
      "<message note_on channel=0 note=64 velocity=0 time=30>\n",
      "<message note_on channel=0 note=62 velocity=85 time=0>\n",
      "<message note_on channel=0 note=64 velocity=89 time=30>\n",
      "<message note_on channel=0 note=62 velocity=0 time=3>\n",
      "<message note_on channel=0 note=64 velocity=0 time=20>\n",
      "<message note_on channel=0 note=72 velocity=107 time=7>\n",
      "<message note_on channel=0 note=72 velocity=0 time=270>\n",
      "<message note_on channel=0 note=71 velocity=102 time=0>\n",
      "<message note_on channel=0 note=69 velocity=102 time=30>\n",
      "<message note_on channel=0 note=71 velocity=0 time=7>\n",
      "<message note_on channel=0 note=67 velocity=102 time=23>\n",
      "<message note_on channel=0 note=69 velocity=0 time=5>\n",
      "<message note_on channel=0 note=65 velocity=80 time=25>\n",
      "<message note_on channel=0 note=67 velocity=0 time=1>\n",
      "<message note_on channel=0 note=64 velocity=102 time=29>\n",
      "<message note_on channel=0 note=65 velocity=0 time=3>\n",
      "<message note_on channel=0 note=62 velocity=100 time=27>\n",
      "<message note_on channel=0 note=64 velocity=0 time=8>\n",
      "<message note_on channel=0 note=62 velocity=0 time=20>\n",
      "<message note_on channel=0 note=60 velocity=72 time=2>\n",
      "<message note_on channel=0 note=59 velocity=98 time=30>\n",
      "<message note_on channel=0 note=60 velocity=0 time=1>\n",
      "<message note_on channel=0 note=57 velocity=100 time=29>\n",
      "<message note_on channel=0 note=59 velocity=0 time=13>\n",
      "<message note_on channel=0 note=55 velocity=85 time=17>\n",
      "<message note_on channel=0 note=57 velocity=0 time=6>\n",
      "<message note_on channel=0 note=53 velocity=85 time=24>\n",
      "<message note_on channel=0 note=55 velocity=0 time=1>\n",
      "<message note_on channel=0 note=55 velocity=100 time=29>\n",
      "<message note_on channel=0 note=53 velocity=0 time=9>\n",
      "<message note_on channel=0 note=55 velocity=0 time=12>\n",
      "<message note_on channel=0 note=65 velocity=100 time=39>\n",
      "<message note_on channel=0 note=65 velocity=0 time=23>\n",
      "<message note_on channel=0 note=64 velocity=95 time=37>\n",
      "<message note_on channel=0 note=64 velocity=0 time=49>\n",
      "<message note_on channel=0 note=69 velocity=102 time=11>\n",
      "<message note_on channel=0 note=67 velocity=95 time=30>\n",
      "<message note_on channel=0 note=69 velocity=0 time=5>\n",
      "<message note_on channel=0 note=65 velocity=105 time=25>\n",
      "<message note_on channel=0 note=67 velocity=0 time=8>\n",
      "<message note_on channel=0 note=64 velocity=98 time=22>\n",
      "<message note_on channel=0 note=65 velocity=0 time=3>\n",
      "<message note_on channel=0 note=62 velocity=72 time=27>\n",
      "<message note_on channel=0 note=64 velocity=0 time=1>\n",
      "<message note_on channel=0 note=60 velocity=105 time=29>\n",
      "<message note_on channel=0 note=62 velocity=0 time=5>\n",
      "<message note_on channel=0 note=60 velocity=0 time=16>\n",
      "<message note_on channel=0 note=60 velocity=105 time=9>\n",
      "<message note_on channel=0 note=60 velocity=0 time=125>\n",
      "<message note_on channel=0 note=60 velocity=85 time=625>\n",
      "<message note_on channel=0 note=64 velocity=85 time=30>\n",
      "<message note_on channel=0 note=60 velocity=0 time=6>\n",
      "<message note_on channel=0 note=66 velocity=89 time=24>\n",
      "<message note_on channel=0 note=64 velocity=0 time=9>\n",
      "<message note_on channel=0 note=67 velocity=82 time=21>\n",
      "<message note_on channel=0 note=66 velocity=0 time=7>\n",
      "<message note_on channel=0 note=67 velocity=0 time=19>\n",
      "<message note_on channel=0 note=66 velocity=100 time=4>\n",
      "<message note_on channel=0 note=67 velocity=82 time=30>\n",
      "<message note_on channel=0 note=66 velocity=0 time=1>\n",
      "<message note_on channel=0 note=71 velocity=102 time=29>\n",
      "<message note_on channel=0 note=67 velocity=0 time=4>\n",
      "<message note_on channel=0 note=69 velocity=100 time=26>\n",
      "<message note_on channel=0 note=71 velocity=0 time=3>\n",
      "<message note_on channel=0 note=67 velocity=87 time=27>\n",
      "<message note_on channel=0 note=69 velocity=0 time=6>\n",
      "<message note_on channel=0 note=66 velocity=98 time=24>\n",
      "<message note_on channel=0 note=67 velocity=0 time=4>\n",
      "<message note_on channel=0 note=66 velocity=0 time=20>\n",
      "<message note_on channel=0 note=64 velocity=80 time=6>\n",
      "<message note_on channel=0 note=64 velocity=0 time=26>\n",
      "<message note_on channel=0 note=62 velocity=102 time=4>\n",
      "<message note_on channel=0 note=64 velocity=95 time=30>\n",
      "<message note_on channel=0 note=62 velocity=0 time=9>\n",
      "<message note_on channel=0 note=66 velocity=95 time=21>\n",
      "<message note_on channel=0 note=64 velocity=0 time=6>\n",
      "<message note_on channel=0 note=66 velocity=0 time=20>\n",
      "<message note_on channel=0 note=67 velocity=85 time=4>\n",
      "<message note_on channel=0 note=69 velocity=105 time=30>\n",
      "<message note_on channel=0 note=67 velocity=0 time=2>\n",
      "<message note_on channel=0 note=72 velocity=91 time=28>\n",
      "<message note_on channel=0 note=69 velocity=0 time=3>\n",
      "<message note_on channel=0 note=71 velocity=100 time=27>\n",
      "<message note_on channel=0 note=72 velocity=0 time=4>\n",
      "<message note_on channel=0 note=69 velocity=100 time=26>\n",
      "<message note_on channel=0 note=71 velocity=0 time=7>\n",
      "<message note_on channel=0 note=69 velocity=0 time=22>\n",
      "<message note_on channel=0 note=74 velocity=85 time=1>\n",
      "<message note_on channel=0 note=72 velocity=100 time=30>\n",
      "<message note_on channel=0 note=74 velocity=0 time=12>\n",
      "<message note_on channel=0 note=71 velocity=100 time=18>\n",
      "<message note_on channel=0 note=72 velocity=0 time=9>\n",
      "<message note_on channel=0 note=69 velocity=102 time=21>\n",
      "<message note_on channel=0 note=71 velocity=0 time=18>\n",
      "<message note_on channel=0 note=71 velocity=87 time=12>\n",
      "<message note_on channel=0 note=69 velocity=0 time=1>\n",
      "<message note_on channel=0 note=67 velocity=100 time=29>\n",
      "<message note_on channel=0 note=71 velocity=0 time=9>\n",
      "<message note_on channel=0 note=65 velocity=85 time=21>\n",
      "<message note_on channel=0 note=67 velocity=0 time=4>\n",
      "<message note_on channel=0 note=64 velocity=70 time=26>\n",
      "<message note_on channel=0 note=65 velocity=0 time=1>\n",
      "<message note_on channel=0 note=62 velocity=91 time=29>\n",
      "<message note_on channel=0 note=64 velocity=0 time=2>\n",
      "<message note_on channel=0 note=60 velocity=93 time=28>\n",
      "<message note_on channel=0 note=62 velocity=0 time=4>\n",
      "<message note_on channel=0 note=60 velocity=0 time=26>\n",
      "<message note_on channel=0 note=59 velocity=68 time=0>\n",
      "<message note_on channel=0 note=57 velocity=95 time=30>\n",
      "<message note_on channel=0 note=59 velocity=0 time=4>\n",
      "<message note_on channel=0 note=57 velocity=0 time=25>\n",
      "<message note_on channel=0 note=55 velocity=100 time=1>\n",
      "<message note_on channel=0 note=55 velocity=0 time=239>\n",
      "<message note_on channel=0 note=60 velocity=87 time=61>\n",
      "<message note_on channel=0 note=65 velocity=105 time=60>\n",
      "<message note_on channel=0 note=60 velocity=0 time=2>\n",
      "<message note_on channel=0 note=64 velocity=100 time=28>\n",
      "<message note_on channel=0 note=65 velocity=0 time=2>\n",
      "<message note_on channel=0 note=65 velocity=102 time=28>\n",
      "<message note_on channel=0 note=64 velocity=0 time=7>\n",
      "<message note_on channel=0 note=67 velocity=98 time=23>\n",
      "<message note_on channel=0 note=65 velocity=0 time=4>\n",
      "<message note_on channel=0 note=69 velocity=102 time=26>\n",
      "<message note_on channel=0 note=67 velocity=0 time=2>\n",
      "<message note_on channel=0 note=69 velocity=0 time=12>\n",
      "<message note_on channel=0 note=69 velocity=102 time=16>\n",
      "<message note_on channel=0 note=67 velocity=91 time=30>\n",
      "<message note_on channel=0 note=69 velocity=0 time=5>\n",
      "<message note_on channel=0 note=65 velocity=102 time=25>\n",
      "<message note_on channel=0 note=67 velocity=0 time=9>\n",
      "<message note_on channel=0 note=64 velocity=98 time=21>\n",
      "<message note_on channel=0 note=65 velocity=0 time=8>\n",
      "<message note_on channel=0 note=62 velocity=85 time=22>\n",
      "<message note_on channel=0 note=64 velocity=0 time=2>\n",
      "<message note_on channel=0 note=61 velocity=102 time=28>\n",
      "<message note_on channel=0 note=62 velocity=0 time=7>\n",
      "<message note_on channel=0 note=59 velocity=98 time=23>\n",
      "<message note_on channel=0 note=61 velocity=0 time=2>\n",
      "<message note_on channel=0 note=57 velocity=82 time=28>\n",
      "<message note_on channel=0 note=59 velocity=0 time=6>\n",
      "<message note_on channel=0 note=57 velocity=0 time=232>\n",
      "<message note_on channel=0 note=62 velocity=100 time=62>\n",
      "<message note_on channel=0 note=62 velocity=0 time=47>\n",
      "<message note_on channel=0 note=68 velocity=110 time=13>\n",
      "<message note_on channel=0 note=66 velocity=105 time=30>\n",
      "<message note_on channel=0 note=68 velocity=0 time=1>\n",
      "<message note_on channel=0 note=68 velocity=98 time=29>\n",
      "<message note_on channel=0 note=66 velocity=0 time=10>\n",
      "<message note_on channel=0 note=69 velocity=98 time=20>\n",
      "<message note_on channel=0 note=68 velocity=0 time=5>\n",
      "<message note_on channel=0 note=71 velocity=100 time=25>\n",
      "<message note_on channel=0 note=69 velocity=0 time=2>\n",
      "<message note_on channel=0 note=71 velocity=0 time=29>\n",
      "<message note_on channel=0 note=64 velocity=102 time=29>\n",
      "<message note_on channel=0 note=64 velocity=0 time=92>\n",
      "<message note_on channel=0 note=69 velocity=105 time=28>\n",
      "<message note_on channel=0 note=69 velocity=0 time=90>\n",
      "<message note_on channel=0 note=62 velocity=107 time=30>\n",
      "<message note_on channel=0 note=62 velocity=0 time=47>\n",
      "<message note_on channel=0 note=64 velocity=98 time=13>\n",
      "<message note_on channel=0 note=64 velocity=0 time=728>\n",
      "<message note_on channel=0 note=60 velocity=85 time=22>\n",
      "<message note_on channel=0 note=62 velocity=102 time=30>\n",
      "<message note_on channel=0 note=60 velocity=0 time=6>\n",
      "<message note_on channel=0 note=64 velocity=100 time=24>\n",
      "<message note_on channel=0 note=62 velocity=0 time=7>\n",
      "<message note_on channel=0 note=65 velocity=102 time=23>\n",
      "<message note_on channel=0 note=64 velocity=0 time=4>\n",
      "<message note_on channel=0 note=65 velocity=0 time=26>\n",
      "<message note_on channel=0 note=64 velocity=100 time=0>\n",
      "<message note_on channel=0 note=65 velocity=102 time=30>\n",
      "<message note_on channel=0 note=64 velocity=0 time=6>\n",
      "<message note_on channel=0 note=69 velocity=89 time=24>\n",
      "<message note_on channel=0 note=65 velocity=0 time=3>\n",
      "<message note_on channel=0 note=67 velocity=95 time=27>\n",
      "<message note_on channel=0 note=69 velocity=0 time=7>\n",
      "<message note_on channel=0 note=65 velocity=100 time=23>\n",
      "<message note_on channel=0 note=67 velocity=0 time=10>\n",
      "<message note_on channel=0 note=64 velocity=102 time=20>\n",
      "<message note_on channel=0 note=65 velocity=0 time=4>\n",
      "<message note_on channel=0 note=62 velocity=89 time=26>\n",
      "<message note_on channel=0 note=64 velocity=0 time=4>\n",
      "<message note_on channel=0 note=60 velocity=98 time=26>\n",
      "<message note_on channel=0 note=62 velocity=0 time=4>\n",
      "<message note_on channel=0 note=60 velocity=0 time=22>\n",
      "<message note_on channel=0 note=62 velocity=89 time=4>\n",
      "<message note_on channel=0 note=64 velocity=89 time=30>\n",
      "<message note_on channel=0 note=62 velocity=0 time=1>\n",
      "<message note_on channel=0 note=65 velocity=98 time=29>\n",
      "<message note_on channel=0 note=64 velocity=0 time=6>\n",
      "<message note_on channel=0 note=67 velocity=87 time=24>\n",
      "<message note_on channel=0 note=65 velocity=0 time=5>\n",
      "<message note_on channel=0 note=67 velocity=0 time=21>\n",
      "<message note_on channel=0 note=70 velocity=102 time=4>\n",
      "<message note_on channel=0 note=70 velocity=0 time=30>\n",
      "<message note_on channel=0 note=69 velocity=91 time=0>\n",
      "<message note_on channel=0 note=67 velocity=91 time=30>\n",
      "<message note_on channel=0 note=69 velocity=0 time=1>\n",
      "<message note_on channel=0 note=67 velocity=0 time=28>\n",
      "<message note_on channel=0 note=72 velocity=100 time=1>\n",
      "<message note_on channel=0 note=70 velocity=107 time=30>\n",
      "<message note_on channel=0 note=72 velocity=0 time=12>\n",
      "<message note_on channel=0 note=69 velocity=100 time=18>\n",
      "<message note_on channel=0 note=70 velocity=0 time=4>\n",
      "<message note_on channel=0 note=67 velocity=89 time=26>\n",
      "<message note_on channel=0 note=69 velocity=0 time=2>\n",
      "<message note_on channel=0 note=69 velocity=105 time=28>\n",
      "<message note_on channel=0 note=67 velocity=0 time=2>\n",
      "<message note_on channel=0 note=69 velocity=0 time=711>\n",
      "<message note_on channel=0 note=57 velocity=85 time=37>\n",
      "<message note_on channel=0 note=59 velocity=100 time=30>\n",
      "<message note_on channel=0 note=57 velocity=0 time=6>\n",
      "<message note_on channel=0 note=61 velocity=91 time=24>\n",
      "<message note_on channel=0 note=59 velocity=0 time=9>\n",
      "<message note_on channel=0 note=62 velocity=85 time=21>\n",
      "<message note_on channel=0 note=61 velocity=0 time=5>\n",
      "<message note_on channel=0 note=61 velocity=89 time=25>\n",
      "<message note_on channel=0 note=62 velocity=0 time=1>\n",
      "<message note_on channel=0 note=62 velocity=82 time=29>\n",
      "<message note_on channel=0 note=61 velocity=0 time=6>\n",
      "<message note_on channel=0 note=65 velocity=93 time=24>\n",
      "<message note_on channel=0 note=62 velocity=0 time=4>\n",
      "<message note_on channel=0 note=64 velocity=87 time=26>\n",
      "<message note_on channel=0 note=65 velocity=0 time=4>\n",
      "<message note_on channel=0 note=62 velocity=82 time=26>\n",
      "<message note_on channel=0 note=64 velocity=0 time=7>\n",
      "<message note_on channel=0 note=61 velocity=105 time=23>\n",
      "<message note_on channel=0 note=62 velocity=0 time=9>\n",
      "<message note_on channel=0 note=59 velocity=100 time=21>\n",
      "<message note_on channel=0 note=61 velocity=0 time=1>\n",
      "<message note_on channel=0 note=57 velocity=85 time=29>\n",
      "<message note_on channel=0 note=59 velocity=0 time=6>\n",
      "<message note_on channel=0 note=59 velocity=95 time=24>\n",
      "<message note_on channel=0 note=57 velocity=0 time=5>\n",
      "<message note_on channel=0 note=61 velocity=98 time=25>\n",
      "<message note_on channel=0 note=59 velocity=0 time=6>\n",
      "<message note_on channel=0 note=61 velocity=0 time=20>\n",
      "<message note_on channel=0 note=62 velocity=87 time=4>\n",
      "<message note_on channel=0 note=64 velocity=102 time=30>\n",
      "<message note_on channel=0 note=62 velocity=0 time=6>\n",
      "<message note_on channel=0 note=67 velocity=91 time=24>\n",
      "<message note_on channel=0 note=64 velocity=0 time=8>\n",
      "<message note_on channel=0 note=65 velocity=105 time=22>\n",
      "<message note_on channel=0 note=67 velocity=0 time=6>\n",
      "<message note_on channel=0 note=64 velocity=105 time=24>\n",
      "<message note_on channel=0 note=65 velocity=0 time=4>\n",
      "<message note_on channel=0 note=69 velocity=85 time=26>\n",
      "<message note_on channel=0 note=64 velocity=0 time=8>\n",
      "<message note_on channel=0 note=67 velocity=95 time=22>\n",
      "<message note_on channel=0 note=69 velocity=0 time=7>\n",
      "<message note_on channel=0 note=65 velocity=105 time=23>\n",
      "<message note_on channel=0 note=67 velocity=0 time=6>\n",
      "<message note_on channel=0 note=64 velocity=100 time=24>\n",
      "<message note_on channel=0 note=65 velocity=0 time=3>\n",
      "<message note_on channel=0 note=65 velocity=105 time=27>\n",
      "<message note_on channel=0 note=64 velocity=0 time=5>\n",
      "<message note_on channel=0 note=65 velocity=0 time=348>\n",
      "<message note_on channel=0 note=64 velocity=98 time=37>\n",
      "<message note_on channel=0 note=62 velocity=82 time=30>\n",
      "<message note_on channel=0 note=64 velocity=0 time=2>\n",
      "<message note_on channel=0 note=64 velocity=102 time=28>\n",
      "<message note_on channel=0 note=62 velocity=0 time=3>\n",
      "<message note_on channel=0 note=65 velocity=98 time=27>\n",
      "<message note_on channel=0 note=64 velocity=0 time=9>\n",
      "<message note_on channel=0 note=69 velocity=85 time=21>\n",
      "<message note_on channel=0 note=65 velocity=0 time=3>\n",
      "<message note_on channel=0 note=67 velocity=98 time=27>\n",
      "<message note_on channel=0 note=69 velocity=0 time=7>\n",
      "<message note_on channel=0 note=67 velocity=0 time=21>\n",
      "<message note_on channel=0 note=65 velocity=82 time=2>\n",
      "<message note_on channel=0 note=70 velocity=105 time=30>\n",
      "<message note_on channel=0 note=65 velocity=0 time=3>\n",
      "<message note_on channel=0 note=69 velocity=100 time=27>\n",
      "<message note_on channel=0 note=70 velocity=0 time=5>\n",
      "<message note_on channel=0 note=67 velocity=102 time=25>\n",
      "<message note_on channel=0 note=69 velocity=0 time=4>\n",
      "<message note_on channel=0 note=65 velocity=76 time=26>\n",
      "<message note_on channel=0 note=67 velocity=0 time=1>\n",
      "<message note_on channel=0 note=67 velocity=105 time=29>\n",
      "<message note_on channel=0 note=65 velocity=0 time=2>\n",
      "<message note_on channel=0 note=67 velocity=0 time=353>\n",
      "<message note_on channel=0 note=65 velocity=87 time=35>\n",
      "<message note_on channel=0 note=64 velocity=89 time=30>\n",
      "<message note_on channel=0 note=65 velocity=0 time=4>\n",
      "<message note_on channel=0 note=65 velocity=98 time=26>\n",
      "<message note_on channel=0 note=64 velocity=0 time=7>\n",
      "<message note_on channel=0 note=67 velocity=102 time=23>\n",
      "<message note_on channel=0 note=65 velocity=0 time=8>\n",
      "<message note_on channel=0 note=70 velocity=98 time=22>\n",
      "<message note_on channel=0 note=67 velocity=0 time=3>\n",
      "<message note_on channel=0 note=69 velocity=100 time=27>\n",
      "<message note_on channel=0 note=70 velocity=0 time=5>\n",
      "<message note_on channel=0 note=67 velocity=102 time=25>\n",
      "<message note_on channel=0 note=69 velocity=0 time=4>\n",
      "<message note_on channel=0 note=72 velocity=95 time=26>\n",
      "<message note_on channel=0 note=67 velocity=0 time=5>\n",
      "<message note_on channel=0 note=72 velocity=0 time=12>\n",
      "<message note_on channel=0 note=70 velocity=107 time=13>\n",
      "<message note_on channel=0 note=70 velocity=0 time=12>\n",
      "<message note_on channel=0 note=69 velocity=105 time=18>\n",
      "<message note_on channel=0 note=69 velocity=0 time=15>\n",
      "<message note_on channel=0 note=67 velocity=102 time=15>\n",
      "<message note_on channel=0 note=67 velocity=0 time=15>\n",
      "<message note_on channel=0 note=69 velocity=100 time=15>\n",
      "<message note_on channel=0 note=69 velocity=0 time=139>\n",
      "<message note_on channel=0 note=62 velocity=91 time=5802>\n",
      "<message note_on channel=0 note=62 velocity=0 time=48>\n",
      "<message note_on channel=0 note=67 velocity=102 time=12>\n",
      "<message note_on channel=0 note=66 velocity=80 time=30>\n",
      "<message note_on channel=0 note=67 velocity=0 time=4>\n",
      "<message note_on channel=0 note=67 velocity=80 time=29>\n",
      "<message note_on channel=0 note=66 velocity=0 time=9>\n",
      "<message note_on channel=0 note=69 velocity=89 time=18>\n",
      "<message note_on channel=0 note=67 velocity=0 time=8>\n",
      "<message note_on channel=0 note=71 velocity=100 time=25>\n",
      "<message note_on channel=0 note=69 velocity=0 time=3>\n",
      "<message note_on channel=0 note=67 velocity=95 time=25>\n",
      "<message note_on channel=0 note=71 velocity=0 time=5>\n",
      "<message note_on channel=0 note=66 velocity=107 time=24>\n",
      "<message note_on channel=0 note=67 velocity=0 time=11>\n",
      "<message note_on channel=0 note=64 velocity=91 time=17>\n",
      "<message note_on channel=0 note=66 velocity=0 time=4>\n",
      "<message note_on channel=0 note=62 velocity=89 time=29>\n",
      "<message note_on channel=0 note=64 velocity=0 time=2>\n",
      "<message note_on channel=0 note=60 velocity=98 time=21>\n",
      "<message note_on channel=0 note=62 velocity=0 time=5>\n",
      "<message note_on channel=0 note=59 velocity=100 time=29>\n",
      "<message note_on channel=0 note=60 velocity=0 time=1>\n",
      "<message note_on channel=0 note=57 velocity=76 time=26>\n",
      "<message note_on channel=0 note=59 velocity=0 time=1>\n",
      "<message note_on channel=0 note=55 velocity=102 time=30>\n",
      "<message note_on channel=0 note=57 velocity=0 time=6>\n",
      "<message note_on channel=0 note=55 velocity=0 time=233>\n",
      "<message note_on channel=0 note=64 velocity=98 time=65>\n",
      "<message note_on channel=0 note=64 velocity=0 time=49>\n",
      "<message note_on channel=0 note=69 velocity=102 time=9>\n",
      "<message note_on channel=0 note=68 velocity=74 time=29>\n",
      "<message note_on channel=0 note=69 velocity=0 time=4>\n",
      "<message note_on channel=0 note=69 velocity=87 time=27>\n",
      "<message note_on channel=0 note=68 velocity=0 time=7>\n",
      "<message note_on channel=0 note=71 velocity=102 time=24>\n",
      "<message note_on channel=0 note=69 velocity=0 time=7>\n",
      "<message note_on channel=0 note=72 velocity=102 time=23>\n",
      "<message note_on channel=0 note=71 velocity=0 time=3>\n",
      "<message note_on channel=0 note=69 velocity=91 time=22>\n",
      "<message note_on channel=0 note=72 velocity=0 time=6>\n",
      "<message note_on channel=0 note=67 velocity=100 time=24>\n",
      "<message note_on channel=0 note=69 velocity=0 time=9>\n",
      "<message note_on channel=0 note=65 velocity=89 time=20>\n",
      "<message note_on channel=0 note=67 velocity=0 time=6>\n",
      "<message note_on channel=0 note=64 velocity=87 time=28>\n",
      "<message note_on channel=0 note=65 velocity=0 time=1>\n",
      "<message note_on channel=0 note=62 velocity=102 time=23>\n",
      "<message note_on channel=0 note=64 velocity=0 time=5>\n",
      "<message note_on channel=0 note=60 velocity=102 time=28>\n",
      "<message note_on channel=0 note=62 velocity=0 time=3>\n",
      "<message note_on channel=0 note=59 velocity=72 time=26>\n",
      "<message note_on channel=0 note=60 velocity=0 time=1>\n",
      "<message note_on channel=0 note=59 velocity=0 time=27>\n",
      "<message note_on channel=0 note=57 velocity=105 time=3>\n",
      "<message note_on channel=0 note=59 velocity=39 time=0>\n",
      "<message note_on channel=0 note=59 velocity=0 time=5>\n",
      "<message note_on channel=0 note=57 velocity=0 time=146>\n",
      "<message note_on channel=0 note=66 velocity=102 time=6>\n",
      "<message note_on channel=0 note=66 velocity=0 time=29>\n",
      "<message note_on channel=0 note=57 velocity=87 time=0>\n",
      "<message note_on channel=0 note=66 velocity=100 time=27>\n",
      "<message note_on channel=0 note=57 velocity=0 time=2>\n",
      "<message note_on channel=0 note=66 velocity=0 time=29>\n",
      "<message note_on channel=0 note=55 velocity=91 time=0>\n",
      "<message note_on channel=0 note=64 velocity=98 time=28>\n",
      "<message note_on channel=0 note=55 velocity=0 time=5>\n",
      "<message note_on channel=0 note=64 velocity=0 time=24>\n",
      "<message note_on channel=0 note=55 velocity=93 time=2>\n",
      "<message note_on channel=0 note=64 velocity=87 time=28>\n",
      "<message note_on channel=0 note=55 velocity=0 time=3>\n",
      "<message note_on channel=0 note=64 velocity=0 time=23>\n",
      "<message note_on channel=0 note=54 velocity=91 time=5>\n",
      "<message note_on channel=0 note=64 velocity=72 time=30>\n",
      "<message note_on channel=0 note=54 velocity=0 time=2>\n",
      "<message note_on channel=0 note=64 velocity=0 time=23>\n",
      "<message note_on channel=0 note=52 velocity=72 time=4>\n",
      "<message note_on channel=0 note=64 velocity=82 time=29>\n",
      "<message note_on channel=0 note=52 velocity=0 time=5>\n",
      "<message note_on channel=0 note=63 velocity=85 time=25>\n",
      "<message note_on channel=0 note=64 velocity=0 time=1>\n",
      "<message note_on channel=0 note=59 velocity=87 time=30>\n",
      "<message note_on channel=0 note=63 velocity=0 time=2>\n",
      "<message note_on channel=0 note=61 velocity=91 time=28>\n",
      "<message note_on channel=0 note=59 velocity=0 time=8>\n",
      "<message note_on channel=0 note=63 velocity=76 time=19>\n",
      "<message note_on channel=0 note=61 velocity=0 time=7>\n",
      "<message note_on channel=0 note=64 velocity=80 time=23>\n",
      "<message note_on channel=0 note=63 velocity=0 time=4>\n",
      "<message note_on channel=0 note=64 velocity=0 time=25>\n",
      "<message note_on channel=0 note=63 velocity=87 time=3>\n",
      "<message note_on channel=0 note=64 velocity=61 time=30>\n",
      "<message note_on channel=0 note=63 velocity=0 time=6>\n",
      "<message note_on channel=0 note=67 velocity=76 time=25>\n",
      "<message note_on channel=0 note=64 velocity=0 time=5>\n",
      "<message note_on channel=0 note=66 velocity=82 time=25>\n",
      "<message note_on channel=0 note=67 velocity=0 time=5>\n",
      "<message note_on channel=0 note=64 velocity=72 time=23>\n",
      "<message note_on channel=0 note=66 velocity=0 time=4>\n",
      "<message note_on channel=0 note=63 velocity=95 time=28>\n",
      "<message note_on channel=0 note=64 velocity=0 time=8>\n",
      "<message note_on channel=0 note=61 velocity=100 time=22>\n",
      "<message note_on channel=0 note=63 velocity=0 time=3>\n",
      "<message note_on channel=0 note=61 velocity=0 time=30>\n",
      "<message note_on channel=0 note=59 velocity=82 time=0>\n",
      "<message note_on channel=0 note=61 velocity=102 time=26>\n",
      "<message note_on channel=0 note=59 velocity=0 time=5>\n",
      "<message note_on channel=0 note=61 velocity=0 time=26>\n",
      "<message note_on channel=0 note=62 velocity=82 time=1>\n",
      "<message note_on channel=0 note=64 velocity=98 time=26>\n",
      "<message note_on channel=0 note=62 velocity=0 time=4>\n",
      "<message note_on channel=0 note=66 velocity=105 time=27>\n",
      "<message note_on channel=0 note=64 velocity=0 time=10>\n",
      "<message note_on channel=0 note=69 velocity=87 time=20>\n",
      "<message note_on channel=0 note=66 velocity=0 time=5>\n",
      "<message note_on channel=0 note=67 velocity=80 time=25>\n",
      "<message note_on channel=0 note=65 velocity=70 time=1>\n",
      "<message note_on channel=0 note=69 velocity=0 time=3>\n",
      "<message note_on channel=0 note=65 velocity=0 time=1>\n",
      "<message note_on channel=0 note=66 velocity=95 time=23>\n",
      "<message note_on channel=0 note=67 velocity=0 time=4>\n",
      "<message note_on channel=0 note=71 velocity=85 time=26>\n",
      "<message note_on channel=0 note=66 velocity=0 time=6>\n",
      "<message note_on channel=0 note=69 velocity=95 time=25>\n",
      "<message note_on channel=0 note=71 velocity=0 time=7>\n",
      "<message note_on channel=0 note=67 velocity=91 time=23>\n",
      "<message note_on channel=0 note=69 velocity=0 time=9>\n",
      "<message note_on channel=0 note=66 velocity=85 time=22>\n",
      "<message note_on channel=0 note=67 velocity=0 time=4>\n",
      "<message note_on channel=0 note=67 velocity=80 time=30>\n",
      "<message note_on channel=0 note=66 velocity=0 time=4>\n",
      "<message note_on channel=0 note=67 velocity=0 time=704>\n",
      "<message note_on channel=0 note=64 velocity=82 time=45>\n",
      "<message note_on channel=0 note=66 velocity=105 time=30>\n",
      "<message note_on channel=0 note=64 velocity=0 time=6>\n",
      "<message note_on channel=0 note=68 velocity=82 time=21>\n",
      "<message note_on channel=0 note=66 velocity=0 time=7>\n",
      "<message note_on channel=0 note=69 velocity=82 time=24>\n",
      "<message note_on channel=0 note=68 velocity=0 time=4>\n",
      "<message note_on channel=0 note=69 velocity=0 time=25>\n",
      "<message note_on channel=0 note=68 velocity=87 time=2>\n",
      "<message note_on channel=0 note=69 velocity=72 time=29>\n",
      "<message note_on channel=0 note=68 velocity=0 time=5>\n",
      "<message note_on channel=0 note=72 velocity=76 time=24>\n",
      "<message note_on channel=0 note=69 velocity=0 time=5>\n",
      "<message note_on channel=0 note=71 velocity=72 time=22>\n",
      "<message note_on channel=0 note=72 velocity=0 time=4>\n",
      "<message note_on channel=0 note=69 velocity=72 time=28>\n",
      "<message note_on channel=0 note=71 velocity=0 time=7>\n",
      "<message note_on channel=0 note=68 velocity=100 time=25>\n",
      "<message note_on channel=0 note=69 velocity=0 time=7>\n",
      "<message note_on channel=0 note=66 velocity=107 time=23>\n",
      "<message note_on channel=0 note=68 velocity=0 time=6>\n",
      "<message note_on channel=0 note=64 velocity=87 time=23>\n",
      "<message note_on channel=0 note=66 velocity=0 time=1>\n",
      "<message note_on channel=0 note=66 velocity=105 time=26>\n",
      "<message note_on channel=0 note=64 velocity=0 time=2>\n",
      "<message note_on channel=0 note=66 velocity=0 time=27>\n",
      "<message note_on channel=0 note=67 velocity=85 time=1>\n",
      "<message note_on channel=0 note=69 velocity=89 time=28>\n",
      "<message note_on channel=0 note=67 velocity=0 time=3>\n",
      "<message note_on channel=0 note=71 velocity=102 time=28>\n",
      "<message note_on channel=0 note=69 velocity=0 time=5>\n",
      "<message note_on channel=0 note=74 velocity=87 time=26>\n",
      "<message note_on channel=0 note=71 velocity=0 time=5>\n",
      "<message note_on channel=0 note=72 velocity=100 time=25>\n",
      "<message note_on channel=0 note=74 velocity=0 time=5>\n",
      "<message note_on channel=0 note=71 velocity=93 time=22>\n",
      "<message note_on channel=0 note=72 velocity=0 time=4>\n",
      "<message note_on channel=0 note=76 velocity=87 time=28>\n",
      "<message note_on channel=0 note=71 velocity=0 time=4>\n",
      "<message note_on channel=0 note=74 velocity=95 time=26>\n",
      "<message note_on channel=0 note=76 velocity=0 time=7>\n",
      "<message note_on channel=0 note=72 velocity=95 time=25>\n",
      "<message note_on channel=0 note=74 velocity=0 time=9>\n",
      "<message note_on channel=0 note=71 velocity=91 time=20>\n",
      "<message note_on channel=0 note=72 velocity=0 time=2>\n",
      "<message note_on channel=0 note=72 velocity=82 time=29>\n",
      "<message note_on channel=0 note=71 velocity=0 time=5>\n",
      "<message note_on channel=0 note=71 velocity=98 time=26>\n",
      "<message note_on channel=0 note=72 velocity=0 time=6>\n",
      "<message note_on channel=0 note=69 velocity=102 time=23>\n",
      "<message note_on channel=0 note=71 velocity=0 time=2>\n",
      "<message note_on channel=0 note=71 velocity=93 time=28>\n",
      "<message note_on channel=0 note=69 velocity=0 time=6>\n",
      "<message note_on channel=0 note=72 velocity=91 time=25>\n",
      "<message note_on channel=0 note=71 velocity=0 time=3>\n",
      "<message note_on channel=0 note=72 velocity=0 time=25>\n",
      "<message note_on channel=0 note=71 velocity=91 time=0>\n",
      "<message note_on channel=0 note=72 velocity=98 time=31>\n",
      "<message note_on channel=0 note=71 velocity=0 time=5>\n",
      "<message note_on channel=0 note=76 velocity=76 time=25>\n",
      "<message note_on channel=0 note=72 velocity=0 time=3>\n",
      "<message note_on channel=0 note=74 velocity=91 time=25>\n",
      "<message note_on channel=0 note=76 velocity=0 time=7>\n",
      "<message note_on channel=0 note=72 velocity=98 time=24>\n",
      "<message note_on channel=0 note=74 velocity=0 time=8>\n",
      "<message note_on channel=0 note=71 velocity=91 time=22>\n",
      "<message note_on channel=0 note=72 velocity=0 time=3>\n",
      "<message note_on channel=0 note=71 velocity=0 time=25>\n",
      "<message note_on channel=0 note=69 velocity=78 time=1>\n",
      "<message note_on channel=0 note=71 velocity=87 time=30>\n",
      "<message note_on channel=0 note=69 velocity=0 time=4>\n",
      "<message note_on channel=0 note=71 velocity=0 time=42>\n",
      "<message note_on channel=0 note=64 velocity=87 time=18>\n",
      "<message note_on channel=0 note=64 velocity=0 time=49>\n",
      "<message note_on channel=0 note=69 velocity=87 time=289>\n",
      "<message note_on channel=0 note=69 velocity=0 time=28>\n",
      "<message note_on channel=0 note=68 velocity=87 time=1>\n",
      "<message note_on channel=0 note=69 velocity=85 time=29>\n",
      "<message note_on channel=0 note=68 velocity=0 time=3>\n",
      "<message note_on channel=0 note=72 velocity=95 time=29>\n",
      "<message note_on channel=0 note=69 velocity=0 time=3>\n",
      "<message note_on channel=0 note=69 velocity=91 time=25>\n",
      "<message note_on channel=0 note=72 velocity=0 time=3>\n",
      "<message note_on channel=0 note=68 velocity=100 time=29>\n",
      "<message note_on channel=0 note=69 velocity=0 time=4>\n",
      "<message note_on channel=0 note=69 velocity=82 time=22>\n",
      "<message note_on channel=0 note=68 velocity=0 time=4>\n",
      "<message note_on channel=0 note=64 velocity=98 time=29>\n",
      "<message note_on channel=0 note=69 velocity=0 time=2>\n",
      "<message note_on channel=0 note=69 velocity=98 time=24>\n",
      "<message note_on channel=0 note=64 velocity=0 time=5>\n",
      "<message note_on channel=0 note=69 velocity=0 time=26>\n",
      "<message note_on channel=0 note=60 velocity=100 time=0>\n",
      "<message note_on channel=0 note=64 velocity=95 time=29>\n",
      "<message note_on channel=0 note=60 velocity=0 time=4>\n",
      "<message note_on channel=0 note=64 velocity=0 time=21>\n",
      "<message note_on channel=0 note=57 velocity=87 time=5>\n",
      "<message note_on channel=0 note=57 velocity=0 time=59>\n",
      "<message note_on channel=0 note=67 velocity=102 time=330>\n",
      "<message note_on channel=0 note=66 velocity=89 time=30>\n",
      "<message note_on channel=0 note=67 velocity=0 time=1>\n",
      "<message note_on channel=0 note=67 velocity=85 time=27>\n",
      "<message note_on channel=0 note=66 velocity=0 time=10>\n",
      "<message note_on channel=0 note=71 velocity=80 time=23>\n",
      "<message note_on channel=0 note=67 velocity=0 time=3>\n",
      "<message note_on channel=0 note=67 velocity=85 time=23>\n",
      "<message note_on channel=0 note=71 velocity=0 time=3>\n",
      "<message note_on channel=0 note=66 velocity=107 time=30>\n",
      "<message note_on channel=0 note=67 velocity=0 time=2>\n",
      "<message note_on channel=0 note=67 velocity=80 time=27>\n",
      "<message note_on channel=0 note=66 velocity=0 time=1>\n",
      "<message note_on channel=0 note=62 velocity=98 time=32>\n",
      "<message note_on channel=0 note=67 velocity=0 time=2>\n",
      "<message note_on channel=0 note=67 velocity=98 time=26>\n",
      "<message note_on channel=0 note=62 velocity=0 time=5>\n",
      "<message note_on channel=0 note=59 velocity=100 time=26>\n",
      "<message note_on channel=0 note=67 velocity=0 time=2>\n",
      "<message note_on channel=0 note=62 velocity=85 time=25>\n",
      "<message note_on channel=0 note=59 velocity=0 time=4>\n",
      "<message note_on channel=0 note=62 velocity=0 time=22>\n",
      "<message note_on channel=0 note=55 velocity=85 time=5>\n",
      "<message note_on channel=0 note=55 velocity=0 time=56>\n",
      "<message note_on channel=0 note=64 velocity=100 time=725>\n",
      "<message note_on channel=0 note=64 velocity=0 time=29>\n",
      "<message note_on channel=0 note=60 velocity=85 time=31>\n",
      "<message note_on channel=0 note=60 velocity=0 time=34>\n",
      "<message note_on channel=0 note=64 velocity=89 time=26>\n",
      "<message note_on channel=0 note=64 velocity=0 time=32>\n",
      "<message note_on channel=0 note=65 velocity=100 time=28>\n",
      "<message note_on channel=0 note=65 velocity=0 time=36>\n",
      "<message note_on channel=0 note=64 velocity=102 time=24>\n",
      "<message note_on channel=0 note=64 velocity=0 time=27>\n",
      "<message note_on channel=0 note=62 velocity=105 time=3>\n",
      "<message note_on channel=0 note=64 velocity=95 time=30>\n",
      "<message note_on channel=0 note=62 velocity=0 time=2>\n",
      "<message note_on channel=0 note=60 velocity=102 time=28>\n",
      "<message note_on channel=0 note=64 velocity=0 time=4>\n",
      "<message note_on channel=0 note=59 velocity=100 time=26>\n",
      "<message note_on channel=0 note=60 velocity=0 time=4>\n",
      "<message note_on channel=0 note=60 velocity=95 time=26>\n",
      "<message note_on channel=0 note=59 velocity=0 time=7>\n",
      "<message note_on channel=0 note=64 velocity=87 time=23>\n",
      "<message note_on channel=0 note=60 velocity=0 time=5>\n",
      "<message note_on channel=0 note=60 velocity=93 time=25>\n",
      "<message note_on channel=0 note=64 velocity=0 time=3>\n",
      "<message note_on channel=0 note=59 velocity=100 time=27>\n",
      "<message note_on channel=0 note=60 velocity=0 time=6>\n",
      "<message note_on channel=0 note=60 velocity=82 time=24>\n",
      "<message note_on channel=0 note=59 velocity=0 time=3>\n",
      "<message note_on channel=0 note=55 velocity=102 time=27>\n",
      "<message note_on channel=0 note=60 velocity=0 time=3>\n",
      "<message note_on channel=0 note=55 velocity=0 time=12>\n",
      "<message note_on channel=0 note=60 velocity=102 time=15>\n",
      "<message note_on channel=0 note=60 velocity=0 time=15>\n",
      "<message note_on channel=0 note=52 velocity=100 time=15>\n",
      "<message note_on channel=0 note=52 velocity=0 time=15>\n",
      "<message note_on channel=0 note=55 velocity=82 time=15>\n",
      "<message note_on channel=0 note=55 velocity=0 time=15>\n",
      "<message note_on channel=0 note=48 velocity=100 time=15>\n",
      "<message note_on channel=0 note=48 velocity=0 time=38>\n",
      "<message note_on channel=0 note=67 velocity=82 time=22>\n",
      "<message note_on channel=0 note=67 velocity=0 time=19>\n",
      "<message note_on channel=0 note=64 velocity=95 time=41>\n",
      "<message note_on channel=0 note=64 velocity=0 time=23>\n",
      "<message note_on channel=0 note=67 velocity=89 time=37>\n",
      "<message note_on channel=0 note=67 velocity=0 time=23>\n",
      "<message note_on channel=0 note=69 velocity=89 time=37>\n",
      "<message note_on channel=0 note=69 velocity=0 time=46>\n",
      "<message note_on channel=0 note=67 velocity=107 time=14>\n",
      "<message note_on channel=0 note=67 velocity=0 time=30>\n",
      "<message note_on channel=0 note=65 velocity=98 time=0>\n",
      "<message note_on channel=0 note=67 velocity=68 time=30>\n",
      "<message note_on channel=0 note=65 velocity=0 time=6>\n",
      "<message note_on channel=0 note=64 velocity=89 time=24>\n",
      "<message note_on channel=0 note=67 velocity=0 time=2>\n",
      "<message note_on channel=0 note=60 velocity=91 time=28>\n",
      "<message note_on channel=0 note=64 velocity=0 time=1>\n",
      "<message note_on channel=0 note=64 velocity=93 time=29>\n",
      "<message note_on channel=0 note=60 velocity=0 time=3>\n",
      "<message note_on channel=0 note=69 velocity=85 time=27>\n",
      "<message note_on channel=0 note=64 velocity=0 time=4>\n",
      "<message note_on channel=0 note=64 velocity=89 time=26>\n",
      "<message note_on channel=0 note=69 velocity=0 time=3>\n",
      "<message note_on channel=0 note=60 velocity=78 time=27>\n",
      "<message note_on channel=0 note=64 velocity=0 time=1>\n",
      "<message note_on channel=0 note=64 velocity=85 time=29>\n",
      "<message note_on channel=0 note=60 velocity=0 time=2>\n",
      "<message note_on channel=0 note=64 velocity=0 time=27>\n",
      "<message note_on channel=0 note=72 velocity=91 time=1>\n",
      "<message note_on channel=0 note=72 velocity=0 time=115>\n",
      "<message note_on channel=0 note=65 velocity=113 time=35>\n",
      "<message note_on channel=0 note=62 velocity=82 time=30>\n",
      "<message note_on channel=0 note=65 velocity=0 time=1>\n",
      "<message note_on channel=0 note=65 velocity=85 time=29>\n",
      "<message note_on channel=0 note=62 velocity=0 time=1>\n",
      "<message note_on channel=0 note=71 velocity=85 time=29>\n",
      "<message note_on channel=0 note=65 velocity=0 time=4>\n",
      "<message note_on channel=0 note=65 velocity=91 time=26>\n",
      "<message note_on channel=0 note=71 velocity=0 time=3>\n",
      "<message note_on channel=0 note=65 velocity=0 time=26>\n",
      "<message note_on channel=0 note=62 velocity=87 time=1>\n",
      "<message note_on channel=0 note=62 velocity=0 time=19>\n",
      "<message note_on channel=0 note=65 velocity=91 time=11>\n",
      "<message note_on channel=0 note=65 velocity=0 time=13>\n",
      "<message note_on channel=0 note=74 velocity=102 time=17>\n",
      "<message note_on channel=0 note=74 velocity=0 time=135>\n",
      "<message note_on channel=0 note=67 velocity=89 time=15>\n",
      "<message note_on channel=0 note=64 velocity=87 time=30>\n",
      "<message note_on channel=0 note=67 velocity=0 time=3>\n",
      "<message note_on channel=0 note=67 velocity=87 time=27>\n",
      "<message note_on channel=0 note=64 velocity=0 time=5>\n",
      "<message note_on channel=0 note=72 velocity=91 time=25>\n",
      "<message note_on channel=0 note=67 velocity=0 time=10>\n",
      "<message note_on channel=0 note=67 velocity=85 time=20>\n",
      "<message note_on channel=0 note=72 velocity=0 time=4>\n",
      "<message note_on channel=0 note=67 velocity=0 time=24>\n",
      "<message note_on channel=0 note=64 velocity=87 time=2>\n",
      "<message note_on channel=0 note=64 velocity=0 time=16>\n",
      "<message note_on channel=0 note=67 velocity=89 time=14>\n",
      "<message note_on channel=0 note=67 velocity=0 time=13>\n",
      "<message note_on channel=0 note=76 velocity=105 time=17>\n",
      "<message note_on channel=0 note=76 velocity=0 time=140>\n",
      "<message note_on channel=0 note=74 velocity=107 time=40>\n",
      "<message note_on channel=0 note=74 velocity=0 time=29>\n",
      "<message note_on channel=0 note=72 velocity=100 time=1>\n",
      "<message note_on channel=0 note=72 velocity=0 time=26>\n",
      "<message note_on channel=0 note=74 velocity=98 time=4>\n",
      "<message note_on channel=0 note=74 velocity=0 time=26>\n",
      "<message note_on channel=0 note=69 velocity=85 time=34>\n",
      "<message note_on channel=0 note=69 velocity=0 time=22>\n",
      "<message note_on channel=0 note=77 velocity=95 time=38>\n",
      "<message note_on channel=0 note=77 velocity=0 time=131>\n",
      "<message note_on channel=0 note=74 velocity=87 time=49>\n",
      "<message note_on channel=0 note=74 velocity=0 time=32>\n",
      "<message note_on channel=0 note=71 velocity=89 time=28>\n",
      "<message note_on channel=0 note=71 velocity=0 time=30>\n",
      "<message note_on channel=0 note=74 velocity=87 time=30>\n",
      "<message note_on channel=0 note=74 velocity=0 time=31>\n",
      "<message note_on channel=0 note=67 velocity=91 time=29>\n",
      "<message note_on channel=0 note=67 velocity=0 time=30>\n",
      "<message note_on channel=0 note=71 velocity=98 time=30>\n",
      "<message note_on channel=0 note=71 velocity=0 time=26>\n",
      "<message note_on channel=0 note=72 velocity=89 time=34>\n",
      "<message note_on channel=0 note=74 velocity=100 time=30>\n",
      "<message note_on channel=0 note=72 velocity=0 time=2>\n",
      "<message note_on channel=0 note=75 velocity=105 time=28>\n",
      "<message note_on channel=0 note=74 velocity=0 time=8>\n",
      "<message note_on channel=0 note=77 velocity=80 time=22>\n",
      "<message note_on channel=0 note=75 velocity=0 time=4>\n",
      "<message note_on channel=0 note=75 velocity=100 time=26>\n",
      "<message note_on channel=0 note=77 velocity=0 time=13>\n",
      "<message note_on channel=0 note=74 velocity=91 time=17>\n",
      "<message note_on channel=0 note=75 velocity=0 time=5>\n",
      "<message note_on channel=0 note=72 velocity=63 time=25>\n",
      "<message note_on channel=0 note=74 velocity=0 time=1>\n",
      "<message note_on channel=0 note=70 velocity=95 time=29>\n",
      "<message note_on channel=0 note=72 velocity=0 time=4>\n",
      "<message note_on channel=0 note=69 velocity=85 time=26>\n",
      "<message note_on channel=0 note=70 velocity=0 time=3>\n",
      "<message note_on channel=0 note=67 velocity=70 time=27>\n",
      "<message note_on channel=0 note=69 velocity=0 time=3>\n",
      "<message note_on channel=0 note=66 velocity=100 time=27>\n",
      "<message note_on channel=0 note=67 velocity=0 time=8>\n",
      "<message note_on channel=0 note=66 velocity=0 time=22>\n",
      "<message note_on channel=0 note=64 velocity=98 time=0>\n",
      "<message note_on channel=0 note=66 velocity=107 time=30>\n",
      "<message note_on channel=0 note=64 velocity=0 time=12>\n",
      "<message note_on channel=0 note=66 velocity=0 time=10>\n",
      "<message note_on channel=0 note=60 velocity=82 time=38>\n",
      "<message note_on channel=0 note=60 velocity=0 time=33>\n",
      "<message note_on channel=0 note=69 velocity=89 time=27>\n",
      "<message note_on channel=0 note=69 velocity=0 time=25>\n",
      "<message note_on channel=0 note=66 velocity=82 time=35>\n",
      "<message note_on channel=0 note=66 velocity=0 time=29>\n",
      "<message note_on channel=0 note=72 velocity=93 time=31>\n",
      "<message note_on channel=0 note=72 velocity=0 time=123>\n",
      "<message note_on channel=0 note=71 velocity=105 time=27>\n",
      "<message note_on channel=0 note=69 velocity=102 time=30>\n",
      "<message note_on channel=0 note=71 velocity=0 time=3>\n",
      "<message note_on channel=0 note=71 velocity=91 time=27>\n",
      "<message note_on channel=0 note=69 velocity=0 time=4>\n",
      "<message note_on channel=0 note=67 velocity=87 time=26>\n",
      "<message note_on channel=0 note=71 velocity=0 time=1>\n",
      "<message note_on channel=0 note=76 velocity=85 time=29>\n",
      "<message note_on channel=0 note=67 velocity=0 time=2>\n",
      "<message note_on channel=0 note=74 velocity=87 time=28>\n",
      "<message note_on channel=0 note=76 velocity=0 time=2>\n",
      "<message note_on channel=0 note=72 velocity=105 time=28>\n",
      "<message note_on channel=0 note=74 velocity=0 time=8>\n",
      "<message note_on channel=0 note=71 velocity=100 time=22>\n",
      "<message note_on channel=0 note=72 velocity=0 time=7>\n",
      "<message note_on channel=0 note=69 velocity=76 time=23>\n",
      "<message note_on channel=0 note=71 velocity=0 time=3>\n",
      "<message note_on channel=0 note=69 velocity=0 time=20>\n",
      "<message note_on channel=0 note=67 velocity=91 time=7>\n",
      "<message note_on channel=0 note=66 velocity=105 time=30>\n",
      "<message note_on channel=0 note=67 velocity=0 time=9>\n",
      "<message note_on channel=0 note=64 velocity=102 time=21>\n",
      "<message note_on channel=0 note=66 velocity=0 time=3>\n",
      "<message note_on channel=0 note=66 velocity=98 time=27>\n",
      "<message note_on channel=0 note=64 velocity=0 time=5>\n",
      "<message note_on channel=0 note=62 velocity=89 time=25>\n",
      "<message note_on channel=0 note=66 velocity=0 time=12>\n",
      "<message note_on channel=0 note=64 velocity=89 time=18>\n",
      "<message note_on channel=0 note=62 velocity=0 time=1>\n",
      "<message note_on channel=0 note=60 velocity=72 time=29>\n",
      "<message note_on channel=0 note=64 velocity=0 time=1>\n",
      "<message note_on channel=0 note=60 velocity=0 time=24>\n",
      "<message note_on channel=0 note=74 velocity=85 time=5>\n",
      "<message note_on channel=0 note=72 velocity=98 time=30>\n",
      "<message note_on channel=0 note=74 velocity=0 time=5>\n",
      "<message note_on channel=0 note=71 velocity=95 time=25>\n",
      "<message note_on channel=0 note=72 velocity=0 time=7>\n",
      "<message note_on channel=0 note=69 velocity=95 time=23>\n",
      "<message note_on channel=0 note=71 velocity=0 time=5>\n",
      "<message note_on channel=0 note=69 velocity=0 time=25>\n",
      "<message note_on channel=0 note=67 velocity=70 time=0>\n",
      "<message note_on channel=0 note=66 velocity=89 time=30>\n",
      "<message note_on channel=0 note=67 velocity=0 time=5>\n",
      "<message note_on channel=0 note=64 velocity=91 time=25>\n",
      "<message note_on channel=0 note=66 velocity=0 time=3>\n",
      "<message note_on channel=0 note=62 velocity=72 time=27>\n",
      "<message note_on channel=0 note=64 velocity=0 time=4>\n",
      "<message note_on channel=0 note=64 velocity=87 time=26>\n",
      "<message note_on channel=0 note=62 velocity=0 time=3>\n",
      "<message note_on channel=0 note=60 velocity=82 time=27>\n",
      "<message note_on channel=0 note=64 velocity=0 time=8>\n",
      "<message note_on channel=0 note=62 velocity=89 time=22>\n",
      "<message note_on channel=0 note=60 velocity=0 time=2>\n",
      "<message note_on channel=0 note=62 velocity=0 time=28>\n",
      "<message note_on channel=0 note=59 velocity=74 time=0>\n",
      "<message note_on channel=0 note=57 velocity=64 time=0>\n",
      "<message note_on channel=0 note=57 velocity=0 time=15>\n",
      "<message note_on channel=0 note=59 velocity=0 time=12>\n",
      "<message note_on channel=0 note=72 velocity=82 time=3>\n",
      "<message note_on channel=0 note=71 velocity=89 time=30>\n",
      "<message note_on channel=0 note=72 velocity=0 time=5>\n",
      "<message note_on channel=0 note=69 velocity=89 time=25>\n",
      "<message note_on channel=0 note=71 velocity=0 time=9>\n",
      "<message note_on channel=0 note=69 velocity=0 time=20>\n",
      "<message note_on channel=0 note=67 velocity=74 time=1>\n",
      "<message note_on channel=0 note=66 velocity=100 time=30>\n",
      "<message note_on channel=0 note=67 velocity=0 time=6>\n",
      "<message note_on channel=0 note=64 velocity=87 time=24>\n",
      "<message note_on channel=0 note=66 velocity=0 time=3>\n",
      "<message note_on channel=0 note=62 velocity=82 time=27>\n",
      "<message note_on channel=0 note=64 velocity=0 time=3>\n",
      "<message note_on channel=0 note=62 velocity=0 time=25>\n",
      "<message note_on channel=0 note=60 velocity=102 time=2>\n",
      "<message note_on channel=0 note=60 velocity=0 time=41>\n",
      "<message note_on channel=0 note=64 velocity=93 time=19>\n",
      "<message note_on channel=0 note=64 velocity=0 time=114>\n",
      "<message note_on channel=0 note=69 velocity=102 time=6>\n",
      "<message note_on channel=0 note=69 velocity=0 time=115>\n",
      "<message note_on channel=0 note=72 velocity=100 time=5>\n",
      "<message note_on channel=0 note=67 velocity=105 time=86>\n"
     ]
    },
    {
     "name": "stdout",
     "output_type": "stream",
     "text": [
      "<message note_on channel=0 note=72 velocity=0 time=5>\n",
      "<message note_on channel=0 note=69 velocity=100 time=25>\n",
      "<message note_on channel=0 note=67 velocity=0 time=5>\n",
      "<message note_on channel=0 note=66 velocity=105 time=21>\n",
      "<message note_on channel=0 note=69 velocity=0 time=5>\n",
      "<message note_on channel=0 note=67 velocity=89 time=28>\n",
      "<message note_on channel=0 note=66 velocity=0 time=2>\n",
      "<message note_on channel=0 note=67 velocity=0 time=26>\n",
      "<message note_on channel=0 note=69 velocity=85 time=37>\n",
      "<message note_on channel=0 note=69 velocity=0 time=26>\n",
      "<message note_on channel=0 note=62 velocity=98 time=31>\n",
      "<message note_on channel=0 note=62 velocity=0 time=24>\n",
      "<message note_on channel=0 note=66 velocity=102 time=40>\n",
      "<message note_on channel=0 note=66 velocity=0 time=45>\n",
      "<message note_on channel=0 note=67 velocity=102 time=3494>\n",
      "<message note_on channel=0 note=65 velocity=102 time=150>\n",
      "<message note_on channel=0 note=67 velocity=0 time=3>\n",
      "<message note_on channel=0 note=64 velocity=105 time=27>\n",
      "<message note_on channel=0 note=65 velocity=0 time=6>\n",
      "<message note_on channel=0 note=64 velocity=0 time=24>\n",
      "<message note_on channel=0 note=62 velocity=89 time=0>\n",
      "<message note_on channel=0 note=61 velocity=107 time=30>\n",
      "<message note_on channel=0 note=62 velocity=0 time=4>\n",
      "<message note_on channel=0 note=61 velocity=0 time=26>\n",
      "<message note_on channel=0 note=64 velocity=82 time=0>\n",
      "<message note_on channel=0 note=58 velocity=105 time=30>\n",
      "<message note_on channel=0 note=64 velocity=0 time=4>\n",
      "<message note_on channel=0 note=57 velocity=89 time=26>\n",
      "<message note_on channel=0 note=58 velocity=0 time=3>\n",
      "<message note_on channel=0 note=58 velocity=105 time=27>\n",
      "<message note_on channel=0 note=57 velocity=0 time=4>\n",
      "<message note_on channel=0 note=58 velocity=0 time=24>\n",
      "<message note_on channel=0 note=55 velocity=93 time=2>\n",
      "<message note_on channel=0 note=62 velocity=93 time=30>\n",
      "<message note_on channel=0 note=55 velocity=0 time=1>\n",
      "<message note_on channel=0 note=61 velocity=87 time=29>\n",
      "<message note_on channel=0 note=62 velocity=0 time=3>\n",
      "<message note_on channel=0 note=62 velocity=82 time=27>\n",
      "<message note_on channel=0 note=61 velocity=0 time=1>\n",
      "<message note_on channel=0 note=71 velocity=113 time=149>\n",
      "<message note_on channel=0 note=62 velocity=0 time=4>\n",
      "<message note_on channel=0 note=69 velocity=107 time=26>\n",
      "<message note_on channel=0 note=71 velocity=0 time=3>\n",
      "<message note_on channel=0 note=67 velocity=105 time=27>\n",
      "<message note_on channel=0 note=69 velocity=0 time=4>\n",
      "<message note_on channel=0 note=74 velocity=105 time=26>\n",
      "<message note_on channel=0 note=67 velocity=0 time=1>\n",
      "<message note_on channel=0 note=74 velocity=0 time=130>\n",
      "<message note_on channel=0 note=71 velocity=107 time=19>\n",
      "<message note_on channel=0 note=76 velocity=87 time=30>\n",
      "<message note_on channel=0 note=71 velocity=0 time=3>\n",
      "<message note_on channel=0 note=74 velocity=100 time=27>\n",
      "<message note_on channel=0 note=76 velocity=0 time=6>\n",
      "<message note_on channel=0 note=72 velocity=107 time=24>\n",
      "<message note_on channel=0 note=74 velocity=0 time=8>\n",
      "<message note_on channel=0 note=71 velocity=98 time=22>\n",
      "<message note_on channel=0 note=72 velocity=0 time=3>\n",
      "<message note_on channel=0 note=69 velocity=80 time=27>\n",
      "<message note_on channel=0 note=71 velocity=0 time=1>\n",
      "<message note_on channel=0 note=67 velocity=102 time=29>\n",
      "<message note_on channel=0 note=69 velocity=0 time=1>\n",
      "<message note_on channel=0 note=66 velocity=107 time=29>\n",
      "<message note_on channel=0 note=67 velocity=0 time=8>\n",
      "<message note_on channel=0 note=66 velocity=0 time=38>\n",
      "<message note_on channel=0 note=72 velocity=107 time=14>\n",
      "<message note_on channel=0 note=71 velocity=105 time=90>\n",
      "<message note_on channel=0 note=72 velocity=0 time=1>\n",
      "<message note_on channel=0 note=69 velocity=100 time=29>\n",
      "<message note_on channel=0 note=71 velocity=0 time=2>\n",
      "<message note_on channel=0 note=67 velocity=80 time=28>\n",
      "<message note_on channel=0 note=69 velocity=0 time=4>\n",
      "<message note_on channel=0 note=76 velocity=102 time=26>\n",
      "<message note_on channel=0 note=67 velocity=0 time=3>\n",
      "<message note_on channel=0 note=76 velocity=0 time=117>\n",
      "<message note_on channel=0 note=77 velocity=100 time=30>\n",
      "<message note_on channel=0 note=76 velocity=87 time=30>\n",
      "<message note_on channel=0 note=77 velocity=0 time=9>\n",
      "<message note_on channel=0 note=74 velocity=98 time=21>\n",
      "<message note_on channel=0 note=76 velocity=0 time=6>\n",
      "<message note_on channel=0 note=72 velocity=85 time=24>\n",
      "<message note_on channel=0 note=74 velocity=0 time=6>\n",
      "<message note_on channel=0 note=71 velocity=100 time=174>\n",
      "<message note_on channel=0 note=72 velocity=0 time=7>\n",
      "<message note_on channel=0 note=69 velocity=98 time=23>\n",
      "<message note_on channel=0 note=71 velocity=0 time=8>\n",
      "<message note_on channel=0 note=67 velocity=98 time=22>\n",
      "<message note_on channel=0 note=69 velocity=0 time=5>\n",
      "<message note_on channel=0 note=67 velocity=0 time=24>\n",
      "<message note_on channel=0 note=65 velocity=68 time=1>\n",
      "<message note_on channel=0 note=64 velocity=102 time=30>\n",
      "<message note_on channel=0 note=65 velocity=0 time=4>\n",
      "<message note_on channel=0 note=62 velocity=100 time=26>\n",
      "<message note_on channel=0 note=64 velocity=0 time=7>\n",
      "<message note_on channel=0 note=60 velocity=100 time=23>\n",
      "<message note_on channel=0 note=62 velocity=0 time=2>\n",
      "<message note_on channel=0 note=60 velocity=0 time=29>\n",
      "<message note_on channel=0 note=67 velocity=95 time=29>\n",
      "<message note_on channel=0 note=67 velocity=0 time=22>\n",
      "<message note_on channel=0 note=64 velocity=87 time=38>\n",
      "<message note_on channel=0 note=64 velocity=0 time=28>\n",
      "<message note_on channel=0 note=67 velocity=93 time=32>\n",
      "<message note_on channel=0 note=67 velocity=0 time=34>\n",
      "<message note_on channel=0 note=69 velocity=102 time=26>\n",
      "<message note_on channel=0 note=69 velocity=0 time=111>\n",
      "<message note_on channel=0 note=65 velocity=113 time=39>\n",
      "<message note_on channel=0 note=64 velocity=85 time=30>\n",
      "<message note_on channel=0 note=65 velocity=0 time=3>\n",
      "<message note_on channel=0 note=65 velocity=102 time=27>\n",
      "<message note_on channel=0 note=64 velocity=0 time=9>\n",
      "<message note_on channel=0 note=69 velocity=85 time=21>\n",
      "<message note_on channel=0 note=65 velocity=0 time=4>\n",
      "<message note_on channel=0 note=65 velocity=95 time=26>\n",
      "<message note_on channel=0 note=69 velocity=0 time=5>\n",
      "<message note_on channel=0 note=64 velocity=105 time=25>\n",
      "<message note_on channel=0 note=65 velocity=0 time=8>\n",
      "<message note_on channel=0 note=65 velocity=98 time=22>\n",
      "<message note_on channel=0 note=64 velocity=0 time=4>\n",
      "<message note_on channel=0 note=62 velocity=100 time=26>\n",
      "<message note_on channel=0 note=65 velocity=0 time=7>\n",
      "<message note_on channel=0 note=65 velocity=100 time=23>\n",
      "<message note_on channel=0 note=62 velocity=0 time=5>\n",
      "<message note_on channel=0 note=58 velocity=89 time=25>\n",
      "<message note_on channel=0 note=65 velocity=0 time=2>\n",
      "<message note_on channel=0 note=62 velocity=85 time=28>\n",
      "<message note_on channel=0 note=58 velocity=0 time=3>\n",
      "<message note_on channel=0 note=55 velocity=93 time=27>\n",
      "<message note_on channel=0 note=62 velocity=0 time=2>\n",
      "<message note_on channel=0 note=55 velocity=0 time=25>\n",
      "<message note_on channel=0 note=70 velocity=102 time=33>\n",
      "<message note_on channel=0 note=70 velocity=0 time=31>\n",
      "<message note_on channel=0 note=67 velocity=89 time=29>\n",
      "<message note_on channel=0 note=67 velocity=0 time=27>\n",
      "<message note_on channel=0 note=70 velocity=93 time=33>\n",
      "<message note_on channel=0 note=70 velocity=0 time=27>\n",
      "<message note_on channel=0 note=72 velocity=105 time=33>\n",
      "<message note_on channel=0 note=72 velocity=0 time=127>\n",
      "<message note_on channel=0 note=65 velocity=102 time=53>\n",
      "<message note_on channel=0 note=65 velocity=0 time=40>\n",
      "<message note_on channel=0 note=69 velocity=89 time=20>\n",
      "<message note_on channel=0 note=69 velocity=0 time=30>\n",
      "<message note_on channel=0 note=72 velocity=93 time=30>\n",
      "<message note_on channel=0 note=72 velocity=0 time=32>\n",
      "<message note_on channel=0 note=75 velocity=100 time=28>\n",
      "<message note_on channel=0 note=75 velocity=0 time=57>\n",
      "<message note_on channel=0 note=74 velocity=87 time=3>\n",
      "<message note_on channel=0 note=72 velocity=102 time=30>\n",
      "<message note_on channel=0 note=74 velocity=0 time=2>\n",
      "<message note_on channel=0 note=74 velocity=105 time=28>\n",
      "<message note_on channel=0 note=72 velocity=0 time=8>\n",
      "<message note_on channel=0 note=74 velocity=0 time=22>\n",
      "<message note_on channel=0 note=70 velocity=95 time=30>\n",
      "<message note_on channel=0 note=70 velocity=0 time=31>\n",
      "<message note_on channel=0 note=65 velocity=89 time=29>\n",
      "<message note_on channel=0 note=65 velocity=0 time=32>\n",
      "<message note_on channel=0 note=70 velocity=98 time=28>\n",
      "<message note_on channel=0 note=70 velocity=0 time=27>\n",
      "<message note_on channel=0 note=74 velocity=91 time=33>\n",
      "<message note_on channel=0 note=72 velocity=98 time=60>\n",
      "<message note_on channel=0 note=74 velocity=0 time=2>\n",
      "<message note_on channel=0 note=70 velocity=110 time=28>\n",
      "<message note_on channel=0 note=72 velocity=0 time=2>\n",
      "<message note_on channel=0 note=70 velocity=0 time=24>\n",
      "<message note_on channel=0 note=72 velocity=100 time=4>\n",
      "<message note_on channel=0 note=72 velocity=0 time=31>\n",
      "<message note_on channel=0 note=69 velocity=95 time=29>\n",
      "<message note_on channel=0 note=69 velocity=0 time=28>\n",
      "<message note_on channel=0 note=65 velocity=89 time=32>\n",
      "<message note_on channel=0 note=65 velocity=0 time=31>\n",
      "<message note_on channel=0 note=69 velocity=89 time=29>\n",
      "<message note_on channel=0 note=69 velocity=0 time=32>\n",
      "<message note_on channel=0 note=72 velocity=105 time=28>\n",
      "<message note_on channel=0 note=70 velocity=107 time=60>\n",
      "<message note_on channel=0 note=72 velocity=0 time=7>\n",
      "<message note_on channel=0 note=69 velocity=100 time=23>\n",
      "<message note_on channel=0 note=70 velocity=0 time=2>\n",
      "<message note_on channel=0 note=70 velocity=98 time=28>\n",
      "<message note_on channel=0 note=69 velocity=0 time=5>\n",
      "<message note_on channel=0 note=70 velocity=0 time=30>\n",
      "<message note_on channel=0 note=67 velocity=95 time=25>\n",
      "<message note_on channel=0 note=67 velocity=0 time=28>\n",
      "<message note_on channel=0 note=64 velocity=87 time=32>\n",
      "<message note_on channel=0 note=64 velocity=0 time=32>\n",
      "<message note_on channel=0 note=67 velocity=91 time=28>\n",
      "<message note_on channel=0 note=67 velocity=0 time=25>\n",
      "<message note_on channel=0 note=70 velocity=98 time=35>\n",
      "<message note_on channel=0 note=70 velocity=0 time=52>\n",
      "<message note_on channel=0 note=69 velocity=89 time=8>\n",
      "<message note_on channel=0 note=67 velocity=102 time=30>\n",
      "<message note_on channel=0 note=69 velocity=0 time=1>\n",
      "<message note_on channel=0 note=69 velocity=100 time=29>\n",
      "<message note_on channel=0 note=67 velocity=0 time=8>\n",
      "<message note_on channel=0 note=65 velocity=85 time=22>\n",
      "<message note_on channel=0 note=69 velocity=0 time=3>\n",
      "<message note_on channel=0 note=64 velocity=82 time=27>\n",
      "<message note_on channel=0 note=65 velocity=0 time=1>\n",
      "<message note_on channel=0 note=65 velocity=100 time=29>\n",
      "<message note_on channel=0 note=64 velocity=0 time=4>\n",
      "<message note_on channel=0 note=69 velocity=89 time=26>\n",
      "<message note_on channel=0 note=65 velocity=0 time=4>\n",
      "<message note_on channel=0 note=65 velocity=100 time=26>\n",
      "<message note_on channel=0 note=69 velocity=0 time=4>\n",
      "<message note_on channel=0 note=64 velocity=98 time=26>\n",
      "<message note_on channel=0 note=65 velocity=0 time=7>\n",
      "<message note_on channel=0 note=65 velocity=93 time=23>\n",
      "<message note_on channel=0 note=64 velocity=0 time=2>\n",
      "<message note_on channel=0 note=62 velocity=105 time=28>\n",
      "<message note_on channel=0 note=65 velocity=0 time=7>\n",
      "<message note_on channel=0 note=65 velocity=87 time=23>\n",
      "<message note_on channel=0 note=62 velocity=0 time=1>\n",
      "<message note_on channel=0 note=59 velocity=102 time=29>\n",
      "<message note_on channel=0 note=65 velocity=0 time=7>\n",
      "<message note_on channel=0 note=62 velocity=91 time=23>\n",
      "<message note_on channel=0 note=59 velocity=0 time=4>\n",
      "<message note_on channel=0 note=55 velocity=85 time=26>\n",
      "<message note_on channel=0 note=62 velocity=0 time=1>\n",
      "<message note_on channel=0 note=64 velocity=87 time=29>\n",
      "<message note_on channel=0 note=55 velocity=0 time=2>\n",
      "<message note_on channel=0 note=62 velocity=102 time=28>\n",
      "<message note_on channel=0 note=64 velocity=0 time=6>\n",
      "<message note_on channel=0 note=64 velocity=95 time=24>\n",
      "<message note_on channel=0 note=62 velocity=0 time=4>\n",
      "<message note_on channel=0 note=67 velocity=98 time=26>\n",
      "<message note_on channel=0 note=64 velocity=0 time=3>\n",
      "<message note_on channel=0 note=64 velocity=98 time=27>\n",
      "<message note_on channel=0 note=67 velocity=0 time=3>\n",
      "<message note_on channel=0 note=62 velocity=105 time=27>\n",
      "<message note_on channel=0 note=64 velocity=0 time=4>\n",
      "<message note_on channel=0 note=64 velocity=91 time=26>\n",
      "<message note_on channel=0 note=62 velocity=0 time=2>\n",
      "<message note_on channel=0 note=60 velocity=105 time=28>\n",
      "<message note_on channel=0 note=64 velocity=0 time=7>\n",
      "<message note_on channel=0 note=60 velocity=0 time=22>\n",
      "<message note_on channel=0 note=64 velocity=85 time=1>\n",
      "<message note_on channel=0 note=57 velocity=102 time=30>\n",
      "<message note_on channel=0 note=64 velocity=0 time=5>\n",
      "<message note_on channel=0 note=60 velocity=91 time=25>\n",
      "<message note_on channel=0 note=57 velocity=0 time=5>\n",
      "<message note_on channel=0 note=60 velocity=0 time=23>\n",
      "<message note_on channel=0 note=53 velocity=85 time=2>\n",
      "<message note_on channel=0 note=62 velocity=87 time=30>\n",
      "<message note_on channel=0 note=53 velocity=0 time=5>\n",
      "<message note_on channel=0 note=59 velocity=87 time=25>\n",
      "<message note_on channel=0 note=62 velocity=0 time=5>\n",
      "<message note_on channel=0 note=59 velocity=0 time=25>\n",
      "<message note_on channel=0 note=62 velocity=91 time=0>\n",
      "<message note_on channel=0 note=65 velocity=91 time=30>\n",
      "<message note_on channel=0 note=62 velocity=0 time=6>\n",
      "<message note_on channel=0 note=62 velocity=105 time=24>\n",
      "<message note_on channel=0 note=65 velocity=0 time=7>\n",
      "<message note_on channel=0 note=60 velocity=105 time=23>\n",
      "<message note_on channel=0 note=62 velocity=0 time=7>\n",
      "<message note_on channel=0 note=62 velocity=102 time=23>\n",
      "<message note_on channel=0 note=60 velocity=0 time=3>\n",
      "<message note_on channel=0 note=59 velocity=110 time=27>\n",
      "<message note_on channel=0 note=62 velocity=0 time=9>\n",
      "<message note_on channel=0 note=62 velocity=102 time=21>\n",
      "<message note_on channel=0 note=59 velocity=0 time=2>\n",
      "<message note_on channel=0 note=55 velocity=102 time=28>\n",
      "<message note_on channel=0 note=62 velocity=0 time=7>\n",
      "<message note_on channel=0 note=59 velocity=89 time=23>\n",
      "<message note_on channel=0 note=55 velocity=0 time=3>\n",
      "<message note_on channel=0 note=59 velocity=0 time=24>\n",
      "<message note_on channel=0 note=52 velocity=78 time=3>\n",
      "<message note_on channel=0 note=52 velocity=0 time=21>\n",
      "<message note_on channel=0 note=64 velocity=89 time=9>\n",
      "<message note_on channel=0 note=62 velocity=100 time=30>\n",
      "<message note_on channel=0 note=64 velocity=0 time=4>\n",
      "<message note_on channel=0 note=64 velocity=100 time=26>\n",
      "<message note_on channel=0 note=62 velocity=0 time=6>\n",
      "<message note_on channel=0 note=67 velocity=85 time=24>\n",
      "<message note_on channel=0 note=64 velocity=0 time=1>\n",
      "<message note_on channel=0 note=64 velocity=95 time=29>\n",
      "<message note_on channel=0 note=67 velocity=0 time=7>\n",
      "<message note_on channel=0 note=62 velocity=105 time=23>\n",
      "<message note_on channel=0 note=64 velocity=0 time=4>\n",
      "<message note_on channel=0 note=64 velocity=89 time=26>\n",
      "<message note_on channel=0 note=62 velocity=0 time=9>\n",
      "<message note_on channel=0 note=64 velocity=0 time=17>\n",
      "<message note_on channel=0 note=60 velocity=102 time=4>\n",
      "<message note_on channel=0 note=60 velocity=0 time=15>\n",
      "<message note_on channel=0 note=64 velocity=113 time=15>\n",
      "<message note_on channel=0 note=64 velocity=0 time=10>\n",
      "<message note_on channel=0 note=67 velocity=110 time=20>\n",
      "<message note_on channel=0 note=67 velocity=0 time=83>\n",
      "<message note_on channel=0 note=65 velocity=102 time=7>\n",
      "<message note_on channel=0 note=64 velocity=100 time=30>\n",
      "<message note_on channel=0 note=65 velocity=0 time=6>\n",
      "<message note_on channel=0 note=65 velocity=100 time=24>\n",
      "<message note_on channel=0 note=64 velocity=0 time=3>\n",
      "<message note_on channel=0 note=67 velocity=89 time=27>\n",
      "<message note_on channel=0 note=65 velocity=0 time=9>\n",
      "<message note_on channel=0 note=65 velocity=100 time=21>\n",
      "<message note_on channel=0 note=67 velocity=0 time=9>\n",
      "<message note_on channel=0 note=64 velocity=105 time=21>\n",
      "<message note_on channel=0 note=65 velocity=0 time=7>\n",
      "<message note_on channel=0 note=65 velocity=93 time=23>\n",
      "<message note_on channel=0 note=64 velocity=0 time=4>\n",
      "<message note_on channel=0 note=60 velocity=89 time=26>\n",
      "<message note_on channel=0 note=65 velocity=0 time=1>\n",
      "<message note_on channel=0 note=60 velocity=0 time=13>\n",
      "<message note_on channel=0 note=64 velocity=116 time=16>\n",
      "<message note_on channel=0 note=64 velocity=0 time=9>\n",
      "<message note_on channel=0 note=65 velocity=107 time=21>\n",
      "<message note_on channel=0 note=64 velocity=105 time=90>\n",
      "<message note_on channel=0 note=65 velocity=0 time=5>\n",
      "<message note_on channel=0 note=62 velocity=107 time=25>\n",
      "<message note_on channel=0 note=64 velocity=0 time=4>\n",
      "<message note_on channel=0 note=64 velocity=100 time=26>\n",
      "<message note_on channel=0 note=62 velocity=0 time=3>\n",
      "<message note_on channel=0 note=65 velocity=87 time=27>\n",
      "<message note_on channel=0 note=64 velocity=0 time=10>\n",
      "<message note_on channel=0 note=64 velocity=98 time=20>\n",
      "<message note_on channel=0 note=65 velocity=0 time=10>\n",
      "<message note_on channel=0 note=62 velocity=98 time=20>\n",
      "<message note_on channel=0 note=64 velocity=0 time=7>\n",
      "<message note_on channel=0 note=64 velocity=87 time=23>\n",
      "<message note_on channel=0 note=62 velocity=0 time=4>\n",
      "<message note_on channel=0 note=60 velocity=85 time=26>\n",
      "<message note_on channel=0 note=64 velocity=0 time=4>\n",
      "<message note_on channel=0 note=60 velocity=0 time=6>\n",
      "<message note_on channel=0 note=62 velocity=110 time=20>\n",
      "<message note_on channel=0 note=62 velocity=0 time=10>\n",
      "<message note_on channel=0 note=64 velocity=110 time=20>\n",
      "<message note_on channel=0 note=62 velocity=105 time=90>\n",
      "<message note_on channel=0 note=64 velocity=0 time=7>\n",
      "<message note_on channel=0 note=60 velocity=87 time=23>\n",
      "<message note_on channel=0 note=62 velocity=0 time=2>\n",
      "<message note_on channel=0 note=62 velocity=102 time=28>\n",
      "<message note_on channel=0 note=60 velocity=0 time=3>\n",
      "<message note_on channel=0 note=65 velocity=85 time=27>\n",
      "<message note_on channel=0 note=62 velocity=0 time=5>\n",
      "<message note_on channel=0 note=62 velocity=102 time=25>\n",
      "<message note_on channel=0 note=65 velocity=0 time=8>\n",
      "<message note_on channel=0 note=60 velocity=105 time=22>\n",
      "<message note_on channel=0 note=62 velocity=0 time=6>\n",
      "<message note_on channel=0 note=62 velocity=100 time=24>\n",
      "<message note_on channel=0 note=60 velocity=0 time=6>\n",
      "<message note_on channel=0 note=59 velocity=105 time=24>\n",
      "<message note_on channel=0 note=62 velocity=0 time=4>\n",
      "<message note_on channel=0 note=59 velocity=0 time=27>\n",
      "<message note_on channel=0 note=71 velocity=102 time=29>\n",
      "<message note_on channel=0 note=71 velocity=0 time=39>\n",
      "<message note_on channel=0 note=72 velocity=107 time=21>\n",
      "<message note_on channel=0 note=67 velocity=87 time=30>\n",
      "<message note_on channel=0 note=72 velocity=0 time=3>\n",
      "<message note_on channel=0 note=67 velocity=0 time=27>\n",
      "<message note_on channel=0 note=65 velocity=72 time=0>\n",
      "<message note_on channel=0 note=67 velocity=89 time=30>\n",
      "<message note_on channel=0 note=65 velocity=0 time=2>\n",
      "<message note_on channel=0 note=67 velocity=0 time=23>\n",
      "<message note_on channel=0 note=76 velocity=113 time=5>\n",
      "<message note_on channel=0 note=76 velocity=0 time=233>\n",
      "<message note_on channel=0 note=65 velocity=98 time=37>\n",
      "<message note_on channel=0 note=64 velocity=89 time=30>\n",
      "<message note_on channel=0 note=65 velocity=0 time=1>\n",
      "<message note_on channel=0 note=65 velocity=102 time=29>\n",
      "<message note_on channel=0 note=64 velocity=0 time=3>\n",
      "<message note_on channel=0 note=65 velocity=0 time=20>\n",
      "<message note_on channel=0 note=74 velocity=107 time=7>\n",
      "<message note_on channel=0 note=74 velocity=0 time=237>\n",
      "<message note_on channel=0 note=64 velocity=98 time=33>\n",
      "<message note_on channel=0 note=64 velocity=0 time=29>\n",
      "<message note_on channel=0 note=62 velocity=89 time=1>\n",
      "<message note_on channel=0 note=64 velocity=89 time=30>\n",
      "<message note_on channel=0 note=62 velocity=0 time=4>\n",
      "<message note_on channel=0 note=64 velocity=0 time=22>\n",
      "<message note_on channel=0 note=72 velocity=107 time=4>\n",
      "<message note_on channel=0 note=71 velocity=87 time=270>\n",
      "<message note_on channel=0 note=72 velocity=0 time=6>\n",
      "<message note_on channel=0 note=69 velocity=102 time=24>\n",
      "<message note_on channel=0 note=71 velocity=0 time=3>\n",
      "<message note_on channel=0 note=67 velocity=100 time=27>\n",
      "<message note_on channel=0 note=69 velocity=0 time=7>\n",
      "<message note_on channel=0 note=65 velocity=80 time=23>\n",
      "<message note_on channel=0 note=67 velocity=0 time=3>\n",
      "<message note_on channel=0 note=64 velocity=95 time=27>\n",
      "<message note_on channel=0 note=65 velocity=0 time=3>\n",
      "<message note_on channel=0 note=62 velocity=102 time=27>\n",
      "<message note_on channel=0 note=64 velocity=0 time=8>\n",
      "<message note_on channel=0 note=62 velocity=0 time=20>\n",
      "<message note_on channel=0 note=60 velocity=74 time=2>\n",
      "<message note_on channel=0 note=60 velocity=0 time=30>\n",
      "<message note_on channel=0 note=59 velocity=105 time=0>\n",
      "<message note_on channel=0 note=57 velocity=100 time=30>\n",
      "<message note_on channel=0 note=59 velocity=0 time=15>\n",
      "<message note_on channel=0 note=55 velocity=100 time=15>\n",
      "<message note_on channel=0 note=57 velocity=0 time=7>\n",
      "<message note_on channel=0 note=55 velocity=0 time=20>\n",
      "<message note_on channel=0 note=53 velocity=91 time=3>\n",
      "<message note_on channel=0 note=55 velocity=107 time=30>\n",
      "<message note_on channel=0 note=53 velocity=0 time=1>\n",
      "<message note_on channel=0 note=55 velocity=0 time=35>\n",
      "<message note_on channel=0 note=65 velocity=98 time=24>\n",
      "<message note_on channel=0 note=65 velocity=0 time=24>\n",
      "<message note_on channel=0 note=64 velocity=100 time=36>\n",
      "<message note_on channel=0 note=64 velocity=0 time=40>\n",
      "<message note_on channel=0 note=69 velocity=102 time=20>\n",
      "<message note_on channel=0 note=67 velocity=100 time=30>\n",
      "<message note_on channel=0 note=69 velocity=0 time=7>\n",
      "<message note_on channel=0 note=65 velocity=113 time=23>\n",
      "<message note_on channel=0 note=67 velocity=0 time=10>\n",
      "<message note_on channel=0 note=64 velocity=100 time=20>\n",
      "<message note_on channel=0 note=65 velocity=0 time=5>\n",
      "<message note_on channel=0 note=62 velocity=80 time=25>\n",
      "<message note_on channel=0 note=64 velocity=0 time=2>\n",
      "<message note_on channel=0 note=60 velocity=105 time=28>\n",
      "<message note_on channel=0 note=62 velocity=0 time=5>\n",
      "<message note_on channel=0 note=60 velocity=0 time=19>\n",
      "<message note_on channel=0 note=60 velocity=98 time=6>\n",
      "<message note_on channel=0 note=60 velocity=0 time=119>\n",
      "<meta message end_of_track time=0>\n",
      "=== Track 2\n",
      "<meta message midi_port port=0 time=0>\n",
      "<meta message track_name name='Great RH' time=0>\n",
      "<message program_change channel=2 program=73 time=0>\n",
      "<message control_change channel=2 control=7 value=127 time=0>\n",
      "<message control_change channel=2 control=10 value=55 time=0>\n",
      "<message control_change channel=2 control=91 value=65 time=385>\n",
      "<message control_change channel=2 control=1 value=7 time=0>\n",
      "<message note_on channel=2 note=72 velocity=68 time=5>\n",
      "<message note_on channel=2 note=71 velocity=66 time=30>\n",
      "<message note_on channel=2 note=72 velocity=0 time=1>\n",
      "<message note_on channel=2 note=72 velocity=66 time=29>\n",
      "<message note_on channel=2 note=71 velocity=0 time=4>\n",
      "<message note_on channel=2 note=76 velocity=82 time=26>\n",
      "<message note_on channel=2 note=72 velocity=0 time=4>\n",
      "<message note_on channel=2 note=72 velocity=82 time=26>\n",
      "<message note_on channel=2 note=76 velocity=0 time=2>\n",
      "<message note_on channel=2 note=71 velocity=82 time=28>\n",
      "<message note_on channel=2 note=72 velocity=0 time=4>\n",
      "<message note_on channel=2 note=72 velocity=72 time=26>\n",
      "<message note_on channel=2 note=71 velocity=0 time=4>\n",
      "<message note_on channel=2 note=67 velocity=63 time=26>\n",
      "<message note_on channel=2 note=72 velocity=0 time=5>\n",
      "<message note_on channel=2 note=72 velocity=76 time=25>\n",
      "<message note_on channel=2 note=67 velocity=0 time=5>\n",
      "<message note_on channel=2 note=72 velocity=0 time=24>\n",
      "<message note_on channel=2 note=64 velocity=74 time=1>\n",
      "<message note_on channel=2 note=67 velocity=72 time=30>\n",
      "<message note_on channel=2 note=64 velocity=0 time=1>\n",
      "<message note_on channel=2 note=60 velocity=85 time=29>\n",
      "<message note_on channel=2 note=67 velocity=0 time=3>\n",
      "<message note_on channel=2 note=60 velocity=0 time=33>\n",
      "<message note_on channel=2 note=79 velocity=85 time=24>\n",
      "<message note_on channel=2 note=79 velocity=0 time=20>\n",
      "<message note_on channel=2 note=76 velocity=91 time=40>\n",
      "<message note_on channel=2 note=76 velocity=0 time=26>\n",
      "<message note_on channel=2 note=79 velocity=82 time=34>\n",
      "<message note_on channel=2 note=79 velocity=0 time=27>\n",
      "<message note_on channel=2 note=81 velocity=102 time=33>\n",
      "<message note_on channel=2 note=81 velocity=0 time=54>\n",
      "<message note_on channel=2 note=79 velocity=95 time=6>\n",
      "<message note_on channel=2 note=79 velocity=0 time=30>\n",
      "<message note_on channel=2 note=77 velocity=100 time=0>\n",
      "<message note_on channel=2 note=77 velocity=0 time=28>\n",
      "<message note_on channel=2 note=79 velocity=105 time=2>\n",
      "<message note_on channel=2 note=79 velocity=0 time=125>\n",
      "<message note_on channel=2 note=76 velocity=93 time=295>\n",
      "<message note_on channel=2 note=76 velocity=0 time=21>\n",
      "<message note_on channel=2 note=72 velocity=95 time=39>\n",
      "<message note_on channel=2 note=72 velocity=0 time=33>\n",
      "<message note_on channel=2 note=76 velocity=91 time=27>\n",
      "<message note_on channel=2 note=76 velocity=0 time=37>\n",
      "<message note_on channel=2 note=77 velocity=98 time=23>\n",
      "<message note_on channel=2 note=76 velocity=102 time=60>\n",
      "<message note_on channel=2 note=77 velocity=0 time=4>\n",
      "<message note_on channel=2 note=74 velocity=100 time=26>\n",
      "<message note_on channel=2 note=76 velocity=0 time=2>\n",
      "<message note_on channel=2 note=74 velocity=0 time=27>\n",
      "<message note_on channel=2 note=76 velocity=105 time=1>\n",
      "<message note_on channel=2 note=76 velocity=0 time=38>\n",
      "<message note_on channel=2 note=79 velocity=85 time=22>\n",
      "<message note_on channel=2 note=79 velocity=0 time=32>\n",
      "<message note_on channel=2 note=72 velocity=89 time=28>\n",
      "<message note_on channel=2 note=72 velocity=0 time=24>\n",
      "<message note_on channel=2 note=76 velocity=80 time=36>\n",
      "<message note_on channel=2 note=76 velocity=0 time=31>\n",
      "<message note_on channel=2 note=69 velocity=87 time=29>\n",
      "<message note_on channel=2 note=72 velocity=87 time=30>\n",
      "<message note_on channel=2 note=69 velocity=0 time=2>\n",
      "<message note_on channel=2 note=74 velocity=100 time=28>\n",
      "<message note_on channel=2 note=72 velocity=0 time=4>\n",
      "<message note_on channel=2 note=76 velocity=102 time=26>\n",
      "<message note_on channel=2 note=74 velocity=0 time=1>\n",
      "<message note_on channel=2 note=77 velocity=98 time=29>\n",
      "<message note_on channel=2 note=76 velocity=0 time=7>\n",
      "<message note_on channel=2 note=77 velocity=0 time=34>\n",
      "<message note_on channel=2 note=81 velocity=95 time=19>\n",
      "<message note_on channel=2 note=81 velocity=0 time=30>\n",
      "<message note_on channel=2 note=74 velocity=98 time=30>\n",
      "<message note_on channel=2 note=74 velocity=0 time=32>\n",
      "<message note_on channel=2 note=77 velocity=85 time=28>\n",
      "<message note_on channel=2 note=77 velocity=0 time=30>\n",
      "<message note_on channel=2 note=71 velocity=82 time=30>\n",
      "<message note_on channel=2 note=71 velocity=0 time=30>\n",
      "<message note_on channel=2 note=74 velocity=100 time=0>\n",
      "<message note_on channel=2 note=76 velocity=100 time=30>\n",
      "<message note_on channel=2 note=74 velocity=0 time=4>\n",
      "<message note_on channel=2 note=76 velocity=0 time=25>\n",
      "<message note_on channel=2 note=77 velocity=100 time=1>\n",
      "<message note_on channel=2 note=79 velocity=95 time=30>\n",
      "<message note_on channel=2 note=77 velocity=0 time=6>\n",
      "<message note_on channel=2 note=79 velocity=0 time=25>\n",
      "<message note_on channel=2 note=84 velocity=93 time=29>\n",
      "<message note_on channel=2 note=84 velocity=0 time=25>\n",
      "<message note_on channel=2 note=79 velocity=95 time=5>\n",
      "<message note_on channel=2 note=79 velocity=0 time=24>\n",
      "<message note_on channel=2 note=76 velocity=105 time=6>\n",
      "<message note_on channel=2 note=76 velocity=0 time=54>\n",
      "<message note_on channel=2 note=79 velocity=85 time=6>\n",
      "<message note_on channel=2 note=79 velocity=0 time=29>\n",
      "<message note_on channel=2 note=76 velocity=100 time=1>\n",
      "<message note_on channel=2 note=76 velocity=0 time=29>\n",
      "<message note_on channel=2 note=72 velocity=82 time=1>\n",
      "<message note_on channel=2 note=72 velocity=0 time=30>\n",
      "<message note_on channel=2 note=76 velocity=98 time=0>\n",
      "<message note_on channel=2 note=77 velocity=91 time=30>\n",
      "<message note_on channel=2 note=76 velocity=0 time=3>\n",
      "<message note_on channel=2 note=79 velocity=95 time=27>\n",
      "<message note_on channel=2 note=77 velocity=0 time=2>\n",
      "<message note_on channel=2 note=81 velocity=93 time=28>\n",
      "<message note_on channel=2 note=79 velocity=0 time=5>\n",
      "<message note_on channel=2 note=79 velocity=70 time=25>\n",
      "<message note_on channel=2 note=81 velocity=0 time=4>\n",
      "<message note_on channel=2 note=81 velocity=89 time=26>\n",
      "<message note_on channel=2 note=79 velocity=0 time=6>\n",
      "<message note_on channel=2 note=82 velocity=87 time=24>\n",
      "<message note_on channel=2 note=81 velocity=0 time=4>\n",
      "<message note_on channel=2 note=81 velocity=100 time=26>\n",
      "<message note_on channel=2 note=82 velocity=0 time=10>\n",
      "<message note_on channel=2 note=79 velocity=98 time=20>\n",
      "<message note_on channel=2 note=81 velocity=0 time=5>\n",
      "<message note_on channel=2 note=77 velocity=76 time=25>\n",
      "<message note_on channel=2 note=79 velocity=0 time=1>\n",
      "<message note_on channel=2 note=77 velocity=0 time=29>\n",
      "<message note_on channel=2 note=76 velocity=80 time=0>\n",
      "<message note_on channel=2 note=74 velocity=100 time=30>\n",
      "<message note_on channel=2 note=76 velocity=0 time=7>\n",
      "<message note_on channel=2 note=74 velocity=0 time=21>\n",
      "<message note_on channel=2 note=72 velocity=68 time=2>\n",
      "<message note_on channel=2 note=71 velocity=91 time=30>\n",
      "<message note_on channel=2 note=72 velocity=0 time=28>\n",
      "<message note_on channel=2 note=69 velocity=93 time=2>\n",
      "<message note_on channel=2 note=71 velocity=0 time=2>\n",
      "<message note_on channel=2 note=71 velocity=102 time=28>\n",
      "<message note_on channel=2 note=69 velocity=0 time=5>\n",
      "<message note_on channel=2 note=72 velocity=91 time=25>\n",
      "<message note_on channel=2 note=71 velocity=0 time=5>\n",
      "<message note_on channel=2 note=71 velocity=82 time=25>\n",
      "<message note_on channel=2 note=72 velocity=0 time=4>\n",
      "<message note_on channel=2 note=71 velocity=0 time=21>\n",
      "<message note_on channel=2 note=67 velocity=66 time=5>\n",
      "<message note_on channel=2 note=67 velocity=0 time=28>\n",
      "<message note_on channel=2 note=74 velocity=87 time=2>\n",
      "<message note_on channel=2 note=76 velocity=80 time=30>\n",
      "<message note_on channel=2 note=74 velocity=0 time=2>\n",
      "<message note_on channel=2 note=74 velocity=85 time=28>\n",
      "<message note_on channel=2 note=76 velocity=0 time=10>\n",
      "<message note_on channel=2 note=74 velocity=0 time=15>\n",
      "<message note_on channel=2 note=71 velocity=62 time=5>\n",
      "<message note_on channel=2 note=77 velocity=91 time=30>\n",
      "<message note_on channel=2 note=71 velocity=0 time=7>\n",
      "<message note_on channel=2 note=79 velocity=85 time=23>\n",
      "<message note_on channel=2 note=77 velocity=0 time=4>\n",
      "<message note_on channel=2 note=77 velocity=78 time=26>\n",
      "<message note_on channel=2 note=79 velocity=0 time=4>\n",
      "<message note_on channel=2 note=77 velocity=0 time=24>\n",
      "<message note_on channel=2 note=74 velocity=91 time=2>\n",
      "<message note_on channel=2 note=74 velocity=0 time=28>\n",
      "<message note_on channel=2 note=75 velocity=98 time=2>\n",
      "<message note_on channel=2 note=75 velocity=0 time=33>\n",
      "<message note_on channel=2 note=72 velocity=93 time=27>\n",
      "<message note_on channel=2 note=72 velocity=0 time=34>\n",
      "<message note_on channel=2 note=79 velocity=100 time=26>\n",
      "<message note_on channel=2 note=79 velocity=0 time=25>\n",
      "<message note_on channel=2 note=75 velocity=95 time=35>\n",
      "<message note_on channel=2 note=75 velocity=0 time=25>\n",
      "<message note_on channel=2 note=84 velocity=110 time=35>\n",
      "<message note_on channel=2 note=82 velocity=74 time=150>\n",
      "<message note_on channel=2 note=84 velocity=0 time=6>\n",
      "<message note_on channel=2 note=81 velocity=91 time=24>\n",
      "<message note_on channel=2 note=82 velocity=0 time=4>\n",
      "<message note_on channel=2 note=81 velocity=0 time=21>\n",
      "<message note_on channel=2 note=79 velocity=80 time=5>\n",
      "<message note_on channel=2 note=78 velocity=105 time=30>\n",
      "<message note_on channel=2 note=79 velocity=0 time=2>\n",
      "<message note_on channel=2 note=78 velocity=0 time=28>\n",
      "<message note_on channel=2 note=81 velocity=80 time=0>\n",
      "<message note_on channel=2 note=75 velocity=102 time=30>\n",
      "<message note_on channel=2 note=81 velocity=0 time=3>\n",
      "<message note_on channel=2 note=74 velocity=89 time=27>\n",
      "<message note_on channel=2 note=75 velocity=0 time=2>\n",
      "<message note_on channel=2 note=75 velocity=105 time=28>\n",
      "<message note_on channel=2 note=74 velocity=0 time=6>\n",
      "<message note_on channel=2 note=72 velocity=82 time=24>\n",
      "<message note_on channel=2 note=75 velocity=0 time=4>\n",
      "<message note_on channel=2 note=79 velocity=87 time=26>\n",
      "<message note_on channel=2 note=72 velocity=0 time=6>\n",
      "<message note_on channel=2 note=78 velocity=91 time=24>\n",
      "<message note_on channel=2 note=79 velocity=0 time=5>\n",
      "<message note_on channel=2 note=79 velocity=89 time=25>\n",
      "<message note_on channel=2 note=78 velocity=0 time=4>\n",
      "<message note_on channel=2 note=74 velocity=85 time=26>\n",
      "<message note_on channel=2 note=79 velocity=0 time=7>\n",
      "<message note_on channel=2 note=74 velocity=0 time=21>\n",
      "<message note_on channel=2 note=72 velocity=76 time=2>\n",
      "<message note_on channel=2 note=74 velocity=82 time=30>\n",
      "<message note_on channel=2 note=72 velocity=0 time=4>\n",
      "<message note_on channel=2 note=74 velocity=0 time=25>\n",
      "<message note_on channel=2 note=83 velocity=91 time=1>\n",
      "<message note_on channel=2 note=83 velocity=0 time=225>\n",
      "<message note_on channel=2 note=72 velocity=85 time=45>\n",
      "<message note_on channel=2 note=71 velocity=68 time=30>\n",
      "<message note_on channel=2 note=72 velocity=0 time=3>\n",
      "<message note_on channel=2 note=71 velocity=0 time=27>\n",
      "<message note_on channel=2 note=72 velocity=80 time=0>\n",
      "<message note_on channel=2 note=72 velocity=0 time=26>\n",
      "<message note_on channel=2 note=81 velocity=82 time=4>\n",
      "<message note_on channel=2 note=81 velocity=0 time=250>\n",
      "<message note_on channel=2 note=71 velocity=85 time=20>\n",
      "<message note_on channel=2 note=71 velocity=0 time=30>\n",
      "<message note_on channel=2 note=69 velocity=70 time=0>\n",
      "<message note_on channel=2 note=71 velocity=76 time=30>\n",
      "<message note_on channel=2 note=69 velocity=0 time=1>\n",
      "<message note_on channel=2 note=71 velocity=0 time=25>\n",
      "<message note_on channel=2 note=79 velocity=87 time=4>\n",
      "<message note_on channel=2 note=79 velocity=0 time=264>\n",
      "<message note_on channel=2 note=78 velocity=85 time=6>\n",
      "<message note_on channel=2 note=76 velocity=93 time=30>\n",
      "<message note_on channel=2 note=78 velocity=0 time=3>\n",
      "<message note_on channel=2 note=76 velocity=0 time=27>\n",
      "<message note_on channel=2 note=74 velocity=87 time=0>\n",
      "<message note_on channel=2 note=72 velocity=55 time=30>\n",
      "<message note_on channel=2 note=74 velocity=0 time=3>\n",
      "<message note_on channel=2 note=72 velocity=0 time=24>\n",
      "<message note_on channel=2 note=71 velocity=91 time=3>\n",
      "<message note_on channel=2 note=69 velocity=93 time=30>\n",
      "<message note_on channel=2 note=71 velocity=0 time=6>\n",
      "<message note_on channel=2 note=69 velocity=0 time=20>\n",
      "<message note_on channel=2 note=67 velocity=72 time=4>\n",
      "<message note_on channel=2 note=66 velocity=102 time=30>\n",
      "<message note_on channel=2 note=67 velocity=0 time=3>\n",
      "<message note_on channel=2 note=64 velocity=95 time=27>\n",
      "<message note_on channel=2 note=66 velocity=0 time=3>\n",
      "<message note_on channel=2 note=64 velocity=0 time=26>\n",
      "<message note_on channel=2 note=62 velocity=74 time=1>\n",
      "<message note_on channel=2 note=60 velocity=98 time=30>\n",
      "<message note_on channel=2 note=62 velocity=0 time=3>\n",
      "<message note_on channel=2 note=60 velocity=0 time=27>\n",
      "<message note_on channel=2 note=62 velocity=91 time=0>\n",
      "<message note_on channel=2 note=62 velocity=0 time=43>\n",
      "<message note_on channel=2 note=72 velocity=89 time=17>\n",
      "<message note_on channel=2 note=72 velocity=0 time=56>\n",
      "<message note_on channel=2 note=71 velocity=95 time=4>\n",
      "<message note_on channel=2 note=71 velocity=0 time=49>\n",
      "<message note_on channel=2 note=76 velocity=107 time=11>\n",
      "<message note_on channel=2 note=74 velocity=102 time=30>\n",
      "<message note_on channel=2 note=76 velocity=0 time=4>\n",
      "<message note_on channel=2 note=72 velocity=105 time=26>\n",
      "<message note_on channel=2 note=74 velocity=0 time=7>\n",
      "<message note_on channel=2 note=71 velocity=102 time=23>\n",
      "<message note_on channel=2 note=72 velocity=0 time=3>\n",
      "<message note_on channel=2 note=69 velocity=66 time=27>\n",
      "<message note_on channel=2 note=71 velocity=0 time=1>\n",
      "<message note_on channel=2 note=67 velocity=105 time=29>\n",
      "<message note_on channel=2 note=69 velocity=0 time=1>\n",
      "<message note_on channel=2 note=67 velocity=0 time=21>\n",
      "<message note_on channel=2 note=67 velocity=102 time=8>\n",
      "<message note_on channel=2 note=67 velocity=0 time=130>\n",
      "<message note_on channel=2 note=83 velocity=89 time=290>\n",
      "<message note_on channel=2 note=83 velocity=0 time=28>\n",
      "<message note_on channel=2 note=79 velocity=80 time=32>\n",
      "<message note_on channel=2 note=79 velocity=0 time=28>\n",
      "<message note_on channel=2 note=83 velocity=89 time=32>\n",
      "<message note_on channel=2 note=83 velocity=0 time=28>\n",
      "<message note_on channel=2 note=84 velocity=102 time=32>\n",
      "<message note_on channel=2 note=83 velocity=100 time=60>\n",
      "<message note_on channel=2 note=84 velocity=0 time=2>\n",
      "<message note_on channel=2 note=81 velocity=102 time=28>\n",
      "<message note_on channel=2 note=83 velocity=0 time=4>\n",
      "<message note_on channel=2 note=83 velocity=95 time=26>\n",
      "<message note_on channel=2 note=81 velocity=0 time=6>\n",
      "<message note_on channel=2 note=83 velocity=0 time=21>\n",
      "<message note_on channel=2 note=79 velocity=68 time=3>\n",
      "<message note_on channel=2 note=78 velocity=98 time=30>\n",
      "<message note_on channel=2 note=79 velocity=0 time=5>\n",
      "<message note_on channel=2 note=79 velocity=85 time=25>\n",
      "<message note_on channel=2 note=78 velocity=0 time=1>\n",
      "<message note_on channel=2 note=83 velocity=105 time=29>\n",
      "<message note_on channel=2 note=79 velocity=0 time=4>\n",
      "<message note_on channel=2 note=79 velocity=85 time=26>\n",
      "<message note_on channel=2 note=83 velocity=0 time=5>\n",
      "<message note_on channel=2 note=78 velocity=107 time=25>\n",
      "<message note_on channel=2 note=79 velocity=0 time=4>\n",
      "<message note_on channel=2 note=79 velocity=78 time=26>\n",
      "<message note_on channel=2 note=78 velocity=0 time=4>\n",
      "<message note_on channel=2 note=74 velocity=102 time=26>\n",
      "<message note_on channel=2 note=79 velocity=0 time=3>\n",
      "<message note_on channel=2 note=79 velocity=100 time=27>\n",
      "<message note_on channel=2 note=74 velocity=0 time=2>\n",
      "<message note_on channel=2 note=71 velocity=102 time=28>\n",
      "<message note_on channel=2 note=79 velocity=0 time=6>\n",
      "<message note_on channel=2 note=74 velocity=89 time=24>\n",
      "<message note_on channel=2 note=71 velocity=0 time=7>\n",
      "<message note_on channel=2 note=74 velocity=0 time=22>\n",
      "<message note_on channel=2 note=67 velocity=91 time=1>\n",
      "<message note_on channel=2 note=67 velocity=0 time=38>\n",
      "<message note_on channel=2 note=74 velocity=102 time=22>\n",
      "<message note_on channel=2 note=74 velocity=0 time=36>\n",
      "<message note_on channel=2 note=71 velocity=82 time=24>\n",
      "<message note_on channel=2 note=71 velocity=0 time=33>\n",
      "<message note_on channel=2 note=74 velocity=105 time=27>\n",
      "<message note_on channel=2 note=74 velocity=0 time=31>\n",
      "<message note_on channel=2 note=76 velocity=105 time=29>\n",
      "<message note_on channel=2 note=74 velocity=105 time=60>\n",
      "<message note_on channel=2 note=76 velocity=0 time=4>\n",
      "<message note_on channel=2 note=74 velocity=0 time=26>\n",
      "<message note_on channel=2 note=72 velocity=102 time=0>\n",
      "<message note_on channel=2 note=74 velocity=98 time=30>\n",
      "<message note_on channel=2 note=72 velocity=0 time=3>\n",
      "<message note_on channel=2 note=71 velocity=87 time=27>\n",
      "<message note_on channel=2 note=74 velocity=0 time=4>\n",
      "<message note_on channel=2 note=67 velocity=82 time=26>\n",
      "<message note_on channel=2 note=71 velocity=0 time=1>\n",
      "<message note_on channel=2 note=67 velocity=0 time=29>\n",
      "<message note_on channel=2 note=71 velocity=102 time=0>\n",
      "<message note_on channel=2 note=76 velocity=102 time=30>\n",
      "<message note_on channel=2 note=71 velocity=0 time=1>\n",
      "<message note_on channel=2 note=71 velocity=93 time=29>\n",
      "<message note_on channel=2 note=76 velocity=0 time=3>\n",
      "<message note_on channel=2 note=71 velocity=0 time=26>\n",
      "<message note_on channel=2 note=67 velocity=66 time=1>\n",
      "<message note_on channel=2 note=71 velocity=85 time=30>\n",
      "<message note_on channel=2 note=67 velocity=0 time=4>\n",
      "<message note_on channel=2 note=71 velocity=0 time=24>\n",
      "<message note_on channel=2 note=79 velocity=105 time=2>\n",
      "<message note_on channel=2 note=79 velocity=0 time=120>\n",
      "<message note_on channel=2 note=72 velocity=87 time=30>\n",
      "<message note_on channel=2 note=72 velocity=0 time=28>\n",
      "<message note_on channel=2 note=69 velocity=80 time=2>\n",
      "<message note_on channel=2 note=69 velocity=0 time=30>\n",
      "<message note_on channel=2 note=72 velocity=82 time=0>\n",
      "<message note_on channel=2 note=78 velocity=89 time=30>\n",
      "<message note_on channel=2 note=72 velocity=0 time=1>\n",
      "<message note_on channel=2 note=72 velocity=72 time=29>\n",
      "<message note_on channel=2 note=78 velocity=0 time=1>\n",
      "<message note_on channel=2 note=72 velocity=0 time=29>\n",
      "<message note_on channel=2 note=69 velocity=66 time=0>\n",
      "<message note_on channel=2 note=72 velocity=78 time=30>\n",
      "<message note_on channel=2 note=69 velocity=0 time=2>\n",
      "<message note_on channel=2 note=72 velocity=0 time=25>\n",
      "<message note_on channel=2 note=81 velocity=102 time=3>\n",
      "<message note_on channel=2 note=81 velocity=0 time=121>\n",
      "<message note_on channel=2 note=74 velocity=89 time=29>\n",
      "<message note_on channel=2 note=71 velocity=74 time=30>\n",
      "<message note_on channel=2 note=74 velocity=0 time=3>\n",
      "<message note_on channel=2 note=74 velocity=85 time=27>\n",
      "<message note_on channel=2 note=71 velocity=0 time=1>\n",
      "<message note_on channel=2 note=74 velocity=0 time=28>\n",
      "<message note_on channel=2 note=79 velocity=82 time=1>\n",
      "<message note_on channel=2 note=74 velocity=70 time=30>\n",
      "<message note_on channel=2 note=79 velocity=0 time=6>\n",
      "<message note_on channel=2 note=71 velocity=82 time=24>\n",
      "<message note_on channel=2 note=74 velocity=0 time=8>\n",
      "<message note_on channel=2 note=71 velocity=0 time=21>\n",
      "<message note_on channel=2 note=74 velocity=87 time=1>\n",
      "<message note_on channel=2 note=74 velocity=0 time=26>\n",
      "<message note_on channel=2 note=83 velocity=105 time=4>\n",
      "<message note_on channel=2 note=83 velocity=0 time=130>\n",
      "<message note_on channel=2 note=81 velocity=95 time=50>\n",
      "<message note_on channel=2 note=80 velocity=85 time=30>\n",
      "<message note_on channel=2 note=81 velocity=0 time=1>\n",
      "<message note_on channel=2 note=80 velocity=0 time=23>\n",
      "<message note_on channel=2 note=81 velocity=95 time=6>\n",
      "<message note_on channel=2 note=81 velocity=0 time=29>\n",
      "<message note_on channel=2 note=76 velocity=89 time=31>\n",
      "<message note_on channel=2 note=76 velocity=0 time=25>\n",
      "<message note_on channel=2 note=84 velocity=102 time=35>\n",
      "<message note_on channel=2 note=84 velocity=0 time=137>\n",
      "<message note_on channel=2 note=81 velocity=85 time=43>\n",
      "<message note_on channel=2 note=81 velocity=0 time=33>\n",
      "<message note_on channel=2 note=78 velocity=89 time=27>\n",
      "<message note_on channel=2 note=78 velocity=0 time=29>\n",
      "<message note_on channel=2 note=81 velocity=85 time=31>\n",
      "<message note_on channel=2 note=81 velocity=0 time=22>\n",
      "<message note_on channel=2 note=74 velocity=91 time=38>\n",
      "<message note_on channel=2 note=74 velocity=0 time=30>\n",
      "<message note_on channel=2 note=78 velocity=93 time=30>\n",
      "<message note_on channel=2 note=78 velocity=0 time=26>\n",
      "<message note_on channel=2 note=79 velocity=59 time=34>\n",
      "<message note_on channel=2 note=81 velocity=64 time=30>\n",
      "<message note_on channel=2 note=79 velocity=0 time=3>\n",
      "<message note_on channel=2 note=82 velocity=68 time=27>\n",
      "<message note_on channel=2 note=81 velocity=0 time=8>\n",
      "<message note_on channel=2 note=84 velocity=70 time=22>\n",
      "<message note_on channel=2 note=82 velocity=0 time=2>\n",
      "<message note_on channel=2 note=82 velocity=72 time=28>\n",
      "<message note_on channel=2 note=84 velocity=0 time=12>\n",
      "<message note_on channel=2 note=81 velocity=68 time=18>\n",
      "<message note_on channel=2 note=82 velocity=0 time=7>\n",
      "<message note_on channel=2 note=79 velocity=64 time=23>\n",
      "<message note_on channel=2 note=81 velocity=0 time=1>\n",
      "<message note_on channel=2 note=77 velocity=70 time=29>\n",
      "<message note_on channel=2 note=79 velocity=0 time=2>\n",
      "<message note_on channel=2 note=76 velocity=85 time=28>\n",
      "<message note_on channel=2 note=77 velocity=0 time=9>\n",
      "<message note_on channel=2 note=76 velocity=0 time=19>\n",
      "<message note_on channel=2 note=74 velocity=60 time=2>\n",
      "<message note_on channel=2 note=73 velocity=89 time=30>\n",
      "<message note_on channel=2 note=74 velocity=0 time=3>\n",
      "<message note_on channel=2 note=71 velocity=78 time=27>\n",
      "<message note_on channel=2 note=73 velocity=0 time=3>\n",
      "<message note_on channel=2 note=73 velocity=95 time=27>\n",
      "<message note_on channel=2 note=71 velocity=0 time=12>\n",
      "<message note_on channel=2 note=73 velocity=0 time=10>\n",
      "<message note_on channel=2 note=67 velocity=72 time=38>\n",
      "<message note_on channel=2 note=67 velocity=0 time=32>\n",
      "<message note_on channel=2 note=76 velocity=82 time=28>\n",
      "<message note_on channel=2 note=76 velocity=0 time=23>\n",
      "<message note_on channel=2 note=73 velocity=78 time=37>\n",
      "<message note_on channel=2 note=73 velocity=0 time=17>\n",
      "<message note_on channel=2 note=79 velocity=89 time=43>\n",
      "<message note_on channel=2 note=79 velocity=0 time=127>\n",
      "<message note_on channel=2 note=78 velocity=85 time=23>\n",
      "<message note_on channel=2 note=78 velocity=0 time=28>\n",
      "<message note_on channel=2 note=76 velocity=78 time=2>\n",
      "<message note_on channel=2 note=76 velocity=0 time=29>\n",
      "<message note_on channel=2 note=74 velocity=76 time=1>\n",
      "<message note_on channel=2 note=74 velocity=0 time=30>\n",
      "<message note_on channel=2 note=83 velocity=91 time=0>\n",
      "<message note_on channel=2 note=83 velocity=0 time=134>\n",
      "<message note_on channel=2 note=84 velocity=85 time=16>\n",
      "<message note_on channel=2 note=83 velocity=72 time=30>\n",
      "<message note_on channel=2 note=84 velocity=0 time=10>\n",
      "<message note_on channel=2 note=81 velocity=91 time=20>\n",
      "<message note_on channel=2 note=83 velocity=0 time=3>\n",
      "<message note_on channel=2 note=79 velocity=68 time=27>\n",
      "<message note_on channel=2 note=81 velocity=0 time=3>\n",
      "<message note_on channel=2 note=79 velocity=0 time=144>\n",
      "<message note_on channel=2 note=78 velocity=95 time=33>\n",
      "<message note_on channel=2 note=76 velocity=82 time=30>\n",
      "<message note_on channel=2 note=78 velocity=0 time=2>\n",
      "<message note_on channel=2 note=74 velocity=87 time=28>\n",
      "<message note_on channel=2 note=76 velocity=0 time=6>\n",
      "<message note_on channel=2 note=74 velocity=0 time=24>\n",
      "<message note_on channel=2 note=72 velocity=64 time=0>\n",
      "<message note_on channel=2 note=71 velocity=89 time=30>\n",
      "<message note_on channel=2 note=72 velocity=0 time=3>\n",
      "<message note_on channel=2 note=69 velocity=100 time=27>\n",
      "<message note_on channel=2 note=71 velocity=0 time=8>\n",
      "<message note_on channel=2 note=67 velocity=80 time=22>\n",
      "<message note_on channel=2 note=69 velocity=0 time=1>\n",
      "<message note_on channel=2 note=67 velocity=0 time=124>\n",
      "<message note_on channel=2 note=76 velocity=87 time=25>\n",
      "<message note_on channel=2 note=74 velocity=82 time=30>\n",
      "<message note_on channel=2 note=76 velocity=0 time=4>\n",
      "<message note_on channel=2 note=74 velocity=0 time=25>\n",
      "<message note_on channel=2 note=72 velocity=64 time=1>\n",
      "<message note_on channel=2 note=72 velocity=0 time=30>\n",
      "<message note_on channel=2 note=79 velocity=89 time=0>\n",
      "<message note_on channel=2 note=79 velocity=0 time=124>\n",
      "<message note_on channel=2 note=76 velocity=68 time=26>\n",
      "<message note_on channel=2 note=81 velocity=85 time=30>\n",
      "<message note_on channel=2 note=76 velocity=0 time=3>\n",
      "<message note_on channel=2 note=79 velocity=70 time=27>\n",
      "<message note_on channel=2 note=81 velocity=0 time=5>\n",
      "<message note_on channel=2 note=77 velocity=87 time=25>\n",
      "<message note_on channel=2 note=79 velocity=0 time=9>\n",
      "<message note_on channel=2 note=76 velocity=85 time=21>\n",
      "<message note_on channel=2 note=77 velocity=0 time=2>\n",
      "<message note_on channel=2 note=76 velocity=0 time=28>\n",
      "<message note_on channel=2 note=74 velocity=66 time=0>\n",
      "<message note_on channel=2 note=72 velocity=87 time=30>\n",
      "<message note_on channel=2 note=74 velocity=0 time=1>\n",
      "<message note_on channel=2 note=71 velocity=85 time=29>\n",
      "<message note_on channel=2 note=72 velocity=0 time=3>\n",
      "<message note_on channel=2 note=71 velocity=0 time=25>\n",
      "<message note_on channel=2 note=77 velocity=100 time=32>\n",
      "<message note_on channel=2 note=76 velocity=95 time=90>\n",
      "<message note_on channel=2 note=77 velocity=0 time=6>\n",
      "<message note_on channel=2 note=76 velocity=0 time=24>\n",
      "<message note_on channel=2 note=74 velocity=85 time=0>\n",
      "<message note_on channel=2 note=76 velocity=91 time=30>\n",
      "<message note_on channel=2 note=74 velocity=0 time=4>\n",
      "<message note_on channel=2 note=79 velocity=85 time=26>\n",
      "<message note_on channel=2 note=76 velocity=0 time=2>\n",
      "<message note_on channel=2 note=76 velocity=82 time=28>\n",
      "<message note_on channel=2 note=79 velocity=0 time=9>\n",
      "<message note_on channel=2 note=76 velocity=0 time=21>\n",
      "<message note_on channel=2 note=74 velocity=87 time=0>\n",
      "<message note_on channel=2 note=76 velocity=68 time=30>\n",
      "<message note_on channel=2 note=74 velocity=0 time=2>\n",
      "<message note_on channel=2 note=72 velocity=102 time=28>\n",
      "<message note_on channel=2 note=76 velocity=0 time=1>\n",
      "<message note_on channel=2 note=76 velocity=78 time=29>\n",
      "<message note_on channel=2 note=72 velocity=0 time=3>\n",
      "<message note_on channel=2 note=69 velocity=72 time=27>\n",
      "<message note_on channel=2 note=76 velocity=0 time=9>\n",
      "<message note_on channel=2 note=72 velocity=85 time=21>\n",
      "<message note_on channel=2 note=69 velocity=0 time=1>\n",
      "<message note_on channel=2 note=65 velocity=85 time=29>\n",
      "<message note_on channel=2 note=72 velocity=0 time=2>\n",
      "<message note_on channel=2 note=65 velocity=0 time=25>\n",
      "<message note_on channel=2 note=81 velocity=95 time=33>\n",
      "<message note_on channel=2 note=81 velocity=0 time=25>\n",
      "<message note_on channel=2 note=77 velocity=89 time=35>\n",
      "<message note_on channel=2 note=77 velocity=0 time=26>\n",
      "<message note_on channel=2 note=81 velocity=85 time=34>\n",
      "<message note_on channel=2 note=81 velocity=0 time=31>\n",
      "<message note_on channel=2 note=82 velocity=107 time=29>\n",
      "<message note_on channel=2 note=82 velocity=0 time=136>\n",
      "<message note_on channel=2 note=79 velocity=82 time=14>\n",
      "<message note_on channel=2 note=77 velocity=89 time=30>\n",
      "<message note_on channel=2 note=79 velocity=0 time=5>\n",
      "<message note_on channel=2 note=77 velocity=0 time=24>\n",
      "<message note_on channel=2 note=79 velocity=82 time=1>\n",
      "<message note_on channel=2 note=82 velocity=74 time=30>\n",
      "<message note_on channel=2 note=79 velocity=0 time=3>\n",
      "<message note_on channel=2 note=79 velocity=87 time=27>\n",
      "<message note_on channel=2 note=82 velocity=0 time=4>\n",
      "<message note_on channel=2 note=77 velocity=85 time=26>\n",
      "<message note_on channel=2 note=79 velocity=0 time=6>\n",
      "<message note_on channel=2 note=79 velocity=80 time=24>\n",
      "<message note_on channel=2 note=77 velocity=0 time=6>\n",
      "<message note_on channel=2 note=79 velocity=0 time=23>\n",
      "<message note_on channel=2 note=76 velocity=76 time=1>\n",
      "<message note_on channel=2 note=79 velocity=78 time=30>\n",
      "<message note_on channel=2 note=76 velocity=0 time=5>\n",
      "<message note_on channel=2 note=72 velocity=58 time=25>\n",
      "<message note_on channel=2 note=79 velocity=0 time=8>\n",
      "<message note_on channel=2 note=76 velocity=82 time=22>\n",
      "<message note_on channel=2 note=72 velocity=0 time=2>\n",
      "<message note_on channel=2 note=76 velocity=0 time=28>\n",
      "<message note_on channel=2 note=69 velocity=68 time=0>\n",
      "<message note_on channel=2 note=69 velocity=0 time=25>\n",
      "<message note_on channel=2 note=81 velocity=85 time=5>\n",
      "<message note_on channel=2 note=79 velocity=98 time=30>\n",
      "<message note_on channel=2 note=81 velocity=0 time=6>\n",
      "<message note_on channel=2 note=81 velocity=91 time=24>\n",
      "<message note_on channel=2 note=79 velocity=0 time=4>\n",
      "<message note_on channel=2 note=84 velocity=102 time=26>\n",
      "<message note_on channel=2 note=81 velocity=0 time=7>\n",
      "<message note_on channel=2 note=81 velocity=93 time=23>\n",
      "<message note_on channel=2 note=84 velocity=0 time=8>\n",
      "<message note_on channel=2 note=79 velocity=95 time=22>\n",
      "<message note_on channel=2 note=81 velocity=0 time=2>\n",
      "<message note_on channel=2 note=81 velocity=82 time=28>\n",
      "<message note_on channel=2 note=79 velocity=0 time=2>\n",
      "<message note_on channel=2 note=81 velocity=0 time=26>\n",
      "<message note_on channel=2 note=77 velocity=89 time=2>\n",
      "<message note_on channel=2 note=77 velocity=0 time=11>\n",
      "<message note_on channel=2 note=81 velocity=102 time=19>\n",
      "<message note_on channel=2 note=81 velocity=0 time=9>\n",
      "<message note_on channel=2 note=84 velocity=110 time=21>\n",
      "<message note_on channel=2 note=84 velocity=0 time=82>\n",
      "<message note_on channel=2 note=82 velocity=100 time=8>\n",
      "<message note_on channel=2 note=81 velocity=85 time=30>\n",
      "<message note_on channel=2 note=82 velocity=0 time=3>\n",
      "<message note_on channel=2 note=82 velocity=95 time=27>\n",
      "<message note_on channel=2 note=81 velocity=0 time=10>\n",
      "<message note_on channel=2 note=84 velocity=89 time=20>\n",
      "<message note_on channel=2 note=82 velocity=0 time=6>\n",
      "<message note_on channel=2 note=82 velocity=85 time=24>\n",
      "<message note_on channel=2 note=84 velocity=0 time=8>\n",
      "<message note_on channel=2 note=81 velocity=82 time=22>\n",
      "<message note_on channel=2 note=82 velocity=0 time=2>\n",
      "<message note_on channel=2 note=82 velocity=72 time=28>\n",
      "<message note_on channel=2 note=81 velocity=0 time=5>\n",
      "<message note_on channel=2 note=82 velocity=0 time=21>\n",
      "<message note_on channel=2 note=77 velocity=89 time=4>\n",
      "<message note_on channel=2 note=77 velocity=0 time=14>\n",
      "<message note_on channel=2 note=81 velocity=100 time=16>\n",
      "<message note_on channel=2 note=81 velocity=0 time=11>\n",
      "<message note_on channel=2 note=82 velocity=105 time=19>\n",
      "<message note_on channel=2 note=81 velocity=78 time=90>\n",
      "<message note_on channel=2 note=82 velocity=0 time=4>\n",
      "<message note_on channel=2 note=79 velocity=82 time=26>\n",
      "<message note_on channel=2 note=81 velocity=0 time=8>\n",
      "<message note_on channel=2 note=81 velocity=85 time=22>\n",
      "<message note_on channel=2 note=79 velocity=0 time=2>\n",
      "<message note_on channel=2 note=82 velocity=82 time=28>\n",
      "<message note_on channel=2 note=81 velocity=0 time=10>\n",
      "<message note_on channel=2 note=81 velocity=85 time=20>\n",
      "<message note_on channel=2 note=82 velocity=0 time=7>\n",
      "<message note_on channel=2 note=79 velocity=85 time=23>\n",
      "<message note_on channel=2 note=81 velocity=0 time=5>\n",
      "<message note_on channel=2 note=81 velocity=80 time=25>\n",
      "<message note_on channel=2 note=79 velocity=0 time=2>\n",
      "<message note_on channel=2 note=81 velocity=0 time=27>\n",
      "<message note_on channel=2 note=77 velocity=82 time=1>\n",
      "<message note_on channel=2 note=77 velocity=0 time=9>\n",
      "<message note_on channel=2 note=79 velocity=100 time=21>\n",
      "<message note_on channel=2 note=79 velocity=0 time=9>\n",
      "<message note_on channel=2 note=81 velocity=95 time=21>\n",
      "<message note_on channel=2 note=81 velocity=0 time=90>\n",
      "<message note_on channel=2 note=79 velocity=107 time=0>\n",
      "<message note_on channel=2 note=79 velocity=0 time=30>\n",
      "<message note_on channel=2 note=77 velocity=98 time=0>\n",
      "<message note_on channel=2 note=79 velocity=85 time=30>\n",
      "<message note_on channel=2 note=77 velocity=0 time=5>\n",
      "<message note_on channel=2 note=82 velocity=82 time=25>\n",
      "<message note_on channel=2 note=79 velocity=0 time=1>\n",
      "<message note_on channel=2 note=79 velocity=87 time=29>\n",
      "<message note_on channel=2 note=82 velocity=0 time=3>\n",
      "<message note_on channel=2 note=77 velocity=102 time=27>\n",
      "<message note_on channel=2 note=79 velocity=0 time=4>\n",
      "<message note_on channel=2 note=79 velocity=85 time=26>\n",
      "<message note_on channel=2 note=77 velocity=0 time=1>\n",
      "<message note_on channel=2 note=76 velocity=66 time=29>\n",
      "<message note_on channel=2 note=79 velocity=0 time=1>\n",
      "<message note_on channel=2 note=76 velocity=0 time=14>\n",
      "<message note_on channel=2 note=77 velocity=98 time=15>\n",
      "<message note_on channel=2 note=77 velocity=0 time=11>\n",
      "<message note_on channel=2 note=79 velocity=98 time=19>\n",
      "<message note_on channel=2 note=79 velocity=0 time=78>\n",
      "<message note_on channel=2 note=72 velocity=85 time=42>\n",
      "<message note_on channel=2 note=77 velocity=89 time=60>\n",
      "<message note_on channel=2 note=72 velocity=0 time=6>\n",
      "<message note_on channel=2 note=81 velocity=95 time=54>\n",
      "<message note_on channel=2 note=77 velocity=0 time=4>\n",
      "<message note_on channel=2 note=81 velocity=0 time=97>\n",
      "<message note_on channel=2 note=74 velocity=105 time=19>\n",
      "<message note_on channel=2 note=71 velocity=89 time=120>\n",
      "<message note_on channel=2 note=74 velocity=0 time=2>\n",
      "<message note_on channel=2 note=76 velocity=105 time=58>\n",
      "<message note_on channel=2 note=71 velocity=0 time=6>\n",
      "<message note_on channel=2 note=76 velocity=0 time=53>\n",
      "<message note_on channel=2 note=79 velocity=89 time=1>\n",
      "<message note_on channel=2 note=79 velocity=0 time=92>\n",
      "<message note_on channel=2 note=72 velocity=105 time=28>\n",
      "<message note_on channel=2 note=69 velocity=85 time=120>\n",
      "<message note_on channel=2 note=72 velocity=0 time=6>\n",
      "<message note_on channel=2 note=69 velocity=0 time=54>\n",
      "<message note_on channel=2 note=74 velocity=87 time=0>\n",
      "<message note_on channel=2 note=77 velocity=100 time=60>\n",
      "<message note_on channel=2 note=74 velocity=0 time=1>\n",
      "<message note_on channel=2 note=77 velocity=0 time=119>\n",
      "<message note_on channel=2 note=71 velocity=107 time=0>\n",
      "<message note_on channel=2 note=71 velocity=0 time=56>\n",
      "<message note_on channel=2 note=72 velocity=87 time=64>\n",
      "<message note_on channel=2 note=72 velocity=0 time=49>\n",
      "<message note_on channel=2 note=76 velocity=91 time=11>\n",
      "<message note_on channel=2 note=76 velocity=0 time=30>\n",
      "<message note_on channel=2 note=79 velocity=89 time=30>\n",
      "<message note_on channel=2 note=79 velocity=0 time=27>\n",
      "<message note_on channel=2 note=82 velocity=102 time=33>\n",
      "<message note_on channel=2 note=81 velocity=78 time=60>\n",
      "<message note_on channel=2 note=82 velocity=0 time=1>\n",
      "<message note_on channel=2 note=79 velocity=95 time=29>\n",
      "<message note_on channel=2 note=81 velocity=0 time=4>\n",
      "<message note_on channel=2 note=79 velocity=0 time=13>\n",
      "<message note_on channel=2 note=81 velocity=102 time=13>\n",
      "<message note_on channel=2 note=81 velocity=0 time=38>\n",
      "<message note_on channel=2 note=77 velocity=89 time=22>\n",
      "<message note_on channel=2 note=77 velocity=0 time=26>\n",
      "<message note_on channel=2 note=72 velocity=85 time=34>\n",
      "<message note_on channel=2 note=72 velocity=0 time=25>\n",
      "<message note_on channel=2 note=77 velocity=85 time=35>\n",
      "<message note_on channel=2 note=77 velocity=0 time=22>\n",
      "<message note_on channel=2 note=81 velocity=98 time=38>\n",
      "<message note_on channel=2 note=79 velocity=102 time=60>\n",
      "<message note_on channel=2 note=81 velocity=0 time=6>\n",
      "<message note_on channel=2 note=79 velocity=0 time=21>\n",
      "<message note_on channel=2 note=77 velocity=102 time=3>\n",
      "<message note_on channel=2 note=77 velocity=0 time=27>\n",
      "<message note_on channel=2 note=79 velocity=102 time=3>\n",
      "<message note_on channel=2 note=79 velocity=0 time=35>\n",
      "<message note_on channel=2 note=76 velocity=87 time=25>\n",
      "<message note_on channel=2 note=76 velocity=0 time=25>\n",
      "<message note_on channel=2 note=72 velocity=82 time=35>\n",
      "<message note_on channel=2 note=72 velocity=0 time=24>\n",
      "<message note_on channel=2 note=76 velocity=85 time=36>\n",
      "<message note_on channel=2 note=76 velocity=0 time=21>\n",
      "<message note_on channel=2 note=79 velocity=100 time=39>\n",
      "<message note_on channel=2 note=77 velocity=98 time=60>\n",
      "<message note_on channel=2 note=79 velocity=0 time=2>\n",
      "<message note_on channel=2 note=76 velocity=102 time=28>\n",
      "<message note_on channel=2 note=77 velocity=0 time=2>\n",
      "<message note_on channel=2 note=77 velocity=100 time=28>\n",
      "<message note_on channel=2 note=76 velocity=0 time=5>\n",
      "<message note_on channel=2 note=77 velocity=0 time=34>\n",
      "<message note_on channel=2 note=74 velocity=89 time=21>\n",
      "<message note_on channel=2 note=74 velocity=0 time=23>\n",
      "<message note_on channel=2 note=71 velocity=78 time=37>\n",
      "<message note_on channel=2 note=71 velocity=0 time=17>\n",
      "<message note_on channel=2 note=74 velocity=87 time=43>\n",
      "<message note_on channel=2 note=74 velocity=0 time=20>\n",
      "<message note_on channel=2 note=77 velocity=98 time=40>\n",
      "<message note_on channel=2 note=76 velocity=89 time=30>\n",
      "<message note_on channel=2 note=77 velocity=0 time=3>\n",
      "<message note_on channel=2 note=74 velocity=93 time=27>\n",
      "<message note_on channel=2 note=76 velocity=0 time=4>\n",
      "<message note_on channel=2 note=76 velocity=87 time=26>\n",
      "<message note_on channel=2 note=74 velocity=0 time=4>\n",
      "<message note_on channel=2 note=77 velocity=89 time=26>\n",
      "<message note_on channel=2 note=76 velocity=0 time=12>\n",
      "<message note_on channel=2 note=76 velocity=85 time=18>\n",
      "<message note_on channel=2 note=77 velocity=0 time=9>\n",
      "<message note_on channel=2 note=74 velocity=93 time=21>\n",
      "<message note_on channel=2 note=76 velocity=0 time=3>\n",
      "<message note_on channel=2 note=76 velocity=85 time=27>\n",
      "<message note_on channel=2 note=74 velocity=0 time=6>\n",
      "<message note_on channel=2 note=72 velocity=95 time=24>\n",
      "<message note_on channel=2 note=76 velocity=0 time=3>\n",
      "<message note_on channel=2 note=81 velocity=89 time=27>\n",
      "<message note_on channel=2 note=72 velocity=0 time=2>\n",
      "<message note_on channel=2 note=79 velocity=85 time=28>\n",
      "<message note_on channel=2 note=81 velocity=0 time=5>\n",
      "<message note_on channel=2 note=77 velocity=89 time=25>\n",
      "<message note_on channel=2 note=79 velocity=0 time=9>\n",
      "<message note_on channel=2 note=76 velocity=87 time=21>\n",
      "<message note_on channel=2 note=77 velocity=0 time=9>\n",
      "<message note_on channel=2 note=74 velocity=72 time=21>\n",
      "<message note_on channel=2 note=76 velocity=0 time=3>\n",
      "<message note_on channel=2 note=74 velocity=0 time=23>\n",
      "<message note_on channel=2 note=72 velocity=64 time=4>\n",
      "<message note_on channel=2 note=74 velocity=70 time=0>\n",
      "<message note_on channel=2 note=74 velocity=0 time=10>\n",
      "<message note_on channel=2 note=70 velocity=60 time=20>\n",
      "<message note_on channel=2 note=72 velocity=0 time=6>\n",
      "<message note_on channel=2 note=69 velocity=95 time=24>\n",
      "<message note_on channel=2 note=70 velocity=0 time=6>\n",
      "<message note_on channel=2 note=70 velocity=89 time=24>\n",
      "<message note_on channel=2 note=69 velocity=0 time=6>\n",
      "<message note_on channel=2 note=67 velocity=74 time=24>\n",
      "<message note_on channel=2 note=70 velocity=0 time=5>\n",
      "<message note_on channel=2 note=69 velocity=89 time=25>\n",
      "<message note_on channel=2 note=67 velocity=0 time=5>\n",
      "<message note_on channel=2 note=65 velocity=87 time=25>\n",
      "<message note_on channel=2 note=69 velocity=0 time=1>\n",
      "<message note_on channel=2 note=79 velocity=82 time=29>\n",
      "<message note_on channel=2 note=65 velocity=0 time=2>\n",
      "<message note_on channel=2 note=77 velocity=89 time=28>\n",
      "<message note_on channel=2 note=79 velocity=0 time=8>\n",
      "<message note_on channel=2 note=76 velocity=91 time=22>\n",
      "<message note_on channel=2 note=77 velocity=0 time=7>\n",
      "<message note_on channel=2 note=74 velocity=87 time=23>\n",
      "<message note_on channel=2 note=76 velocity=0 time=5>\n",
      "<message note_on channel=2 note=74 velocity=0 time=23>\n",
      "<message note_on channel=2 note=72 velocity=72 time=2>\n",
      "<message note_on channel=2 note=72 velocity=0 time=25>\n",
      "<message note_on channel=2 note=71 velocity=89 time=5>\n",
      "<message note_on channel=2 note=69 velocity=98 time=30>\n",
      "<message note_on channel=2 note=71 velocity=0 time=8>\n",
      "<message note_on channel=2 note=67 velocity=113 time=22>\n",
      "<message note_on channel=2 note=69 velocity=0 time=3>\n",
      "<message note_on channel=2 note=69 velocity=82 time=27>\n",
      "<message note_on channel=2 note=67 velocity=0 time=9>\n",
      "<message note_on channel=2 note=65 velocity=66 time=21>\n",
      "<message note_on channel=2 note=69 velocity=0 time=8>\n",
      "<message note_on channel=2 note=67 velocity=85 time=22>\n",
      "<message note_on channel=2 note=65 velocity=0 time=1>\n",
      "<message note_on channel=2 note=67 velocity=0 time=29>\n",
      "<message note_on channel=2 note=64 velocity=64 time=0>\n",
      "<message note_on channel=2 note=64 velocity=0 time=29>\n",
      "<message note_on channel=2 note=77 velocity=85 time=1>\n",
      "<message note_on channel=2 note=76 velocity=87 time=30>\n",
      "<message note_on channel=2 note=77 velocity=0 time=10>\n",
      "<message note_on channel=2 note=74 velocity=89 time=20>\n",
      "<message note_on channel=2 note=76 velocity=0 time=7>\n",
      "<message note_on channel=2 note=72 velocity=80 time=23>\n",
      "<message note_on channel=2 note=74 velocity=0 time=5>\n",
      "<message note_on channel=2 note=71 velocity=78 time=25>\n",
      "<message note_on channel=2 note=72 velocity=0 time=3>\n",
      "<message note_on channel=2 note=71 velocity=0 time=25>\n",
      "<message note_on channel=2 note=69 velocity=82 time=2>\n",
      "<message note_on channel=2 note=67 velocity=100 time=30>\n",
      "<message note_on channel=2 note=69 velocity=0 time=1>\n",
      "<message note_on channel=2 note=65 velocity=100 time=29>\n",
      "<message note_on channel=2 note=67 velocity=0 time=1>\n",
      "<message note_on channel=2 note=65 velocity=0 time=27>\n",
      "<message note_on channel=2 note=69 velocity=89 time=32>\n",
      "<message note_on channel=2 note=69 velocity=0 time=91>\n",
      "<message note_on channel=2 note=74 velocity=105 time=29>\n",
      "<message note_on channel=2 note=74 velocity=0 time=85>\n",
      "<message note_on channel=2 note=77 velocity=102 time=35>\n",
      "<message note_on channel=2 note=77 velocity=0 time=81>\n",
      "<message note_on channel=2 note=72 velocity=105 time=9>\n",
      "<message note_on channel=2 note=74 velocity=93 time=30>\n",
      "<message note_on channel=2 note=72 velocity=0 time=5>\n",
      "<message note_on channel=2 note=74 velocity=0 time=25>\n",
      "<message note_on channel=2 note=71 velocity=102 time=0>\n",
      "<message note_on channel=2 note=72 velocity=105 time=30>\n",
      "<message note_on channel=2 note=71 velocity=0 time=4>\n",
      "<message note_on channel=2 note=74 velocity=91 time=56>\n",
      "<message note_on channel=2 note=72 velocity=0 time=10>\n",
      "<message note_on channel=2 note=67 velocity=85 time=50>\n",
      "<message note_on channel=2 note=74 velocity=0 time=1>\n",
      "<message note_on channel=2 note=71 velocity=100 time=59>\n",
      "<message note_on channel=2 note=67 velocity=0 time=5>\n",
      "<message note_on channel=2 note=71 velocity=0 time=55>\n",
      "<message note_on channel=2 note=72 velocity=85 time=0>\n",
      "<message note_on channel=2 note=67 velocity=76 time=30>\n",
      "<message note_on channel=2 note=72 velocity=0 time=4>\n",
      "<message note_on channel=2 note=69 velocity=98 time=26>\n",
      "<message note_on channel=2 note=67 velocity=0 time=4>\n",
      "<message note_on channel=2 note=71 velocity=102 time=26>\n",
      "<message note_on channel=2 note=69 velocity=0 time=2>\n",
      "<message note_on channel=2 note=72 velocity=98 time=28>\n",
      "<message note_on channel=2 note=71 velocity=0 time=6>\n",
      "<message note_on channel=2 note=72 velocity=0 time=21>\n",
      "<message note_on channel=2 note=71 velocity=87 time=3>\n",
      "<message note_on channel=2 note=72 velocity=100 time=30>\n",
      "<message note_on channel=2 note=71 velocity=0 time=7>\n",
      "<message note_on channel=2 note=76 velocity=85 time=23>\n",
      "<message note_on channel=2 note=72 velocity=0 time=2>\n",
      "<message note_on channel=2 note=74 velocity=98 time=28>\n",
      "<message note_on channel=2 note=76 velocity=0 time=8>\n",
      "<message note_on channel=2 note=72 velocity=95 time=22>\n",
      "<message note_on channel=2 note=74 velocity=0 time=8>\n",
      "<message note_on channel=2 note=71 velocity=89 time=22>\n",
      "<message note_on channel=2 note=72 velocity=0 time=4>\n",
      "<message note_on channel=2 note=69 velocity=70 time=26>\n",
      "<message note_on channel=2 note=71 velocity=0 time=1>\n",
      "<message note_on channel=2 note=67 velocity=100 time=29>\n",
      "<message note_on channel=2 note=69 velocity=0 time=3>\n",
      "<message note_on channel=2 note=69 velocity=82 time=27>\n",
      "<message note_on channel=2 note=67 velocity=0 time=1>\n",
      "<message note_on channel=2 note=71 velocity=85 time=29>\n",
      "<message note_on channel=2 note=69 velocity=0 time=1>\n",
      "<message note_on channel=2 note=72 velocity=68 time=29>\n",
      "<message note_on channel=2 note=71 velocity=0 time=8>\n",
      "<message note_on channel=2 note=74 velocity=87 time=22>\n",
      "<message note_on channel=2 note=72 velocity=0 time=4>\n",
      "<message note_on channel=2 note=77 velocity=87 time=26>\n",
      "<message note_on channel=2 note=74 velocity=0 time=2>\n",
      "<message note_on channel=2 note=76 velocity=82 time=28>\n",
      "<message note_on channel=2 note=77 velocity=0 time=5>\n",
      "<message note_on channel=2 note=76 velocity=0 time=24>\n",
      "<message note_on channel=2 note=74 velocity=87 time=1>\n",
      "<message note_on channel=2 note=79 velocity=85 time=30>\n",
      "<message note_on channel=2 note=74 velocity=0 time=9>\n",
      "<message note_on channel=2 note=77 velocity=91 time=21>\n",
      "<message note_on channel=2 note=79 velocity=0 time=7>\n",
      "<message note_on channel=2 note=76 velocity=102 time=23>\n",
      "<message note_on channel=2 note=77 velocity=0 time=9>\n",
      "<message note_on channel=2 note=74 velocity=98 time=21>\n",
      "<message note_on channel=2 note=76 velocity=0 time=2>\n",
      "<message note_on channel=2 note=76 velocity=105 time=28>\n",
      "<message note_on channel=2 note=74 velocity=0 time=11>\n",
      "<message note_on channel=2 note=76 velocity=0 time=9>\n",
      "<message note_on channel=2 note=79 velocity=95 time=40>\n",
      "<message note_on channel=2 note=79 velocity=0 time=30>\n",
      "<message note_on channel=2 note=74 velocity=91 time=30>\n",
      "<message note_on channel=2 note=74 velocity=0 time=24>\n",
      "<message note_on channel=2 note=79 velocity=93 time=36>\n",
      "<message note_on channel=2 note=79 velocity=0 time=22>\n",
      "<message note_on channel=2 note=72 velocity=87 time=38>\n",
      "<message note_on channel=2 note=72 velocity=0 time=27>\n",
      "<message note_on channel=2 note=84 velocity=107 time=33>\n",
      "<message note_on channel=2 note=83 velocity=98 time=90>\n",
      "<message note_on channel=2 note=84 velocity=0 time=7>\n",
      "<message note_on channel=2 note=81 velocity=82 time=23>\n",
      "<message note_on channel=2 note=83 velocity=0 time=7>\n",
      "<message note_on channel=2 note=81 velocity=0 time=20>\n",
      "<message note_on channel=2 note=79 velocity=78 time=3>\n",
      "<message note_on channel=2 note=78 velocity=107 time=30>\n",
      "<message note_on channel=2 note=79 velocity=0 time=5>\n",
      "<message note_on channel=2 note=76 velocity=93 time=25>\n",
      "<message note_on channel=2 note=78 velocity=0 time=1>\n",
      "<message note_on channel=2 note=74 velocity=72 time=29>\n",
      "<message note_on channel=2 note=76 velocity=0 time=1>\n",
      "<message note_on channel=2 note=74 velocity=0 time=21>\n",
      "<message note_on channel=2 note=72 velocity=98 time=8>\n",
      "<message note_on channel=2 note=71 velocity=110 time=30>\n",
      "<message note_on channel=2 note=72 velocity=0 time=11>\n",
      "<message note_on channel=2 note=69 velocity=95 time=19>\n",
      "<message note_on channel=2 note=71 velocity=0 time=22>\n",
      "<message note_on channel=2 note=69 velocity=0 time=8>\n",
      "<message note_on channel=2 note=67 velocity=76 time=0>\n",
      "<message note_on channel=2 note=66 velocity=107 time=30>\n",
      "<message note_on channel=2 note=67 velocity=0 time=2>\n",
      "<message note_on channel=2 note=67 velocity=100 time=28>\n",
      "<message note_on channel=2 note=66 velocity=0 time=3>\n",
      "<message note_on channel=2 note=67 velocity=0 time=91>\n",
      "<message note_on channel=2 note=67 velocity=78 time=90>\n",
      "<message note_on channel=2 note=72 velocity=98 time=58>\n",
      "<message note_on channel=2 note=67 velocity=0 time=2>\n",
      "<message note_on channel=2 note=71 velocity=93 time=31>\n",
      "<message note_on channel=2 note=72 velocity=0 time=3>\n",
      "<message note_on channel=2 note=72 velocity=87 time=27>\n",
      "<message note_on channel=2 note=71 velocity=0 time=7>\n",
      "<message note_on channel=2 note=74 velocity=91 time=20>\n",
      "<message note_on channel=2 note=72 velocity=0 time=7>\n",
      "<message note_on channel=2 note=76 velocity=87 time=24>\n",
      "<message note_on channel=2 note=74 velocity=0 time=4>\n",
      "<message note_on channel=2 note=72 velocity=82 time=21>\n",
      "<message note_on channel=2 note=76 velocity=0 time=6>\n",
      "<message note_on channel=2 note=71 velocity=100 time=25>\n",
      "<message note_on channel=2 note=72 velocity=0 time=9>\n",
      "<message note_on channel=2 note=69 velocity=82 time=20>\n",
      "<message note_on channel=2 note=71 velocity=0 time=7>\n",
      "<message note_on channel=2 note=67 velocity=72 time=25>\n",
      "<message note_on channel=2 note=69 velocity=0 time=1>\n",
      "<message note_on channel=2 note=65 velocity=82 time=25>\n",
      "<message note_on channel=2 note=67 velocity=0 time=3>\n",
      "<message note_on channel=2 note=64 velocity=78 time=26>\n",
      "<message note_on channel=2 note=65 velocity=0 time=10>\n",
      "<message note_on channel=2 note=62 velocity=89 time=22>\n",
      "<message note_on channel=2 note=64 velocity=0 time=5>\n",
      "<message note_on channel=2 note=60 velocity=78 time=27>\n",
      "<message note_on channel=2 note=62 velocity=0 time=3>\n",
      "<message note_on channel=2 note=60 velocity=0 time=232>\n",
      "<message note_on channel=2 note=69 velocity=85 time=66>\n",
      "<message note_on channel=2 note=69 velocity=0 time=59>\n",
      "<message note_on channel=2 note=74 velocity=91 time=1>\n",
      "<message note_on channel=2 note=73 velocity=87 time=30>\n",
      "<message note_on channel=2 note=74 velocity=0 time=6>\n",
      "<message note_on channel=2 note=74 velocity=85 time=24>\n",
      "<message note_on channel=2 note=73 velocity=0 time=8>\n",
      "<message note_on channel=2 note=76 velocity=95 time=22>\n",
      "<message note_on channel=2 note=74 velocity=0 time=2>\n",
      "<message note_on channel=2 note=77 velocity=89 time=28>\n",
      "<message note_on channel=2 note=76 velocity=0 time=3>\n",
      "<message note_on channel=2 note=74 velocity=80 time=27>\n",
      "<message note_on channel=2 note=77 velocity=0 time=2>\n",
      "<message note_on channel=2 note=72 velocity=76 time=28>\n",
      "<message note_on channel=2 note=74 velocity=0 time=9>\n",
      "<message note_on channel=2 note=70 velocity=72 time=21>\n",
      "<message note_on channel=2 note=72 velocity=0 time=8>\n",
      "<message note_on channel=2 note=69 velocity=70 time=22>\n",
      "<message note_on channel=2 note=70 velocity=0 time=1>\n",
      "<message note_on channel=2 note=69 velocity=0 time=27>\n",
      "<message note_on channel=2 note=67 velocity=80 time=2>\n",
      "<message note_on channel=2 note=65 velocity=89 time=30>\n",
      "<message note_on channel=2 note=67 velocity=0 time=6>\n",
      "<message note_on channel=2 note=65 velocity=0 time=22>\n",
      "<message note_on channel=2 note=64 velocity=70 time=2>\n",
      "<message note_on channel=2 note=62 velocity=102 time=30>\n",
      "<message note_on channel=2 note=64 velocity=0 time=8>\n",
      "<message note_on channel=2 note=71 velocity=105 time=142>\n",
      "<message note_on channel=2 note=62 velocity=0 time=1>\n",
      "<message note_on channel=2 note=62 velocity=98 time=29>\n",
      "<message note_on channel=2 note=71 velocity=0 time=1>\n",
      "<message note_on channel=2 note=71 velocity=102 time=29>\n",
      "<message note_on channel=2 note=62 velocity=0 time=1>\n",
      "<message note_on channel=2 note=71 velocity=0 time=27>\n",
      "<message note_on channel=2 note=60 velocity=95 time=2>\n",
      "<message note_on channel=2 note=60 velocity=0 time=30>\n",
      "<message note_on channel=2 note=69 velocity=102 time=0>\n",
      "<message note_on channel=2 note=69 velocity=0 time=27>\n",
      "<message note_on channel=2 note=60 velocity=89 time=3>\n",
      "<message note_on channel=2 note=69 velocity=98 time=30>\n",
      "<message note_on channel=2 note=60 velocity=0 time=1>\n",
      "<message note_on channel=2 note=69 velocity=0 time=29>\n",
      "<message note_on channel=2 note=59 velocity=89 time=0>\n",
      "<message note_on channel=2 note=69 velocity=98 time=30>\n",
      "<message note_on channel=2 note=59 velocity=0 time=1>\n",
      "<message note_on channel=2 note=69 velocity=0 time=28>\n",
      "<message note_on channel=2 note=57 velocity=78 time=1>\n",
      "<message note_on channel=2 note=69 velocity=89 time=30>\n",
      "<message note_on channel=2 note=57 velocity=0 time=7>\n",
      "<message note_on channel=2 note=68 velocity=87 time=23>\n",
      "<message note_on channel=2 note=69 velocity=0 time=2>\n",
      "<message note_on channel=2 note=64 velocity=82 time=28>\n",
      "<message note_on channel=2 note=68 velocity=0 time=1>\n",
      "<message note_on channel=2 note=66 velocity=74 time=29>\n",
      "<message note_on channel=2 note=64 velocity=0 time=9>\n",
      "<message note_on channel=2 note=68 velocity=82 time=21>\n",
      "<message note_on channel=2 note=66 velocity=0 time=5>\n",
      "<message note_on channel=2 note=69 velocity=80 time=25>\n",
      "<message note_on channel=2 note=68 velocity=0 time=4>\n",
      "<message note_on channel=2 note=69 velocity=0 time=26>\n",
      "<message note_on channel=2 note=68 velocity=80 time=0>\n",
      "<message note_on channel=2 note=69 velocity=76 time=30>\n",
      "<message note_on channel=2 note=68 velocity=0 time=6>\n",
      "<message note_on channel=2 note=72 velocity=78 time=24>\n",
      "<message note_on channel=2 note=69 velocity=0 time=3>\n",
      "<message note_on channel=2 note=71 velocity=68 time=27>\n",
      "<message note_on channel=2 note=72 velocity=0 time=4>\n",
      "<message note_on channel=2 note=69 velocity=80 time=26>\n",
      "<message note_on channel=2 note=71 velocity=0 time=7>\n",
      "<message note_on channel=2 note=68 velocity=87 time=23>\n",
      "<message note_on channel=2 note=69 velocity=0 time=6>\n",
      "<message note_on channel=2 note=66 velocity=59 time=24>\n",
      "<message note_on channel=2 note=68 velocity=0 time=1>\n",
      "<message note_on channel=2 note=66 velocity=0 time=18>\n",
      "<message note_on channel=2 note=64 velocity=58 time=11>\n",
      "<message note_on channel=2 note=66 velocity=78 time=30>\n",
      "<message note_on channel=2 note=64 velocity=0 time=12>\n",
      "<message note_on channel=2 note=66 velocity=0 time=17>\n",
      "<message note_on channel=2 note=67 velocity=87 time=1>\n",
      "<message note_on channel=2 note=69 velocity=95 time=30>\n",
      "<message note_on channel=2 note=67 velocity=0 time=2>\n",
      "<message note_on channel=2 note=71 velocity=102 time=28>\n",
      "<message note_on channel=2 note=69 velocity=0 time=10>\n",
      "<message note_on channel=2 note=74 velocity=85 time=20>\n",
      "<message note_on channel=2 note=71 velocity=0 time=7>\n",
      "<message note_on channel=2 note=72 velocity=85 time=23>\n",
      "<message note_on channel=2 note=74 velocity=0 time=7>\n",
      "<message note_on channel=2 note=71 velocity=100 time=23>\n",
      "<message note_on channel=2 note=72 velocity=0 time=3>\n",
      "<message note_on channel=2 note=76 velocity=87 time=27>\n",
      "<message note_on channel=2 note=71 velocity=0 time=4>\n",
      "<message note_on channel=2 note=74 velocity=91 time=26>\n",
      "<message note_on channel=2 note=76 velocity=0 time=8>\n",
      "<message note_on channel=2 note=72 velocity=98 time=22>\n",
      "<message note_on channel=2 note=74 velocity=0 time=9>\n",
      "<message note_on channel=2 note=71 velocity=85 time=21>\n",
      "<message note_on channel=2 note=72 velocity=0 time=1>\n",
      "<message note_on channel=2 note=72 velocity=95 time=29>\n",
      "<message note_on channel=2 note=71 velocity=0 time=7>\n",
      "<message note_on channel=2 note=72 velocity=0 time=713>\n",
      "<message note_on channel=2 note=69 velocity=82 time=30>\n",
      "<message note_on channel=2 note=71 velocity=80 time=30>\n",
      "<message note_on channel=2 note=69 velocity=0 time=5>\n",
      "<message note_on channel=2 note=73 velocity=82 time=25>\n",
      "<message note_on channel=2 note=71 velocity=0 time=7>\n",
      "<message note_on channel=2 note=74 velocity=80 time=23>\n",
      "<message note_on channel=2 note=73 velocity=0 time=5>\n",
      "<message note_on channel=2 note=74 velocity=0 time=23>\n",
      "<message note_on channel=2 note=73 velocity=80 time=2>\n",
      "<message note_on channel=2 note=74 velocity=76 time=30>\n",
      "<message note_on channel=2 note=73 velocity=0 time=6>\n",
      "<message note_on channel=2 note=77 velocity=72 time=24>\n",
      "<message note_on channel=2 note=74 velocity=0 time=3>\n",
      "<message note_on channel=2 note=76 velocity=70 time=27>\n",
      "<message note_on channel=2 note=77 velocity=0 time=5>\n",
      "<message note_on channel=2 note=74 velocity=78 time=25>\n",
      "<message note_on channel=2 note=76 velocity=0 time=7>\n",
      "<message note_on channel=2 note=73 velocity=66 time=23>\n",
      "<message note_on channel=2 note=74 velocity=0 time=3>\n",
      "<message note_on channel=2 note=73 velocity=0 time=24>\n",
      "<message note_on channel=2 note=71 velocity=68 time=3>\n",
      "<message note_on channel=2 note=69 velocity=93 time=30>\n",
      "<message note_on channel=2 note=71 velocity=0 time=4>\n",
      "<message note_on channel=2 note=69 velocity=0 time=25>\n",
      "<message note_on channel=2 note=71 velocity=87 time=1>\n",
      "<message note_on channel=2 note=72 velocity=80 time=30>\n",
      "<message note_on channel=2 note=71 velocity=0 time=1>\n",
      "<message note_on channel=2 note=74 velocity=76 time=29>\n",
      "<message note_on channel=2 note=72 velocity=0 time=7>\n",
      "<message note_on channel=2 note=76 velocity=72 time=23>\n",
      "<message note_on channel=2 note=74 velocity=0 time=6>\n",
      "<message note_on channel=2 note=79 velocity=82 time=24>\n",
      "<message note_on channel=2 note=76 velocity=0 time=4>\n",
      "<message note_on channel=2 note=77 velocity=72 time=26>\n",
      "<message note_on channel=2 note=79 velocity=0 time=8>\n",
      "<message note_on channel=2 note=76 velocity=72 time=22>\n",
      "<message note_on channel=2 note=77 velocity=0 time=4>\n",
      "<message note_on channel=2 note=81 velocity=80 time=26>\n",
      "<message note_on channel=2 note=76 velocity=0 time=5>\n",
      "<message note_on channel=2 note=79 velocity=72 time=25>\n",
      "<message note_on channel=2 note=81 velocity=0 time=6>\n",
      "<message note_on channel=2 note=77 velocity=87 time=24>\n",
      "<message note_on channel=2 note=79 velocity=0 time=11>\n",
      "<message note_on channel=2 note=76 velocity=76 time=19>\n",
      "<message note_on channel=2 note=77 velocity=0 time=2>\n",
      "<message note_on channel=2 note=77 velocity=74 time=28>\n",
      "<message note_on channel=2 note=76 velocity=0 time=8>\n",
      "<message note_on channel=2 note=76 velocity=82 time=22>\n",
      "<message note_on channel=2 note=77 velocity=0 time=9>\n",
      "<message note_on channel=2 note=74 velocity=80 time=21>\n",
      "<message note_on channel=2 note=76 velocity=0 time=4>\n",
      "<message note_on channel=2 note=76 velocity=82 time=26>\n",
      "<message note_on channel=2 note=74 velocity=0 time=7>\n",
      "<message note_on channel=2 note=77 velocity=66 time=23>\n",
      "<message note_on channel=2 note=76 velocity=0 time=3>\n",
      "<message note_on channel=2 note=76 velocity=68 time=27>\n",
      "<message note_on channel=2 note=77 velocity=0 time=3>\n",
      "<message note_on channel=2 note=77 velocity=82 time=27>\n",
      "<message note_on channel=2 note=76 velocity=0 time=6>\n",
      "<message note_on channel=2 note=81 velocity=70 time=24>\n",
      "<message note_on channel=2 note=77 velocity=0 time=5>\n",
      "<message note_on channel=2 note=79 velocity=80 time=25>\n",
      "<message note_on channel=2 note=81 velocity=0 time=5>\n",
      "<message note_on channel=2 note=77 velocity=78 time=25>\n",
      "<message note_on channel=2 note=79 velocity=0 time=8>\n",
      "<message note_on channel=2 note=76 velocity=85 time=22>\n",
      "<message note_on channel=2 note=77 velocity=0 time=5>\n",
      "<message note_on channel=2 note=76 velocity=0 time=20>\n",
      "<message note_on channel=2 note=74 velocity=68 time=5>\n",
      "<message note_on channel=2 note=76 velocity=82 time=30>\n",
      "<message note_on channel=2 note=74 velocity=0 time=3>\n",
      "<message note_on channel=2 note=76 velocity=0 time=56>\n",
      "<message note_on channel=2 note=69 velocity=89 time=1>\n",
      "<message note_on channel=2 note=69 velocity=0 time=51>\n",
      "<message note_on channel=2 note=74 velocity=91 time=279>\n",
      "<message note_on channel=2 note=73 velocity=87 time=30>\n",
      "<message note_on channel=2 note=74 velocity=0 time=1>\n",
      "<message note_on channel=2 note=74 velocity=82 time=29>\n",
      "<message note_on channel=2 note=73 velocity=0 time=3>\n",
      "<message note_on channel=2 note=77 velocity=82 time=27>\n",
      "<message note_on channel=2 note=74 velocity=0 time=5>\n",
      "<message note_on channel=2 note=77 velocity=0 time=25>\n",
      "<message note_on channel=2 note=74 velocity=85 time=0>\n",
      "<message note_on channel=2 note=73 velocity=102 time=30>\n",
      "<message note_on channel=2 note=74 velocity=0 time=5>\n",
      "<message note_on channel=2 note=74 velocity=80 time=25>\n",
      "<message note_on channel=2 note=73 velocity=0 time=1>\n",
      "<message note_on channel=2 note=69 velocity=100 time=29>\n",
      "<message note_on channel=2 note=74 velocity=0 time=2>\n",
      "<message note_on channel=2 note=74 velocity=102 time=28>\n",
      "<message note_on channel=2 note=69 velocity=0 time=2>\n",
      "<message note_on channel=2 note=65 velocity=102 time=28>\n",
      "<message note_on channel=2 note=74 velocity=0 time=5>\n",
      "<message note_on channel=2 note=69 velocity=93 time=25>\n",
      "<message note_on channel=2 note=65 velocity=0 time=5>\n",
      "<message note_on channel=2 note=69 velocity=0 time=25>\n",
      "<message note_on channel=2 note=62 velocity=91 time=0>\n",
      "<message note_on channel=2 note=62 velocity=0 time=81>\n",
      "<message note_on channel=2 note=72 velocity=102 time=309>\n",
      "<message note_on channel=2 note=72 velocity=0 time=30>\n",
      "<message note_on channel=2 note=71 velocity=82 time=0>\n",
      "<message note_on channel=2 note=72 velocity=85 time=30>\n",
      "<message note_on channel=2 note=71 velocity=0 time=8>\n",
      "<message note_on channel=2 note=76 velocity=85 time=22>\n",
      "<message note_on channel=2 note=72 velocity=0 time=2>\n",
      "<message note_on channel=2 note=72 velocity=85 time=28>\n",
      "<message note_on channel=2 note=76 velocity=0 time=4>\n",
      "<message note_on channel=2 note=71 velocity=89 time=26>\n",
      "<message note_on channel=2 note=72 velocity=0 time=6>\n",
      "<message note_on channel=2 note=72 velocity=82 time=24>\n",
      "<message note_on channel=2 note=71 velocity=0 time=1>\n",
      "<message note_on channel=2 note=67 velocity=95 time=29>\n",
      "<message note_on channel=2 note=72 velocity=0 time=6>\n",
      "<message note_on channel=2 note=72 velocity=91 time=24>\n",
      "<message note_on channel=2 note=67 velocity=0 time=3>\n",
      "<message note_on channel=2 note=72 velocity=0 time=13>\n",
      "<message note_on channel=2 note=64 velocity=100 time=14>\n",
      "<message note_on channel=2 note=64 velocity=0 time=14>\n",
      "<message note_on channel=2 note=67 velocity=100 time=16>\n",
      "<message note_on channel=2 note=67 velocity=0 time=11>\n",
      "<message note_on channel=2 note=60 velocity=102 time=19>\n",
      "<message note_on channel=2 note=60 velocity=0 time=94>\n",
      "<message note_on channel=2 note=77 velocity=87 time=296>\n",
      "<message note_on channel=2 note=76 velocity=82 time=30>\n",
      "<message note_on channel=2 note=77 velocity=0 time=3>\n",
      "<message note_on channel=2 note=77 velocity=80 time=27>\n",
      "<message note_on channel=2 note=76 velocity=0 time=8>\n",
      "<message note_on channel=2 note=81 velocity=72 time=22>\n",
      "<message note_on channel=2 note=77 velocity=0 time=5>\n",
      "<message note_on channel=2 note=77 velocity=72 time=25>\n",
      "<message note_on channel=2 note=81 velocity=0 time=5>\n",
      "<message note_on channel=2 note=76 velocity=82 time=25>\n",
      "<message note_on channel=2 note=77 velocity=0 time=6>\n",
      "<message note_on channel=2 note=77 velocity=76 time=24>\n",
      "<message note_on channel=2 note=76 velocity=0 time=7>\n",
      "<message note_on channel=2 note=77 velocity=0 time=19>\n",
      "<message note_on channel=2 note=72 velocity=85 time=4>\n",
      "<message note_on channel=2 note=72 velocity=0 time=16>\n",
      "<message note_on channel=2 note=77 velocity=91 time=14>\n",
      "<message note_on channel=2 note=77 velocity=0 time=15>\n",
      "<message note_on channel=2 note=69 velocity=66 time=15>\n",
      "<message note_on channel=2 note=69 velocity=0 time=20>\n",
      "<message note_on channel=2 note=72 velocity=59 time=10>\n",
      "<message note_on channel=2 note=72 velocity=0 time=12>\n",
      "<message note_on channel=2 note=65 velocity=74 time=18>\n",
      "<message note_on channel=2 note=65 velocity=0 time=22>\n",
      "<message note_on channel=2 note=81 velocity=89 time=38>\n",
      "<message note_on channel=2 note=81 velocity=0 time=19>\n",
      "<message note_on channel=2 note=77 velocity=87 time=41>\n",
      "<message note_on channel=2 note=77 velocity=0 time=21>\n",
      "<message note_on channel=2 note=81 velocity=85 time=39>\n",
      "<message note_on channel=2 note=81 velocity=0 time=21>\n",
      "<message note_on channel=2 note=82 velocity=93 time=39>\n",
      "<message note_on channel=2 note=82 velocity=0 time=56>\n",
      "<message note_on channel=2 note=81 velocity=89 time=4>\n",
      "<message note_on channel=2 note=81 velocity=0 time=30>\n",
      "<message note_on channel=2 note=79 velocity=102 time=0>\n",
      "<message note_on channel=2 note=79 velocity=0 time=21>\n",
      "<message note_on channel=2 note=81 velocity=102 time=9>\n",
      "<message note_on channel=2 note=81 velocity=0 time=127>\n",
      "<message note_on channel=2 note=72 velocity=85 time=293>\n",
      "<message note_on channel=2 note=72 velocity=0 time=18>\n",
      "<message note_on channel=2 note=69 velocity=85 time=42>\n",
      "<message note_on channel=2 note=69 velocity=0 time=19>\n",
      "<message note_on channel=2 note=72 velocity=89 time=41>\n",
      "<message note_on channel=2 note=72 velocity=0 time=18>\n",
      "<message note_on channel=2 note=74 velocity=89 time=42>\n",
      "<message note_on channel=2 note=74 velocity=0 time=57>\n",
      "<message note_on channel=2 note=72 velocity=93 time=3>\n",
      "<message note_on channel=2 note=72 velocity=0 time=29>\n",
      "<message note_on channel=2 note=70 velocity=100 time=1>\n",
      "<message note_on channel=2 note=72 velocity=85 time=30>\n",
      "<message note_on channel=2 note=70 velocity=0 time=2>\n",
      "<message note_on channel=2 note=72 velocity=0 time=30>\n",
      "<message note_on channel=2 note=65 velocity=85 time=28>\n",
      "<message note_on channel=2 note=65 velocity=0 time=23>\n",
      "<message note_on channel=2 note=67 velocity=100 time=7>\n",
      "<message note_on channel=2 note=69 velocity=100 time=30>\n",
      "<message note_on channel=2 note=67 velocity=0 time=4>\n",
      "<message note_on channel=2 note=69 velocity=0 time=17>\n",
      "<message note_on channel=2 note=60 velocity=87 time=39>\n",
      "<message note_on channel=2 note=60 velocity=0 time=27>\n",
      "<message note_on channel=2 note=62 velocity=87 time=33>\n",
      "<message note_on channel=2 note=62 velocity=0 time=33>\n",
      "<message note_on channel=2 note=71 velocity=85 time=27>\n",
      "<message note_on channel=2 note=71 velocity=0 time=24>\n",
      "<message note_on channel=2 note=72 velocity=91 time=36>\n",
      "<message note_on channel=2 note=67 velocity=60 time=30>\n",
      "<message note_on channel=2 note=72 velocity=0 time=1>\n",
      "<message note_on channel=2 note=69 velocity=80 time=29>\n",
      "<message note_on channel=2 note=67 velocity=0 time=5>\n",
      "<message note_on channel=2 note=71 velocity=80 time=25>\n",
      "<message note_on channel=2 note=69 velocity=0 time=6>\n",
      "<message note_on channel=2 note=72 velocity=85 time=24>\n",
      "<message note_on channel=2 note=71 velocity=0 time=4>\n",
      "<message note_on channel=2 note=71 velocity=82 time=26>\n",
      "<message note_on channel=2 note=72 velocity=0 time=1>\n",
      "<message note_on channel=2 note=72 velocity=85 time=29>\n",
      "<message note_on channel=2 note=71 velocity=0 time=6>\n",
      "<message note_on channel=2 note=76 velocity=80 time=24>\n",
      "<message note_on channel=2 note=72 velocity=0 time=4>\n",
      "<message note_on channel=2 note=74 velocity=91 time=26>\n",
      "<message note_on channel=2 note=76 velocity=0 time=5>\n",
      "<message note_on channel=2 note=72 velocity=95 time=25>\n",
      "<message note_on channel=2 note=74 velocity=0 time=13>\n",
      "<message note_on channel=2 note=71 velocity=85 time=17>\n",
      "<message note_on channel=2 note=72 velocity=0 time=7>\n",
      "<message note_on channel=2 note=71 velocity=0 time=20>\n",
      "<message note_on channel=2 note=69 velocity=64 time=3>\n",
      "<message note_on channel=2 note=71 velocity=89 time=30>\n",
      "<message note_on channel=2 note=69 velocity=0 time=9>\n",
      "<message note_on channel=2 note=71 velocity=0 time=13>\n",
      "<message note_on channel=2 note=67 velocity=87 time=38>\n",
      "<message note_on channel=2 note=69 velocity=93 time=30>\n",
      "<message note_on channel=2 note=67 velocity=0 time=1>\n",
      "<message note_on channel=2 note=71 velocity=102 time=29>\n",
      "<message note_on channel=2 note=69 velocity=0 time=6>\n",
      "<message note_on channel=2 note=71 velocity=0 time=17>\n",
      "<message note_on channel=2 note=62 velocity=87 time=37>\n",
      "<message note_on channel=2 note=62 velocity=0 time=34>\n",
      "<message note_on channel=2 note=64 velocity=85 time=26>\n",
      "<message note_on channel=2 note=64 velocity=0 time=29>\n",
      "<message note_on channel=2 note=73 velocity=93 time=31>\n",
      "<message note_on channel=2 note=73 velocity=0 time=24>\n",
      "<message note_on channel=2 note=74 velocity=98 time=36>\n",
      "<message note_on channel=2 note=69 velocity=87 time=30>\n",
      "<message note_on channel=2 note=74 velocity=0 time=3>\n",
      "<message note_on channel=2 note=71 velocity=89 time=27>\n",
      "<message note_on channel=2 note=69 velocity=0 time=7>\n",
      "<message note_on channel=2 note=72 velocity=85 time=23>\n",
      "<message note_on channel=2 note=71 velocity=0 time=2>\n",
      "<message note_on channel=2 note=74 velocity=85 time=28>\n",
      "<message note_on channel=2 note=72 velocity=0 time=4>\n",
      "<message note_on channel=2 note=72 velocity=68 time=26>\n",
      "<message note_on channel=2 note=74 velocity=0 time=5>\n",
      "<message note_on channel=2 note=74 velocity=89 time=25>\n",
      "<message note_on channel=2 note=72 velocity=0 time=7>\n",
      "<message note_on channel=2 note=77 velocity=85 time=23>\n",
      "<message note_on channel=2 note=74 velocity=0 time=2>\n",
      "<message note_on channel=2 note=76 velocity=95 time=28>\n",
      "<message note_on channel=2 note=77 velocity=0 time=9>\n",
      "<message note_on channel=2 note=74 velocity=98 time=21>\n",
      "<message note_on channel=2 note=76 velocity=0 time=6>\n",
      "<message note_on channel=2 note=72 velocity=93 time=24>\n",
      "<message note_on channel=2 note=74 velocity=0 time=8>\n",
      "<message note_on channel=2 note=71 velocity=68 time=22>\n",
      "<message note_on channel=2 note=72 velocity=0 time=2>\n",
      "<message note_on channel=2 note=71 velocity=0 time=27>\n",
      "<message note_on channel=2 note=72 velocity=89 time=1>\n",
      "<message note_on channel=2 note=72 velocity=0 time=119>\n",
      "<message note_on channel=2 note=76 velocity=85 time=301>\n",
      "<message note_on channel=2 note=76 velocity=0 time=21>\n",
      "<message note_on channel=2 note=72 velocity=87 time=39>\n",
      "<message note_on channel=2 note=72 velocity=0 time=24>\n",
      "<message note_on channel=2 note=76 velocity=80 time=36>\n",
      "<message note_on channel=2 note=76 velocity=0 time=24>\n",
      "<message note_on channel=2 note=77 velocity=107 time=36>\n",
      "<message note_on channel=2 note=76 velocity=98 time=60>\n",
      "<message note_on channel=2 note=77 velocity=0 time=6>\n",
      "<message note_on channel=2 note=74 velocity=66 time=24>\n",
      "<message note_on channel=2 note=76 velocity=0 time=1>\n",
      "<message note_on channel=2 note=74 velocity=0 time=28>\n",
      "<message note_on channel=2 note=76 velocity=85 time=1>\n",
      "<message note_on channel=2 note=76 velocity=0 time=28>\n",
      "<message note_on channel=2 note=81 velocity=78 time=2>\n",
      "<message note_on channel=2 note=81 velocity=0 time=28>\n",
      "<message note_on channel=2 note=80 velocity=85 time=2>\n",
      "<message note_on channel=2 note=81 velocity=80 time=30>\n",
      "<message note_on channel=2 note=80 velocity=0 time=6>\n",
      "<message note_on channel=2 note=84 velocity=89 time=24>\n",
      "<message note_on channel=2 note=81 velocity=0 time=3>\n",
      "<message note_on channel=2 note=81 velocity=82 time=27>\n",
      "<message note_on channel=2 note=84 velocity=0 time=1>\n",
      "<message note_on channel=2 note=80 velocity=100 time=29>\n",
      "<message note_on channel=2 note=81 velocity=0 time=5>\n",
      "<message note_on channel=2 note=81 velocity=82 time=25>\n",
      "<message note_on channel=2 note=80 velocity=0 time=1>\n",
      "<message note_on channel=2 note=76 velocity=85 time=29>\n",
      "<message note_on channel=2 note=81 velocity=0 time=2>\n",
      "<message note_on channel=2 note=81 velocity=95 time=28>\n",
      "<message note_on channel=2 note=76 velocity=0 time=1>\n",
      "<message note_on channel=2 note=72 velocity=102 time=29>\n",
      "<message note_on channel=2 note=81 velocity=0 time=1>\n",
      "<message note_on channel=2 note=76 velocity=85 time=29>\n",
      "<message note_on channel=2 note=72 velocity=0 time=4>\n",
      "<message note_on channel=2 note=76 velocity=0 time=25>\n",
      "<message note_on channel=2 note=69 velocity=85 time=1>\n",
      "<message note_on channel=2 note=69 velocity=0 time=30>\n",
      "<message note_on channel=2 note=72 velocity=95 time=30>\n",
      "<message note_on channel=2 note=72 velocity=0 time=20>\n",
      "<message note_on channel=2 note=69 velocity=91 time=40>\n",
      "<message note_on channel=2 note=69 velocity=0 time=24>\n",
      "<message note_on channel=2 note=72 velocity=95 time=36>\n",
      "<message note_on channel=2 note=72 velocity=0 time=22>\n",
      "<message note_on channel=2 note=74 velocity=98 time=38>\n",
      "<message note_on channel=2 note=74 velocity=0 time=48>\n",
      "<message note_on channel=2 note=72 velocity=107 time=12>\n",
      "<message note_on channel=2 note=71 velocity=107 time=30>\n",
      "<message note_on channel=2 note=72 velocity=0 time=3>\n",
      "<message note_on channel=2 note=71 velocity=0 time=23>\n",
      "<message note_on channel=2 note=72 velocity=100 time=4>\n",
      "<message note_on channel=2 note=72 velocity=0 time=107>\n",
      "<message note_on channel=2 note=69 velocity=74 time=643>\n",
      "<message note_on channel=2 note=71 velocity=87 time=30>\n",
      "<message note_on channel=2 note=69 velocity=0 time=1>\n",
      "<message note_on channel=2 note=73 velocity=85 time=29>\n",
      "<message note_on channel=2 note=71 velocity=0 time=5>\n",
      "<message note_on channel=2 note=74 velocity=87 time=25>\n",
      "<message note_on channel=2 note=73 velocity=0 time=2>\n",
      "<message note_on channel=2 note=74 velocity=0 time=27>\n",
      "<message note_on channel=2 note=73 velocity=89 time=1>\n",
      "<message note_on channel=2 note=74 velocity=78 time=30>\n",
      "<message note_on channel=2 note=73 velocity=0 time=8>\n",
      "<message note_on channel=2 note=77 velocity=85 time=22>\n",
      "<message note_on channel=2 note=74 velocity=0 time=7>\n",
      "<message note_on channel=2 note=76 velocity=91 time=23>\n",
      "<message note_on channel=2 note=77 velocity=0 time=4>\n",
      "<message note_on channel=2 note=74 velocity=95 time=26>\n",
      "<message note_on channel=2 note=76 velocity=0 time=5>\n",
      "<message note_on channel=2 note=73 velocity=98 time=25>\n",
      "<message note_on channel=2 note=74 velocity=0 time=1>\n",
      "<message note_on channel=2 note=73 velocity=0 time=22>\n",
      "<message note_on channel=2 note=71 velocity=70 time=7>\n",
      "<message note_on channel=2 note=69 velocity=100 time=30>\n",
      "<message note_on channel=2 note=71 velocity=0 time=1>\n",
      "<message note_on channel=2 note=69 velocity=0 time=26>\n",
      "<message note_on channel=2 note=71 velocity=85 time=3>\n",
      "<message note_on channel=2 note=73 velocity=98 time=30>\n",
      "<message note_on channel=2 note=71 velocity=0 time=5>\n",
      "<message note_on channel=2 note=74 velocity=89 time=25>\n",
      "<message note_on channel=2 note=73 velocity=0 time=5>\n",
      "<message note_on channel=2 note=76 velocity=100 time=25>\n",
      "<message note_on channel=2 note=74 velocity=0 time=10>\n",
      "<message note_on channel=2 note=79 velocity=85 time=20>\n",
      "<message note_on channel=2 note=76 velocity=0 time=5>\n",
      "<message note_on channel=2 note=77 velocity=100 time=25>\n",
      "<message note_on channel=2 note=79 velocity=0 time=7>\n",
      "<message note_on channel=2 note=76 velocity=87 time=23>\n",
      "<message note_on channel=2 note=77 velocity=0 time=2>\n",
      "<message note_on channel=2 note=81 velocity=85 time=28>\n",
      "<message note_on channel=2 note=76 velocity=0 time=5>\n",
      "<message note_on channel=2 note=79 velocity=93 time=25>\n",
      "<message note_on channel=2 note=81 velocity=0 time=3>\n",
      "<message note_on channel=2 note=77 velocity=98 time=27>\n",
      "<message note_on channel=2 note=79 velocity=0 time=8>\n",
      "<message note_on channel=2 note=76 velocity=89 time=22>\n",
      "<message note_on channel=2 note=77 velocity=0 time=1>\n",
      "<message note_on channel=2 note=77 velocity=89 time=29>\n",
      "<message note_on channel=2 note=76 velocity=0 time=4>\n",
      "<message note_on channel=2 note=74 velocity=95 time=26>\n",
      "<message note_on channel=2 note=77 velocity=0 time=5>\n",
      "<message note_on channel=2 note=73 velocity=82 time=25>\n",
      "<message note_on channel=2 note=74 velocity=0 time=2>\n",
      "<message note_on channel=2 note=71 velocity=80 time=28>\n",
      "<message note_on channel=2 note=73 velocity=0 time=1>\n",
      "<message note_on channel=2 note=71 velocity=0 time=25>\n",
      "<message note_on channel=2 note=69 velocity=105 time=4>\n",
      "<message note_on channel=2 note=67 velocity=98 time=30>\n",
      "<message note_on channel=2 note=69 velocity=0 time=9>\n",
      "<message note_on channel=2 note=65 velocity=102 time=21>\n",
      "<message note_on channel=2 note=67 velocity=0 time=3>\n",
      "<message note_on channel=2 note=65 velocity=0 time=25>\n",
      "<message note_on channel=2 note=64 velocity=72 time=2>\n",
      "<message note_on channel=2 note=62 velocity=100 time=30>\n",
      "<message note_on channel=2 note=64 velocity=0 time=6>\n",
      "<message note_on channel=2 note=62 velocity=0 time=228>\n",
      "<message note_on channel=2 note=67 velocity=89 time=66>\n",
      "<message note_on channel=2 note=67 velocity=0 time=24>\n",
      "<message note_on channel=2 note=72 velocity=95 time=36>\n",
      "<message note_on channel=2 note=71 velocity=80 time=30>\n",
      "<message note_on channel=2 note=72 velocity=0 time=4>\n",
      "<message note_on channel=2 note=72 velocity=80 time=26>\n",
      "<message note_on channel=2 note=71 velocity=0 time=10>\n",
      "<message note_on channel=2 note=74 velocity=87 time=20>\n",
      "<message note_on channel=2 note=72 velocity=0 time=1>\n",
      "<message note_on channel=2 note=76 velocity=98 time=29>\n",
      "<message note_on channel=2 note=74 velocity=0 time=4>\n",
      "<message note_on channel=2 note=76 velocity=0 time=6>\n",
      "<message note_on channel=2 note=76 velocity=100 time=20>\n",
      "<message note_on channel=2 note=74 velocity=85 time=30>\n",
      "<message note_on channel=2 note=76 velocity=0 time=3>\n",
      "<message note_on channel=2 note=72 velocity=102 time=27>\n",
      "<message note_on channel=2 note=74 velocity=0 time=11>\n",
      "<message note_on channel=2 note=71 velocity=91 time=19>\n",
      "<message note_on channel=2 note=72 velocity=0 time=6>\n",
      "<message note_on channel=2 note=71 velocity=0 time=24>\n",
      "<message note_on channel=2 note=69 velocity=76 time=0>\n",
      "<message note_on channel=2 note=68 velocity=102 time=30>\n",
      "<message note_on channel=2 note=69 velocity=0 time=4>\n",
      "<message note_on channel=2 note=66 velocity=107 time=26>\n",
      "<message note_on channel=2 note=68 velocity=0 time=6>\n",
      "<message note_on channel=2 note=64 velocity=93 time=24>\n",
      "<message note_on channel=2 note=66 velocity=0 time=6>\n",
      "<message note_on channel=2 note=64 velocity=0 time=230>\n",
      "<message note_on channel=2 note=69 velocity=95 time=64>\n",
      "<message note_on channel=2 note=69 velocity=0 time=26>\n",
      "<message note_on channel=2 note=75 velocity=113 time=34>\n",
      "<message note_on channel=2 note=73 velocity=93 time=30>\n",
      "<message note_on channel=2 note=75 velocity=0 time=4>\n",
      "<message note_on channel=2 note=75 velocity=89 time=26>\n",
      "<message note_on channel=2 note=73 velocity=0 time=8>\n",
      "<message note_on channel=2 note=76 velocity=80 time=22>\n",
      "<message note_on channel=2 note=75 velocity=0 time=1>\n",
      "<message note_on channel=2 note=78 velocity=102 time=29>\n",
      "<message note_on channel=2 note=76 velocity=0 time=3>\n",
      "<message note_on channel=2 note=78 velocity=0 time=24>\n",
      "<message note_on channel=2 note=71 velocity=95 time=33>\n",
      "<message note_on channel=2 note=71 velocity=0 time=86>\n",
      "<message note_on channel=2 note=76 velocity=102 time=34>\n",
      "<message note_on channel=2 note=76 velocity=0 time=96>\n",
      "<message note_on channel=2 note=69 velocity=102 time=24>\n",
      "<message note_on channel=2 note=69 velocity=0 time=36>\n",
      "<message note_on channel=2 note=71 velocity=95 time=24>\n",
      "<message note_on channel=2 note=71 velocity=0 time=724>\n",
      "<message note_on channel=2 note=67 velocity=76 time=26>\n",
      "<message note_on channel=2 note=69 velocity=102 time=30>\n",
      "<message note_on channel=2 note=67 velocity=0 time=7>\n",
      "<message note_on channel=2 note=71 velocity=102 time=23>\n",
      "<message note_on channel=2 note=69 velocity=0 time=6>\n",
      "<message note_on channel=2 note=72 velocity=98 time=24>\n",
      "<message note_on channel=2 note=71 velocity=0 time=2>\n",
      "<message note_on channel=2 note=72 velocity=0 time=27>\n",
      "<message note_on channel=2 note=71 velocity=102 time=1>\n",
      "<message note_on channel=2 note=72 velocity=95 time=30>\n",
      "<message note_on channel=2 note=71 velocity=0 time=5>\n",
      "<message note_on channel=2 note=76 velocity=85 time=25>\n",
      "<message note_on channel=2 note=72 velocity=0 time=3>\n",
      "<message note_on channel=2 note=74 velocity=95 time=27>\n",
      "<message note_on channel=2 note=76 velocity=0 time=6>\n",
      "<message note_on channel=2 note=72 velocity=98 time=24>\n",
      "<message note_on channel=2 note=74 velocity=0 time=11>\n",
      "<message note_on channel=2 note=71 velocity=95 time=19>\n",
      "<message note_on channel=2 note=72 velocity=0 time=3>\n",
      "<message note_on channel=2 note=69 velocity=68 time=27>\n",
      "<message note_on channel=2 note=71 velocity=0 time=4>\n",
      "<message note_on channel=2 note=67 velocity=93 time=26>\n",
      "<message note_on channel=2 note=69 velocity=0 time=4>\n",
      "<message note_on channel=2 note=67 velocity=0 time=25>\n",
      "<message note_on channel=2 note=69 velocity=87 time=1>\n",
      "<message note_on channel=2 note=71 velocity=87 time=30>\n",
      "<message note_on channel=2 note=69 velocity=0 time=4>\n",
      "<message note_on channel=2 note=72 velocity=82 time=26>\n",
      "<message note_on channel=2 note=71 velocity=0 time=7>\n",
      "<message note_on channel=2 note=74 velocity=85 time=23>\n",
      "<message note_on channel=2 note=72 velocity=0 time=5>\n",
      "<message note_on channel=2 note=77 velocity=87 time=25>\n",
      "<message note_on channel=2 note=74 velocity=0 time=3>\n",
      "<message note_on channel=2 note=76 velocity=102 time=27>\n",
      "<message note_on channel=2 note=77 velocity=0 time=7>\n",
      "<message note_on channel=2 note=74 velocity=100 time=23>\n",
      "<message note_on channel=2 note=76 velocity=0 time=3>\n",
      "<message note_on channel=2 note=79 velocity=85 time=27>\n",
      "<message note_on channel=2 note=74 velocity=0 time=4>\n",
      "<message note_on channel=2 note=77 velocity=91 time=26>\n",
      "<message note_on channel=2 note=79 velocity=0 time=9>\n",
      "<message note_on channel=2 note=76 velocity=102 time=21>\n",
      "<message note_on channel=2 note=77 velocity=0 time=5>\n",
      "<message note_on channel=2 note=74 velocity=85 time=25>\n",
      "<message note_on channel=2 note=76 velocity=0 time=2>\n",
      "<message note_on channel=2 note=76 velocity=102 time=28>\n",
      "<message note_on channel=2 note=74 velocity=0 time=6>\n",
      "<message note_on channel=2 note=76 velocity=0 time=701>\n",
      "<message note_on channel=2 note=64 velocity=87 time=43>\n",
      "<message note_on channel=2 note=66 velocity=98 time=30>\n",
      "<message note_on channel=2 note=64 velocity=0 time=6>\n",
      "<message note_on channel=2 note=68 velocity=80 time=24>\n",
      "<message note_on channel=2 note=66 velocity=0 time=5>\n",
      "<message note_on channel=2 note=69 velocity=80 time=25>\n",
      "<message note_on channel=2 note=68 velocity=0 time=5>\n",
      "<message note_on channel=2 note=68 velocity=85 time=25>\n",
      "<message note_on channel=2 note=69 velocity=0 time=3>\n",
      "<message note_on channel=2 note=69 velocity=74 time=27>\n",
      "<message note_on channel=2 note=68 velocity=0 time=5>\n",
      "<message note_on channel=2 note=72 velocity=82 time=25>\n",
      "<message note_on channel=2 note=69 velocity=0 time=1>\n",
      "<message note_on channel=2 note=71 velocity=82 time=29>\n",
      "<message note_on channel=2 note=72 velocity=0 time=8>\n",
      "<message note_on channel=2 note=69 velocity=78 time=22>\n",
      "<message note_on channel=2 note=71 velocity=0 time=3>\n",
      "<message note_on channel=2 note=68 velocity=105 time=27>\n",
      "<message note_on channel=2 note=69 velocity=0 time=7>\n",
      "<message note_on channel=2 note=66 velocity=82 time=23>\n",
      "<message note_on channel=2 note=68 velocity=0 time=5>\n",
      "<message note_on channel=2 note=64 velocity=85 time=25>\n",
      "<message note_on channel=2 note=66 velocity=0 time=4>\n",
      "<message note_on channel=2 note=66 velocity=98 time=26>\n",
      "<message note_on channel=2 note=64 velocity=0 time=6>\n",
      "<message note_on channel=2 note=68 velocity=78 time=24>\n",
      "<message note_on channel=2 note=66 velocity=0 time=5>\n",
      "<message note_on channel=2 note=68 velocity=0 time=22>\n",
      "<message note_on channel=2 note=69 velocity=76 time=3>\n",
      "<message note_on channel=2 note=71 velocity=110 time=30>\n",
      "<message note_on channel=2 note=69 velocity=0 time=3>\n",
      "<message note_on channel=2 note=74 velocity=82 time=27>\n",
      "<message note_on channel=2 note=71 velocity=0 time=7>\n",
      "<message note_on channel=2 note=72 velocity=100 time=23>\n",
      "<message note_on channel=2 note=74 velocity=0 time=5>\n",
      "<message note_on channel=2 note=72 velocity=0 time=24>\n",
      "<message note_on channel=2 note=71 velocity=98 time=1>\n",
      "<message note_on channel=2 note=76 velocity=85 time=30>\n",
      "<message note_on channel=2 note=71 velocity=0 time=3>\n",
      "<message note_on channel=2 note=74 velocity=93 time=27>\n",
      "<message note_on channel=2 note=76 velocity=0 time=5>\n",
      "<message note_on channel=2 note=72 velocity=102 time=25>\n",
      "<message note_on channel=2 note=74 velocity=0 time=8>\n",
      "<message note_on channel=2 note=71 velocity=98 time=22>\n",
      "<message note_on channel=2 note=72 velocity=0 time=1>\n",
      "<message note_on channel=2 note=72 velocity=102 time=29>\n",
      "<message note_on channel=2 note=71 velocity=0 time=7>\n",
      "<message note_on channel=2 note=72 velocity=0 time=361>\n",
      "<message note_on channel=2 note=71 velocity=91 time=22>\n",
      "<message note_on channel=2 note=71 velocity=0 time=30>\n",
      "<message note_on channel=2 note=69 velocity=80 time=0>\n",
      "<message note_on channel=2 note=71 velocity=102 time=30>\n",
      "<message note_on channel=2 note=69 velocity=0 time=2>\n",
      "<message note_on channel=2 note=72 velocity=102 time=28>\n",
      "<message note_on channel=2 note=71 velocity=0 time=6>\n",
      "<message note_on channel=2 note=76 velocity=78 time=24>\n",
      "<message note_on channel=2 note=72 velocity=0 time=1>\n",
      "<message note_on channel=2 note=74 velocity=95 time=29>\n",
      "<message note_on channel=2 note=76 velocity=0 time=6>\n",
      "<message note_on channel=2 note=72 velocity=89 time=24>\n",
      "<message note_on channel=2 note=74 velocity=0 time=4>\n",
      "<message note_on channel=2 note=77 velocity=82 time=26>\n",
      "<message note_on channel=2 note=72 velocity=0 time=3>\n",
      "<message note_on channel=2 note=76 velocity=87 time=27>\n",
      "<message note_on channel=2 note=77 velocity=0 time=4>\n",
      "<message note_on channel=2 note=74 velocity=100 time=26>\n",
      "<message note_on channel=2 note=76 velocity=0 time=6>\n",
      "<message note_on channel=2 note=72 velocity=95 time=24>\n",
      "<message note_on channel=2 note=74 velocity=0 time=1>\n",
      "<message note_on channel=2 note=74 velocity=89 time=29>\n",
      "<message note_on channel=2 note=72 velocity=0 time=6>\n",
      "<message note_on channel=2 note=74 velocity=0 time=356>\n",
      "<message note_on channel=2 note=72 velocity=82 time=28>\n",
      "<message note_on channel=2 note=71 velocity=80 time=30>\n",
      "<message note_on channel=2 note=72 velocity=0 time=1>\n",
      "<message note_on channel=2 note=72 velocity=89 time=29>\n",
      "<message note_on channel=2 note=71 velocity=0 time=5>\n",
      "<message note_on channel=2 note=74 velocity=93 time=25>\n",
      "<message note_on channel=2 note=72 velocity=0 time=7>\n",
      "<message note_on channel=2 note=77 velocity=80 time=23>\n",
      "<message note_on channel=2 note=74 velocity=0 time=2>\n",
      "<message note_on channel=2 note=76 velocity=91 time=28>\n",
      "<message note_on channel=2 note=77 velocity=0 time=7>\n",
      "<message note_on channel=2 note=74 velocity=85 time=23>\n",
      "<message note_on channel=2 note=76 velocity=0 time=5>\n",
      "<message note_on channel=2 note=79 velocity=80 time=25>\n",
      "<message note_on channel=2 note=74 velocity=0 time=6>\n",
      "<message note_on channel=2 note=77 velocity=85 time=24>\n",
      "<message note_on channel=2 note=79 velocity=0 time=5>\n",
      "<message note_on channel=2 note=76 velocity=95 time=25>\n",
      "<message note_on channel=2 note=77 velocity=0 time=9>\n",
      "<message note_on channel=2 note=74 velocity=82 time=21>\n",
      "<message note_on channel=2 note=76 velocity=0 time=1>\n",
      "<message note_on channel=2 note=76 velocity=76 time=29>\n",
      "<message note_on channel=2 note=74 velocity=0 time=7>\n",
      "<message note_on channel=2 note=72 velocity=87 time=23>\n",
      "<message note_on channel=2 note=76 velocity=0 time=3>\n",
      "<message note_on channel=2 note=71 velocity=82 time=27>\n",
      "<message note_on channel=2 note=72 velocity=0 time=2>\n",
      "<message note_on channel=2 note=72 velocity=85 time=28>\n",
      "<message note_on channel=2 note=71 velocity=0 time=2>\n",
      "<message note_on channel=2 note=72 velocity=0 time=21>\n",
      "<message note_on channel=2 note=76 velocity=89 time=7>\n",
      "<message note_on channel=2 note=72 velocity=87 time=30>\n",
      "<message note_on channel=2 note=76 velocity=0 time=3>\n",
      "<message note_on channel=2 note=71 velocity=102 time=27>\n",
      "<message note_on channel=2 note=72 velocity=0 time=4>\n",
      "<message note_on channel=2 note=72 velocity=89 time=26>\n",
      "<message note_on channel=2 note=71 velocity=0 time=1>\n",
      "<message note_on channel=2 note=67 velocity=102 time=29>\n",
      "<message note_on channel=2 note=72 velocity=0 time=1>\n",
      "<message note_on channel=2 note=72 velocity=95 time=29>\n",
      "<message note_on channel=2 note=67 velocity=0 time=3>\n",
      "<message note_on channel=2 note=72 velocity=0 time=12>\n",
      "<message note_on channel=2 note=64 velocity=105 time=15>\n",
      "<message note_on channel=2 note=64 velocity=0 time=13>\n",
      "<message note_on channel=2 note=67 velocity=102 time=17>\n",
      "<message note_on channel=2 note=67 velocity=0 time=11>\n",
      "<message note_on channel=2 note=60 velocity=93 time=19>\n",
      "<message note_on channel=2 note=60 velocity=0 time=29>\n",
      "<message note_on channel=2 note=79 velocity=95 time=31>\n",
      "<message note_on channel=2 note=79 velocity=0 time=20>\n",
      "<message note_on channel=2 note=76 velocity=93 time=40>\n",
      "<message note_on channel=2 note=76 velocity=0 time=21>\n",
      "<message note_on channel=2 note=79 velocity=95 time=39>\n",
      "<message note_on channel=2 note=79 velocity=0 time=27>\n",
      "<message note_on channel=2 note=81 velocity=105 time=33>\n",
      "<message note_on channel=2 note=79 velocity=100 time=60>\n",
      "<message note_on channel=2 note=81 velocity=0 time=5>\n",
      "<message note_on channel=2 note=77 velocity=102 time=25>\n",
      "<message note_on channel=2 note=79 velocity=0 time=3>\n",
      "<message note_on channel=2 note=77 velocity=0 time=24>\n",
      "<message note_on channel=2 note=79 velocity=105 time=3>\n",
      "<message note_on channel=2 note=79 velocity=0 time=113>\n",
      "<message note_on channel=2 note=76 velocity=91 time=307>\n",
      "<message note_on channel=2 note=76 velocity=0 time=28>\n",
      "<message note_on channel=2 note=72 velocity=85 time=32>\n",
      "<message note_on channel=2 note=72 velocity=0 time=24>\n",
      "<message note_on channel=2 note=76 velocity=89 time=36>\n",
      "<message note_on channel=2 note=76 velocity=0 time=25>\n",
      "<message note_on channel=2 note=77 velocity=102 time=35>\n",
      "<message note_on channel=2 note=76 velocity=98 time=60>\n",
      "<message note_on channel=2 note=77 velocity=0 time=5>\n",
      "<message note_on channel=2 note=76 velocity=0 time=25>\n",
      "<message note_on channel=2 note=74 velocity=102 time=0>\n",
      "<message note_on channel=2 note=76 velocity=105 time=30>\n",
      "<message note_on channel=2 note=74 velocity=0 time=9>\n",
      "<message note_on channel=2 note=76 velocity=0 time=26>\n",
      "<message note_on channel=2 note=79 velocity=102 time=25>\n",
      "<message note_on channel=2 note=79 velocity=0 time=30>\n",
      "<message note_on channel=2 note=72 velocity=87 time=30>\n",
      "<message note_on channel=2 note=72 velocity=0 time=26>\n",
      "<message note_on channel=2 note=76 velocity=89 time=34>\n",
      "<message note_on channel=2 note=76 velocity=0 time=23>\n",
      "<message note_on channel=2 note=69 velocity=85 time=37>\n",
      "<message note_on channel=2 note=72 velocity=110 time=30>\n",
      "<message note_on channel=2 note=69 velocity=0 time=2>\n",
      "<message note_on channel=2 note=74 velocity=105 time=28>\n",
      "<message note_on channel=2 note=72 velocity=0 time=7>\n",
      "<message note_on channel=2 note=76 velocity=105 time=23>\n",
      "<message note_on channel=2 note=74 velocity=0 time=9>\n",
      "<message note_on channel=2 note=77 velocity=95 time=21>\n",
      "<message note_on channel=2 note=76 velocity=0 time=11>\n",
      "<message note_on channel=2 note=77 velocity=0 time=13>\n",
      "<message note_on channel=2 note=81 velocity=85 time=36>\n",
      "<message note_on channel=2 note=81 velocity=0 time=22>\n",
      "<message note_on channel=2 note=74 velocity=89 time=38>\n",
      "<message note_on channel=2 note=74 velocity=0 time=22>\n",
      "<message note_on channel=2 note=77 velocity=82 time=38>\n",
      "<message note_on channel=2 note=77 velocity=0 time=22>\n",
      "<message note_on channel=2 note=71 velocity=78 time=38>\n",
      "<message note_on channel=2 note=74 velocity=105 time=30>\n",
      "<message note_on channel=2 note=71 velocity=0 time=2>\n",
      "<message note_on channel=2 note=76 velocity=105 time=28>\n",
      "<message note_on channel=2 note=74 velocity=0 time=6>\n",
      "<message note_on channel=2 note=77 velocity=105 time=24>\n",
      "<message note_on channel=2 note=76 velocity=0 time=7>\n",
      "<message note_on channel=2 note=79 velocity=95 time=23>\n",
      "<message note_on channel=2 note=77 velocity=0 time=9>\n",
      "<message note_on channel=2 note=79 velocity=0 time=20>\n",
      "<message note_on channel=2 note=84 velocity=91 time=31>\n",
      "<message note_on channel=2 note=84 velocity=0 time=19>\n",
      "<message note_on channel=2 note=79 velocity=82 time=11>\n",
      "<message note_on channel=2 note=79 velocity=0 time=22>\n",
      "<message note_on channel=2 note=76 velocity=95 time=8>\n",
      "<message note_on channel=2 note=76 velocity=0 time=48>\n",
      "<message note_on channel=2 note=79 velocity=100 time=12>\n",
      "<message note_on channel=2 note=79 velocity=0 time=29>\n",
      "<message note_on channel=2 note=76 velocity=98 time=1>\n",
      "<message note_on channel=2 note=76 velocity=0 time=26>\n",
      "<message note_on channel=2 note=72 velocity=87 time=4>\n",
      "<message note_on channel=2 note=76 velocity=100 time=30>\n",
      "<message note_on channel=2 note=72 velocity=0 time=3>\n",
      "<message note_on channel=2 note=77 velocity=105 time=27>\n",
      "<message note_on channel=2 note=76 velocity=0 time=9>\n",
      "<message note_on channel=2 note=79 velocity=102 time=21>\n",
      "<message note_on channel=2 note=77 velocity=0 time=7>\n",
      "<message note_on channel=2 note=81 velocity=100 time=23>\n",
      "<message note_on channel=2 note=79 velocity=0 time=5>\n",
      "<message note_on channel=2 note=79 velocity=82 time=25>\n",
      "<message note_on channel=2 note=81 velocity=0 time=6>\n",
      "<message note_on channel=2 note=81 velocity=93 time=24>\n",
      "<message note_on channel=2 note=79 velocity=0 time=7>\n",
      "<message note_on channel=2 note=82 velocity=95 time=23>\n",
      "<message note_on channel=2 note=81 velocity=0 time=7>\n",
      "<message note_on channel=2 note=81 velocity=98 time=23>\n",
      "<message note_on channel=2 note=82 velocity=0 time=6>\n",
      "<message note_on channel=2 note=79 velocity=87 time=24>\n",
      "<message note_on channel=2 note=81 velocity=0 time=6>\n",
      "<message note_on channel=2 note=77 velocity=70 time=24>\n",
      "<message note_on channel=2 note=79 velocity=0 time=6>\n",
      "<message note_on channel=2 note=77 velocity=0 time=22>\n",
      "<message note_on channel=2 note=76 velocity=89 time=2>\n",
      "<message note_on channel=2 note=74 velocity=105 time=30>\n",
      "<message note_on channel=2 note=76 velocity=0 time=7>\n",
      "<message note_on channel=2 note=74 velocity=0 time=23>\n",
      "<message note_on channel=2 note=72 velocity=68 time=0>\n",
      "<message note_on channel=2 note=71 velocity=102 time=30>\n",
      "<message note_on channel=2 note=72 velocity=0 time=5>\n",
      "<message note_on channel=2 note=69 velocity=110 time=25>\n",
      "<message note_on channel=2 note=71 velocity=0 time=6>\n",
      "<message note_on channel=2 note=69 velocity=0 time=13>\n",
      "<message note_on channel=2 note=71 velocity=119 time=11>\n",
      "<message note_on channel=2 note=72 velocity=89 time=30>\n",
      "<message note_on channel=2 note=71 velocity=0 time=5>\n",
      "<message note_on channel=2 note=71 velocity=87 time=25>\n",
      "<message note_on channel=2 note=72 velocity=0 time=4>\n",
      "<message note_on channel=2 note=71 velocity=0 time=20>\n",
      "<message note_on channel=2 note=67 velocity=80 time=6>\n",
      "<message note_on channel=2 note=67 velocity=0 time=25>\n",
      "<message note_on channel=2 note=74 velocity=93 time=5>\n",
      "<message note_on channel=2 note=76 velocity=89 time=30>\n",
      "<message note_on channel=2 note=74 velocity=0 time=4>\n",
      "<message note_on channel=2 note=74 velocity=93 time=26>\n",
      "<message note_on channel=2 note=76 velocity=0 time=7>\n",
      "<message note_on channel=2 note=74 velocity=0 time=17>\n",
      "<message note_on channel=2 note=71 velocity=74 time=6>\n",
      "<message note_on channel=2 note=71 velocity=0 time=26>\n",
      "<message note_on channel=2 note=77 velocity=91 time=4>\n",
      "<message note_on channel=2 note=79 velocity=80 time=30>\n",
      "<message note_on channel=2 note=77 velocity=0 time=6>\n",
      "<message note_on channel=2 note=77 velocity=89 time=24>\n",
      "<message note_on channel=2 note=79 velocity=0 time=4>\n",
      "<message note_on channel=2 note=77 velocity=0 time=24>\n",
      "<message note_on channel=2 note=74 velocity=85 time=2>\n",
      "<message note_on channel=2 note=75 velocity=98 time=30>\n",
      "<message note_on channel=2 note=74 velocity=0 time=4>\n",
      "<message note_on channel=2 note=75 velocity=0 time=22>\n",
      "<message note_on channel=2 note=72 velocity=100 time=34>\n",
      "<message note_on channel=2 note=72 velocity=0 time=29>\n",
      "<message note_on channel=2 note=79 velocity=85 time=31>\n",
      "<message note_on channel=2 note=79 velocity=0 time=20>\n",
      "<message note_on channel=2 note=75 velocity=85 time=40>\n",
      "<message note_on channel=2 note=75 velocity=0 time=19>\n",
      "<message note_on channel=2 note=84 velocity=100 time=41>\n",
      "<message note_on channel=2 note=82 velocity=102 time=150>\n",
      "<message note_on channel=2 note=84 velocity=0 time=8>\n",
      "<message note_on channel=2 note=81 velocity=87 time=22>\n",
      "<message note_on channel=2 note=82 velocity=0 time=3>\n",
      "<message note_on channel=2 note=81 velocity=0 time=26>\n",
      "<message note_on channel=2 note=79 velocity=74 time=1>\n",
      "<message note_on channel=2 note=79 velocity=0 time=30>\n",
      "<message note_on channel=2 note=78 velocity=87 time=0>\n",
      "<message note_on channel=2 note=78 velocity=0 time=29>\n",
      "<message note_on channel=2 note=81 velocity=70 time=1>\n",
      "<message note_on channel=2 note=75 velocity=102 time=30>\n",
      "<message note_on channel=2 note=81 velocity=0 time=3>\n",
      "<message note_on channel=2 note=74 velocity=95 time=27>\n",
      "<message note_on channel=2 note=75 velocity=0 time=5>\n",
      "<message note_on channel=2 note=75 velocity=105 time=25>\n",
      "<message note_on channel=2 note=74 velocity=0 time=7>\n",
      "<message note_on channel=2 note=72 velocity=74 time=23>\n",
      "<message note_on channel=2 note=75 velocity=0 time=6>\n",
      "<message note_on channel=2 note=72 velocity=0 time=24>\n",
      "<message note_on channel=2 note=79 velocity=91 time=0>\n",
      "<message note_on channel=2 note=78 velocity=100 time=30>\n",
      "<message note_on channel=2 note=79 velocity=0 time=6>\n",
      "<message note_on channel=2 note=79 velocity=98 time=24>\n",
      "<message note_on channel=2 note=78 velocity=0 time=8>\n",
      "<message note_on channel=2 note=74 velocity=82 time=22>\n",
      "<message note_on channel=2 note=79 velocity=0 time=8>\n",
      "<message note_on channel=2 note=74 velocity=0 time=21>\n",
      "<message note_on channel=2 note=72 velocity=82 time=1>\n",
      "<message note_on channel=2 note=74 velocity=89 time=30>\n",
      "<message note_on channel=2 note=72 velocity=0 time=2>\n",
      "<message note_on channel=2 note=74 velocity=0 time=25>\n",
      "<message note_on channel=2 note=83 velocity=105 time=3>\n",
      "<message note_on channel=2 note=83 velocity=0 time=237>\n",
      "<message note_on channel=2 note=72 velocity=87 time=33>\n",
      "<message note_on channel=2 note=71 velocity=76 time=30>\n",
      "<message note_on channel=2 note=72 velocity=0 time=2>\n",
      "<message note_on channel=2 note=72 velocity=82 time=28>\n",
      "<message note_on channel=2 note=71 velocity=0 time=1>\n",
      "<message note_on channel=2 note=72 velocity=0 time=24>\n",
      "<message note_on channel=2 note=81 velocity=107 time=5>\n",
      "<message note_on channel=2 note=81 velocity=0 time=242>\n",
      "<message note_on channel=2 note=71 velocity=82 time=28>\n",
      "<message note_on channel=2 note=69 velocity=82 time=30>\n",
      "<message note_on channel=2 note=71 velocity=0 time=3>\n",
      "<message note_on channel=2 note=71 velocity=85 time=27>\n",
      "<message note_on channel=2 note=69 velocity=0 time=3>\n",
      "<message note_on channel=2 note=71 velocity=0 time=27>\n",
      "<message note_on channel=2 note=79 velocity=98 time=0>\n",
      "<message note_on channel=2 note=79 velocity=0 time=267>\n",
      "<message note_on channel=2 note=78 velocity=85 time=3>\n",
      "<message note_on channel=2 note=76 velocity=95 time=30>\n",
      "<message note_on channel=2 note=78 velocity=0 time=6>\n",
      "<message note_on channel=2 note=74 velocity=91 time=24>\n",
      "<message note_on channel=2 note=76 velocity=0 time=5>\n",
      "<message note_on channel=2 note=72 velocity=68 time=25>\n",
      "<message note_on channel=2 note=74 velocity=0 time=4>\n",
      "<message note_on channel=2 note=71 velocity=87 time=26>\n",
      "<message note_on channel=2 note=72 velocity=0 time=2>\n",
      "<message note_on channel=2 note=69 velocity=98 time=28>\n",
      "<message note_on channel=2 note=71 velocity=0 time=7>\n",
      "<message note_on channel=2 note=69 velocity=0 time=20>\n",
      "<message note_on channel=2 note=67 velocity=70 time=3>\n",
      "<message note_on channel=2 note=66 velocity=87 time=30>\n",
      "<message note_on channel=2 note=67 velocity=0 time=3>\n",
      "<message note_on channel=2 note=64 velocity=85 time=27>\n",
      "<message note_on channel=2 note=66 velocity=0 time=7>\n",
      "<message note_on channel=2 note=62 velocity=89 time=23>\n",
      "<message note_on channel=2 note=64 velocity=0 time=6>\n",
      "<message note_on channel=2 note=62 velocity=0 time=23>\n",
      "<message note_on channel=2 note=60 velocity=82 time=1>\n",
      "<message note_on channel=2 note=62 velocity=89 time=30>\n",
      "<message note_on channel=2 note=60 velocity=0 time=3>\n",
      "<message note_on channel=2 note=62 velocity=0 time=25>\n",
      "<message note_on channel=2 note=72 velocity=98 time=32>\n",
      "<message note_on channel=2 note=72 velocity=0 time=19>\n",
      "<message note_on channel=2 note=71 velocity=87 time=41>\n",
      "<message note_on channel=2 note=71 velocity=0 time=59>\n",
      "<message note_on channel=2 note=76 velocity=91 time=1>\n",
      "<message note_on channel=2 note=74 velocity=98 time=30>\n",
      "<message note_on channel=2 note=76 velocity=0 time=8>\n",
      "<message note_on channel=2 note=72 velocity=105 time=22>\n",
      "<message note_on channel=2 note=74 velocity=0 time=12>\n",
      "<message note_on channel=2 note=71 velocity=98 time=18>\n",
      "<message note_on channel=2 note=72 velocity=0 time=6>\n",
      "<message note_on channel=2 note=69 velocity=78 time=24>\n",
      "<message note_on channel=2 note=71 velocity=0 time=3>\n",
      "<message note_on channel=2 note=67 velocity=102 time=27>\n",
      "<message note_on channel=2 note=69 velocity=0 time=2>\n",
      "<message note_on channel=2 note=67 velocity=0 time=21>\n",
      "<message note_on channel=2 note=67 velocity=70 time=7>\n",
      "<message note_on channel=2 note=67 velocity=0 time=138>\n",
      "<message note_on channel=2 note=83 velocity=100 time=282>\n",
      "<message note_on channel=2 note=83 velocity=0 time=28>\n",
      "<message note_on channel=2 note=79 velocity=87 time=32>\n",
      "<message note_on channel=2 note=79 velocity=0 time=30>\n",
      "<message note_on channel=2 note=83 velocity=100 time=30>\n",
      "<message note_on channel=2 note=83 velocity=0 time=30>\n",
      "<message note_on channel=2 note=84 velocity=107 time=30>\n",
      "<message note_on channel=2 note=83 velocity=102 time=60>\n"
     ]
    },
    {
     "name": "stdout",
     "output_type": "stream",
     "text": [
      "<message note_on channel=2 note=84 velocity=0 time=4>\n",
      "<message note_on channel=2 note=81 velocity=107 time=26>\n",
      "<message note_on channel=2 note=83 velocity=0 time=1>\n",
      "<message note_on channel=2 note=83 velocity=85 time=29>\n",
      "<message note_on channel=2 note=81 velocity=0 time=9>\n",
      "<message note_on channel=2 note=79 velocity=74 time=21>\n",
      "<message note_on channel=2 note=83 velocity=0 time=1>\n",
      "<message note_on channel=2 note=78 velocity=107 time=29>\n",
      "<message note_on channel=2 note=79 velocity=0 time=6>\n",
      "<message note_on channel=2 note=79 velocity=85 time=24>\n",
      "<message note_on channel=2 note=78 velocity=0 time=10>\n",
      "<message note_on channel=2 note=83 velocity=105 time=20>\n",
      "<message note_on channel=2 note=79 velocity=0 time=3>\n",
      "<message note_on channel=2 note=79 velocity=100 time=27>\n",
      "<message note_on channel=2 note=83 velocity=0 time=6>\n",
      "<message note_on channel=2 note=78 velocity=105 time=24>\n",
      "<message note_on channel=2 note=79 velocity=0 time=3>\n",
      "<message note_on channel=2 note=79 velocity=87 time=27>\n",
      "<message note_on channel=2 note=78 velocity=0 time=5>\n",
      "<message note_on channel=2 note=79 velocity=0 time=25>\n",
      "<message note_on channel=2 note=74 velocity=55 time=0>\n",
      "<message note_on channel=2 note=74 velocity=0 time=29>\n",
      "<message note_on channel=2 note=79 velocity=85 time=1>\n",
      "<message note_on channel=2 note=71 velocity=80 time=30>\n",
      "<message note_on channel=2 note=79 velocity=0 time=4>\n",
      "<message note_on channel=2 note=74 velocity=85 time=26>\n",
      "<message note_on channel=2 note=71 velocity=0 time=5>\n",
      "<message note_on channel=2 note=74 velocity=0 time=25>\n",
      "<message note_on channel=2 note=67 velocity=98 time=0>\n",
      "<message note_on channel=2 note=67 velocity=0 time=34>\n",
      "<message note_on channel=2 note=74 velocity=100 time=26>\n",
      "<message note_on channel=2 note=74 velocity=0 time=35>\n",
      "<message note_on channel=2 note=71 velocity=98 time=25>\n",
      "<message note_on channel=2 note=71 velocity=0 time=39>\n",
      "<message note_on channel=2 note=74 velocity=102 time=21>\n",
      "<message note_on channel=2 note=74 velocity=0 time=34>\n",
      "<message note_on channel=2 note=76 velocity=102 time=26>\n",
      "<message note_on channel=2 note=74 velocity=102 time=60>\n",
      "<message note_on channel=2 note=76 velocity=0 time=3>\n",
      "<message note_on channel=2 note=72 velocity=107 time=27>\n",
      "<message note_on channel=2 note=74 velocity=0 time=5>\n",
      "<message note_on channel=2 note=74 velocity=102 time=25>\n",
      "<message note_on channel=2 note=72 velocity=0 time=7>\n",
      "<message note_on channel=2 note=71 velocity=80 time=23>\n",
      "<message note_on channel=2 note=74 velocity=0 time=5>\n",
      "<message note_on channel=2 note=67 velocity=85 time=25>\n",
      "<message note_on channel=2 note=71 velocity=0 time=1>\n",
      "<message note_on channel=2 note=71 velocity=95 time=29>\n",
      "<message note_on channel=2 note=67 velocity=0 time=2>\n",
      "<message note_on channel=2 note=76 velocity=85 time=28>\n",
      "<message note_on channel=2 note=71 velocity=0 time=1>\n",
      "<message note_on channel=2 note=71 velocity=85 time=29>\n",
      "<message note_on channel=2 note=76 velocity=0 time=8>\n",
      "<message note_on channel=2 note=67 velocity=78 time=22>\n",
      "<message note_on channel=2 note=71 velocity=0 time=1>\n",
      "<message note_on channel=2 note=71 velocity=80 time=29>\n",
      "<message note_on channel=2 note=67 velocity=0 time=1>\n",
      "<message note_on channel=2 note=71 velocity=0 time=28>\n",
      "<message note_on channel=2 note=79 velocity=100 time=1>\n",
      "<message note_on channel=2 note=79 velocity=0 time=137>\n",
      "<message note_on channel=2 note=72 velocity=89 time=13>\n",
      "<message note_on channel=2 note=72 velocity=0 time=30>\n",
      "<message note_on channel=2 note=69 velocity=82 time=0>\n",
      "<message note_on channel=2 note=72 velocity=93 time=30>\n",
      "<message note_on channel=2 note=69 velocity=0 time=4>\n",
      "<message note_on channel=2 note=78 velocity=95 time=26>\n",
      "<message note_on channel=2 note=72 velocity=0 time=1>\n",
      "<message note_on channel=2 note=78 velocity=0 time=29>\n",
      "<message note_on channel=2 note=72 velocity=68 time=0>\n",
      "<message note_on channel=2 note=72 velocity=0 time=30>\n",
      "<message note_on channel=2 note=69 velocity=80 time=0>\n",
      "<message note_on channel=2 note=72 velocity=82 time=30>\n",
      "<message note_on channel=2 note=69 velocity=0 time=2>\n",
      "<message note_on channel=2 note=72 velocity=0 time=23>\n",
      "<message note_on channel=2 note=81 velocity=105 time=5>\n",
      "<message note_on channel=2 note=81 velocity=0 time=131>\n",
      "<message note_on channel=2 note=74 velocity=93 time=19>\n",
      "<message note_on channel=2 note=74 velocity=0 time=29>\n",
      "<message note_on channel=2 note=71 velocity=66 time=1>\n",
      "<message note_on channel=2 note=74 velocity=89 time=30>\n",
      "<message note_on channel=2 note=71 velocity=0 time=4>\n",
      "<message note_on channel=2 note=79 velocity=82 time=26>\n",
      "<message note_on channel=2 note=74 velocity=0 time=2>\n",
      "<message note_on channel=2 note=74 velocity=76 time=28>\n",
      "<message note_on channel=2 note=79 velocity=0 time=2>\n",
      "<message note_on channel=2 note=71 velocity=72 time=28>\n",
      "<message note_on channel=2 note=74 velocity=0 time=2>\n",
      "<message note_on channel=2 note=74 velocity=82 time=28>\n",
      "<message note_on channel=2 note=71 velocity=0 time=3>\n",
      "<message note_on channel=2 note=74 velocity=0 time=25>\n",
      "<message note_on channel=2 note=83 velocity=105 time=2>\n",
      "<message note_on channel=2 note=83 velocity=0 time=138>\n",
      "<message note_on channel=2 note=81 velocity=102 time=42>\n",
      "<message note_on channel=2 note=80 velocity=105 time=30>\n",
      "<message note_on channel=2 note=81 velocity=0 time=2>\n",
      "<message note_on channel=2 note=81 velocity=100 time=28>\n",
      "<message note_on channel=2 note=80 velocity=0 time=10>\n",
      "<message note_on channel=2 note=81 velocity=0 time=8>\n",
      "<message note_on channel=2 note=76 velocity=85 time=42>\n",
      "<message note_on channel=2 note=76 velocity=0 time=20>\n",
      "<message note_on channel=2 note=84 velocity=105 time=40>\n",
      "<message note_on channel=2 note=84 velocity=0 time=154>\n",
      "<message note_on channel=2 note=81 velocity=98 time=26>\n",
      "<message note_on channel=2 note=81 velocity=0 time=38>\n",
      "<message note_on channel=2 note=78 velocity=102 time=22>\n",
      "<message note_on channel=2 note=78 velocity=0 time=36>\n",
      "<message note_on channel=2 note=81 velocity=100 time=24>\n",
      "<message note_on channel=2 note=81 velocity=0 time=26>\n",
      "<message note_on channel=2 note=74 velocity=93 time=34>\n",
      "<message note_on channel=2 note=74 velocity=0 time=38>\n",
      "<message note_on channel=2 note=78 velocity=95 time=22>\n",
      "<message note_on channel=2 note=78 velocity=0 time=44>\n",
      "<message note_on channel=2 note=79 velocity=80 time=16>\n",
      "<message note_on channel=2 note=81 velocity=93 time=30>\n",
      "<message note_on channel=2 note=79 velocity=0 time=3>\n",
      "<message note_on channel=2 note=82 velocity=100 time=27>\n",
      "<message note_on channel=2 note=81 velocity=0 time=6>\n",
      "<message note_on channel=2 note=84 velocity=95 time=24>\n",
      "<message note_on channel=2 note=82 velocity=0 time=5>\n",
      "<message note_on channel=2 note=82 velocity=107 time=25>\n",
      "<message note_on channel=2 note=84 velocity=0 time=10>\n",
      "<message note_on channel=2 note=81 velocity=91 time=20>\n",
      "<message note_on channel=2 note=82 velocity=0 time=4>\n",
      "<message note_on channel=2 note=79 velocity=82 time=26>\n",
      "<message note_on channel=2 note=81 velocity=0 time=5>\n",
      "<message note_on channel=2 note=79 velocity=0 time=13>\n",
      "<message note_on channel=2 note=77 velocity=95 time=12>\n",
      "<message note_on channel=2 note=76 velocity=95 time=30>\n",
      "<message note_on channel=2 note=77 velocity=0 time=6>\n",
      "<message note_on channel=2 note=76 velocity=0 time=21>\n",
      "<message note_on channel=2 note=74 velocity=85 time=3>\n",
      "<message note_on channel=2 note=73 velocity=107 time=30>\n",
      "<message note_on channel=2 note=74 velocity=0 time=2>\n",
      "<message note_on channel=2 note=71 velocity=89 time=28>\n",
      "<message note_on channel=2 note=73 velocity=0 time=3>\n",
      "<message note_on channel=2 note=73 velocity=107 time=27>\n",
      "<message note_on channel=2 note=71 velocity=0 time=9>\n",
      "<message note_on channel=2 note=73 velocity=0 time=37>\n",
      "<message note_on channel=2 note=67 velocity=85 time=14>\n",
      "<message note_on channel=2 note=67 velocity=0 time=36>\n",
      "<message note_on channel=2 note=76 velocity=87 time=24>\n",
      "<message note_on channel=2 note=76 velocity=0 time=25>\n",
      "<message note_on channel=2 note=73 velocity=87 time=35>\n",
      "<message note_on channel=2 note=73 velocity=0 time=22>\n",
      "<message note_on channel=2 note=79 velocity=107 time=38>\n",
      "<message note_on channel=2 note=79 velocity=0 time=128>\n",
      "<message note_on channel=2 note=78 velocity=93 time=22>\n",
      "<message note_on channel=2 note=76 velocity=87 time=30>\n",
      "<message note_on channel=2 note=78 velocity=0 time=1>\n",
      "<message note_on channel=2 note=76 velocity=0 time=28>\n",
      "<message note_on channel=2 note=74 velocity=85 time=1>\n",
      "<message note_on channel=2 note=74 velocity=0 time=27>\n",
      "<message note_on channel=2 note=83 velocity=110 time=3>\n",
      "<message note_on channel=2 note=83 velocity=0 time=135>\n",
      "<message note_on channel=2 note=84 velocity=107 time=15>\n",
      "<message note_on channel=2 note=83 velocity=102 time=30>\n",
      "<message note_on channel=2 note=84 velocity=0 time=8>\n",
      "<message note_on channel=2 note=81 velocity=105 time=22>\n",
      "<message note_on channel=2 note=83 velocity=0 time=7>\n",
      "<message note_on channel=2 note=79 velocity=89 time=23>\n",
      "<message note_on channel=2 note=81 velocity=0 time=1>\n",
      "<message note_on channel=2 note=78 velocity=105 time=179>\n",
      "<message note_on channel=2 note=79 velocity=0 time=4>\n",
      "<message note_on channel=2 note=76 velocity=89 time=26>\n",
      "<message note_on channel=2 note=78 velocity=0 time=4>\n",
      "<message note_on channel=2 note=74 velocity=102 time=26>\n",
      "<message note_on channel=2 note=76 velocity=0 time=8>\n",
      "<message note_on channel=2 note=74 velocity=0 time=22>\n",
      "<message note_on channel=2 note=72 velocity=70 time=0>\n",
      "<message note_on channel=2 note=71 velocity=89 time=30>\n",
      "<message note_on channel=2 note=72 velocity=0 time=5>\n",
      "<message note_on channel=2 note=69 velocity=98 time=25>\n",
      "<message note_on channel=2 note=71 velocity=0 time=6>\n",
      "<message note_on channel=2 note=67 velocity=98 time=24>\n",
      "<message note_on channel=2 note=69 velocity=0 time=1>\n",
      "<message note_on channel=2 note=67 velocity=0 time=127>\n",
      "<message note_on channel=2 note=76 velocity=95 time=22>\n",
      "<message note_on channel=2 note=74 velocity=100 time=30>\n",
      "<message note_on channel=2 note=76 velocity=0 time=4>\n",
      "<message note_on channel=2 note=72 velocity=70 time=26>\n",
      "<message note_on channel=2 note=74 velocity=0 time=4>\n",
      "<message note_on channel=2 note=79 velocity=105 time=26>\n",
      "<message note_on channel=2 note=72 velocity=0 time=4>\n",
      "<message note_on channel=2 note=79 velocity=0 time=116>\n",
      "<message note_on channel=2 note=76 velocity=82 time=30>\n",
      "<message note_on channel=2 note=81 velocity=85 time=30>\n",
      "<message note_on channel=2 note=76 velocity=0 time=9>\n",
      "<message note_on channel=2 note=79 velocity=89 time=21>\n",
      "<message note_on channel=2 note=81 velocity=0 time=7>\n",
      "<message note_on channel=2 note=77 velocity=102 time=23>\n",
      "<message note_on channel=2 note=79 velocity=0 time=9>\n",
      "<message note_on channel=2 note=76 velocity=89 time=21>\n",
      "<message note_on channel=2 note=77 velocity=0 time=4>\n",
      "<message note_on channel=2 note=76 velocity=0 time=26>\n",
      "<message note_on channel=2 note=74 velocity=64 time=0>\n",
      "<message note_on channel=2 note=74 velocity=0 time=30>\n",
      "<message note_on channel=2 note=72 velocity=95 time=0>\n",
      "<message note_on channel=2 note=71 velocity=85 time=30>\n",
      "<message note_on channel=2 note=72 velocity=0 time=6>\n",
      "<message note_on channel=2 note=71 velocity=0 time=26>\n",
      "<message note_on channel=2 note=77 velocity=113 time=28>\n",
      "<message note_on channel=2 note=76 velocity=102 time=90>\n",
      "<message note_on channel=2 note=77 velocity=0 time=5>\n",
      "<message note_on channel=2 note=74 velocity=102 time=25>\n",
      "<message note_on channel=2 note=76 velocity=0 time=7>\n",
      "<message note_on channel=2 note=76 velocity=98 time=23>\n",
      "<message note_on channel=2 note=74 velocity=0 time=6>\n",
      "<message note_on channel=2 note=79 velocity=87 time=24>\n",
      "<message note_on channel=2 note=76 velocity=0 time=3>\n",
      "<message note_on channel=2 note=76 velocity=95 time=27>\n",
      "<message note_on channel=2 note=79 velocity=0 time=4>\n",
      "<message note_on channel=2 note=74 velocity=105 time=26>\n",
      "<message note_on channel=2 note=76 velocity=0 time=4>\n",
      "<message note_on channel=2 note=76 velocity=93 time=26>\n",
      "<message note_on channel=2 note=74 velocity=0 time=3>\n",
      "<message note_on channel=2 note=72 velocity=93 time=27>\n",
      "<message note_on channel=2 note=76 velocity=0 time=3>\n",
      "<message note_on channel=2 note=76 velocity=82 time=27>\n",
      "<message note_on channel=2 note=72 velocity=0 time=3>\n",
      "<message note_on channel=2 note=69 velocity=74 time=27>\n",
      "<message note_on channel=2 note=76 velocity=0 time=18>\n",
      "<message note_on channel=2 note=69 velocity=0 time=12>\n",
      "<message note_on channel=2 note=72 velocity=80 time=0>\n",
      "<message note_on channel=2 note=65 velocity=95 time=30>\n",
      "<message note_on channel=2 note=72 velocity=0 time=2>\n",
      "<message note_on channel=2 note=65 velocity=0 time=18>\n",
      "<message note_on channel=2 note=81 velocity=93 time=40>\n",
      "<message note_on channel=2 note=81 velocity=0 time=20>\n",
      "<message note_on channel=2 note=77 velocity=89 time=40>\n",
      "<message note_on channel=2 note=77 velocity=0 time=23>\n",
      "<message note_on channel=2 note=81 velocity=87 time=37>\n",
      "<message note_on channel=2 note=81 velocity=0 time=23>\n",
      "<message note_on channel=2 note=82 velocity=95 time=37>\n",
      "<message note_on channel=2 note=82 velocity=0 time=125>\n",
      "<message note_on channel=2 note=79 velocity=91 time=25>\n",
      "<message note_on channel=2 note=77 velocity=102 time=30>\n",
      "<message note_on channel=2 note=79 velocity=0 time=5>\n",
      "<message note_on channel=2 note=79 velocity=80 time=25>\n",
      "<message note_on channel=2 note=77 velocity=0 time=7>\n",
      "<message note_on channel=2 note=82 velocity=80 time=23>\n",
      "<message note_on channel=2 note=79 velocity=0 time=4>\n",
      "<message note_on channel=2 note=79 velocity=95 time=26>\n",
      "<message note_on channel=2 note=82 velocity=0 time=4>\n",
      "<message note_on channel=2 note=77 velocity=100 time=26>\n",
      "<message note_on channel=2 note=79 velocity=0 time=8>\n",
      "<message note_on channel=2 note=79 velocity=82 time=22>\n",
      "<message note_on channel=2 note=77 velocity=0 time=3>\n",
      "<message note_on channel=2 note=76 velocity=93 time=27>\n",
      "<message note_on channel=2 note=79 velocity=0 time=7>\n",
      "<message note_on channel=2 note=79 velocity=68 time=23>\n",
      "<message note_on channel=2 note=76 velocity=0 time=7>\n",
      "<message note_on channel=2 note=76 velocity=70 time=23>\n",
      "<message note_on channel=2 note=79 velocity=0 time=1>\n",
      "<message note_on channel=2 note=79 velocity=68 time=29>\n",
      "<message note_on channel=2 note=76 velocity=0 time=10>\n",
      "<message note_on channel=2 note=69 velocity=78 time=20>\n",
      "<message note_on channel=2 note=79 velocity=0 time=3>\n",
      "<message note_on channel=2 note=69 velocity=0 time=24>\n",
      "<message note_on channel=2 note=81 velocity=80 time=3>\n",
      "<message note_on channel=2 note=79 velocity=85 time=30>\n",
      "<message note_on channel=2 note=81 velocity=0 time=5>\n",
      "<message note_on channel=2 note=81 velocity=82 time=25>\n",
      "<message note_on channel=2 note=79 velocity=0 time=4>\n",
      "<message note_on channel=2 note=84 velocity=93 time=26>\n",
      "<message note_on channel=2 note=81 velocity=0 time=3>\n",
      "<message note_on channel=2 note=81 velocity=76 time=27>\n",
      "<message note_on channel=2 note=84 velocity=0 time=7>\n",
      "<message note_on channel=2 note=81 velocity=0 time=23>\n",
      "<message note_on channel=2 note=79 velocity=102 time=0>\n",
      "<message note_on channel=2 note=81 velocity=85 time=30>\n",
      "<message note_on channel=2 note=79 velocity=0 time=7>\n",
      "<message note_on channel=2 note=77 velocity=91 time=23>\n",
      "<message note_on channel=2 note=81 velocity=0 time=5>\n",
      "<message note_on channel=2 note=77 velocity=0 time=6>\n",
      "<message note_on channel=2 note=81 velocity=102 time=19>\n",
      "<message note_on channel=2 note=81 velocity=0 time=10>\n",
      "<message note_on channel=2 note=84 velocity=105 time=20>\n",
      "<message note_on channel=2 note=82 velocity=85 time=90>\n",
      "<message note_on channel=2 note=84 velocity=0 time=4>\n",
      "<message note_on channel=2 note=81 velocity=105 time=26>\n",
      "<message note_on channel=2 note=82 velocity=0 time=4>\n",
      "<message note_on channel=2 note=82 velocity=102 time=26>\n",
      "<message note_on channel=2 note=81 velocity=0 time=9>\n",
      "<message note_on channel=2 note=84 velocity=95 time=21>\n",
      "<message note_on channel=2 note=82 velocity=0 time=5>\n",
      "<message note_on channel=2 note=82 velocity=95 time=25>\n",
      "<message note_on channel=2 note=84 velocity=0 time=7>\n",
      "<message note_on channel=2 note=81 velocity=95 time=23>\n",
      "<message note_on channel=2 note=82 velocity=0 time=2>\n",
      "<message note_on channel=2 note=82 velocity=85 time=28>\n",
      "<message note_on channel=2 note=81 velocity=0 time=5>\n",
      "<message note_on channel=2 note=77 velocity=82 time=25>\n",
      "<message note_on channel=2 note=82 velocity=0 time=2>\n",
      "<message note_on channel=2 note=77 velocity=0 time=11>\n",
      "<message note_on channel=2 note=81 velocity=102 time=17>\n",
      "<message note_on channel=2 note=81 velocity=0 time=11>\n",
      "<message note_on channel=2 note=82 velocity=102 time=19>\n",
      "<message note_on channel=2 note=81 velocity=91 time=90>\n",
      "<message note_on channel=2 note=82 velocity=0 time=2>\n",
      "<message note_on channel=2 note=79 velocity=102 time=28>\n",
      "<message note_on channel=2 note=81 velocity=0 time=5>\n",
      "<message note_on channel=2 note=81 velocity=87 time=25>\n",
      "<message note_on channel=2 note=79 velocity=0 time=3>\n",
      "<message note_on channel=2 note=82 velocity=87 time=27>\n",
      "<message note_on channel=2 note=81 velocity=0 time=10>\n",
      "<message note_on channel=2 note=81 velocity=87 time=20>\n",
      "<message note_on channel=2 note=82 velocity=0 time=8>\n",
      "<message note_on channel=2 note=79 velocity=95 time=22>\n",
      "<message note_on channel=2 note=81 velocity=0 time=5>\n",
      "<message note_on channel=2 note=81 velocity=89 time=25>\n",
      "<message note_on channel=2 note=79 velocity=0 time=1>\n",
      "<message note_on channel=2 note=77 velocity=80 time=29>\n",
      "<message note_on channel=2 note=81 velocity=0 time=1>\n",
      "<message note_on channel=2 note=77 velocity=0 time=13>\n",
      "<message note_on channel=2 note=79 velocity=95 time=16>\n",
      "<message note_on channel=2 note=79 velocity=0 time=10>\n",
      "<message note_on channel=2 note=81 velocity=105 time=20>\n",
      "<message note_on channel=2 note=79 velocity=93 time=90>\n",
      "<message note_on channel=2 note=81 velocity=0 time=6>\n",
      "<message note_on channel=2 note=77 velocity=87 time=24>\n",
      "<message note_on channel=2 note=79 velocity=0 time=5>\n",
      "<message note_on channel=2 note=79 velocity=82 time=25>\n",
      "<message note_on channel=2 note=77 velocity=0 time=8>\n",
      "<message note_on channel=2 note=82 velocity=87 time=22>\n",
      "<message note_on channel=2 note=79 velocity=0 time=5>\n",
      "<message note_on channel=2 note=79 velocity=82 time=25>\n",
      "<message note_on channel=2 note=82 velocity=0 time=3>\n",
      "<message note_on channel=2 note=77 velocity=82 time=27>\n",
      "<message note_on channel=2 note=79 velocity=0 time=6>\n",
      "<message note_on channel=2 note=77 velocity=0 time=24>\n",
      "<message note_on channel=2 note=79 velocity=82 time=0>\n",
      "<message note_on channel=2 note=76 velocity=87 time=30>\n",
      "<message note_on channel=2 note=79 velocity=0 time=3>\n",
      "<message note_on channel=2 note=76 velocity=0 time=9>\n",
      "<message note_on channel=2 note=77 velocity=105 time=18>\n",
      "<message note_on channel=2 note=77 velocity=0 time=10>\n",
      "<message note_on channel=2 note=79 velocity=89 time=20>\n",
      "<message note_on channel=2 note=72 velocity=87 time=120>\n",
      "<message note_on channel=2 note=71 velocity=82 time=0>\n",
      "<message note_on channel=2 note=79 velocity=0 time=1>\n",
      "<message note_on channel=2 note=71 velocity=0 time=11>\n",
      "<message note_on channel=2 note=77 velocity=89 time=48>\n",
      "<message note_on channel=2 note=72 velocity=0 time=5>\n",
      "<message note_on channel=2 note=81 velocity=105 time=55>\n",
      "<message note_on channel=2 note=77 velocity=0 time=1>\n",
      "<message note_on channel=2 note=74 velocity=102 time=119>\n",
      "<message note_on channel=2 note=81 velocity=0 time=8>\n",
      "<message note_on channel=2 note=71 velocity=85 time=112>\n",
      "<message note_on channel=2 note=74 velocity=0 time=4>\n",
      "<message note_on channel=2 note=76 velocity=107 time=56>\n",
      "<message note_on channel=2 note=71 velocity=0 time=5>\n",
      "<message note_on channel=2 note=76 velocity=0 time=50>\n",
      "<message note_on channel=2 note=79 velocity=107 time=5>\n",
      "<message note_on channel=2 note=79 velocity=0 time=117>\n",
      "<message note_on channel=2 note=72 velocity=95 time=3>\n",
      "<message note_on channel=2 note=72 velocity=0 time=100>\n",
      "<message note_on channel=2 note=69 velocity=76 time=20>\n",
      "<message note_on channel=2 note=69 velocity=0 time=48>\n",
      "<message note_on channel=2 note=74 velocity=89 time=12>\n",
      "<message note_on channel=2 note=74 velocity=0 time=48>\n",
      "<message note_on channel=2 note=77 velocity=102 time=12>\n",
      "<message note_on channel=2 note=71 velocity=85 time=120>\n",
      "<message note_on channel=2 note=77 velocity=0 time=2>\n",
      "<message note_on channel=2 note=71 velocity=0 time=52>\n",
      "<message note_on channel=2 note=72 velocity=100 time=66>\n",
      "<message note_on channel=2 note=72 velocity=0 time=28>\n",
      "<message note_on channel=2 note=76 velocity=85 time=32>\n",
      "<message note_on channel=2 note=76 velocity=0 time=22>\n",
      "<message note_on channel=2 note=79 velocity=87 time=38>\n",
      "<message note_on channel=2 note=79 velocity=0 time=26>\n",
      "<message note_on channel=2 note=82 velocity=107 time=34>\n",
      "<message note_on channel=2 note=81 velocity=89 time=60>\n",
      "<message note_on channel=2 note=82 velocity=0 time=1>\n",
      "<message note_on channel=2 note=81 velocity=0 time=29>\n",
      "<message note_on channel=2 note=79 velocity=105 time=0>\n",
      "<message note_on channel=2 note=81 velocity=102 time=30>\n",
      "<message note_on channel=2 note=79 velocity=0 time=5>\n",
      "<message note_on channel=2 note=81 velocity=0 time=22>\n",
      "<message note_on channel=2 note=77 velocity=89 time=33>\n",
      "<message note_on channel=2 note=77 velocity=0 time=24>\n",
      "<message note_on channel=2 note=72 velocity=85 time=36>\n",
      "<message note_on channel=2 note=72 velocity=0 time=24>\n",
      "<message note_on channel=2 note=77 velocity=87 time=36>\n",
      "<message note_on channel=2 note=77 velocity=0 time=24>\n",
      "<message note_on channel=2 note=81 velocity=102 time=36>\n",
      "<message note_on channel=2 note=79 velocity=102 time=60>\n",
      "<message note_on channel=2 note=81 velocity=0 time=6>\n",
      "<message note_on channel=2 note=77 velocity=100 time=24>\n",
      "<message note_on channel=2 note=79 velocity=0 time=3>\n",
      "<message note_on channel=2 note=79 velocity=89 time=27>\n",
      "<message note_on channel=2 note=77 velocity=0 time=11>\n",
      "<message note_on channel=2 note=79 velocity=0 time=6>\n",
      "<message note_on channel=2 note=76 velocity=91 time=43>\n",
      "<message note_on channel=2 note=76 velocity=0 time=21>\n",
      "<message note_on channel=2 note=72 velocity=85 time=39>\n",
      "<message note_on channel=2 note=72 velocity=0 time=21>\n",
      "<message note_on channel=2 note=76 velocity=87 time=39>\n",
      "<message note_on channel=2 note=76 velocity=0 time=16>\n",
      "<message note_on channel=2 note=79 velocity=105 time=44>\n",
      "<message note_on channel=2 note=77 velocity=102 time=60>\n",
      "<message note_on channel=2 note=79 velocity=0 time=5>\n",
      "<message note_on channel=2 note=76 velocity=105 time=25>\n",
      "<message note_on channel=2 note=77 velocity=0 time=5>\n",
      "<message note_on channel=2 note=77 velocity=100 time=25>\n",
      "<message note_on channel=2 note=76 velocity=0 time=7>\n",
      "<message note_on channel=2 note=77 velocity=0 time=18>\n",
      "<message note_on channel=2 note=74 velocity=93 time=35>\n",
      "<message note_on channel=2 note=74 velocity=0 time=21>\n",
      "<message note_on channel=2 note=71 velocity=87 time=39>\n",
      "<message note_on channel=2 note=71 velocity=0 time=24>\n",
      "<message note_on channel=2 note=74 velocity=80 time=36>\n",
      "<message note_on channel=2 note=74 velocity=0 time=36>\n",
      "<message note_on channel=2 note=77 velocity=107 time=24>\n",
      "<message note_on channel=2 note=76 velocity=102 time=30>\n",
      "<message note_on channel=2 note=77 velocity=0 time=4>\n",
      "<message note_on channel=2 note=74 velocity=102 time=26>\n",
      "<message note_on channel=2 note=76 velocity=0 time=5>\n",
      "<message note_on channel=2 note=76 velocity=100 time=25>\n",
      "<message note_on channel=2 note=74 velocity=0 time=3>\n",
      "<message note_on channel=2 note=77 velocity=98 time=27>\n",
      "<message note_on channel=2 note=76 velocity=0 time=8>\n",
      "<message note_on channel=2 note=76 velocity=89 time=22>\n",
      "<message note_on channel=2 note=77 velocity=0 time=9>\n",
      "<message note_on channel=2 note=74 velocity=102 time=21>\n",
      "<message note_on channel=2 note=76 velocity=0 time=4>\n",
      "<message note_on channel=2 note=76 velocity=89 time=26>\n",
      "<message note_on channel=2 note=74 velocity=0 time=5>\n",
      "<message note_on channel=2 note=72 velocity=85 time=25>\n",
      "<message note_on channel=2 note=76 velocity=0 time=2>\n",
      "<message note_on channel=2 note=72 velocity=0 time=28>\n",
      "<message note_on channel=2 note=81 velocity=85 time=0>\n",
      "<message note_on channel=2 note=79 velocity=87 time=30>\n",
      "<message note_on channel=2 note=81 velocity=0 time=3>\n",
      "<message note_on channel=2 note=77 velocity=105 time=27>\n",
      "<message note_on channel=2 note=79 velocity=0 time=9>\n",
      "<message note_on channel=2 note=76 velocity=98 time=21>\n",
      "<message note_on channel=2 note=77 velocity=0 time=5>\n",
      "<message note_on channel=2 note=74 velocity=74 time=25>\n",
      "<message note_on channel=2 note=76 velocity=0 time=1>\n",
      "<message note_on channel=2 note=72 velocity=80 time=29>\n",
      "<message note_on channel=2 note=74 velocity=0 time=1>\n",
      "<message note_on channel=2 note=70 velocity=98 time=29>\n",
      "<message note_on channel=2 note=72 velocity=0 time=2>\n",
      "<message note_on channel=2 note=69 velocity=78 time=28>\n",
      "<message note_on channel=2 note=70 velocity=0 time=3>\n",
      "<message note_on channel=2 note=70 velocity=110 time=27>\n",
      "<message note_on channel=2 note=69 velocity=0 time=4>\n",
      "<message note_on channel=2 note=70 velocity=0 time=24>\n",
      "<message note_on channel=2 note=67 velocity=68 time=2>\n",
      "<message note_on channel=2 note=69 velocity=98 time=30>\n",
      "<message note_on channel=2 note=67 velocity=0 time=1>\n",
      "<message note_on channel=2 note=69 velocity=0 time=29>\n",
      "<message note_on channel=2 note=65 velocity=82 time=0>\n",
      "<message note_on channel=2 note=65 velocity=0 time=25>\n",
      "<message note_on channel=2 note=79 velocity=85 time=5>\n",
      "<message note_on channel=2 note=77 velocity=89 time=30>\n",
      "<message note_on channel=2 note=79 velocity=0 time=5>\n",
      "<message note_on channel=2 note=76 velocity=105 time=25>\n",
      "<message note_on channel=2 note=77 velocity=0 time=7>\n",
      "<message note_on channel=2 note=74 velocity=93 time=23>\n",
      "<message note_on channel=2 note=76 velocity=0 time=6>\n",
      "<message note_on channel=2 note=72 velocity=72 time=24>\n",
      "<message note_on channel=2 note=74 velocity=0 time=1>\n",
      "<message note_on channel=2 note=72 velocity=0 time=28>\n",
      "<message note_on channel=2 note=71 velocity=93 time=1>\n",
      "<message note_on channel=2 note=69 velocity=98 time=30>\n",
      "<message note_on channel=2 note=71 velocity=0 time=7>\n",
      "<message note_on channel=2 note=69 velocity=0 time=21>\n",
      "<message note_on channel=2 note=67 velocity=82 time=2>\n",
      "<message note_on channel=2 note=67 velocity=0 time=28>\n",
      "<message note_on channel=2 note=69 velocity=82 time=2>\n",
      "<message note_on channel=2 note=69 velocity=0 time=29>\n",
      "<message note_on channel=2 note=65 velocity=87 time=1>\n",
      "<message note_on channel=2 note=65 velocity=0 time=30>\n",
      "<message note_on channel=2 note=67 velocity=91 time=0>\n",
      "<message note_on channel=2 note=64 velocity=85 time=30>\n",
      "<message note_on channel=2 note=67 velocity=0 time=3>\n",
      "<message note_on channel=2 note=64 velocity=0 time=23>\n",
      "<message note_on channel=2 note=77 velocity=89 time=4>\n",
      "<message note_on channel=2 note=76 velocity=95 time=30>\n",
      "<message note_on channel=2 note=77 velocity=0 time=6>\n",
      "<message note_on channel=2 note=74 velocity=100 time=24>\n",
      "<message note_on channel=2 note=76 velocity=0 time=8>\n",
      "<message note_on channel=2 note=72 velocity=87 time=22>\n",
      "<message note_on channel=2 note=74 velocity=0 time=8>\n",
      "<message note_on channel=2 note=71 velocity=74 time=22>\n",
      "<message note_on channel=2 note=72 velocity=0 time=1>\n",
      "<message note_on channel=2 note=69 velocity=95 time=29>\n",
      "<message note_on channel=2 note=71 velocity=0 time=2>\n",
      "<message note_on channel=2 note=67 velocity=102 time=28>\n",
      "<message note_on channel=2 note=69 velocity=0 time=7>\n",
      "<message note_on channel=2 note=65 velocity=87 time=23>\n",
      "<message note_on channel=2 note=67 velocity=0 time=2>\n",
      "<message note_on channel=2 note=65 velocity=0 time=29>\n",
      "<message note_on channel=2 note=69 velocity=102 time=29>\n",
      "<message note_on channel=2 note=69 velocity=0 time=88>\n",
      "<message note_on channel=2 note=74 velocity=100 time=32>\n",
      "<message note_on channel=2 note=74 velocity=0 time=102>\n",
      "<message note_on channel=2 note=77 velocity=105 time=18>\n",
      "<message note_on channel=2 note=77 velocity=0 time=86>\n",
      "<message note_on channel=2 note=72 velocity=102 time=4>\n",
      "<message note_on channel=2 note=74 velocity=91 time=30>\n",
      "<message note_on channel=2 note=72 velocity=0 time=5>\n",
      "<message note_on channel=2 note=74 velocity=0 time=25>\n",
      "<message note_on channel=2 note=71 velocity=100 time=0>\n",
      "<message note_on channel=2 note=72 velocity=102 time=30>\n",
      "<message note_on channel=2 note=71 velocity=0 time=5>\n",
      "<message note_on channel=2 note=72 velocity=0 time=29>\n",
      "<message note_on channel=2 note=74 velocity=85 time=26>\n",
      "<message note_on channel=2 note=74 velocity=0 time=27>\n",
      "<message note_on channel=2 note=67 velocity=95 time=33>\n",
      "<message note_on channel=2 note=67 velocity=0 time=35>\n",
      "<message note_on channel=2 note=71 velocity=107 time=25>\n",
      "<message note_on channel=2 note=71 velocity=0 time=43>\n",
      "<message note_on channel=2 note=72 velocity=102 time=17>\n",
      "<message note_on channel=2 note=72 velocity=0 time=119>\n",
      "<meta message end_of_track time=0>\n",
      "=== Track 3\n",
      "<meta message midi_port port=0 time=0>\n",
      "<meta message track_name name='Great LH' time=0>\n",
      "<message program_change channel=1 program=6 time=0>\n",
      "<message control_change channel=1 control=7 value=100 time=0>\n",
      "<message control_change channel=1 control=10 value=70 time=0>\n",
      "<message control_change channel=1 control=91 value=65 time=7266>\n",
      "<message note_on channel=1 note=59 velocity=89 time=2>\n",
      "<message note_on channel=1 note=59 velocity=0 time=22>\n",
      "<message note_on channel=1 note=55 velocity=85 time=34>\n",
      "<message note_on channel=1 note=55 velocity=0 time=23>\n",
      "<message note_on channel=1 note=59 velocity=89 time=33>\n",
      "<message note_on channel=1 note=59 velocity=0 time=27>\n",
      "<message note_on channel=1 note=60 velocity=82 time=34>\n",
      "<message note_on channel=1 note=59 velocity=76 time=60>\n",
      "<message note_on channel=1 note=60 velocity=0 time=4>\n",
      "<message note_on channel=1 note=57 velocity=74 time=25>\n",
      "<message note_on channel=1 note=59 velocity=0 time=7>\n",
      "<message note_on channel=1 note=59 velocity=100 time=22>\n",
      "<message note_on channel=1 note=57 velocity=0 time=2>\n",
      "<message note_on channel=1 note=59 velocity=0 time=25>\n",
      "<message note_on channel=1 note=62 velocity=87 time=35>\n",
      "<message note_on channel=1 note=62 velocity=0 time=32>\n",
      "<message note_on channel=1 note=55 velocity=82 time=26>\n",
      "<message note_on channel=1 note=55 velocity=0 time=22>\n",
      "<message note_on channel=1 note=59 velocity=82 time=40>\n",
      "<message note_on channel=1 note=59 velocity=0 time=22>\n",
      "<message note_on channel=1 note=52 velocity=87 time=40>\n",
      "<message note_on channel=1 note=55 velocity=62 time=28>\n",
      "<message note_on channel=1 note=52 velocity=0 time=5>\n",
      "<message note_on channel=1 note=57 velocity=91 time=23>\n",
      "<message note_on channel=1 note=55 velocity=0 time=5>\n",
      "<message note_on channel=1 note=59 velocity=91 time=24>\n",
      "<message note_on channel=1 note=57 velocity=0 time=2>\n",
      "<message note_on channel=1 note=59 velocity=0 time=28>\n",
      "<message note_on channel=1 note=60 velocity=87 time=0>\n",
      "<message note_on channel=1 note=60 velocity=0 time=29>\n",
      "<message note_on channel=1 note=64 velocity=85 time=30>\n",
      "<message note_on channel=1 note=64 velocity=0 time=29>\n",
      "<message note_on channel=1 note=57 velocity=87 time=30>\n",
      "<message note_on channel=1 note=57 velocity=0 time=29>\n",
      "<message note_on channel=1 note=60 velocity=91 time=33>\n",
      "<message note_on channel=1 note=60 velocity=0 time=26>\n",
      "<message note_on channel=1 note=54 velocity=82 time=36>\n",
      "<message note_on channel=1 note=57 velocity=85 time=28>\n",
      "<message note_on channel=1 note=54 velocity=0 time=5>\n",
      "<message note_on channel=1 note=59 velocity=82 time=23>\n",
      "<message note_on channel=1 note=57 velocity=0 time=2>\n",
      "<message note_on channel=1 note=59 velocity=0 time=28>\n",
      "<message note_on channel=1 note=60 velocity=82 time=1>\n",
      "<message note_on channel=1 note=60 velocity=0 time=27>\n",
      "<message note_on channel=1 note=62 velocity=102 time=6>\n",
      "<message note_on channel=1 note=62 velocity=0 time=33>\n",
      "<message note_on channel=1 note=67 velocity=82 time=30>\n",
      "<message note_on channel=1 note=62 velocity=89 time=29>\n",
      "<message note_on channel=1 note=67 velocity=0 time=5>\n",
      "<message note_on channel=1 note=62 velocity=0 time=19>\n",
      "<message note_on channel=1 note=59 velocity=82 time=3>\n",
      "<message note_on channel=1 note=59 velocity=0 time=29>\n",
      "<message note_on channel=1 note=62 velocity=85 time=33>\n",
      "<message note_on channel=1 note=62 velocity=0 time=29>\n",
      "<message note_on channel=1 note=59 velocity=80 time=0>\n",
      "<message note_on channel=1 note=55 velocity=87 time=30>\n",
      "<message note_on channel=1 note=59 velocity=0 time=2>\n",
      "<message note_on channel=1 note=59 velocity=87 time=27>\n",
      "<message note_on channel=1 note=55 velocity=0 time=7>\n",
      "<message note_on channel=1 note=60 velocity=87 time=23>\n",
      "<message note_on channel=1 note=59 velocity=0 time=2>\n",
      "<message note_on channel=1 note=60 velocity=0 time=27>\n",
      "<message note_on channel=1 note=62 velocity=80 time=0>\n",
      "<message note_on channel=1 note=64 velocity=80 time=31>\n",
      "<message note_on channel=1 note=62 velocity=0 time=3>\n",
      "<message note_on channel=1 note=62 velocity=82 time=25>\n",
      "<message note_on channel=1 note=64 velocity=0 time=4>\n",
      "<message note_on channel=1 note=64 velocity=76 time=28>\n",
      "<message note_on channel=1 note=62 velocity=0 time=3>\n",
      "<message note_on channel=1 note=64 velocity=0 time=27>\n",
      "<message note_on channel=1 note=65 velocity=82 time=0>\n",
      "<message note_on channel=1 note=64 velocity=87 time=34>\n",
      "<message note_on channel=1 note=65 velocity=0 time=5>\n",
      "<message note_on channel=1 note=62 velocity=89 time=24>\n",
      "<message note_on channel=1 note=64 velocity=0 time=6>\n",
      "<message note_on channel=1 note=62 velocity=0 time=24>\n",
      "<message note_on channel=1 note=60 velocity=82 time=2>\n",
      "<message note_on channel=1 note=59 velocity=59 time=26>\n",
      "<message note_on channel=1 note=60 velocity=0 time=7>\n",
      "<message note_on channel=1 note=57 velocity=72 time=22>\n",
      "<message note_on channel=1 note=59 velocity=0 time=6>\n",
      "<message note_on channel=1 note=55 velocity=82 time=23>\n",
      "<message note_on channel=1 note=57 velocity=0 time=3>\n",
      "<message note_on channel=1 note=54 velocity=72 time=27>\n",
      "<message note_on channel=1 note=55 velocity=0 time=5>\n",
      "<message note_on channel=1 note=54 velocity=0 time=17>\n",
      "<message note_on channel=1 note=52 velocity=82 time=5>\n",
      "<message note_on channel=1 note=52 velocity=0 time=28>\n",
      "<message note_on channel=1 note=54 velocity=76 time=0>\n",
      "<message note_on channel=1 note=55 velocity=82 time=33>\n",
      "<message note_on channel=1 note=54 velocity=0 time=3>\n",
      "<message note_on channel=1 note=54 velocity=87 time=29>\n",
      "<message note_on channel=1 note=55 velocity=0 time=2>\n",
      "<message note_on channel=1 note=50 velocity=85 time=29>\n",
      "<message note_on channel=1 note=54 velocity=0 time=4>\n",
      "<message note_on channel=1 note=57 velocity=87 time=26>\n",
      "<message note_on channel=1 note=50 velocity=0 time=2>\n",
      "<message note_on channel=1 note=59 velocity=80 time=30>\n",
      "<message note_on channel=1 note=57 velocity=0 time=1>\n",
      "<message note_on channel=1 note=57 velocity=87 time=30>\n",
      "<message note_on channel=1 note=59 velocity=0 time=5>\n",
      "<message note_on channel=1 note=50 velocity=87 time=23>\n",
      "<message note_on channel=1 note=57 velocity=0 time=3>\n",
      "<message note_on channel=1 note=50 velocity=0 time=22>\n",
      "<message note_on channel=1 note=60 velocity=93 time=4>\n",
      "<message note_on channel=1 note=62 velocity=87 time=32>\n",
      "<message note_on channel=1 note=60 velocity=0 time=4>\n",
      "<message note_on channel=1 note=60 velocity=85 time=26>\n",
      "<message note_on channel=1 note=62 velocity=0 time=5>\n",
      "<message note_on channel=1 note=57 velocity=80 time=23>\n",
      "<message note_on channel=1 note=60 velocity=0 time=5>\n",
      "<message note_on channel=1 note=58 velocity=100 time=24>\n",
      "<message note_on channel=1 note=57 velocity=0 time=2>\n",
      "<message note_on channel=1 note=58 velocity=0 time=30>\n",
      "<message note_on channel=1 note=55 velocity=87 time=32>\n",
      "<message note_on channel=1 note=55 velocity=0 time=35>\n",
      "<message note_on channel=1 note=62 velocity=91 time=24>\n",
      "<message note_on channel=1 note=62 velocity=0 time=33>\n",
      "<message note_on channel=1 note=58 velocity=80 time=27>\n",
      "<message note_on channel=1 note=58 velocity=0 time=43>\n",
      "<message note_on channel=1 note=60 velocity=87 time=16756>\n",
      "<message note_on channel=1 note=60 velocity=0 time=25>\n",
      "<message note_on channel=1 note=57 velocity=87 time=35>\n",
      "<message note_on channel=1 note=57 velocity=0 time=33>\n",
      "<message note_on channel=1 note=60 velocity=98 time=27>\n",
      "<message note_on channel=1 note=60 velocity=0 time=31>\n",
      "<message note_on channel=1 note=62 velocity=105 time=29>\n",
      "<message note_on channel=1 note=60 velocity=82 time=60>\n",
      "<message note_on channel=1 note=62 velocity=0 time=5>\n",
      "<message note_on channel=1 note=58 velocity=91 time=25>\n",
      "<message note_on channel=1 note=60 velocity=0 time=5>\n",
      "<message note_on channel=1 note=58 velocity=0 time=22>\n",
      "<message note_on channel=1 note=60 velocity=80 time=3>\n",
      "<message note_on channel=1 note=65 velocity=93 time=30>\n",
      "<message note_on channel=1 note=60 velocity=0 time=2>\n",
      "<message note_on channel=1 note=64 velocity=102 time=28>\n",
      "<message note_on channel=1 note=65 velocity=0 time=5>\n",
      "<message note_on channel=1 note=65 velocity=102 time=25>\n",
      "<message note_on channel=1 note=64 velocity=0 time=4>\n",
      "<message note_on channel=1 note=69 velocity=100 time=26>\n",
      "<message note_on channel=1 note=65 velocity=0 time=2>\n",
      "<message note_on channel=1 note=65 velocity=85 time=28>\n",
      "<message note_on channel=1 note=69 velocity=0 time=7>\n",
      "<message note_on channel=1 note=64 velocity=98 time=23>\n",
      "<message note_on channel=1 note=65 velocity=0 time=6>\n",
      "<message note_on channel=1 note=65 velocity=91 time=24>\n",
      "<message note_on channel=1 note=64 velocity=0 time=4>\n",
      "<message note_on channel=1 note=60 velocity=102 time=26>\n",
      "<message note_on channel=1 note=65 velocity=0 time=4>\n",
      "<message note_on channel=1 note=65 velocity=100 time=26>\n",
      "<message note_on channel=1 note=60 velocity=0 time=3>\n",
      "<message note_on channel=1 note=57 velocity=91 time=27>\n",
      "<message note_on channel=1 note=65 velocity=0 time=8>\n",
      "<message note_on channel=1 note=60 velocity=72 time=22>\n",
      "<message note_on channel=1 note=57 velocity=0 time=5>\n",
      "<message note_on channel=1 note=60 velocity=0 time=25>\n",
      "<message note_on channel=1 note=53 velocity=87 time=0>\n",
      "<message note_on channel=1 note=53 velocity=0 time=32>\n",
      "<message note_on channel=1 note=69 velocity=91 time=28>\n",
      "<message note_on channel=1 note=69 velocity=0 time=22>\n",
      "<message note_on channel=1 note=65 velocity=89 time=38>\n",
      "<message note_on channel=1 note=65 velocity=0 time=27>\n",
      "<message note_on channel=1 note=69 velocity=89 time=33>\n",
      "<message note_on channel=1 note=69 velocity=0 time=26>\n",
      "<message note_on channel=1 note=70 velocity=100 time=34>\n",
      "<message note_on channel=1 note=69 velocity=95 time=60>\n",
      "<message note_on channel=1 note=70 velocity=0 time=1>\n",
      "<message note_on channel=1 note=67 velocity=102 time=29>\n",
      "<message note_on channel=1 note=69 velocity=0 time=3>\n",
      "<message note_on channel=1 note=69 velocity=102 time=27>\n",
      "<message note_on channel=1 note=67 velocity=0 time=7>\n",
      "<message note_on channel=1 note=69 velocity=0 time=14>\n",
      "<message note_on channel=1 note=60 velocity=66 time=9>\n",
      "<message note_on channel=1 note=62 velocity=87 time=30>\n",
      "<message note_on channel=1 note=60 velocity=0 time=5>\n",
      "<message note_on channel=1 note=64 velocity=100 time=25>\n",
      "<message note_on channel=1 note=62 velocity=0 time=11>\n",
      "<message note_on channel=1 note=65 velocity=100 time=19>\n",
      "<message note_on channel=1 note=64 velocity=0 time=8>\n",
      "<message note_on channel=1 note=64 velocity=91 time=22>\n",
      "<message note_on channel=1 note=65 velocity=0 time=3>\n",
      "<message note_on channel=1 note=65 velocity=102 time=27>\n",
      "<message note_on channel=1 note=64 velocity=0 time=8>\n",
      "<message note_on channel=1 note=69 velocity=87 time=22>\n",
      "<message note_on channel=1 note=65 velocity=0 time=4>\n",
      "<message note_on channel=1 note=67 velocity=95 time=26>\n",
      "<message note_on channel=1 note=69 velocity=0 time=7>\n",
      "<message note_on channel=1 note=65 velocity=102 time=23>\n",
      "<message note_on channel=1 note=67 velocity=0 time=11>\n",
      "<message note_on channel=1 note=64 velocity=98 time=19>\n",
      "<message note_on channel=1 note=65 velocity=0 time=7>\n",
      "<message note_on channel=1 note=64 velocity=0 time=22>\n",
      "<message note_on channel=1 note=62 velocity=80 time=1>\n",
      "<message note_on channel=1 note=64 velocity=105 time=30>\n",
      "<message note_on channel=1 note=62 velocity=0 time=6>\n",
      "<message note_on channel=1 note=64 velocity=0 time=19>\n",
      "<message note_on channel=1 note=60 velocity=102 time=35>\n",
      "<message note_on channel=1 note=62 velocity=102 time=30>\n",
      "<message note_on channel=1 note=60 velocity=0 time=3>\n",
      "<message note_on channel=1 note=64 velocity=107 time=27>\n",
      "<message note_on channel=1 note=62 velocity=0 time=4>\n",
      "<message note_on channel=1 note=64 velocity=0 time=23>\n",
      "<message note_on channel=1 note=55 velocity=87 time=33>\n",
      "<message note_on channel=1 note=55 velocity=0 time=44>\n",
      "<message note_on channel=1 note=57 velocity=85 time=16>\n",
      "<message note_on channel=1 note=57 velocity=0 time=39>\n",
      "<message note_on channel=1 note=66 velocity=98 time=21>\n",
      "<message note_on channel=1 note=66 velocity=0 time=40>\n",
      "<message note_on channel=1 note=67 velocity=89 time=20>\n",
      "<message note_on channel=1 note=62 velocity=91 time=30>\n",
      "<message note_on channel=1 note=67 velocity=0 time=2>\n",
      "<message note_on channel=1 note=64 velocity=102 time=28>\n",
      "<message note_on channel=1 note=62 velocity=0 time=9>\n",
      "<message note_on channel=1 note=65 velocity=102 time=21>\n",
      "<message note_on channel=1 note=64 velocity=0 time=6>\n",
      "<message note_on channel=1 note=67 velocity=89 time=24>\n",
      "<message note_on channel=1 note=65 velocity=0 time=5>\n",
      "<message note_on channel=1 note=67 velocity=0 time=25>\n",
      "<message note_on channel=1 note=65 velocity=82 time=0>\n",
      "<message note_on channel=1 note=67 velocity=82 time=30>\n",
      "<message note_on channel=1 note=65 velocity=0 time=13>\n",
      "<message note_on channel=1 note=70 velocity=89 time=17>\n",
      "<message note_on channel=1 note=67 velocity=0 time=2>\n",
      "<message note_on channel=1 note=69 velocity=91 time=28>\n",
      "<message note_on channel=1 note=70 velocity=0 time=10>\n",
      "<message note_on channel=1 note=67 velocity=100 time=20>\n",
      "<message note_on channel=1 note=69 velocity=0 time=7>\n",
      "<message note_on channel=1 note=65 velocity=82 time=23>\n",
      "<message note_on channel=1 note=67 velocity=0 time=3>\n",
      "<message note_on channel=1 note=64 velocity=100 time=27>\n",
      "<message note_on channel=1 note=65 velocity=0 time=3>\n",
      "<message note_on channel=1 note=65 velocity=85 time=27>\n",
      "<message note_on channel=1 note=64 velocity=0 time=4>\n",
      "<message note_on channel=1 note=65 velocity=0 time=25>\n",
      "<message note_on channel=1 note=62 velocity=87 time=31>\n",
      "<message note_on channel=1 note=64 velocity=98 time=30>\n",
      "<message note_on channel=1 note=62 velocity=0 time=2>\n",
      "<message note_on channel=1 note=66 velocity=110 time=28>\n",
      "<message note_on channel=1 note=64 velocity=0 time=6>\n",
      "<message note_on channel=1 note=66 velocity=0 time=22>\n",
      "<message note_on channel=1 note=57 velocity=85 time=32>\n",
      "<message note_on channel=1 note=57 velocity=0 time=40>\n",
      "<message note_on channel=1 note=59 velocity=87 time=20>\n",
      "<message note_on channel=1 note=59 velocity=0 time=43>\n",
      "<message note_on channel=1 note=68 velocity=100 time=17>\n",
      "<message note_on channel=1 note=68 velocity=0 time=41>\n",
      "<message note_on channel=1 note=69 velocity=105 time=49>\n",
      "<message note_on channel=1 note=68 velocity=95 time=30>\n",
      "<message note_on channel=1 note=69 velocity=0 time=3>\n",
      "<message note_on channel=1 note=69 velocity=91 time=27>\n",
      "<message note_on channel=1 note=68 velocity=0 time=4>\n",
      "<message note_on channel=1 note=72 velocity=98 time=26>\n",
      "<message note_on channel=1 note=69 velocity=0 time=4>\n",
      "<message note_on channel=1 note=69 velocity=89 time=26>\n",
      "<message note_on channel=1 note=72 velocity=0 time=1>\n",
      "<message note_on channel=1 note=68 velocity=107 time=29>\n",
      "<message note_on channel=1 note=69 velocity=0 time=4>\n",
      "<message note_on channel=1 note=69 velocity=82 time=26>\n",
      "<message note_on channel=1 note=68 velocity=0 time=3>\n",
      "<message note_on channel=1 note=64 velocity=100 time=27>\n",
      "<message note_on channel=1 note=69 velocity=0 time=5>\n",
      "<message note_on channel=1 note=69 velocity=102 time=25>\n",
      "<message note_on channel=1 note=64 velocity=0 time=3>\n",
      "<message note_on channel=1 note=69 velocity=0 time=26>\n",
      "<message note_on channel=1 note=60 velocity=89 time=1>\n",
      "<message note_on channel=1 note=64 velocity=98 time=30>\n",
      "<message note_on channel=1 note=60 velocity=0 time=3>\n",
      "<message note_on channel=1 note=64 velocity=0 time=25>\n",
      "<message note_on channel=1 note=57 velocity=82 time=2>\n",
      "<message note_on channel=1 note=57 velocity=0 time=31>\n",
      "<message note_on channel=1 note=72 velocity=95 time=29>\n",
      "<message note_on channel=1 note=72 velocity=0 time=26>\n",
      "<message note_on channel=1 note=69 velocity=82 time=34>\n",
      "<message note_on channel=1 note=69 velocity=0 time=29>\n",
      "<message note_on channel=1 note=72 velocity=100 time=31>\n",
      "<message note_on channel=1 note=72 velocity=0 time=27>\n",
      "<message note_on channel=1 note=74 velocity=102 time=33>\n",
      "<message note_on channel=1 note=74 velocity=0 time=53>\n",
      "<message note_on channel=1 note=72 velocity=98 time=7>\n",
      "<message note_on channel=1 note=71 velocity=116 time=30>\n",
      "<message note_on channel=1 note=72 velocity=0 time=4>\n",
      "<message note_on channel=1 note=71 velocity=0 time=25>\n",
      "<message note_on channel=1 note=72 velocity=82 time=1>\n",
      "<message note_on channel=1 note=72 velocity=0 time=61>\n",
      "<message note_on channel=1 note=64 velocity=95 time=359>\n",
      "<message note_on channel=1 note=64 velocity=0 time=31>\n",
      "<message note_on channel=1 note=60 velocity=89 time=29>\n",
      "<message note_on channel=1 note=60 velocity=0 time=30>\n",
      "<message note_on channel=1 note=64 velocity=95 time=30>\n",
      "<message note_on channel=1 note=64 velocity=0 time=38>\n",
      "<message note_on channel=1 note=65 velocity=102 time=22>\n",
      "<message note_on channel=1 note=65 velocity=0 time=45>\n",
      "<message note_on channel=1 note=64 velocity=105 time=15>\n",
      "<message note_on channel=1 note=62 velocity=102 time=30>\n",
      "<message note_on channel=1 note=64 velocity=0 time=3>\n",
      "<message note_on channel=1 note=64 velocity=95 time=27>\n",
      "<message note_on channel=1 note=62 velocity=0 time=1>\n",
      "<message note_on channel=1 note=64 velocity=0 time=13>\n",
      "<message note_on channel=1 note=52 velocity=98 time=16>\n",
      "<message note_on channel=1 note=54 velocity=82 time=30>\n",
      "<message note_on channel=1 note=52 velocity=0 time=14>\n",
      "<message note_on channel=1 note=56 velocity=80 time=16>\n",
      "<message note_on channel=1 note=54 velocity=0 time=8>\n",
      "<message note_on channel=1 note=57 velocity=70 time=22>\n",
      "<message note_on channel=1 note=56 velocity=0 time=1>\n",
      "<message note_on channel=1 note=56 velocity=91 time=29>\n",
      "<message note_on channel=1 note=57 velocity=0 time=8>\n",
      "<message note_on channel=1 note=56 velocity=0 time=20>\n",
      "<message note_on channel=1 note=57 velocity=82 time=2>\n",
      "<message note_on channel=1 note=57 velocity=0 time=30>\n",
      "<message note_on channel=1 note=60 velocity=98 time=0>\n",
      "<message note_on channel=1 note=59 velocity=102 time=30>\n",
      "<message note_on channel=1 note=60 velocity=0 time=9>\n",
      "<message note_on channel=1 note=59 velocity=0 time=20>\n",
      "<message note_on channel=1 note=57 velocity=78 time=1>\n",
      "<message note_on channel=1 note=56 velocity=105 time=30>\n",
      "<message note_on channel=1 note=57 velocity=0 time=8>\n",
      "<message note_on channel=1 note=54 velocity=95 time=22>\n",
      "<message note_on channel=1 note=56 velocity=0 time=3>\n",
      "<message note_on channel=1 note=52 velocity=80 time=27>\n",
      "<message note_on channel=1 note=54 velocity=0 time=1>\n",
      "<message note_on channel=1 note=54 velocity=89 time=29>\n",
      "<message note_on channel=1 note=52 velocity=0 time=8>\n",
      "<message note_on channel=1 note=56 velocity=82 time=22>\n",
      "<message note_on channel=1 note=54 velocity=0 time=12>\n",
      "<message note_on channel=1 note=56 velocity=0 time=15>\n",
      "<message note_on channel=1 note=57 velocity=70 time=3>\n",
      "<message note_on channel=1 note=59 velocity=80 time=30>\n",
      "<message note_on channel=1 note=57 velocity=0 time=5>\n",
      "<message note_on channel=1 note=59 velocity=0 time=20>\n",
      "<message note_on channel=1 note=62 velocity=80 time=5>\n",
      "<message note_on channel=1 note=60 velocity=105 time=30>\n",
      "<message note_on channel=1 note=62 velocity=0 time=10>\n",
      "<message note_on channel=1 note=59 velocity=98 time=20>\n",
      "<message note_on channel=1 note=60 velocity=0 time=2>\n",
      "<message note_on channel=1 note=64 velocity=85 time=28>\n",
      "<message note_on channel=1 note=59 velocity=0 time=10>\n",
      "<message note_on channel=1 note=62 velocity=93 time=20>\n",
      "<message note_on channel=1 note=64 velocity=0 time=9>\n",
      "<message note_on channel=1 note=61 velocity=102 time=21>\n",
      "<message note_on channel=1 note=62 velocity=0 time=10>\n",
      "<message note_on channel=1 note=59 velocity=91 time=20>\n",
      "<message note_on channel=1 note=61 velocity=0 time=5>\n",
      "<message note_on channel=1 note=61 velocity=107 time=25>\n",
      "<message note_on channel=1 note=59 velocity=0 time=8>\n",
      "<message note_on channel=1 note=61 velocity=0 time=27>\n",
      "<message note_on channel=1 note=64 velocity=89 time=25>\n",
      "<message note_on channel=1 note=64 velocity=0 time=31>\n",
      "<message note_on channel=1 note=57 velocity=93 time=29>\n",
      "<message note_on channel=1 note=57 velocity=0 time=30>\n",
      "<message note_on channel=1 note=62 velocity=91 time=30>\n",
      "<message note_on channel=1 note=62 velocity=0 time=25>\n",
      "<message note_on channel=1 note=55 velocity=70 time=35>\n",
      "<message note_on channel=1 note=55 velocity=0 time=24>\n",
      "<message note_on channel=1 note=67 velocity=107 time=36>\n",
      "<message note_on channel=1 note=67 velocity=0 time=90>\n",
      "<message note_on channel=1 note=65 velocity=95 time=0>\n",
      "<message note_on channel=1 note=64 velocity=98 time=30>\n",
      "<message note_on channel=1 note=65 velocity=0 time=4>\n",
      "<message note_on channel=1 note=64 velocity=0 time=24>\n",
      "<message note_on channel=1 note=62 velocity=87 time=2>\n",
      "<message note_on channel=1 note=61 velocity=110 time=30>\n",
      "<message note_on channel=1 note=62 velocity=0 time=8>\n",
      "<message note_on channel=1 note=59 velocity=98 time=22>\n",
      "<message note_on channel=1 note=61 velocity=0 time=4>\n",
      "<message note_on channel=1 note=57 velocity=72 time=26>\n",
      "<message note_on channel=1 note=59 velocity=0 time=9>\n",
      "<message note_on channel=1 note=57 velocity=0 time=20>\n",
      "<message note_on channel=1 note=55 velocity=98 time=1>\n",
      "<message note_on channel=1 note=53 velocity=102 time=30>\n",
      "<message note_on channel=1 note=55 velocity=0 time=14>\n",
      "<message note_on channel=1 note=52 velocity=100 time=16>\n",
      "<message note_on channel=1 note=53 velocity=0 time=6>\n",
      "<message note_on channel=1 note=50 velocity=87 time=24>\n",
      "<message note_on channel=1 note=52 velocity=0 time=2>\n",
      "<message note_on channel=1 note=49 velocity=102 time=28>\n",
      "<message note_on channel=1 note=50 velocity=0 time=6>\n",
      "<message note_on channel=1 note=49 velocity=0 time=27>\n",
      "<message note_on channel=1 note=50 velocity=93 time=1>\n",
      "<message note_on channel=1 note=50 velocity=0 time=116>\n",
      "<message note_on channel=1 note=67 velocity=87 time=11790>\n",
      "<message note_on channel=1 note=66 velocity=85 time=30>\n",
      "<message note_on channel=1 note=67 velocity=0 time=4>\n",
      "<message note_on channel=1 note=67 velocity=82 time=26>\n",
      "<message note_on channel=1 note=66 velocity=0 time=3>\n",
      "<message note_on channel=1 note=71 velocity=85 time=27>\n",
      "<message note_on channel=1 note=67 velocity=0 time=5>\n",
      "<message note_on channel=1 note=67 velocity=82 time=25>\n",
      "<message note_on channel=1 note=71 velocity=0 time=2>\n",
      "<message note_on channel=1 note=66 velocity=100 time=28>\n",
      "<message note_on channel=1 note=67 velocity=0 time=7>\n",
      "<message note_on channel=1 note=67 velocity=82 time=23>\n",
      "<message note_on channel=1 note=66 velocity=0 time=1>\n",
      "<message note_on channel=1 note=62 velocity=85 time=29>\n",
      "<message note_on channel=1 note=67 velocity=0 time=7>\n",
      "<message note_on channel=1 note=67 velocity=89 time=23>\n",
      "<message note_on channel=1 note=62 velocity=0 time=4>\n",
      "<message note_on channel=1 note=59 velocity=95 time=26>\n",
      "<message note_on channel=1 note=67 velocity=0 time=3>\n",
      "<message note_on channel=1 note=62 velocity=80 time=27>\n",
      "<message note_on channel=1 note=59 velocity=0 time=5>\n",
      "<message note_on channel=1 note=55 velocity=87 time=25>\n",
      "<message note_on channel=1 note=62 velocity=0 time=1>\n",
      "<message note_on channel=1 note=55 velocity=0 time=28>\n",
      "<message note_on channel=1 note=74 velocity=95 time=31>\n",
      "<message note_on channel=1 note=74 velocity=0 time=25>\n",
      "<message note_on channel=1 note=71 velocity=85 time=35>\n",
      "<message note_on channel=1 note=71 velocity=0 time=31>\n",
      "<message note_on channel=1 note=74 velocity=85 time=29>\n",
      "<message note_on channel=1 note=74 velocity=0 time=27>\n",
      "<message note_on channel=1 note=76 velocity=89 time=33>\n",
      "<message note_on channel=1 note=74 velocity=89 time=60>\n",
      "<message note_on channel=1 note=76 velocity=0 time=4>\n",
      "<message note_on channel=1 note=72 velocity=100 time=26>\n",
      "<message note_on channel=1 note=74 velocity=0 time=9>\n",
      "<message note_on channel=1 note=74 velocity=91 time=21>\n",
      "<message note_on channel=1 note=72 velocity=0 time=3>\n",
      "<message note_on channel=1 note=74 velocity=0 time=100>\n",
      "<message note_on channel=1 note=59 velocity=85 time=317>\n",
      "<message note_on channel=1 note=59 velocity=0 time=33>\n",
      "<message note_on channel=1 note=55 velocity=80 time=27>\n",
      "<message note_on channel=1 note=55 velocity=0 time=34>\n",
      "<message note_on channel=1 note=59 velocity=85 time=26>\n",
      "<message note_on channel=1 note=59 velocity=0 time=32>\n",
      "<message note_on channel=1 note=60 velocity=85 time=28>\n",
      "<message note_on channel=1 note=60 velocity=0 time=60>\n",
      "<message note_on channel=1 note=59 velocity=82 time=0>\n",
      "<message note_on channel=1 note=57 velocity=70 time=30>\n",
      "<message note_on channel=1 note=59 velocity=0 time=5>\n",
      "<message note_on channel=1 note=59 velocity=80 time=25>\n",
      "<message note_on channel=1 note=57 velocity=0 time=2>\n",
      "<message note_on channel=1 note=59 velocity=0 time=32>\n",
      "<message note_on channel=1 note=62 velocity=85 time=26>\n",
      "<message note_on channel=1 note=62 velocity=0 time=35>\n",
      "<message note_on channel=1 note=55 velocity=82 time=25>\n",
      "<message note_on channel=1 note=55 velocity=0 time=28>\n",
      "<message note_on channel=1 note=59 velocity=82 time=32>\n",
      "<message note_on channel=1 note=59 velocity=0 time=35>\n",
      "<message note_on channel=1 note=52 velocity=87 time=25>\n",
      "<message note_on channel=1 note=52 velocity=0 time=26>\n",
      "<message note_on channel=1 note=55 velocity=100 time=4>\n",
      "<message note_on channel=1 note=57 velocity=93 time=30>\n",
      "<message note_on channel=1 note=55 velocity=0 time=6>\n",
      "<message note_on channel=1 note=59 velocity=93 time=24>\n",
      "<message note_on channel=1 note=57 velocity=0 time=2>\n",
      "<message note_on channel=1 note=60 velocity=78 time=28>\n",
      "<message note_on channel=1 note=59 velocity=0 time=4>\n",
      "<message note_on channel=1 note=60 velocity=0 time=29>\n",
      "<message note_on channel=1 note=64 velocity=85 time=27>\n",
      "<message note_on channel=1 note=64 velocity=0 time=32>\n",
      "<message note_on channel=1 note=57 velocity=82 time=28>\n",
      "<message note_on channel=1 note=57 velocity=0 time=32>\n",
      "<message note_on channel=1 note=60 velocity=85 time=28>\n",
      "<message note_on channel=1 note=60 velocity=0 time=29>\n",
      "<message note_on channel=1 note=54 velocity=78 time=31>\n",
      "<message note_on channel=1 note=54 velocity=0 time=30>\n",
      "<message note_on channel=1 note=57 velocity=60 time=0>\n",
      "<message note_on channel=1 note=59 velocity=100 time=30>\n",
      "<message note_on channel=1 note=57 velocity=0 time=2>\n",
      "<message note_on channel=1 note=60 velocity=105 time=28>\n",
      "<message note_on channel=1 note=59 velocity=0 time=6>\n",
      "<message note_on channel=1 note=62 velocity=102 time=24>\n",
      "<message note_on channel=1 note=60 velocity=0 time=13>\n",
      "<message note_on channel=1 note=62 velocity=0 time=17>\n",
      "<message note_on channel=1 note=67 velocity=87 time=30>\n",
      "<message note_on channel=1 note=62 velocity=89 time=30>\n",
      "<message note_on channel=1 note=67 velocity=0 time=5>\n",
      "<message note_on channel=1 note=59 velocity=105 time=25>\n",
      "<message note_on channel=1 note=62 velocity=0 time=6>\n",
      "<message note_on channel=1 note=59 velocity=0 time=39>\n",
      "<message note_on channel=1 note=62 velocity=100 time=15>\n",
      "<message note_on channel=1 note=59 velocity=100 time=30>\n",
      "<message note_on channel=1 note=62 velocity=0 time=6>\n",
      "<message note_on channel=1 note=55 velocity=93 time=24>\n",
      "<message note_on channel=1 note=59 velocity=0 time=1>\n",
      "<message note_on channel=1 note=59 velocity=82 time=29>\n",
      "<message note_on channel=1 note=55 velocity=0 time=1>\n",
      "<message note_on channel=1 note=60 velocity=98 time=29>\n",
      "<message note_on channel=1 note=59 velocity=0 time=3>\n",
      "<message note_on channel=1 note=62 velocity=102 time=27>\n",
      "<message note_on channel=1 note=60 velocity=0 time=8>\n",
      "<message note_on channel=1 note=64 velocity=102 time=22>\n",
      "<message note_on channel=1 note=62 velocity=0 time=10>\n",
      "<message note_on channel=1 note=62 velocity=105 time=20>\n",
      "<message note_on channel=1 note=64 velocity=0 time=5>\n",
      "<message note_on channel=1 note=64 velocity=100 time=25>\n",
      "<message note_on channel=1 note=62 velocity=0 time=7>\n",
      "<message note_on channel=1 note=65 velocity=102 time=23>\n",
      "<message note_on channel=1 note=64 velocity=0 time=8>\n",
      "<message note_on channel=1 note=64 velocity=95 time=22>\n",
      "<message note_on channel=1 note=65 velocity=0 time=7>\n",
      "<message note_on channel=1 note=62 velocity=102 time=23>\n",
      "<message note_on channel=1 note=64 velocity=0 time=12>\n",
      "<message note_on channel=1 note=60 velocity=98 time=18>\n",
      "<message note_on channel=1 note=62 velocity=0 time=8>\n",
      "<message note_on channel=1 note=59 velocity=89 time=22>\n",
      "<message note_on channel=1 note=60 velocity=0 time=2>\n",
      "<message note_on channel=1 note=57 velocity=82 time=28>\n",
      "<message note_on channel=1 note=59 velocity=0 time=4>\n",
      "<message note_on channel=1 note=55 velocity=76 time=26>\n",
      "<message note_on channel=1 note=57 velocity=0 time=6>\n",
      "<message note_on channel=1 note=54 velocity=72 time=24>\n",
      "<message note_on channel=1 note=55 velocity=0 time=8>\n",
      "<message note_on channel=1 note=52 velocity=78 time=22>\n",
      "<message note_on channel=1 note=54 velocity=0 time=4>\n",
      "<message note_on channel=1 note=54 velocity=105 time=26>\n",
      "<message note_on channel=1 note=52 velocity=0 time=8>\n",
      "<message note_on channel=1 note=55 velocity=85 time=22>\n",
      "<message note_on channel=1 note=54 velocity=0 time=5>\n",
      "<message note_on channel=1 note=54 velocity=89 time=25>\n",
      "<message note_on channel=1 note=55 velocity=0 time=4>\n",
      "<message note_on channel=1 note=50 velocity=85 time=26>\n",
      "<message note_on channel=1 note=54 velocity=0 time=5>\n",
      "<message note_on channel=1 note=50 velocity=0 time=25>\n",
      "<message note_on channel=1 note=57 velocity=80 time=0>\n",
      "<message note_on channel=1 note=59 velocity=82 time=30>\n",
      "<message note_on channel=1 note=57 velocity=0 time=3>\n",
      "<message note_on channel=1 note=57 velocity=80 time=27>\n",
      "<message note_on channel=1 note=59 velocity=0 time=9>\n",
      "<message note_on channel=1 note=57 velocity=0 time=18>\n",
      "<message note_on channel=1 note=50 velocity=87 time=3>\n",
      "<message note_on channel=1 note=60 velocity=87 time=30>\n",
      "<message note_on channel=1 note=50 velocity=0 time=2>\n",
      "<message note_on channel=1 note=62 velocity=68 time=28>\n",
      "<message note_on channel=1 note=60 velocity=0 time=4>\n",
      "<message note_on channel=1 note=60 velocity=87 time=26>\n",
      "<message note_on channel=1 note=62 velocity=0 time=5>\n",
      "<message note_on channel=1 note=57 velocity=87 time=25>\n",
      "<message note_on channel=1 note=60 velocity=0 time=4>\n",
      "<message note_on channel=1 note=58 velocity=102 time=28>\n",
      "<message note_on channel=1 note=57 velocity=0 time=5>\n",
      "<message note_on channel=1 note=58 velocity=0 time=31>\n",
      "<message note_on channel=1 note=55 velocity=89 time=25>\n",
      "<message note_on channel=1 note=55 velocity=0 time=40>\n",
      "<message note_on channel=1 note=62 velocity=82 time=15>\n",
      "<message note_on channel=1 note=62 velocity=0 time=47>\n",
      "<message note_on channel=1 note=58 velocity=85 time=9>\n",
      "<message note_on channel=1 note=58 velocity=0 time=56>\n",
      "<meta message end_of_track time=0>\n",
      "=== Track 4\n",
      "<meta message midi_port port=0 time=0>\n",
      "<meta message track_name name='Pedal' time=0>\n",
      "<message program_change channel=3 program=6 time=0>\n",
      "<message control_change channel=3 control=7 value=110 time=0>\n",
      "<message control_change channel=3 control=10 value=70 time=0>\n",
      "<message control_change channel=3 control=91 value=65 time=358>\n",
      "<message note_on channel=3 note=48 velocity=110 time=2>\n",
      "<message note_on channel=3 note=48 velocity=0 time=119>\n",
      "<message note_on channel=3 note=60 velocity=98 time=301>\n",
      "<message note_on channel=3 note=60 velocity=0 time=45>\n",
      "<message note_on channel=3 note=48 velocity=95 time=15>\n",
      "<message note_on channel=3 note=48 velocity=0 time=33>\n",
      "<message note_on channel=3 note=60 velocity=98 time=27>\n",
      "<message note_on channel=3 note=60 velocity=0 time=31>\n",
      "<message note_on channel=3 note=48 velocity=87 time=29>\n",
      "<message note_on channel=3 note=48 velocity=0 time=29>\n",
      "<message note_on channel=3 note=60 velocity=89 time=31>\n",
      "<message note_on channel=3 note=60 velocity=0 time=31>\n",
      "<message note_on channel=3 note=48 velocity=102 time=29>\n",
      "<message note_on channel=3 note=48 velocity=0 time=119>\n",
      "<message note_on channel=3 note=48 velocity=87 time=301>\n",
      "<message note_on channel=3 note=48 velocity=0 time=34>\n",
      "<message note_on channel=3 note=36 velocity=98 time=26>\n",
      "<message note_on channel=3 note=36 velocity=0 time=35>\n",
      "<message note_on channel=3 note=48 velocity=91 time=25>\n",
      "<message note_on channel=3 note=48 velocity=0 time=35>\n",
      "<message note_on channel=3 note=36 velocity=93 time=25>\n",
      "<message note_on channel=3 note=36 velocity=0 time=34>\n",
      "<message note_on channel=3 note=48 velocity=87 time=26>\n",
      "<message note_on channel=3 note=48 velocity=0 time=33>\n",
      "<message note_on channel=3 note=36 velocity=91 time=27>\n",
      "<message note_on channel=3 note=36 velocity=0 time=119>\n",
      "<message note_on channel=3 note=48 velocity=95 time=1>\n",
      "<message note_on channel=3 note=48 velocity=0 time=82>\n",
      "<message note_on channel=3 note=36 velocity=98 time=98>\n",
      "<message note_on channel=3 note=36 velocity=0 time=60>\n",
      "<message note_on channel=3 note=38 velocity=95 time=0>\n",
      "<message note_on channel=3 note=38 velocity=0 time=119>\n",
      "<message note_on channel=3 note=50 velocity=89 time=1>\n",
      "<message note_on channel=3 note=50 velocity=0 time=91>\n",
      "<message note_on channel=3 note=38 velocity=93 time=89>\n",
      "<message note_on channel=3 note=38 velocity=0 time=53>\n",
      "<message note_on channel=3 note=40 velocity=87 time=7>\n",
      "<message note_on channel=3 note=40 velocity=0 time=119>\n",
      "<message note_on channel=3 note=52 velocity=87 time=1>\n",
      "<message note_on channel=3 note=52 velocity=0 time=81>\n",
      "<message note_on channel=3 note=40 velocity=91 time=99>\n",
      "<message note_on channel=3 note=40 velocity=0 time=45>\n",
      "<message note_on channel=3 note=41 velocity=85 time=15>\n",
      "<message note_on channel=3 note=41 velocity=0 time=119>\n",
      "<message note_on channel=3 note=53 velocity=91 time=1>\n",
      "<message note_on channel=3 note=53 velocity=0 time=91>\n",
      "<message note_on channel=3 note=50 velocity=91 time=89>\n",
      "<message note_on channel=3 note=50 velocity=0 time=46>\n",
      "<message note_on channel=3 note=55 velocity=80 time=14>\n",
      "<message note_on channel=3 note=55 velocity=0 time=119>\n",
      "<message note_on channel=3 note=43 velocity=95 time=1>\n",
      "<message note_on channel=3 note=50 velocity=91 time=1020>\n",
      "<message note_on channel=3 note=43 velocity=0 time=4>\n",
      "<message note_on channel=3 note=50 velocity=0 time=56>\n",
      "<message note_on channel=3 note=52 velocity=89 time=0>\n",
      "<message note_on channel=3 note=54 velocity=102 time=60>\n",
      "<message note_on channel=3 note=52 velocity=0 time=4>\n",
      "<message note_on channel=3 note=55 velocity=87 time=56>\n",
      "<message note_on channel=3 note=54 velocity=0 time=3>\n",
      "<message note_on channel=3 note=47 velocity=98 time=57>\n",
      "<message note_on channel=3 note=55 velocity=0 time=2>\n",
      "<message note_on channel=3 note=48 velocity=85 time=58>\n",
      "<message note_on channel=3 note=47 velocity=0 time=2>\n",
      "<message note_on channel=3 note=52 velocity=82 time=58>\n",
      "<message note_on channel=3 note=48 velocity=0 time=2>\n",
      "<message note_on channel=3 note=54 velocity=100 time=58>\n",
      "<message note_on channel=3 note=52 velocity=0 time=5>\n",
      "<message note_on channel=3 note=55 velocity=78 time=55>\n",
      "<message note_on channel=3 note=54 velocity=0 time=9>\n",
      "<message note_on channel=3 note=57 velocity=85 time=51>\n",
      "<message note_on channel=3 note=55 velocity=0 time=2>\n",
      "<message note_on channel=3 note=48 velocity=89 time=58>\n",
      "<message note_on channel=3 note=57 velocity=0 time=2>\n",
      "<message note_on channel=3 note=50 velocity=85 time=58>\n",
      "<message note_on channel=3 note=48 velocity=0 time=2>\n",
      "<message note_on channel=3 note=54 velocity=85 time=58>\n",
      "<message note_on channel=3 note=50 velocity=0 time=2>\n",
      "<message note_on channel=3 note=55 velocity=80 time=58>\n",
      "<message note_on channel=3 note=54 velocity=0 time=3>\n",
      "<message note_on channel=3 note=57 velocity=76 time=57>\n",
      "<message note_on channel=3 note=55 velocity=0 time=4>\n",
      "<message note_on channel=3 note=59 velocity=85 time=56>\n",
      "<message note_on channel=3 note=57 velocity=0 time=8>\n",
      "<message note_on channel=3 note=50 velocity=93 time=52>\n",
      "<message note_on channel=3 note=59 velocity=0 time=8>\n",
      "<message note_on channel=3 note=52 velocity=87 time=52>\n",
      "<message note_on channel=3 note=50 velocity=0 time=10>\n",
      "<message note_on channel=3 note=55 velocity=85 time=50>\n",
      "<message note_on channel=3 note=52 velocity=0 time=4>\n",
      "<message note_on channel=3 note=57 velocity=80 time=56>\n",
      "<message note_on channel=3 note=55 velocity=0 time=5>\n",
      "<message note_on channel=3 note=57 velocity=0 time=53>\n",
      "<message note_on channel=3 note=59 velocity=85 time=2>\n",
      "<message note_on channel=3 note=60 velocity=85 time=60>\n",
      "<message note_on channel=3 note=59 velocity=0 time=8>\n",
      "<message note_on channel=3 note=52 velocity=87 time=52>\n",
      "<message note_on channel=3 note=60 velocity=0 time=6>\n",
      "<message note_on channel=3 note=54 velocity=80 time=54>\n",
      "<message note_on channel=3 note=52 velocity=0 time=3>\n",
      "<message note_on channel=3 note=50 velocity=82 time=57>\n",
      "<message note_on channel=3 note=54 velocity=0 time=5>\n",
      "<message note_on channel=3 note=55 velocity=85 time=55>\n",
      "<message note_on channel=3 note=50 velocity=0 time=3>\n",
      "<message note_on channel=3 note=48 velocity=82 time=57>\n",
      "<message note_on channel=3 note=55 velocity=0 time=3>\n",
      "<message note_on channel=3 note=50 velocity=64 time=57>\n",
      "<message note_on channel=3 note=48 velocity=0 time=1>\n",
      "<message note_on channel=3 note=38 velocity=82 time=59>\n",
      "<message note_on channel=3 note=50 velocity=0 time=2>\n",
      "<message note_on channel=3 note=43 velocity=91 time=59>\n",
      "<message note_on channel=3 note=38 velocity=0 time=6>\n",
      "<message note_on channel=3 note=43 velocity=0 time=113>\n",
      "<message note_on channel=3 note=55 velocity=80 time=300>\n",
      "<message note_on channel=3 note=55 velocity=0 time=32>\n",
      "<message note_on channel=3 note=43 velocity=87 time=28>\n",
      "<message note_on channel=3 note=43 velocity=0 time=33>\n",
      "<message note_on channel=3 note=55 velocity=85 time=28>\n",
      "<message note_on channel=3 note=55 velocity=0 time=33>\n",
      "<message note_on channel=3 note=43 velocity=89 time=26>\n",
      "<message note_on channel=3 note=43 velocity=0 time=30>\n",
      "<message note_on channel=3 note=55 velocity=85 time=27>\n",
      "<message note_on channel=3 note=55 velocity=0 time=36>\n",
      "<message note_on channel=3 note=43 velocity=89 time=28>\n",
      "<message note_on channel=3 note=43 velocity=0 time=112>\n",
      "<message note_on channel=3 note=55 velocity=87 time=307>\n",
      "<message note_on channel=3 note=55 velocity=0 time=40>\n",
      "<message note_on channel=3 note=43 velocity=89 time=20>\n",
      "<message note_on channel=3 note=43 velocity=0 time=30>\n",
      "<message note_on channel=3 note=55 velocity=85 time=30>\n",
      "<message note_on channel=3 note=55 velocity=0 time=37>\n",
      "<message note_on channel=3 note=43 velocity=89 time=23>\n",
      "<message note_on channel=3 note=43 velocity=0 time=33>\n",
      "<message note_on channel=3 note=55 velocity=80 time=27>\n",
      "<message note_on channel=3 note=55 velocity=0 time=34>\n",
      "<message note_on channel=3 note=43 velocity=85 time=26>\n",
      "<message note_on channel=3 note=55 velocity=89 time=120>\n",
      "<message note_on channel=3 note=43 velocity=0 time=3>\n",
      "<message note_on channel=3 note=55 velocity=0 time=90>\n",
      "<message note_on channel=3 note=43 velocity=91 time=87>\n",
      "<message note_on channel=3 note=45 velocity=87 time=60>\n",
      "<message note_on channel=3 note=43 velocity=0 time=1>\n",
      "<message note_on channel=3 note=57 velocity=85 time=119>\n",
      "<message note_on channel=3 note=45 velocity=0 time=1>\n",
      "<message note_on channel=3 note=57 velocity=0 time=96>\n",
      "<message note_on channel=3 note=45 velocity=89 time=83>\n",
      "<message note_on channel=3 note=45 velocity=0 time=60>\n",
      "<message note_on channel=3 note=47 velocity=89 time=0>\n",
      "<message note_on channel=3 note=59 velocity=82 time=120>\n",
      "<message note_on channel=3 note=47 velocity=0 time=10>\n",
      "<message note_on channel=3 note=59 velocity=0 time=78>\n",
      "<message note_on channel=3 note=47 velocity=93 time=92>\n",
      "<message note_on channel=3 note=48 velocity=85 time=60>\n",
      "<message note_on channel=3 note=47 velocity=0 time=3>\n",
      "<message note_on channel=3 note=60 velocity=76 time=117>\n",
      "<message note_on channel=3 note=48 velocity=0 time=2>\n",
      "<message note_on channel=3 note=60 velocity=0 time=70>\n",
      "<message note_on channel=3 note=57 velocity=85 time=108>\n",
      "<message note_on channel=3 note=62 velocity=95 time=60>\n",
      "<message note_on channel=3 note=57 velocity=0 time=1>\n",
      "<message note_on channel=3 note=50 velocity=87 time=119>\n",
      "<message note_on channel=3 note=62 velocity=0 time=4>\n",
      "<message note_on channel=3 note=54 velocity=95 time=1016>\n",
      "<message note_on channel=3 note=50 velocity=0 time=11>\n",
      "<message note_on channel=3 note=55 velocity=85 time=49>\n",
      "<message note_on channel=3 note=54 velocity=0 time=1>\n",
      "<message note_on channel=3 note=55 velocity=0 time=57>\n",
      "<message note_on channel=3 note=57 velocity=68 time=2>\n",
      "<message note_on channel=3 note=59 velocity=87 time=60>\n",
      "<message note_on channel=3 note=57 velocity=0 time=11>\n",
      "<message note_on channel=3 note=50 velocity=100 time=49>\n",
      "<message note_on channel=3 note=59 velocity=0 time=3>\n",
      "<message note_on channel=3 note=52 velocity=91 time=57>\n",
      "<message note_on channel=3 note=50 velocity=0 time=10>\n",
      "<message note_on channel=3 note=55 velocity=91 time=50>\n",
      "<message note_on channel=3 note=52 velocity=0 time=8>\n",
      "<message note_on channel=3 note=57 velocity=80 time=52>\n",
      "<message note_on channel=3 note=55 velocity=0 time=5>\n",
      "<message note_on channel=3 note=57 velocity=0 time=54>\n",
      "<message note_on channel=3 note=59 velocity=74 time=1>\n",
      "<message note_on channel=3 note=60 velocity=82 time=60>\n",
      "<message note_on channel=3 note=59 velocity=0 time=8>\n",
      "<message note_on channel=3 note=54 velocity=85 time=52>\n",
      "<message note_on channel=3 note=60 velocity=0 time=5>\n",
      "<message note_on channel=3 note=54 velocity=0 time=55>\n",
      "<message note_on channel=3 note=55 velocity=66 time=0>\n",
      "<message note_on channel=3 note=47 velocity=91 time=60>\n",
      "<message note_on channel=3 note=55 velocity=0 time=7>\n",
      "<message note_on channel=3 note=48 velocity=93 time=53>\n",
      "<message note_on channel=3 note=47 velocity=0 time=7>\n",
      "<message note_on channel=3 note=50 velocity=87 time=53>\n",
      "<message note_on channel=3 note=48 velocity=0 time=10>\n",
      "<message note_on channel=3 note=50 velocity=0 time=50>\n",
      "<message note_on channel=3 note=52 velocity=82 time=0>\n",
      "<message note_on channel=3 note=43 velocity=93 time=60>\n",
      "<message note_on channel=3 note=52 velocity=0 time=5>\n",
      "<message note_on channel=3 note=45 velocity=85 time=55>\n",
      "<message note_on channel=3 note=43 velocity=0 time=8>\n",
      "<message note_on channel=3 note=48 velocity=87 time=52>\n",
      "<message note_on channel=3 note=45 velocity=0 time=5>\n",
      "<message note_on channel=3 note=48 velocity=0 time=54>\n",
      "<message note_on channel=3 note=50 velocity=74 time=1>\n",
      "<message note_on channel=3 note=52 velocity=85 time=60>\n",
      "<message note_on channel=3 note=50 velocity=0 time=7>\n",
      "<message note_on channel=3 note=52 velocity=0 time=52>\n",
      "<message note_on channel=3 note=53 velocity=72 time=1>\n",
      "<message note_on channel=3 note=47 velocity=76 time=60>\n",
      "<message note_on channel=3 note=53 velocity=0 time=14>\n",
      "<message note_on channel=3 note=48 velocity=91 time=46>\n",
      "<message note_on channel=3 note=47 velocity=0 time=8>\n",
      "<message note_on channel=3 note=48 velocity=0 time=21>\n",
      "<message note_on channel=3 note=48 velocity=93 time=31>\n",
      "<message note_on channel=3 note=48 velocity=0 time=40>\n",
      "<message note_on channel=3 note=36 velocity=95 time=20>\n",
      "<message note_on channel=3 note=36 velocity=0 time=43>\n",
      "<message note_on channel=3 note=48 velocity=85 time=17>\n",
      "<message note_on channel=3 note=48 velocity=0 time=42>\n",
      "<message note_on channel=3 note=36 velocity=82 time=18>\n",
      "<message note_on channel=3 note=36 velocity=0 time=46>\n",
      "<message note_on channel=3 note=48 velocity=85 time=14>\n",
      "<message note_on channel=3 note=48 velocity=0 time=39>\n",
      "<message note_on channel=3 note=38 velocity=91 time=21>\n",
      "<message note_on channel=3 note=38 velocity=0 time=39>\n",
      "<message note_on channel=3 note=50 velocity=82 time=21>\n",
      "<message note_on channel=3 note=50 velocity=0 time=46>\n",
      "<message note_on channel=3 note=38 velocity=89 time=14>\n",
      "<message note_on channel=3 note=38 velocity=0 time=31>\n",
      "<message note_on channel=3 note=50 velocity=85 time=29>\n",
      "<message note_on channel=3 note=50 velocity=0 time=38>\n",
      "<message note_on channel=3 note=38 velocity=89 time=22>\n",
      "<message note_on channel=3 note=38 velocity=0 time=39>\n",
      "<message note_on channel=3 note=50 velocity=85 time=21>\n",
      "<message note_on channel=3 note=50 velocity=0 time=47>\n",
      "<message note_on channel=3 note=40 velocity=89 time=13>\n",
      "<message note_on channel=3 note=40 velocity=0 time=38>\n",
      "<message note_on channel=3 note=52 velocity=82 time=22>\n",
      "<message note_on channel=3 note=52 velocity=0 time=41>\n",
      "<message note_on channel=3 note=40 velocity=87 time=19>\n",
      "<message note_on channel=3 note=40 velocity=0 time=40>\n",
      "<message note_on channel=3 note=52 velocity=78 time=20>\n",
      "<message note_on channel=3 note=52 velocity=0 time=39>\n",
      "<message note_on channel=3 note=40 velocity=85 time=21>\n",
      "<message note_on channel=3 note=40 velocity=0 time=44>\n",
      "<message note_on channel=3 note=52 velocity=85 time=16>\n",
      "<message note_on channel=3 note=52 velocity=0 time=38>\n",
      "<message note_on channel=3 note=41 velocity=85 time=22>\n",
      "<message note_on channel=3 note=41 velocity=0 time=1459>\n",
      "<message note_on channel=3 note=53 velocity=95 time=41>\n",
      "<message note_on channel=3 note=53 velocity=0 time=47>\n",
      "<message note_on channel=3 note=50 velocity=98 time=13>\n",
      "<message note_on channel=3 note=50 velocity=0 time=38>\n",
      "<message note_on channel=3 note=53 velocity=89 time=22>\n",
      "<message note_on channel=3 note=53 velocity=0 time=49>\n",
      "<message note_on channel=3 note=47 velocity=87 time=11>\n",
      "<message note_on channel=3 note=47 velocity=0 time=49>\n",
      "<message note_on channel=3 note=50 velocity=85 time=11>\n",
      "<message note_on channel=3 note=50 velocity=0 time=58>\n",
      "<message note_on channel=3 note=40 velocity=89 time=2>\n",
      "<message note_on channel=3 note=40 velocity=0 time=45>\n",
      "<message note_on channel=3 note=52 velocity=91 time=15>\n",
      "<message note_on channel=3 note=52 velocity=0 time=55>\n",
      "<message note_on channel=3 note=48 velocity=95 time=5>\n",
      "<message note_on channel=3 note=48 velocity=0 time=50>\n",
      "<message note_on channel=3 note=52 velocity=89 time=10>\n",
      "<message note_on channel=3 note=52 velocity=0 time=53>\n",
      "<message note_on channel=3 note=45 velocity=85 time=7>\n",
      "<message note_on channel=3 note=45 velocity=0 time=48>\n",
      "<message note_on channel=3 note=48 velocity=89 time=12>\n",
      "<message note_on channel=3 note=48 velocity=0 time=34>\n",
      "<message note_on channel=3 note=38 velocity=100 time=26>\n",
      "<message note_on channel=3 note=38 velocity=0 time=47>\n",
      "<message note_on channel=3 note=50 velocity=98 time=13>\n",
      "<message note_on channel=3 note=50 velocity=0 time=54>\n",
      "<message note_on channel=3 note=47 velocity=91 time=6>\n",
      "<message note_on channel=3 note=47 velocity=0 time=50>\n",
      "<message note_on channel=3 note=50 velocity=98 time=10>\n",
      "<message note_on channel=3 note=50 velocity=0 time=50>\n",
      "<message note_on channel=3 note=43 velocity=89 time=10>\n",
      "<message note_on channel=3 note=43 velocity=0 time=54>\n",
      "<message note_on channel=3 note=47 velocity=87 time=6>\n",
      "<message note_on channel=3 note=47 velocity=0 time=42>\n",
      "<message note_on channel=3 note=36 velocity=100 time=18>\n",
      "<message note_on channel=3 note=36 velocity=0 time=1458>\n",
      "<message note_on channel=3 note=43 velocity=100 time=42>\n",
      "<message note_on channel=3 note=45 velocity=82 time=60>\n",
      "<message note_on channel=3 note=43 velocity=0 time=1>\n",
      "<message note_on channel=3 note=47 velocity=102 time=59>\n",
      "<message note_on channel=3 note=45 velocity=0 time=7>\n",
      "<message note_on channel=3 note=48 velocity=82 time=53>\n",
      "<message note_on channel=3 note=47 velocity=0 time=2>\n",
      "<message note_on channel=3 note=40 velocity=91 time=58>\n",
      "<message note_on channel=3 note=48 velocity=0 time=3>\n",
      "<message note_on channel=3 note=41 velocity=95 time=57>\n",
      "<message note_on channel=3 note=40 velocity=0 time=11>\n",
      "<message note_on channel=3 note=45 velocity=91 time=49>\n",
      "<message note_on channel=3 note=41 velocity=0 time=6>\n",
      "<message note_on channel=3 note=45 velocity=0 time=54>\n",
      "<message note_on channel=3 note=47 velocity=82 time=0>\n",
      "<message note_on channel=3 note=48 velocity=98 time=60>\n",
      "<message note_on channel=3 note=47 velocity=0 time=9>\n",
      "<message note_on channel=3 note=50 velocity=89 time=51>\n",
      "<message note_on channel=3 note=48 velocity=0 time=3>\n",
      "<message note_on channel=3 note=41 velocity=100 time=57>\n",
      "<message note_on channel=3 note=50 velocity=0 time=2>\n",
      "<message note_on channel=3 note=43 velocity=95 time=58>\n",
      "<message note_on channel=3 note=41 velocity=0 time=8>\n",
      "<message note_on channel=3 note=47 velocity=93 time=52>\n",
      "<message note_on channel=3 note=43 velocity=0 time=5>\n",
      "<message note_on channel=3 note=48 velocity=82 time=55>\n",
      "<message note_on channel=3 note=47 velocity=0 time=3>\n",
      "<message note_on channel=3 note=50 velocity=98 time=57>\n",
      "<message note_on channel=3 note=48 velocity=0 time=9>\n",
      "<message note_on channel=3 note=52 velocity=80 time=51>\n",
      "<message note_on channel=3 note=50 velocity=0 time=4>\n",
      "<message note_on channel=3 note=43 velocity=89 time=56>\n",
      "<message note_on channel=3 note=52 velocity=0 time=7>\n",
      "<message note_on channel=3 note=45 velocity=87 time=53>\n",
      "<message note_on channel=3 note=43 velocity=0 time=5>\n",
      "<message note_on channel=3 note=48 velocity=95 time=55>\n",
      "<message note_on channel=3 note=45 velocity=0 time=9>\n",
      "<message note_on channel=3 note=50 velocity=85 time=51>\n",
      "<message note_on channel=3 note=48 velocity=0 time=3>\n",
      "<message note_on channel=3 note=50 velocity=0 time=56>\n",
      "<message note_on channel=3 note=52 velocity=80 time=1>\n",
      "<message note_on channel=3 note=53 velocity=89 time=60>\n",
      "<message note_on channel=3 note=52 velocity=0 time=9>\n",
      "<message note_on channel=3 note=45 velocity=93 time=51>\n",
      "<message note_on channel=3 note=53 velocity=0 time=4>\n",
      "<message note_on channel=3 note=47 velocity=91 time=56>\n",
      "<message note_on channel=3 note=45 velocity=0 time=8>\n",
      "<message note_on channel=3 note=43 velocity=85 time=52>\n",
      "<message note_on channel=3 note=47 velocity=0 time=5>\n",
      "<message note_on channel=3 note=48 velocity=93 time=55>\n",
      "<message note_on channel=3 note=43 velocity=0 time=5>\n",
      "<message note_on channel=3 note=53 velocity=82 time=55>\n",
      "<message note_on channel=3 note=48 velocity=0 time=2>\n",
      "<message note_on channel=3 note=55 velocity=78 time=58>\n",
      "<message note_on channel=3 note=53 velocity=0 time=2>\n",
      "<message note_on channel=3 note=43 velocity=89 time=58>\n",
      "<message note_on channel=3 note=55 velocity=0 time=5>\n",
      "<message note_on channel=3 note=48 velocity=98 time=55>\n",
      "<message note_on channel=3 note=43 velocity=0 time=1>\n",
      "<message note_on channel=3 note=48 velocity=0 time=58>\n",
      "<message note_on channel=3 note=52 velocity=85 time=61>\n",
      "<message note_on channel=3 note=52 velocity=0 time=66>\n",
      "<message note_on channel=3 note=53 velocity=93 time=54>\n",
      "<message note_on channel=3 note=53 velocity=0 time=69>\n",
      "<message note_on channel=3 note=47 velocity=87 time=51>\n",
      "<message note_on channel=3 note=47 velocity=0 time=62>\n",
      "<message note_on channel=3 note=43 velocity=85 time=58>\n",
      "<message note_on channel=3 note=43 velocity=0 time=54>\n",
      "<message note_on channel=3 note=47 velocity=87 time=66>\n",
      "<message note_on channel=3 note=47 velocity=0 time=65>\n",
      "<message note_on channel=3 note=48 velocity=87 time=55>\n",
      "<message note_on channel=3 note=48 velocity=0 time=58>\n",
      "<message note_on channel=3 note=47 velocity=89 time=62>\n",
      "<message note_on channel=3 note=47 velocity=0 time=63>\n",
      "<message note_on channel=3 note=48 velocity=89 time=57>\n",
      "<message note_on channel=3 note=48 velocity=0 time=71>\n",
      "<message note_on channel=3 note=42 velocity=85 time=49>\n",
      "<message note_on channel=3 note=42 velocity=0 time=69>\n",
      "<message note_on channel=3 note=38 velocity=87 time=51>\n",
      "<message note_on channel=3 note=38 velocity=0 time=67>\n",
      "<message note_on channel=3 note=50 velocity=85 time=53>\n",
      "<message note_on channel=3 note=50 velocity=0 time=68>\n",
      "<message note_on channel=3 note=43 velocity=98 time=52>\n",
      "<message note_on channel=3 note=43 velocity=0 time=35>\n",
      "<message note_on channel=3 note=55 velocity=100 time=25>\n",
      "<message note_on channel=3 note=55 velocity=0 time=119>\n",
      "<message note_on channel=3 note=53 velocity=98 time=1>\n",
      "<message note_on channel=3 note=52 velocity=85 time=60>\n",
      "<message note_on channel=3 note=53 velocity=0 time=9>\n",
      "<message note_on channel=3 note=50 velocity=89 time=51>\n",
      "<message note_on channel=3 note=52 velocity=0 time=10>\n",
      "<message note_on channel=3 note=48 velocity=95 time=50>\n",
      "<message note_on channel=3 note=50 velocity=0 time=5>\n",
      "<message note_on channel=3 note=48 velocity=0 time=25>\n",
      "<message note_on channel=3 note=60 velocity=102 time=30>\n",
      "<message note_on channel=3 note=58 velocity=87 time=120>\n",
      "<message note_on channel=3 note=60 velocity=0 time=4>\n",
      "<message note_on channel=3 note=57 velocity=76 time=56>\n",
      "<message note_on channel=3 note=58 velocity=0 time=7>\n",
      "<message note_on channel=3 note=55 velocity=78 time=53>\n",
      "<message note_on channel=3 note=57 velocity=0 time=3>\n",
      "<message note_on channel=3 note=55 velocity=0 time=54>\n",
      "<message note_on channel=3 note=53 velocity=87 time=3>\n",
      "<message note_on channel=3 note=53 velocity=0 time=29>\n",
      "<message note_on channel=3 note=57 velocity=91 time=31>\n",
      "<message note_on channel=3 note=55 velocity=89 time=120>\n",
      "<message note_on channel=3 note=57 velocity=0 time=1>\n",
      "<message note_on channel=3 note=53 velocity=87 time=59>\n",
      "<message note_on channel=3 note=55 velocity=0 time=8>\n",
      "<message note_on channel=3 note=52 velocity=82 time=52>\n",
      "<message note_on channel=3 note=53 velocity=0 time=1>\n",
      "<message note_on channel=3 note=50 velocity=93 time=59>\n",
      "<message note_on channel=3 note=52 velocity=0 time=2>\n",
      "<message note_on channel=3 note=50 velocity=0 time=22>\n",
      "<message note_on channel=3 note=62 velocity=105 time=36>\n",
      "<message note_on channel=3 note=60 velocity=91 time=120>\n",
      "<message note_on channel=3 note=62 velocity=0 time=1>\n",
      "<message note_on channel=3 note=59 velocity=93 time=59>\n",
      "<message note_on channel=3 note=60 velocity=0 time=4>\n",
      "<message note_on channel=3 note=57 velocity=68 time=56>\n",
      "<message note_on channel=3 note=59 velocity=0 time=3>\n",
      "<message note_on channel=3 note=56 velocity=91 time=57>\n",
      "<message note_on channel=3 note=57 velocity=0 time=5>\n",
      "<message note_on channel=3 note=56 velocity=0 time=59>\n",
      "<message note_on channel=3 note=57 velocity=89 time=56>\n",
      "<message note_on channel=3 note=57 velocity=0 time=59>\n",
      "<message note_on channel=3 note=53 velocity=91 time=61>\n",
      "<message note_on channel=3 note=53 velocity=0 time=55>\n",
      "<message note_on channel=3 note=52 velocity=85 time=65>\n",
      "<message note_on channel=3 note=52 velocity=0 time=44>\n",
      "<message note_on channel=3 note=53 velocity=91 time=76>\n",
      "<message note_on channel=3 note=53 velocity=0 time=63>\n",
      "<message note_on channel=3 note=54 velocity=89 time=57>\n",
      "<message note_on channel=3 note=54 velocity=0 time=64>\n",
      "<message note_on channel=3 note=55 velocity=89 time=56>\n",
      "<message note_on channel=3 note=55 velocity=0 time=63>\n",
      "<message note_on channel=3 note=56 velocity=87 time=57>\n",
      "<message note_on channel=3 note=56 velocity=0 time=61>\n",
      "<message note_on channel=3 note=52 velocity=91 time=59>\n",
      "<message note_on channel=3 note=52 velocity=0 time=61>\n",
      "<message note_on channel=3 note=57 velocity=85 time=59>\n",
      "<message note_on channel=3 note=57 velocity=0 time=61>\n",
      "<message note_on channel=3 note=45 velocity=89 time=59>\n",
      "<message note_on channel=3 note=45 velocity=0 time=58>\n",
      "<message note_on channel=3 note=48 velocity=89 time=62>\n",
      "<message note_on channel=3 note=48 velocity=0 time=71>\n",
      "<message note_on channel=3 note=52 velocity=85 time=49>\n",
      "<message note_on channel=3 note=52 velocity=0 time=61>\n",
      "<message note_on channel=3 note=48 velocity=85 time=59>\n",
      "<message note_on channel=3 note=48 velocity=0 time=59>\n",
      "<message note_on channel=3 note=52 velocity=82 time=61>\n",
      "<message note_on channel=3 note=52 velocity=0 time=62>\n",
      "<message note_on channel=3 note=53 velocity=98 time=58>\n",
      "<message note_on channel=3 note=53 velocity=0 time=60>\n",
      "<message note_on channel=3 note=46 velocity=100 time=60>\n",
      "<message note_on channel=3 note=46 velocity=0 time=69>\n",
      "<message note_on channel=3 note=47 velocity=89 time=51>\n",
      "<message note_on channel=3 note=47 velocity=0 time=67>\n",
      "<message note_on channel=3 note=48 velocity=95 time=53>\n",
      "<message note_on channel=3 note=48 velocity=0 time=66>\n",
      "<message note_on channel=3 note=49 velocity=95 time=54>\n",
      "<message note_on channel=3 note=49 velocity=0 time=69>\n",
      "<message note_on channel=3 note=45 velocity=93 time=51>\n",
      "<message note_on channel=3 note=45 velocity=0 time=76>\n",
      "<message note_on channel=3 note=50 velocity=87 time=44>\n",
      "<message note_on channel=3 note=50 velocity=0 time=58>\n",
      "<message note_on channel=3 note=38 velocity=98 time=62>\n",
      "<message note_on channel=3 note=38 velocity=0 time=65>\n",
      "<message note_on channel=3 note=50 velocity=82 time=55>\n",
      "<message note_on channel=3 note=50 velocity=0 time=229>\n",
      "<message note_on channel=3 note=49 velocity=105 time=11>\n",
      "<message note_on channel=3 note=45 velocity=95 time=60>\n",
      "<message note_on channel=3 note=49 velocity=0 time=2>\n",
      "<message note_on channel=3 note=47 velocity=98 time=58>\n",
      "<message note_on channel=3 note=45 velocity=0 time=9>\n",
      "<message note_on channel=3 note=49 velocity=85 time=51>\n",
      "<message note_on channel=3 note=47 velocity=0 time=6>\n",
      "<message note_on channel=3 note=50 velocity=89 time=54>\n",
      "<message note_on channel=3 note=49 velocity=0 time=7>\n",
      "<message note_on channel=3 note=50 velocity=0 time=119>\n",
      "<message note_on channel=3 note=52 velocity=89 time=54>\n",
      "<message note_on channel=3 note=53 velocity=78 time=60>\n",
      "<message note_on channel=3 note=52 velocity=0 time=2>\n",
      "<message note_on channel=3 note=50 velocity=87 time=58>\n",
      "<message note_on channel=3 note=53 velocity=0 time=1>\n",
      "<message note_on channel=3 note=50 velocity=0 time=59>\n",
      "<message note_on channel=3 note=58 velocity=93 time=0>\n",
      "<message note_on channel=3 note=58 velocity=0 time=50>\n",
      "<message note_on channel=3 note=46 velocity=82 time=70>\n",
      "<message note_on channel=3 note=46 velocity=0 time=63>\n",
      "<message note_on channel=3 note=50 velocity=95 time=57>\n",
      "<message note_on channel=3 note=50 velocity=0 time=56>\n",
      "<message note_on channel=3 note=52 velocity=95 time=64>\n",
      "<message note_on channel=3 note=52 velocity=0 time=116>\n",
      "<message note_on channel=3 note=50 velocity=93 time=64>\n",
      "<message note_on channel=3 note=52 velocity=80 time=60>\n",
      "<message note_on channel=3 note=50 velocity=0 time=6>\n",
      "<message note_on channel=3 note=52 velocity=0 time=52>\n",
      "<message note_on channel=3 note=48 velocity=85 time=2>\n",
      "<message note_on channel=3 note=48 velocity=0 time=58>\n",
      "<message note_on channel=3 note=57 velocity=78 time=2>\n",
      "<message note_on channel=3 note=57 velocity=0 time=48>\n",
      "<message note_on channel=3 note=58 velocity=85 time=72>\n",
      "<message note_on channel=3 note=58 velocity=0 time=58>\n",
      "<message note_on channel=3 note=52 velocity=89 time=62>\n",
      "<message note_on channel=3 note=52 velocity=0 time=59>\n",
      "<message note_on channel=3 note=53 velocity=87 time=61>\n",
      "<message note_on channel=3 note=53 velocity=0 time=83>\n",
      "<message note_on channel=3 note=41 velocity=89 time=37>\n",
      "<message note_on channel=3 note=41 velocity=0 time=113>\n",
      "<message note_on channel=3 note=53 velocity=89 time=187>\n",
      "<message note_on channel=3 note=53 velocity=0 time=28>\n",
      "<message note_on channel=3 note=41 velocity=95 time=32>\n",
      "<message note_on channel=3 note=41 velocity=0 time=30>\n",
      "<message note_on channel=3 note=53 velocity=87 time=30>\n",
      "<message note_on channel=3 note=53 velocity=0 time=30>\n",
      "<message note_on channel=3 note=41 velocity=91 time=30>\n",
      "<message note_on channel=3 note=41 velocity=0 time=33>\n",
      "<message note_on channel=3 note=53 velocity=82 time=27>\n",
      "<message note_on channel=3 note=53 velocity=0 time=31>\n",
      "<message note_on channel=3 note=41 velocity=100 time=29>\n",
      "<message note_on channel=3 note=41 velocity=0 time=126>\n",
      "<message note_on channel=3 note=53 velocity=89 time=294>\n",
      "<message note_on channel=3 note=53 velocity=0 time=31>\n",
      "<message note_on channel=3 note=41 velocity=93 time=29>\n",
      "<message note_on channel=3 note=41 velocity=0 time=31>\n",
      "<message note_on channel=3 note=53 velocity=93 time=29>\n",
      "<message note_on channel=3 note=53 velocity=0 time=31>\n",
      "<message note_on channel=3 note=41 velocity=89 time=29>\n",
      "<message note_on channel=3 note=41 velocity=0 time=33>\n",
      "<message note_on channel=3 note=53 velocity=82 time=27>\n",
      "<message note_on channel=3 note=53 velocity=0 time=30>\n",
      "<message note_on channel=3 note=41 velocity=91 time=30>\n",
      "<message note_on channel=3 note=41 velocity=0 time=60>\n",
      "<message note_on channel=3 note=40 velocity=85 time=60>\n",
      "<message note_on channel=3 note=40 velocity=0 time=57>\n",
      "<message note_on channel=3 note=38 velocity=93 time=63>\n",
      "<message note_on channel=3 note=38 velocity=0 time=65>\n",
      "<message note_on channel=3 note=36 velocity=98 time=55>\n",
      "<message note_on channel=3 note=36 velocity=0 time=67>\n",
      "<message note_on channel=3 note=47 velocity=72 time=53>\n",
      "<message note_on channel=3 note=47 velocity=0 time=54>\n",
      "<message note_on channel=3 note=45 velocity=91 time=66>\n",
      "<message note_on channel=3 note=45 velocity=0 time=56>\n",
      "<message note_on channel=3 note=43 velocity=95 time=64>\n",
      "<message note_on channel=3 note=43 velocity=0 time=56>\n",
      "<message note_on channel=3 note=41 velocity=89 time=64>\n",
      "<message note_on channel=3 note=41 velocity=0 time=57>\n",
      "<message note_on channel=3 note=40 velocity=87 time=63>\n",
      "<message note_on channel=3 note=40 velocity=0 time=60>\n",
      "<message note_on channel=3 note=38 velocity=100 time=60>\n",
      "<message note_on channel=3 note=38 velocity=0 time=56>\n",
      "<message note_on channel=3 note=48 velocity=87 time=64>\n",
      "<message note_on channel=3 note=48 velocity=0 time=62>\n",
      "<message note_on channel=3 note=47 velocity=100 time=58>\n",
      "<message note_on channel=3 note=47 velocity=0 time=61>\n",
      "<message note_on channel=3 note=45 velocity=85 time=59>\n",
      "<message note_on channel=3 note=45 velocity=0 time=140>\n",
      "<message note_on channel=3 note=57 velocity=87 time=280>\n",
      "<message note_on channel=3 note=57 velocity=0 time=29>\n",
      "<message note_on channel=3 note=45 velocity=98 time=31>\n",
      "<message note_on channel=3 note=45 velocity=0 time=24>\n",
      "<message note_on channel=3 note=57 velocity=82 time=36>\n",
      "<message note_on channel=3 note=57 velocity=0 time=28>\n",
      "<message note_on channel=3 note=45 velocity=98 time=32>\n",
      "<message note_on channel=3 note=45 velocity=0 time=29>\n",
      "<message note_on channel=3 note=57 velocity=89 time=31>\n",
      "<message note_on channel=3 note=57 velocity=0 time=32>\n",
      "<message note_on channel=3 note=45 velocity=93 time=28>\n",
      "<message note_on channel=3 note=45 velocity=0 time=126>\n",
      "<message note_on channel=3 note=57 velocity=85 time=294>\n",
      "<message note_on channel=3 note=57 velocity=0 time=37>\n",
      "<message note_on channel=3 note=45 velocity=95 time=23>\n",
      "<message note_on channel=3 note=45 velocity=0 time=35>\n",
      "<message note_on channel=3 note=57 velocity=87 time=25>\n",
      "<message note_on channel=3 note=57 velocity=0 time=34>\n",
      "<message note_on channel=3 note=45 velocity=98 time=26>\n",
      "<message note_on channel=3 note=45 velocity=0 time=36>\n",
      "<message note_on channel=3 note=57 velocity=82 time=24>\n",
      "<message note_on channel=3 note=57 velocity=0 time=33>\n",
      "<message note_on channel=3 note=45 velocity=93 time=27>\n",
      "<message note_on channel=3 note=45 velocity=0 time=56>\n",
      "<message note_on channel=3 note=48 velocity=98 time=64>\n",
      "<message note_on channel=3 note=48 velocity=0 time=51>\n",
      "<message note_on channel=3 note=50 velocity=95 time=69>\n",
      "<message note_on channel=3 note=50 velocity=0 time=46>\n",
      "<message note_on channel=3 note=44 velocity=91 time=74>\n",
      "<message note_on channel=3 note=44 velocity=0 time=51>\n",
      "<message note_on channel=3 note=40 velocity=91 time=69>\n",
      "<message note_on channel=3 note=40 velocity=0 time=45>\n",
      "<message note_on channel=3 note=43 velocity=102 time=75>\n",
      "<message note_on channel=3 note=41 velocity=91 time=240>\n",
      "<message note_on channel=3 note=43 velocity=0 time=2>\n",
      "<message note_on channel=3 note=41 velocity=0 time=40>\n",
      "<message note_on channel=3 note=43 velocity=95 time=78>\n",
      "<message note_on channel=3 note=43 velocity=0 time=53>\n",
      "<message note_on channel=3 note=45 velocity=95 time=67>\n",
      "<message note_on channel=3 note=45 velocity=0 time=31>\n",
      "<message note_on channel=3 note=57 velocity=91 time=29>\n",
      "<message note_on channel=3 note=57 velocity=0 time=26>\n",
      "<message note_on channel=3 note=45 velocity=89 time=34>\n",
      "<message note_on channel=3 note=45 velocity=0 time=30>\n",
      "<message note_on channel=3 note=57 velocity=82 time=30>\n",
      "<message note_on channel=3 note=57 velocity=0 time=29>\n",
      "<message note_on channel=3 note=45 velocity=93 time=31>\n",
      "<message note_on channel=3 note=45 velocity=0 time=30>\n",
      "<message note_on channel=3 note=57 velocity=82 time=30>\n",
      "<message note_on channel=3 note=57 velocity=0 time=22>\n",
      "<message note_on channel=3 note=38 velocity=98 time=38>\n",
      "<message note_on channel=3 note=38 velocity=0 time=27>\n",
      "<message note_on channel=3 note=50 velocity=91 time=33>\n",
      "<message note_on channel=3 note=50 velocity=0 time=96>\n",
      "<message note_on channel=3 note=48 velocity=95 time=24>\n",
      "<message note_on channel=3 note=48 velocity=0 time=60>\n",
      "<message note_on channel=3 note=47 velocity=89 time=0>\n",
      "<message note_on channel=3 note=45 velocity=87 time=60>\n",
      "<message note_on channel=3 note=47 velocity=0 time=4>\n",
      "<message note_on channel=3 note=43 velocity=95 time=56>\n",
      "<message note_on channel=3 note=45 velocity=0 time=6>\n",
      "<message note_on channel=3 note=43 velocity=0 time=21>\n",
      "<message note_on channel=3 note=55 velocity=89 time=33>\n",
      "<message note_on channel=3 note=55 velocity=0 time=102>\n",
      "<message note_on channel=3 note=53 velocity=89 time=18>\n",
      "<message note_on channel=3 note=52 velocity=85 time=60>\n",
      "<message note_on channel=3 note=53 velocity=0 time=7>\n",
      "<message note_on channel=3 note=52 velocity=0 time=53>\n",
      "<message note_on channel=3 note=50 velocity=87 time=0>\n",
      "<message note_on channel=3 note=48 velocity=98 time=60>\n",
      "<message note_on channel=3 note=50 velocity=0 time=4>\n",
      "<message note_on channel=3 note=48 velocity=0 time=30>\n",
      "<message note_on channel=3 note=52 velocity=82 time=26>\n",
      "<message note_on channel=3 note=50 velocity=91 time=120>\n",
      "<message note_on channel=3 note=52 velocity=0 time=3>\n",
      "<message note_on channel=3 note=48 velocity=95 time=57>\n",
      "<message note_on channel=3 note=50 velocity=0 time=5>\n",
      "<message note_on channel=3 note=47 velocity=85 time=55>\n",
      "<message note_on channel=3 note=48 velocity=0 time=6>\n",
      "<message note_on channel=3 note=47 velocity=0 time=52>\n",
      "<message note_on channel=3 note=45 velocity=91 time=2>\n",
      "<message note_on channel=3 note=45 velocity=0 time=34>\n",
      "<message note_on channel=3 note=57 velocity=98 time=26>\n",
      "<message note_on channel=3 note=55 velocity=93 time=120>\n",
      "<message note_on channel=3 note=57 velocity=0 time=1>\n",
      "<message note_on channel=3 note=54 velocity=82 time=59>\n",
      "<message note_on channel=3 note=55 velocity=0 time=1>\n",
      "<message note_on channel=3 note=52 velocity=85 time=59>\n",
      "<message note_on channel=3 note=54 velocity=0 time=4>\n",
      "<message note_on channel=3 note=52 velocity=0 time=54>\n",
      "<message note_on channel=3 note=51 velocity=82 time=2>\n",
      "<message note_on channel=3 note=51 velocity=0 time=62>\n",
      "<message note_on channel=3 note=52 velocity=95 time=58>\n",
      "<message note_on channel=3 note=52 velocity=0 time=59>\n",
      "<message note_on channel=3 note=48 velocity=89 time=61>\n",
      "<message note_on channel=3 note=48 velocity=0 time=58>\n",
      "<message note_on channel=3 note=47 velocity=87 time=62>\n",
      "<message note_on channel=3 note=47 velocity=0 time=55>\n",
      "<message note_on channel=3 note=48 velocity=95 time=65>\n",
      "<message note_on channel=3 note=48 velocity=0 time=62>\n",
      "<message note_on channel=3 note=49 velocity=100 time=58>\n",
      "<message note_on channel=3 note=49 velocity=0 time=54>\n",
      "<message note_on channel=3 note=50 velocity=102 time=66>\n",
      "<message note_on channel=3 note=50 velocity=0 time=51>\n",
      "<message note_on channel=3 note=51 velocity=93 time=69>\n",
      "<message note_on channel=3 note=51 velocity=0 time=48>\n",
      "<message note_on channel=3 note=47 velocity=95 time=72>\n",
      "<message note_on channel=3 note=47 velocity=0 time=59>\n",
      "<message note_on channel=3 note=52 velocity=85 time=61>\n",
      "<message note_on channel=3 note=52 velocity=0 time=55>\n",
      "<message note_on channel=3 note=40 velocity=85 time=65>\n",
      "<message note_on channel=3 note=40 velocity=0 time=52>\n",
      "<message note_on channel=3 note=43 velocity=89 time=68>\n",
      "<message note_on channel=3 note=43 velocity=0 time=51>\n",
      "<message note_on channel=3 note=47 velocity=95 time=69>\n",
      "<message note_on channel=3 note=47 velocity=0 time=57>\n",
      "<message note_on channel=3 note=43 velocity=89 time=63>\n",
      "<message note_on channel=3 note=43 velocity=0 time=56>\n",
      "<message note_on channel=3 note=47 velocity=89 time=64>\n",
      "<message note_on channel=3 note=47 velocity=0 time=62>\n",
      "<message note_on channel=3 note=48 velocity=89 time=58>\n",
      "<message note_on channel=3 note=48 velocity=0 time=53>\n",
      "<message note_on channel=3 note=53 velocity=95 time=67>\n",
      "<message note_on channel=3 note=53 velocity=0 time=58>\n",
      "<message note_on channel=3 note=54 velocity=89 time=62>\n",
      "<message note_on channel=3 note=54 velocity=0 time=61>\n",
      "<message note_on channel=3 note=55 velocity=91 time=59>\n",
      "<message note_on channel=3 note=55 velocity=0 time=61>\n",
      "<message note_on channel=3 note=56 velocity=89 time=59>\n",
      "<message note_on channel=3 note=56 velocity=0 time=53>\n",
      "<message note_on channel=3 note=52 velocity=98 time=67>\n",
      "<message note_on channel=3 note=52 velocity=0 time=50>\n",
      "<message note_on channel=3 note=57 velocity=85 time=70>\n",
      "<message note_on channel=3 note=57 velocity=0 time=68>\n",
      "<message note_on channel=3 note=45 velocity=95 time=52>\n",
      "<message note_on channel=3 note=45 velocity=0 time=54>\n",
      "<message note_on channel=3 note=57 velocity=93 time=66>\n",
      "<message note_on channel=3 note=57 velocity=0 time=187>\n",
      "<message note_on channel=3 note=56 velocity=89 time=53>\n",
      "<message note_on channel=3 note=52 velocity=98 time=60>\n",
      "<message note_on channel=3 note=56 velocity=0 time=3>\n",
      "<message note_on channel=3 note=54 velocity=85 time=57>\n",
      "<message note_on channel=3 note=52 velocity=0 time=2>\n",
      "<message note_on channel=3 note=56 velocity=89 time=58>\n",
      "<message note_on channel=3 note=54 velocity=0 time=6>\n",
      "<message note_on channel=3 note=57 velocity=87 time=54>\n",
      "<message note_on channel=3 note=56 velocity=0 time=6>\n",
      "<message note_on channel=3 note=57 velocity=0 time=114>\n",
      "<message note_on channel=3 note=47 velocity=91 time=60>\n",
      "<message note_on channel=3 note=48 velocity=100 time=60>\n",
      "<message note_on channel=3 note=47 velocity=0 time=4>\n",
      "<message note_on channel=3 note=45 velocity=87 time=56>\n",
      "<message note_on channel=3 note=48 velocity=0 time=2>\n",
      "<message note_on channel=3 note=53 velocity=89 time=58>\n",
      "<message note_on channel=3 note=45 velocity=0 time=1>\n",
      "<message note_on channel=3 note=53 velocity=0 time=53>\n",
      "<message note_on channel=3 note=41 velocity=91 time=66>\n",
      "<message note_on channel=3 note=41 velocity=0 time=59>\n",
      "<message note_on channel=3 note=45 velocity=93 time=61>\n",
      "<message note_on channel=3 note=45 velocity=0 time=59>\n",
      "<message note_on channel=3 note=47 velocity=93 time=61>\n",
      "<message note_on channel=3 note=47 velocity=0 time=125>\n",
      "<message note_on channel=3 note=45 velocity=98 time=55>\n",
      "<message note_on channel=3 note=47 velocity=87 time=60>\n",
      "<message note_on channel=3 note=45 velocity=0 time=2>\n",
      "<message note_on channel=3 note=43 velocity=82 time=58>\n",
      "<message note_on channel=3 note=47 velocity=0 time=1>\n",
      "<message note_on channel=3 note=52 velocity=87 time=59>\n",
      "<message note_on channel=3 note=43 velocity=0 time=1>\n",
      "<message note_on channel=3 note=52 velocity=0 time=70>\n",
      "<message note_on channel=3 note=53 velocity=95 time=49>\n",
      "<message note_on channel=3 note=53 velocity=0 time=64>\n",
      "<message note_on channel=3 note=47 velocity=85 time=56>\n",
      "<message note_on channel=3 note=47 velocity=0 time=61>\n",
      "<message note_on channel=3 note=48 velocity=95 time=59>\n",
      "<message note_on channel=3 note=48 velocity=0 time=127>\n",
      "<message note_on channel=3 note=60 velocity=85 time=293>\n",
      "<message note_on channel=3 note=60 velocity=0 time=25>\n",
      "<message note_on channel=3 note=48 velocity=100 time=35>\n",
      "<message note_on channel=3 note=48 velocity=0 time=26>\n",
      "<message note_on channel=3 note=60 velocity=80 time=34>\n",
      "<message note_on channel=3 note=60 velocity=0 time=25>\n",
      "<message note_on channel=3 note=48 velocity=89 time=35>\n",
      "<message note_on channel=3 note=48 velocity=0 time=26>\n",
      "<message note_on channel=3 note=60 velocity=85 time=34>\n",
      "<message note_on channel=3 note=60 velocity=0 time=26>\n",
      "<message note_on channel=3 note=48 velocity=82 time=34>\n",
      "<message note_on channel=3 note=48 velocity=0 time=125>\n",
      "<message note_on channel=3 note=48 velocity=91 time=295>\n",
      "<message note_on channel=3 note=48 velocity=0 time=31>\n",
      "<message note_on channel=3 note=36 velocity=95 time=29>\n",
      "<message note_on channel=3 note=36 velocity=0 time=38>\n",
      "<message note_on channel=3 note=48 velocity=85 time=22>\n",
      "<message note_on channel=3 note=48 velocity=0 time=30>\n",
      "<message note_on channel=3 note=36 velocity=91 time=30>\n",
      "<message note_on channel=3 note=36 velocity=0 time=36>\n",
      "<message note_on channel=3 note=48 velocity=82 time=24>\n",
      "<message note_on channel=3 note=48 velocity=0 time=28>\n",
      "<message note_on channel=3 note=36 velocity=93 time=32>\n",
      "<message note_on channel=3 note=48 velocity=91 time=120>\n",
      "<message note_on channel=3 note=36 velocity=0 time=15>\n",
      "<message note_on channel=3 note=48 velocity=0 time=89>\n",
      "<message note_on channel=3 note=36 velocity=93 time=76>\n",
      "<message note_on channel=3 note=36 velocity=0 time=60>\n",
      "<message note_on channel=3 note=38 velocity=85 time=0>\n",
      "<message note_on channel=3 note=50 velocity=100 time=120>\n",
      "<message note_on channel=3 note=38 velocity=0 time=1>\n",
      "<message note_on channel=3 note=50 velocity=0 time=92>\n",
      "<message note_on channel=3 note=38 velocity=100 time=87>\n",
      "<message note_on channel=3 note=38 velocity=0 time=57>\n",
      "<message note_on channel=3 note=40 velocity=89 time=3>\n",
      "<message note_on channel=3 note=52 velocity=85 time=120>\n",
      "<message note_on channel=3 note=40 velocity=0 time=2>\n",
      "<message note_on channel=3 note=52 velocity=0 time=102>\n",
      "<message note_on channel=3 note=40 velocity=89 time=76>\n",
      "<message note_on channel=3 note=40 velocity=0 time=60>\n",
      "<message note_on channel=3 note=41 velocity=89 time=0>\n",
      "<message note_on channel=3 note=53 velocity=98 time=120>\n",
      "<message note_on channel=3 note=41 velocity=0 time=4>\n",
      "<message note_on channel=3 note=53 velocity=0 time=98>\n",
      "<message note_on channel=3 note=50 velocity=100 time=78>\n",
      "<message note_on channel=3 note=55 velocity=89 time=60>\n",
      "<message note_on channel=3 note=50 velocity=0 time=1>\n",
      "<message note_on channel=3 note=43 velocity=95 time=119>\n",
      "<message note_on channel=3 note=55 velocity=0 time=4>\n",
      "<message note_on channel=3 note=43 velocity=0 time=976>\n",
      "<message note_on channel=3 note=50 velocity=100 time=40>\n",
      "<message note_on channel=3 note=52 velocity=85 time=60>\n",
      "<message note_on channel=3 note=50 velocity=0 time=1>\n",
      "<message note_on channel=3 note=54 velocity=95 time=59>\n",
      "<message note_on channel=3 note=52 velocity=0 time=8>\n",
      "<message note_on channel=3 note=54 velocity=0 time=51>\n",
      "<message note_on channel=3 note=55 velocity=85 time=1>\n",
      "<message note_on channel=3 note=47 velocity=91 time=60>\n",
      "<message note_on channel=3 note=55 velocity=0 time=2>\n",
      "<message note_on channel=3 note=48 velocity=89 time=58>\n",
      "<message note_on channel=3 note=47 velocity=0 time=2>\n",
      "<message note_on channel=3 note=52 velocity=89 time=58>\n",
      "<message note_on channel=3 note=48 velocity=0 time=6>\n",
      "<message note_on channel=3 note=54 velocity=91 time=54>\n",
      "<message note_on channel=3 note=52 velocity=0 time=9>\n",
      "<message note_on channel=3 note=54 velocity=0 time=50>\n",
      "<message note_on channel=3 note=55 velocity=89 time=1>\n",
      "<message note_on channel=3 note=57 velocity=85 time=60>\n",
      "<message note_on channel=3 note=55 velocity=0 time=3>\n",
      "<message note_on channel=3 note=48 velocity=98 time=57>\n",
      "<message note_on channel=3 note=57 velocity=0 time=10>\n",
      "<message note_on channel=3 note=50 velocity=89 time=50>\n",
      "<message note_on channel=3 note=48 velocity=0 time=7>\n",
      "<message note_on channel=3 note=54 velocity=91 time=53>\n",
      "<message note_on channel=3 note=50 velocity=0 time=6>\n",
      "<message note_on channel=3 note=55 velocity=87 time=54>\n",
      "<message note_on channel=3 note=54 velocity=0 time=1>\n",
      "<message note_on channel=3 note=57 velocity=70 time=59>\n",
      "<message note_on channel=3 note=55 velocity=0 time=2>\n",
      "<message note_on channel=3 note=59 velocity=87 time=58>\n",
      "<message note_on channel=3 note=57 velocity=0 time=6>\n",
      "<message note_on channel=3 note=50 velocity=95 time=54>\n",
      "<message note_on channel=3 note=59 velocity=0 time=7>\n",
      "<message note_on channel=3 note=52 velocity=89 time=53>\n",
      "<message note_on channel=3 note=50 velocity=0 time=7>\n",
      "<message note_on channel=3 note=55 velocity=89 time=53>\n",
      "<message note_on channel=3 note=52 velocity=0 time=7>\n",
      "<message note_on channel=3 note=57 velocity=85 time=53>\n",
      "<message note_on channel=3 note=55 velocity=0 time=8>\n",
      "<message note_on channel=3 note=57 velocity=0 time=52>\n",
      "<message note_on channel=3 note=59 velocity=72 time=0>\n",
      "<message note_on channel=3 note=60 velocity=91 time=60>\n",
      "<message note_on channel=3 note=59 velocity=0 time=2>\n",
      "<message note_on channel=3 note=52 velocity=95 time=58>\n",
      "<message note_on channel=3 note=60 velocity=0 time=4>\n",
      "<message note_on channel=3 note=52 velocity=0 time=56>\n",
      "<message note_on channel=3 note=54 velocity=91 time=0>\n",
      "<message note_on channel=3 note=50 velocity=85 time=60>\n",
      "<message note_on channel=3 note=54 velocity=0 time=2>\n",
      "<message note_on channel=3 note=55 velocity=85 time=58>\n",
      "<message note_on channel=3 note=50 velocity=0 time=1>\n",
      "<message note_on channel=3 note=48 velocity=89 time=59>\n",
      "<message note_on channel=3 note=55 velocity=0 time=4>\n",
      "<message note_on channel=3 note=50 velocity=72 time=56>\n",
      "<message note_on channel=3 note=48 velocity=0 time=4>\n",
      "<message note_on channel=3 note=50 velocity=0 time=52>\n",
      "<message note_on channel=3 note=38 velocity=87 time=4>\n",
      "<message note_on channel=3 note=43 velocity=91 time=60>\n",
      "<message note_on channel=3 note=38 velocity=0 time=9>\n",
      "<message note_on channel=3 note=43 velocity=0 time=108>\n",
      "<message note_on channel=3 note=55 velocity=100 time=303>\n",
      "<message note_on channel=3 note=55 velocity=0 time=26>\n",
      "<message note_on channel=3 note=43 velocity=98 time=34>\n",
      "<message note_on channel=3 note=43 velocity=0 time=28>\n",
      "<message note_on channel=3 note=55 velocity=89 time=32>\n",
      "<message note_on channel=3 note=55 velocity=0 time=28>\n",
      "<message note_on channel=3 note=43 velocity=95 time=32>\n",
      "<message note_on channel=3 note=43 velocity=0 time=31>\n",
      "<message note_on channel=3 note=55 velocity=85 time=29>\n",
      "<message note_on channel=3 note=55 velocity=0 time=31>\n",
      "<message note_on channel=3 note=43 velocity=93 time=29>\n",
      "<message note_on channel=3 note=43 velocity=0 time=118>\n",
      "<message note_on channel=3 note=55 velocity=85 time=302>\n",
      "<message note_on channel=3 note=55 velocity=0 time=34>\n",
      "<message note_on channel=3 note=43 velocity=95 time=26>\n",
      "<message note_on channel=3 note=43 velocity=0 time=37>\n",
      "<message note_on channel=3 note=55 velocity=89 time=23>\n",
      "<message note_on channel=3 note=55 velocity=0 time=33>\n",
      "<message note_on channel=3 note=43 velocity=100 time=27>\n",
      "<message note_on channel=3 note=43 velocity=0 time=29>\n",
      "<message note_on channel=3 note=55 velocity=87 time=31>\n",
      "<message note_on channel=3 note=55 velocity=0 time=32>\n",
      "<message note_on channel=3 note=43 velocity=89 time=28>\n",
      "<message note_on channel=3 note=43 velocity=0 time=117>\n",
      "<message note_on channel=3 note=55 velocity=91 time=3>\n",
      "<message note_on channel=3 note=55 velocity=0 time=111>\n",
      "<message note_on channel=3 note=43 velocity=98 time=69>\n",
      "<message note_on channel=3 note=45 velocity=87 time=60>\n",
      "<message note_on channel=3 note=43 velocity=0 time=5>\n",
      "<message note_on channel=3 note=57 velocity=87 time=115>\n",
      "<message note_on channel=3 note=45 velocity=0 time=2>\n",
      "<message note_on channel=3 note=57 velocity=0 time=105>\n",
      "<message note_on channel=3 note=45 velocity=93 time=73>\n",
      "<message note_on channel=3 note=45 velocity=0 time=60>\n",
      "<message note_on channel=3 note=47 velocity=87 time=0>\n",
      "<message note_on channel=3 note=47 velocity=0 time=118>\n",
      "<message note_on channel=3 note=59 velocity=74 time=2>\n",
      "<message note_on channel=3 note=59 velocity=0 time=106>\n",
      "<message note_on channel=3 note=47 velocity=91 time=74>\n",
      "<message note_on channel=3 note=48 velocity=95 time=60>\n",
      "<message note_on channel=3 note=47 velocity=0 time=2>\n",
      "<message note_on channel=3 note=60 velocity=82 time=118>\n",
      "<message note_on channel=3 note=48 velocity=0 time=3>\n",
      "<message note_on channel=3 note=60 velocity=0 time=103>\n",
      "<message note_on channel=3 note=57 velocity=85 time=74>\n",
      "<message note_on channel=3 note=62 velocity=82 time=60>\n",
      "<message note_on channel=3 note=57 velocity=0 time=8>\n",
      "<message note_on channel=3 note=62 velocity=0 time=103>\n",
      "<message note_on channel=3 note=50 velocity=95 time=9>\n",
      "<message note_on channel=3 note=50 velocity=0 time=1018>\n",
      "<message note_on channel=3 note=54 velocity=110 time=2>\n",
      "<message note_on channel=3 note=55 velocity=89 time=60>\n",
      "<message note_on channel=3 note=54 velocity=0 time=2>\n",
      "<message note_on channel=3 note=57 velocity=80 time=58>\n",
      "<message note_on channel=3 note=55 velocity=0 time=1>\n",
      "<message note_on channel=3 note=57 velocity=0 time=58>\n",
      "<message note_on channel=3 note=59 velocity=85 time=1>\n",
      "<message note_on channel=3 note=50 velocity=91 time=60>\n",
      "<message note_on channel=3 note=59 velocity=0 time=6>\n",
      "<message note_on channel=3 note=52 velocity=91 time=54>\n",
      "<message note_on channel=3 note=50 velocity=0 time=7>\n",
      "<message note_on channel=3 note=55 velocity=89 time=53>\n",
      "<message note_on channel=3 note=52 velocity=0 time=8>\n",
      "<message note_on channel=3 note=57 velocity=85 time=52>\n",
      "<message note_on channel=3 note=55 velocity=0 time=2>\n",
      "<message note_on channel=3 note=59 velocity=82 time=58>\n",
      "<message note_on channel=3 note=57 velocity=0 time=2>\n",
      "<message note_on channel=3 note=60 velocity=85 time=58>\n",
      "<message note_on channel=3 note=59 velocity=0 time=2>\n",
      "<message note_on channel=3 note=54 velocity=80 time=58>\n",
      "<message note_on channel=3 note=60 velocity=0 time=2>\n",
      "<message note_on channel=3 note=55 velocity=82 time=58>\n",
      "<message note_on channel=3 note=54 velocity=0 time=3>\n",
      "<message note_on channel=3 note=47 velocity=93 time=57>\n",
      "<message note_on channel=3 note=55 velocity=0 time=4>\n",
      "<message note_on channel=3 note=48 velocity=89 time=56>\n",
      "<message note_on channel=3 note=47 velocity=0 time=7>\n",
      "<message note_on channel=3 note=50 velocity=89 time=53>\n",
      "<message note_on channel=3 note=48 velocity=0 time=12>\n",
      "<message note_on channel=3 note=50 velocity=0 time=48>\n",
      "<message note_on channel=3 note=52 velocity=82 time=0>\n",
      "<message note_on channel=3 note=43 velocity=93 time=60>\n",
      "<message note_on channel=3 note=52 velocity=0 time=5>\n",
      "<message note_on channel=3 note=45 velocity=82 time=55>\n",
      "<message note_on channel=3 note=43 velocity=0 time=9>\n",
      "<message note_on channel=3 note=48 velocity=98 time=51>\n",
      "<message note_on channel=3 note=45 velocity=0 time=4>\n",
      "<message note_on channel=3 note=50 velocity=95 time=56>\n",
      "<message note_on channel=3 note=48 velocity=0 time=3>\n",
      "<message note_on channel=3 note=52 velocity=82 time=57>\n",
      "<message note_on channel=3 note=50 velocity=0 time=4>\n",
      "<message note_on channel=3 note=52 velocity=0 time=56>\n",
      "<message note_on channel=3 note=53 velocity=91 time=0>\n",
      "<message note_on channel=3 note=47 velocity=91 time=60>\n",
      "<message note_on channel=3 note=53 velocity=0 time=2>\n",
      "<message note_on channel=3 note=47 velocity=0 time=57>\n",
      "<message note_on channel=3 note=48 velocity=85 time=1>\n",
      "<message note_on channel=3 note=48 velocity=0 time=26>\n",
      "<message note_on channel=3 note=48 velocity=89 time=34>\n",
      "<message note_on channel=3 note=48 velocity=0 time=26>\n",
      "<message note_on channel=3 note=36 velocity=100 time=34>\n",
      "<message note_on channel=3 note=36 velocity=0 time=33>\n",
      "<message note_on channel=3 note=48 velocity=82 time=27>\n",
      "<message note_on channel=3 note=48 velocity=0 time=32>\n",
      "<message note_on channel=3 note=36 velocity=93 time=28>\n",
      "<message note_on channel=3 note=36 velocity=0 time=38>\n",
      "<message note_on channel=3 note=48 velocity=89 time=22>\n",
      "<message note_on channel=3 note=48 velocity=0 time=34>\n",
      "<message note_on channel=3 note=38 velocity=93 time=26>\n",
      "<message note_on channel=3 note=38 velocity=0 time=40>\n",
      "<message note_on channel=3 note=50 velocity=87 time=20>\n",
      "<message note_on channel=3 note=50 velocity=0 time=34>\n",
      "<message note_on channel=3 note=38 velocity=87 time=26>\n",
      "<message note_on channel=3 note=38 velocity=0 time=42>\n",
      "<message note_on channel=3 note=50 velocity=70 time=18>\n",
      "<message note_on channel=3 note=50 velocity=0 time=36>\n",
      "<message note_on channel=3 note=38 velocity=98 time=24>\n",
      "<message note_on channel=3 note=38 velocity=0 time=50>\n",
      "<message note_on channel=3 note=50 velocity=91 time=10>\n",
      "<message note_on channel=3 note=50 velocity=0 time=30>\n",
      "<message note_on channel=3 note=40 velocity=98 time=30>\n",
      "<message note_on channel=3 note=40 velocity=0 time=44>\n",
      "<message note_on channel=3 note=52 velocity=87 time=16>\n",
      "<message note_on channel=3 note=52 velocity=0 time=36>\n",
      "<message note_on channel=3 note=40 velocity=91 time=24>\n",
      "<message note_on channel=3 note=40 velocity=0 time=44>\n",
      "<message note_on channel=3 note=52 velocity=82 time=16>\n",
      "<message note_on channel=3 note=52 velocity=0 time=37>\n",
      "<message note_on channel=3 note=40 velocity=91 time=23>\n",
      "<message note_on channel=3 note=40 velocity=0 time=39>\n",
      "<message note_on channel=3 note=52 velocity=85 time=21>\n",
      "<message note_on channel=3 note=52 velocity=0 time=33>\n",
      "<message note_on channel=3 note=41 velocity=102 time=27>\n",
      "<message note_on channel=3 note=41 velocity=0 time=1455>\n",
      "<message note_on channel=3 note=53 velocity=93 time=45>\n",
      "<message note_on channel=3 note=53 velocity=0 time=31>\n",
      "<message note_on channel=3 note=50 velocity=95 time=29>\n",
      "<message note_on channel=3 note=50 velocity=0 time=30>\n",
      "<message note_on channel=3 note=53 velocity=89 time=30>\n",
      "<message note_on channel=3 note=53 velocity=0 time=33>\n",
      "<message note_on channel=3 note=47 velocity=89 time=27>\n",
      "<message note_on channel=3 note=47 velocity=0 time=39>\n",
      "<message note_on channel=3 note=50 velocity=89 time=21>\n",
      "<message note_on channel=3 note=50 velocity=0 time=34>\n",
      "<message note_on channel=3 note=40 velocity=91 time=26>\n",
      "<message note_on channel=3 note=40 velocity=0 time=43>\n",
      "<message note_on channel=3 note=52 velocity=93 time=17>\n",
      "<message note_on channel=3 note=52 velocity=0 time=45>\n",
      "<message note_on channel=3 note=48 velocity=91 time=15>\n",
      "<message note_on channel=3 note=48 velocity=0 time=41>\n",
      "<message note_on channel=3 note=52 velocity=82 time=19>\n",
      "<message note_on channel=3 note=52 velocity=0 time=41>\n",
      "<message note_on channel=3 note=45 velocity=87 time=19>\n",
      "<message note_on channel=3 note=45 velocity=0 time=38>\n",
      "<message note_on channel=3 note=48 velocity=82 time=22>\n",
      "<message note_on channel=3 note=48 velocity=0 time=41>\n",
      "<message note_on channel=3 note=38 velocity=95 time=19>\n",
      "<message note_on channel=3 note=38 velocity=0 time=42>\n",
      "<message note_on channel=3 note=50 velocity=89 time=18>\n",
      "<message note_on channel=3 note=50 velocity=0 time=42>\n",
      "<message note_on channel=3 note=47 velocity=95 time=18>\n",
      "<message note_on channel=3 note=47 velocity=0 time=48>\n",
      "<message note_on channel=3 note=50 velocity=89 time=12>\n",
      "<message note_on channel=3 note=50 velocity=0 time=42>\n",
      "<message note_on channel=3 note=43 velocity=87 time=18>\n",
      "<message note_on channel=3 note=43 velocity=0 time=46>\n",
      "<message note_on channel=3 note=47 velocity=85 time=14>\n",
      "<message note_on channel=3 note=47 velocity=0 time=36>\n",
      "<message note_on channel=3 note=36 velocity=100 time=24>\n",
      "<message note_on channel=3 note=36 velocity=0 time=1462>\n",
      "<message note_on channel=3 note=43 velocity=100 time=38>\n",
      "<message note_on channel=3 note=43 velocity=0 time=60>\n",
      "<message note_on channel=3 note=45 velocity=82 time=0>\n",
      "<message note_on channel=3 note=47 velocity=91 time=60>\n",
      "<message note_on channel=3 note=45 velocity=0 time=2>\n",
      "<message note_on channel=3 note=47 velocity=0 time=58>\n",
      "<message note_on channel=3 note=48 velocity=85 time=0>\n",
      "<message note_on channel=3 note=40 velocity=89 time=60>\n",
      "<message note_on channel=3 note=48 velocity=0 time=6>\n",
      "<message note_on channel=3 note=41 velocity=89 time=54>\n",
      "<message note_on channel=3 note=40 velocity=0 time=5>\n",
      "<message note_on channel=3 note=45 velocity=87 time=55>\n",
      "<message note_on channel=3 note=41 velocity=0 time=12>\n",
      "<message note_on channel=3 note=45 velocity=0 time=47>\n",
      "<message note_on channel=3 note=47 velocity=78 time=1>\n",
      "<message note_on channel=3 note=48 velocity=91 time=60>\n",
      "<message note_on channel=3 note=47 velocity=0 time=6>\n",
      "<message note_on channel=3 note=48 velocity=0 time=54>\n",
      "<message note_on channel=3 note=50 velocity=87 time=0>\n",
      "<message note_on channel=3 note=41 velocity=93 time=60>\n",
      "<message note_on channel=3 note=50 velocity=0 time=7>\n",
      "<message note_on channel=3 note=43 velocity=91 time=53>\n",
      "<message note_on channel=3 note=41 velocity=0 time=10>\n",
      "<message note_on channel=3 note=47 velocity=87 time=50>\n",
      "<message note_on channel=3 note=43 velocity=0 time=8>\n",
      "<message note_on channel=3 note=48 velocity=82 time=52>\n",
      "<message note_on channel=3 note=47 velocity=0 time=1>\n",
      "<message note_on channel=3 note=50 velocity=87 time=59>\n",
      "<message note_on channel=3 note=48 velocity=0 time=4>\n",
      "<message note_on channel=3 note=50 velocity=0 time=55>\n",
      "<message note_on channel=3 note=52 velocity=82 time=1>\n",
      "<message note_on channel=3 note=43 velocity=93 time=60>\n",
      "<message note_on channel=3 note=52 velocity=0 time=6>\n",
      "<message note_on channel=3 note=45 velocity=87 time=54>\n",
      "<message note_on channel=3 note=43 velocity=0 time=7>\n",
      "<message note_on channel=3 note=48 velocity=93 time=53>\n",
      "<message note_on channel=3 note=45 velocity=0 time=6>\n",
      "<message note_on channel=3 note=50 velocity=85 time=54>\n",
      "<message note_on channel=3 note=48 velocity=0 time=6>\n",
      "<message note_on channel=3 note=52 velocity=70 time=54>\n",
      "<message note_on channel=3 note=50 velocity=0 time=2>\n",
      "<message note_on channel=3 note=52 velocity=0 time=58>\n",
      "<message note_on channel=3 note=53 velocity=87 time=0>\n",
      "<message note_on channel=3 note=45 velocity=89 time=60>\n",
      "<message note_on channel=3 note=53 velocity=0 time=1>\n",
      "<message note_on channel=3 note=47 velocity=89 time=59>\n",
      "<message note_on channel=3 note=45 velocity=0 time=8>\n",
      "<message note_on channel=3 note=43 velocity=74 time=52>\n",
      "<message note_on channel=3 note=47 velocity=0 time=6>\n",
      "<message note_on channel=3 note=48 velocity=87 time=54>\n",
      "<message note_on channel=3 note=43 velocity=0 time=9>\n",
      "<message note_on channel=3 note=48 velocity=0 time=49>\n",
      "<message note_on channel=3 note=53 velocity=80 time=2>\n",
      "<message note_on channel=3 note=53 velocity=0 time=60>\n",
      "<message note_on channel=3 note=55 velocity=85 time=0>\n",
      "<message note_on channel=3 note=55 velocity=0 time=59>\n",
      "<message note_on channel=3 note=43 velocity=100 time=1>\n",
      "<message note_on channel=3 note=43 velocity=0 time=59>\n",
      "<message note_on channel=3 note=48 velocity=98 time=1>\n",
      "<message note_on channel=3 note=48 velocity=0 time=59>\n",
      "<message note_on channel=3 note=36 velocity=98 time=1>\n",
      "<message note_on channel=3 note=36 velocity=0 time=59>\n",
      "<meta message end_of_track time=0>\n",
      "=== Track 5\n",
      "<meta message midi_port port=0 time=0>\n",
      "<meta message track_name name='Trio Sonata #5- | J.S. Bach' time=0>\n",
      "<meta message end_of_track time=0>\n",
      "=== Track 6\n",
      "<meta message midi_port port=0 time=0>\n",
      "<meta message track_name name='Mvt. #1' time=0>\n",
      "<meta message end_of_track time=0>\n",
      "=== Track 7\n",
      "<meta message midi_port port=0 time=0>\n",
      "<meta message track_name name='Sequenced by | Lloyd Thompkins' time=0>\n",
      "<meta message end_of_track time=0>\n",
      "=== Track 8\n",
      "<meta message midi_port port=0 time=0>\n",
      "<meta message track_name name='Please View | Comments' time=0>\n",
      "<meta message end_of_track time=0>\n"
     ]
    }
   ],
   "source": [
    "mid.print_tracks()"
   ]
  },
  {
   "cell_type": "code",
   "execution_count": 35,
   "metadata": {},
   "outputs": [
    {
     "data": {
      "text/plain": [
       "245.59516849999946"
      ]
     },
     "execution_count": 35,
     "metadata": {},
     "output_type": "execute_result"
    }
   ],
   "source": [
    "mid.length"
   ]
  },
  {
   "cell_type": "code",
   "execution_count": 39,
   "metadata": {},
   "outputs": [
    {
     "ename": "AttributeError",
     "evalue": "'MidiTrack' object has no attribute 'play'",
     "output_type": "error",
     "traceback": [
      "\u001b[0;31m---------------------------------------------------------------------------\u001b[0m",
      "\u001b[0;31mAttributeError\u001b[0m                            Traceback (most recent call last)",
      "\u001b[0;32m<ipython-input-39-cc81f7ca8c8e>\u001b[0m in \u001b[0;36m<module>\u001b[0;34m()\u001b[0m\n\u001b[0;32m----> 1\u001b[0;31m \u001b[0;32mfor\u001b[0m \u001b[0mmsg\u001b[0m \u001b[0;32min\u001b[0m \u001b[0mmid\u001b[0m\u001b[0;34m.\u001b[0m\u001b[0mtracks\u001b[0m\u001b[0;34m[\u001b[0m\u001b[0;36m1\u001b[0m\u001b[0;34m]\u001b[0m\u001b[0;34m.\u001b[0m\u001b[0mplay\u001b[0m\u001b[0;34m(\u001b[0m\u001b[0;34m)\u001b[0m\u001b[0;34m:\u001b[0m\u001b[0;34m\u001b[0m\u001b[0m\n\u001b[0m\u001b[1;32m      2\u001b[0m     \u001b[0mout\u001b[0m\u001b[0;34m.\u001b[0m\u001b[0msend\u001b[0m\u001b[0;34m(\u001b[0m\u001b[0mmsg\u001b[0m\u001b[0;34m)\u001b[0m\u001b[0;34m\u001b[0m\u001b[0m\n",
      "\u001b[0;31mAttributeError\u001b[0m: 'MidiTrack' object has no attribute 'play'"
     ]
    }
   ],
   "source": [
    "for msg in mid.tracks[1].play():\n",
    "    out.send(msg)"
   ]
  },
  {
   "cell_type": "code",
   "execution_count": 48,
   "metadata": {},
   "outputs": [],
   "source": [
    "import time\n",
    "i = 0\n",
    "for msg in myplay(mid):\n",
    "    out.send(msg)\n",
    "#    time.sleep(msg.time)\n",
    "    i += 1\n",
    "    if i == 100:\n",
    "        break"
   ]
  },
  {
   "cell_type": "code",
   "execution_count": 53,
   "metadata": {},
   "outputs": [],
   "source": [
    "def myplay(m):\n",
    "    for msg in m:\n",
    "        time.sleep(msg.time)\n",
    "        yield msg"
   ]
  },
  {
   "cell_type": "code",
   "execution_count": 52,
   "metadata": {},
   "outputs": [],
   "source": [
    "def mygen(m):\n",
    "    for msg in m:\n",
    "        yield msg"
   ]
  },
  {
   "cell_type": "code",
   "execution_count": 54,
   "metadata": {},
   "outputs": [],
   "source": [
    "midi_list = [msg for msg in mygen(mid)]"
   ]
  },
  {
   "cell_type": "code",
   "execution_count": 55,
   "metadata": {},
   "outputs": [
    {
     "data": {
      "text/plain": [
       "2767"
      ]
     },
     "execution_count": 55,
     "metadata": {},
     "output_type": "execute_result"
    }
   ],
   "source": [
    "len(midi_list)"
   ]
  },
  {
   "cell_type": "code",
   "execution_count": 60,
   "metadata": {},
   "outputs": [],
   "source": [
    "def play_seq(i):\n",
    "    for m in myplay(midi_list[i*100:(i+1)*100-1]):\n",
    "        out.send(m)"
   ]
  },
  {
   "cell_type": "code",
   "execution_count": 64,
   "metadata": {},
   "outputs": [],
   "source": [
    "for i in [27]:\n",
    "    play_seq(i)"
   ]
  },
  {
   "cell_type": "code",
   "execution_count": null,
   "metadata": {},
   "outputs": [],
   "source": []
  },
  {
   "cell_type": "code",
   "execution_count": 42,
   "metadata": {},
   "outputs": [],
   "source": [
    "out.send(msg)"
   ]
  },
  {
   "cell_type": "code",
   "execution_count": null,
   "metadata": {},
   "outputs": [],
   "source": []
  }
 ],
 "metadata": {
  "kernelspec": {
   "display_name": "Python 3",
   "language": "python",
   "name": "python3"
  },
  "language_info": {
   "codemirror_mode": {
    "name": "ipython",
    "version": 3
   },
   "file_extension": ".py",
   "mimetype": "text/x-python",
   "name": "python",
   "nbconvert_exporter": "python",
   "pygments_lexer": "ipython3",
   "version": "3.6.3"
  }
 },
 "nbformat": 4,
 "nbformat_minor": 2
}
